<svg viewBox="0 0 10000 10000" xmlns="http://www.w3.org/2000/svg">
<path d="M0,0 l10000,0 l0,10000 l-10000,0 z" fill="white"/>
<path d="M4157,9642 l357,0 l0,179 l-357,0 z" fill="#7f00ff" stroke="black" stroke-width="5"/>
<path d="M0,7282 l1006,0 l0,947 l-1006,0 z" fill="#2900ff" stroke="black" stroke-width="5"/>
<path d="M1481,4865 l755,0 l0,378 l-755,0 z" fill="#7f00ff" stroke="black" stroke-width="5"/>
<path d="M1725,576 l1287,0 l0,542 l-1287,0 z" fill="#6000ff" stroke="black" stroke-width="5"/>
<path d="M1884,560 l1247,0 l0,400 l-1247,0 z" fill="#3b00ff" stroke="black" stroke-width="5"/>
<path d="M6107,7283 l853,0 l0,427 l-853,0 z" fill="#8000ff" stroke="black" stroke-width="5"/>
<path d="M5994,890 l1493,0 l0,454 l-1493,0 z" fill="#3500ff" stroke="black" stroke-width="5"/>
<path d="M544,4740 l1849,0 l0,925 l-1849,0 z" fill="#7f00ff" stroke="black" stroke-width="5"/>
<path d="M7559,6533 l1475,0 l0,738 l-1475,0 z" fill="#7f00ff" stroke="black" stroke-width="5"/>
<path d="M5623,578 l175,0 l0,88 l-175,0 z" fill="#7f00ff" stroke="black" stroke-width="5"/>
<path d="M2056,1920 l2377,0 l0,411 l-2377,0 z" fill="#1200ff" stroke="black" stroke-width="5"/>
<path d="M796,9095 l407,0 l0,204 l-407,0 z" fill="#7f00ff" stroke="black" stroke-width="5"/>
<path d="M7343,3986 l2079,0 l0,1040 l-2079,0 z" fill="#7f00ff" stroke="black" stroke-width="5"/>
<path d="M3452,7884 l553,0 l0,277 l-553,0 z" fill="#8000ff" stroke="black" stroke-width="5"/>
<path d="M6674,8467 l87,0 l0,44 l-87,0 z" fill="#8400ff" stroke="black" stroke-width="5"/>
<path d="M2632,4708 l1639,0 l0,820 l-1639,0 z" fill="#7f00ff" stroke="black" stroke-width="5"/>
<path d="M4130,4731 l1107,0 l0,554 l-1107,0 z" fill="#7f00ff" stroke="black" stroke-width="5"/>
<path d="M9497,9709 l289,0 l0,145 l-289,0 z" fill="#8100ff" stroke="black" stroke-width="5"/>
<path d="M1800,599 l241,0 l0,121 l-241,0 z" fill="#8000ff" stroke="black" stroke-width="5"/>
<path d="M5005,5381 l1117,0 l0,559 l-1117,0 z" fill="#7f00ff" stroke="black" stroke-width="5"/>
<path d="M6952,3458 l909,0 l0,455 l-909,0 z" fill="#7f00ff" stroke="black" stroke-width="5"/>
<path d="M2017,2454 l417,0 l0,209 l-417,0 z" fill="#8000ff" stroke="black" stroke-width="5"/>
<path d="M7935,4859 l1059,0 l0,530 l-1059,0 z" fill="#7f00ff" stroke="black" stroke-width="5"/>
<path d="M3925,5609 l1727,0 l0,864 l-1727,0 z" fill="#7f00ff" stroke="black" stroke-width="5"/>
<path d="M780,8005 l1341,0 l0,671 l-1341,0 z" fill="#7f00ff" stroke="black" stroke-width="5"/>
<path d="M2736,4817 l1323,0 l0,662 l-1323,0 z" fill="#7f00ff" stroke="black" stroke-width="5"/>
<path d="M6646,7300 l1467,0 l0,734 l-1467,0 z" fill="#7f00ff" stroke="black" stroke-width="5"/>
<path d="M440,7747 l1007,0 l0,504 l-1007,0 z" fill="#8000ff" stroke="black" stroke-width="5"/>
<path d="M4908,3509 l1479,0 l0,740 l-1479,0 z" fill="#7f00ff" stroke="black" stroke-width="5"/>
<path d="M2339,8444 l1751,0 l0,876 l-1751,0 z" fill="#7f00ff" stroke="black" stroke-width="5"/>
<path d="M5642,5760 l453,0 l0,192 l-453,0 z" fill="#6100ff" stroke="black" stroke-width="5"/>
<path d="M6776,7985 l481,0 l0,241 l-481,0 z" fill="#8000ff" stroke="black" stroke-width="5"/>
<path d="M4459,5766 l1513,0 l0,570 l-1513,0 z" fill="#4f00ff" stroke="black" stroke-width="5"/>
<path d="M5027,1125 l1297,0 l0,649 l-1297,0 z" fill="#7f00ff" stroke="black" stroke-width="5"/>
<path d="M3435,1486 l1999,0 l0,1000 l-1999,0 z" fill="#7f00ff" stroke="black" stroke-width="5"/>
<path d="M0,4847 l1067,0 l0,934 l-1067,0 z" fill="#2f00ff" stroke="black" stroke-width="5"/>
<path d="M4048,3800 l2151,0 l0,1076 l-2151,0 z" fill="#7f00ff" stroke="black" stroke-width="5"/>
<path d="M3938,1993 l1005,0 l0,503 l-1005,0 z" fill="#7f00ff" stroke="black" stroke-width="5"/>
<path d="M8056,3048 l1944,0 l0,990 l-1944,0 z" fill="#7b00ff" stroke="black" stroke-width="5"/>
<path d="M7747,3224 l2253,0 l0,1244 l-2253,0 z" fill="#6c00ff" stroke="black" stroke-width="5"/>
<path d="M3943,541 l2467,0 l0,1234 l-2467,0 z" fill="#7f00ff" stroke="black" stroke-width="5"/>
<path d="M7539,7872 l1205,0 l0,192 l-1205,0 z" fill="#0f00ff" stroke="black" stroke-width="5"/>
<path d="M894,6928 l1663,0 l0,832 l-1663,0 z" fill="#7f00ff" stroke="black" stroke-width="5"/>
<path d="M2911,6632 l1999,0 l0,1000 l-1999,0 z" fill="#7f00ff" stroke="black" stroke-width="5"/>
<path d="M6934,9097 l385,0 l0,193 l-385,0 z" fill="#8000ff" stroke="black" stroke-width="5"/>
<path d="M3405,3277 l747,0 l0,374 l-747,0 z" fill="#7f00ff" stroke="black" stroke-width="5"/>
<path d="M8571,9802 l131,0 l0,66 l-131,0 z" fill="#8100ff" stroke="black" stroke-width="5"/>
<path d="M7577,6875 l699,0 l0,350 l-699,0 z" fill="#7f00ff" stroke="black" stroke-width="5"/>
<path d="M1314,74 l2389,0 l0,1195 l-2389,0 z" fill="#7f00ff" stroke="black" stroke-width="5"/>
<path d="M701,5022 l529,0 l0,265 l-529,0 z" fill="#7f00ff" stroke="black" stroke-width="5"/>
<path d="M6419,4055 l489,0 l0,245 l-489,0 z" fill="#8000ff" stroke="black" stroke-width="5"/>
<path d="M1205,8406 l1317,0 l0,659 l-1317,0 z" fill="#7f00ff" stroke="black" stroke-width="5"/>
<path d="M4305,9790 l60,0 l0,60 l-60,0 z" fill="green"/>
<path d="M4335,9820 l0.5,-88.5" stroke="black" stroke-width="5"/>
<path d="M29,8198 l60,0 l0,60 l-60,0 z" fill="green"/>
<path d="M59,8228 l444,-472.5" stroke="black" stroke-width="5"/>
<path d="M1828,5212 l60,0 l0,60 l-60,0 z" fill="green"/>
<path d="M1858,5242 l0.5,-188" stroke="black" stroke-width="5"/>
<path d="M2338,1087 l60,0 l0,60 l-60,0 z" fill="green"/>
<path d="M2368,1117 l0.5,-270" stroke="black" stroke-width="5"/>
<path d="M2477,530 l60,0 l0,60 l-60,0 z" fill="green"/>
<path d="M2507,560 l0.5,200" stroke="black" stroke-width="5"/>
<path d="M6503,7679 l60,0 l0,60 l-60,0 z" fill="green"/>
<path d="M6533,7709 l0.5,-212.5" stroke="black" stroke-width="5"/>
<path d="M6710,860 l60,0 l0,60 l-60,0 z" fill="green"/>
<path d="M6740,890 l0.5,227" stroke="black" stroke-width="5"/>
<path d="M1438,5634 l60,0 l0,60 l-60,0 z" fill="green"/>
<path d="M1468,5664 l0.5,-461.5" stroke="black" stroke-width="5"/>
<path d="M8266,7240 l60,0 l0,60 l-60,0 z" fill="green"/>
<path d="M8296,7270 l0.5,-368" stroke="black" stroke-width="5"/>
<path d="M5680,548 l60,0 l0,60 l-60,0 z" fill="green"/>
<path d="M5710,578 l0.5,44" stroke="black" stroke-width="5"/>
<path d="M3214,2300 l60,0 l0,60 l-60,0 z" fill="green"/>
<path d="M3244,2330 l0.5,-204.5" stroke="black" stroke-width="5"/>
<path d="M969,9268 l60,0 l0,60 l-60,0 z" fill="green"/>
<path d="M999,9298 l0.5,-101" stroke="black" stroke-width="5"/>
<path d="M8352,4995 l60,0 l0,60 l-60,0 z" fill="green"/>
<path d="M8382,5025 l0.5,-519" stroke="black" stroke-width="5"/>
<path d="M3698,8130 l60,0 l0,60 l-60,0 z" fill="green"/>
<path d="M3728,8160 l0.5,-137.5" stroke="black" stroke-width="5"/>
<path d="M6687,8480 l60,0 l0,60 l-60,0 z" fill="green"/>
<path d="M6717,8510 l0.5,-21" stroke="black" stroke-width="5"/>
<path d="M3421,5497 l60,0 l0,60 l-60,0 z" fill="green"/>
<path d="M3451,5527 l0.5,-409" stroke="black" stroke-width="5"/>
<path d="M4653,5254 l60,0 l0,60 l-60,0 z" fill="green"/>
<path d="M4683,5284 l0.5,-276" stroke="black" stroke-width="5"/>
<path d="M9611,9823 l60,0 l0,60 l-60,0 z" fill="green"/>
<path d="M9641,9853 l0.5,-71.5" stroke="black" stroke-width="5"/>
<path d="M1890,569 l60,0 l0,60 l-60,0 z" fill="green"/>
<path d="M1920,599 l0.5,60.5" stroke="black" stroke-width="5"/>
<path d="M5533,5909 l60,0 l0,60 l-60,0 z" fill="green"/>
<path d="M5563,5939 l0.5,-278.5" stroke="black" stroke-width="5"/>
<path d="M7376,3428 l60,0 l0,60 l-60,0 z" fill="green"/>
<path d="M7406,3458 l0.5,227.5" stroke="black" stroke-width="5"/>
<path d="M2195,2424 l60,0 l0,60 l-60,0 z" fill="green"/>
<path d="M2225,2454 l0.5,104.5" stroke="black" stroke-width="5"/>
<path d="M8434,5358 l60,0 l0,60 l-60,0 z" fill="green"/>
<path d="M8464,5388 l0.5,-264" stroke="black" stroke-width="5"/>
<path d="M4758,6442 l60,0 l0,60 l-60,0 z" fill="green"/>
<path d="M4788,6472 l0.5,-431" stroke="black" stroke-width="5"/>
<path d="M1420,8645 l60,0 l0,60 l-60,0 z" fill="green"/>
<path d="M1450,8675 l0.5,-334.5" stroke="black" stroke-width="5"/>
<path d="M3367,5448 l60,0 l0,60 l-60,0 z" fill="green"/>
<path d="M3397,5478 l0.5,-330" stroke="black" stroke-width="5"/>
<path d="M7349,8003 l60,0 l0,60 l-60,0 z" fill="green"/>
<path d="M7379,8033 l0.5,-366" stroke="black" stroke-width="5"/>
<path d="M913,8220 l60,0 l0,60 l-60,0 z" fill="green"/>
<path d="M943,8250 l0.5,-251" stroke="black" stroke-width="5"/>
<path d="M5617,3479 l60,0 l0,60 l-60,0 z" fill="green"/>
<path d="M5647,3509 l0.5,370" stroke="black" stroke-width="5"/>
<path d="M3184,9289 l60,0 l0,60 l-60,0 z" fill="green"/>
<path d="M3214,9319 l0.5,-437" stroke="black" stroke-width="5"/>
<path d="M5838,5905 l60,0 l0,60 l-60,0 z" fill="green"/>
<path d="M5868,5935 l0.5,-79" stroke="black" stroke-width="5"/>
<path d="M6986,8195 l60,0 l0,60 l-60,0 z" fill="green"/>
<path d="M7016,8225 l0.5,-119.5" stroke="black" stroke-width="5"/>
<path d="M5185,5736 l60,0 l0,60 l-60,0 z" fill="green"/>
<path d="M5215,5766 l0.5,285" stroke="black" stroke-width="5"/>
<path d="M5645,1095 l60,0 l0,60 l-60,0 z" fill="green"/>
<path d="M5675,1125 l0.5,324.5" stroke="black" stroke-width="5"/>
<path d="M4404,1456 l60,0 l0,60 l-60,0 z" fill="green"/>
<path d="M4434,1486 l0.5,500" stroke="black" stroke-width="5"/>
<path d="M103,4817 l60,0 l0,60 l-60,0 z" fill="green"/>
<path d="M133,4847 l400.5,467" stroke="black" stroke-width="5"/>
<path d="M5093,3770 l60,0 l0,60 l-60,0 z" fill="green"/>
<path d="M5123,3800 l0.5,538" stroke="black" stroke-width="5"/>
<path d="M4410,1963 l60,0 l0,60 l-60,0 z" fill="green"/>
<path d="M4440,1993 l0.5,251.5" stroke="black" stroke-width="5"/>
<path d="M9015,3018 l60,0 l0,60 l-60,0 z" fill="green"/>
<path d="M9045,3048 l-17,495" stroke="black" stroke-width="5"/>
<path d="M8960,3194 l60,0 l0,60 l-60,0 z" fill="green"/>
<path d="M8990,3224 l-116.5,622" stroke="black" stroke-width="5"/>
<path d="M5146,511 l60,0 l0,60 l-60,0 z" fill="green"/>
<path d="M5176,541 l0.5,617" stroke="black" stroke-width="5"/>
<path d="M8111,7869 l60,0 l0,60 l-60,0 z" fill="green"/>
<path d="M8141,7899 l0.5,69" stroke="black" stroke-width="5"/>
<path d="M1695,6898 l60,0 l0,60 l-60,0 z" fill="green"/>
<path d="M1725,6928 l0.5,416" stroke="black" stroke-width="5"/>
<path d="M3880,6602 l60,0 l0,60 l-60,0 z" fill="green"/>
<path d="M3910,6632 l0.5,500" stroke="black" stroke-width="5"/>
<path d="M7096,9259 l60,0 l0,60 l-60,0 z" fill="green"/>
<path d="M7126,9289 l0.5,-95.5" stroke="black" stroke-width="5"/>
<path d="M3748,3247 l60,0 l0,60 l-60,0 z" fill="green"/>
<path d="M3778,3277 l0.5,187" stroke="black" stroke-width="5"/>
<path d="M8606,9837 l60,0 l0,60 l-60,0 z" fill="green"/>
<path d="M8636,9867 l0.5,-32" stroke="black" stroke-width="5"/>
<path d="M7896,6845 l60,0 l0,60 l-60,0 z" fill="green"/>
<path d="M7926,6875 l0.5,175" stroke="black" stroke-width="5"/>
<path d="M2478,44 l60,0 l0,60 l-60,0 z" fill="green"/>
<path d="M2508,74 l0.5,597.5" stroke="black" stroke-width="5"/>
<path d="M935,4992 l60,0 l0,60 l-60,0 z" fill="green"/>
<path d="M965,5022 l0.5,132.5" stroke="black" stroke-width="5"/>
<path d="M6633,4025 l60,0 l0,60 l-60,0 z" fill="green"/>
<path d="M6663,4055 l0.5,122.5" stroke="black" stroke-width="5"/>
<path d="M1833,8376 l60,0 l0,60 l-60,0 z" fill="green"/>
<path d="M1863,8406 l0.5,329.5" stroke="black" stroke-width="5"/>
<text font-size="196.116135138184" text-anchor="middle" x="4335.5" y="9800.140647298364">
0
</text>
<text font-size="196.116135138184" text-anchor="middle" x="503" y="7824.1406472983645">
1
</text>
<text font-size="196.116135138184" text-anchor="middle" x="1858.5" y="5122.6406472983645">
2
</text>
<text font-size="196.116135138184" text-anchor="middle" x="2368.5" y="915.6406472983645">
3
</text>
<text font-size="196.116135138184" text-anchor="middle" x="2507.5" y="828.6406472983645">
4
</text>
<text font-size="196.116135138184" text-anchor="middle" x="6533.5" y="7565.1406472983645">
5
</text>
<text font-size="196.116135138184" text-anchor="middle" x="6740.5" y="1185.6406472983645">
6
</text>
<text font-size="196.116135138184" text-anchor="middle" x="1468.5" y="5271.1406472983645">
7
</text>
<text font-size="196.116135138184" text-anchor="middle" x="8296.5" y="6970.6406472983645">
8
</text>
<text font-size="196.116135138184" text-anchor="middle" x="5710.5" y="690.6406472983645">
9
</text>
<text font-size="196.116135138184" text-anchor="middle" x="3244.5" y="2194.1406472983645">
10
</text>
<text font-size="196.116135138184" text-anchor="middle" x="999.5" y="9265.640647298364">
11
</text>
<text font-size="196.116135138184" text-anchor="middle" x="8382.5" y="4574.6406472983645">
12
</text>
<text font-size="196.116135138184" text-anchor="middle" x="3728.5" y="8091.1406472983645">
13
</text>
<text font-size="196.116135138184" text-anchor="middle" x="6717.5" y="8557.640647298364">
14
</text>
<text font-size="196.116135138184" text-anchor="middle" x="3451.5" y="5186.6406472983645">
15
</text>
<text font-size="196.116135138184" text-anchor="middle" x="4683.5" y="5076.6406472983645">
16
</text>
<text font-size="196.116135138184" text-anchor="middle" x="9641.5" y="9850.140647298364">
17
</text>
<text font-size="196.116135138184" text-anchor="middle" x="1920.5" y="728.1406472983645">
18
</text>
<text font-size="196.116135138184" text-anchor="middle" x="5563.5" y="5729.1406472983645">
19
</text>
<text font-size="196.116135138184" text-anchor="middle" x="7406.5" y="3754.1406472983645">
20
</text>
<text font-size="196.116135138184" text-anchor="middle" x="2225.5" y="2627.1406472983645">
21
</text>
<text font-size="196.116135138184" text-anchor="middle" x="8464.5" y="5192.6406472983645">
22
</text>
<text font-size="196.116135138184" text-anchor="middle" x="4788.5" y="6109.6406472983645">
23
</text>
<text font-size="196.116135138184" text-anchor="middle" x="1450.5" y="8409.140647298364">
24
</text>
<text font-size="196.116135138184" text-anchor="middle" x="3397.5" y="5216.6406472983645">
25
</text>
<text font-size="196.116135138184" text-anchor="middle" x="7379.5" y="7735.6406472983645">
26
</text>
<text font-size="196.116135138184" text-anchor="middle" x="943.5" y="8067.6406472983645">
27
</text>
<text font-size="196.116135138184" text-anchor="middle" x="5647.5" y="3947.6406472983645">
28
</text>
<text font-size="196.116135138184" text-anchor="middle" x="3214.5" y="8950.640647298364">
29
</text>
<text font-size="196.116135138184" text-anchor="middle" x="5868.5" y="5924.6406472983645">
30
</text>
<text font-size="196.116135138184" text-anchor="middle" x="7016.5" y="8174.1406472983645">
31
</text>
<text font-size="196.116135138184" text-anchor="middle" x="5215.5" y="6119.6406472983645">
32
</text>
<text font-size="196.116135138184" text-anchor="middle" x="5675.5" y="1518.1406472983645">
33
</text>
<text font-size="196.116135138184" text-anchor="middle" x="4434.5" y="2054.6406472983645">
34
</text>
<text font-size="196.116135138184" text-anchor="middle" x="533.5" y="5382.6406472983645">
35
</text>
<text font-size="196.116135138184" text-anchor="middle" x="5123.5" y="4406.6406472983645">
36
</text>
<text font-size="196.116135138184" text-anchor="middle" x="4440.5" y="2313.1406472983645">
37
</text>
<text font-size="196.116135138184" text-anchor="middle" x="9028" y="3611.6406472983645">
38
</text>
<text font-size="196.116135138184" text-anchor="middle" x="8873.5" y="3914.6406472983645">
39
</text>
<text font-size="196.116135138184" text-anchor="middle" x="5176.5" y="1226.6406472983645">
40
</text>
<text font-size="196.116135138184" text-anchor="middle" x="8141.5" y="8036.6406472983645">
41
</text>
<text font-size="196.116135138184" text-anchor="middle" x="1725.5" y="7412.6406472983645">
42
</text>
<text font-size="196.116135138184" text-anchor="middle" x="3910.5" y="7200.6406472983645">
43
</text>
<text font-size="196.116135138184" text-anchor="middle" x="7126.5" y="9262.140647298364">
44
</text>
<text font-size="196.116135138184" text-anchor="middle" x="3778.5" y="3532.6406472983645">
45
</text>
<text font-size="196.116135138184" text-anchor="middle" x="8636.5" y="9903.640647298364">
46
</text>
<text font-size="196.116135138184" text-anchor="middle" x="7926.5" y="7118.6406472983645">
47
</text>
<text font-size="196.116135138184" text-anchor="middle" x="2508.5" y="740.1406472983645">
48
</text>
<text font-size="196.116135138184" text-anchor="middle" x="965.5" y="5223.1406472983645">
49
</text>
<text font-size="196.116135138184" text-anchor="middle" x="6663.5" y="4246.1406472983645">
50
</text>
<text font-size="196.116135138184" text-anchor="middle" x="1863.5" y="8804.140647298364">
51
</text>
</svg>