<svg viewBox="0 0 10000 10000" xmlns="http://www.w3.org/2000/svg">
<path d="M0,0 l10000,0 l0,10000 l-10000,0 z" fill="white"/>
<path d="M9375,6875 l625,0 l0,625 l-625,0 z" fill="#0d00ff" stroke="black" stroke-width="5"/>
<path d="M7500,6250 l1250,0 l0,1250 l-1250,0 z" fill="#ff00e2" stroke="black" stroke-width="5"/>
<path d="M625,7187 l312,0 l0,313 l-312,0 z" fill="#0000ff" stroke="black" stroke-width="5"/>
<path d="M0,1250 l312,0 l0,312 l-312,0 z" fill="#0000ff" stroke="black" stroke-width="5"/>
<path d="M0,1562 l312,0 l0,313 l-312,0 z" fill="#0000ff" stroke="black" stroke-width="5"/>
<path d="M1171,6953 l79,0 l0,78 l-79,0 z" fill="#0400ff" stroke="black" stroke-width="5"/>
<path d="M9375,625 l625,0 l0,625 l-625,0 z" fill="#0500ff" stroke="black" stroke-width="5"/>
<path d="M625,8593 l156,0 l0,157 l-156,0 z" fill="#0000ff" stroke="black" stroke-width="5"/>
<path d="M6250,1250 l625,0 l0,625 l-625,0 z" fill="#0500ff" stroke="black" stroke-width="5"/>
<path d="M2500,3125 l625,0 l0,625 l-625,0 z" fill="#1500ff" stroke="black" stroke-width="5"/>
<path d="M0,2500 l1250,0 l0,1250 l-1250,0 z" fill="#ff00c4" stroke="black" stroke-width="5"/>
<path d="M6250,1875 l625,0 l0,625 l-625,0 z" fill="#0500ff" stroke="black" stroke-width="5"/>
<path d="M3750,0 l1250,0 l0,1250 l-1250,0 z" fill="#ff00e0" stroke="black" stroke-width="5"/>
<path d="M6250,8750 l1250,0 l0,1250 l-1250,0 z" fill="#5900ff" stroke="black" stroke-width="5"/>
<path d="M8750,625 l312,0 l0,312 l-312,0 z" fill="#0000ff" stroke="black" stroke-width="5"/>
<path d="M7500,8750 l1250,0 l0,1250 l-1250,0 z" fill="#ff000d" stroke="black" stroke-width="5"/>
<path d="M0,6250 l625,0 l0,625 l-625,0 z" fill="#0500ff" stroke="black" stroke-width="5"/>
<path d="M9375,8125 l625,0 l0,625 l-625,0 z" fill="#4c00ff" stroke="black" stroke-width="5"/>
<path d="M3437,2968 l156,0 l0,157 l-156,0 z" fill="#0000ff" stroke="black" stroke-width="5"/>
<path d="M3593,2968 l157,0 l0,157 l-157,0 z" fill="#0000ff" stroke="black" stroke-width="5"/>
<path d="M2187,3750 l156,0 l0,156 l-156,0 z" fill="#0100ff" stroke="black" stroke-width="5"/>
<path d="M2500,1250 l625,0 l0,625 l-625,0 z" fill="#ff0000" stroke="black" stroke-width="5"/>
<path d="M9375,7500 l312,0 l0,312 l-312,0 z" fill="#0a00ff" stroke="black" stroke-width="5"/>
<path d="M3125,1250 l625,0 l0,625 l-625,0 z" fill="#8a00ff" stroke="black" stroke-width="5"/>
<path d="M9218,1093 l157,0 l0,157 l-157,0 z" fill="#0000ff" stroke="black" stroke-width="5"/>
<path d="M4062,8906 l78,0 l0,78 l-78,0 z" fill="#0000ff" stroke="black" stroke-width="5"/>
<path d="M5000,2500 l625,0 l0,625 l-625,0 z" fill="#2a00ff" stroke="black" stroke-width="5"/>
<path d="M2187,3906 l156,0 l0,156 l-156,0 z" fill="#0000ff" stroke="black" stroke-width="5"/>
<path d="M7500,0 l1250,0 l0,1250 l-1250,0 z" fill="#ff00aa" stroke="black" stroke-width="5"/>
<path d="M5000,3750 l1250,0 l0,1250 l-1250,0 z" fill="#ff0000" stroke="black" stroke-width="5"/>
<path d="M9062,937 l156,0 l0,156 l-156,0 z" fill="#0000ff" stroke="black" stroke-width="5"/>
<path d="M1875,5625 l625,0 l0,625 l-625,0 z" fill="#4000ff" stroke="black" stroke-width="5"/>
<path d="M5000,6875 l625,0 l0,625 l-625,0 z" fill="#fd00ff" stroke="black" stroke-width="5"/>
<path d="M6250,7500 l625,0 l0,625 l-625,0 z" fill="#0200ff" stroke="black" stroke-width="5"/>
<path d="M0,3750 l1250,0 l0,1250 l-1250,0 z" fill="#ff00f9" stroke="black" stroke-width="5"/>
<path d="M8750,0 l625,0 l0,625 l-625,0 z" fill="#f700ff" stroke="black" stroke-width="5"/>
<path d="M5000,1250 l1250,0 l0,1250 l-1250,0 z" fill="#fe00ff" stroke="black" stroke-width="5"/>
<path d="M9375,6250 l625,0 l0,625 l-625,0 z" fill="#7900ff" stroke="black" stroke-width="5"/>
<path d="M6875,8125 l625,0 l0,625 l-625,0 z" fill="#2200ff" stroke="black" stroke-width="5"/>
<path d="M2500,1875 l625,0 l0,625 l-625,0 z" fill="#3200ff" stroke="black" stroke-width="5"/>
<path d="M7500,2500 l2500,0 l0,2500 l-2500,0 z" fill="#ff00df" stroke="black" stroke-width="5"/>
<path d="M7500,7500 l1250,0 l0,1250 l-1250,0 z" fill="#ff00e0" stroke="black" stroke-width="5"/>
<path d="M0,5000 l1250,0 l0,1250 l-1250,0 z" fill="#ff00d9" stroke="black" stroke-width="5"/>
<path d="M1093,6875 l78,0 l0,78 l-78,0 z" fill="#0000ff" stroke="black" stroke-width="5"/>
<path d="M5625,2500 l625,0 l0,625 l-625,0 z" fill="#3800ff" stroke="black" stroke-width="5"/>
<path d="M5625,6250 l625,0 l0,625 l-625,0 z" fill="#ff001e" stroke="black" stroke-width="5"/>
<path d="M9687,7812 l313,0 l0,313 l-313,0 z" fill="#0300ff" stroke="black" stroke-width="5"/>
<path d="M0,8125 l625,0 l0,625 l-625,0 z" fill="#6000ff" stroke="black" stroke-width="5"/>
<path d="M1250,5625 l625,0 l0,625 l-625,0 z" fill="#0500ff" stroke="black" stroke-width="5"/>
<path d="M625,8437 l156,0 l0,156 l-156,0 z" fill="#0600ff" stroke="black" stroke-width="5"/>
<path d="M8750,5000 l1250,0 l0,1250 l-1250,0 z" fill="#ff0006" stroke="black" stroke-width="5"/>
<path d="M0,8750 l1250,0 l0,1250 l-1250,0 z" fill="#8a00ff" stroke="black" stroke-width="5"/>
<path d="M6875,7500 l625,0 l0,625 l-625,0 z" fill="#0300ff" stroke="black" stroke-width="5"/>
<path d="M4140,8984 l78,0 l0,78 l-78,0 z" fill="#0000ff" stroke="black" stroke-width="5"/>
<path d="M5000,7500 l1250,0 l0,1250 l-1250,0 z" fill="#ff000a" stroke="black" stroke-width="5"/>
<path d="M9788,7115 l60,0 l0,60 l-60,0 z" fill="green"/>
<path d="M9818,7145 l-130.5,42.5" stroke="black" stroke-width="5"/>
<path d="M7916,7032 l60,0 l0,60 l-60,0 z" fill="green"/>
<path d="M7946,7062 l179,-187" stroke="black" stroke-width="5"/>
<path d="M885,7277 l60,0 l0,60 l-60,0 z" fill="green"/>
<path d="M915,7307 l-134,36.5" stroke="black" stroke-width="5"/>
<path d="M258,1488 l60,0 l0,60 l-60,0 z" fill="green"/>
<path d="M288,1518 l-132,-112" stroke="black" stroke-width="5"/>
<path d="M-12,1631 l60,0 l0,60 l-60,0 z" fill="green"/>
<path d="M18,1661 l138,57.5" stroke="black" stroke-width="5"/>
<path d="M1164,6968 l60,0 l0,60 l-60,0 z" fill="green"/>
<path d="M1194,6998 l16.5,-6" stroke="black" stroke-width="5"/>
<path d="M9358,969 l60,0 l0,60 l-60,0 z" fill="green"/>
<path d="M9388,999 l299.5,-61.5" stroke="black" stroke-width="5"/>
<path d="M660,8586 l60,0 l0,60 l-60,0 z" fill="green"/>
<path d="M690,8616 l13,55.5" stroke="black" stroke-width="5"/>
<path d="M6691,1837 l60,0 l0,60 l-60,0 z" fill="green"/>
<path d="M6721,1867 l-158.5,-304.5" stroke="black" stroke-width="5"/>
<path d="M2688,3356 l60,0 l0,60 l-60,0 z" fill="green"/>
<path d="M2718,3386 l94.5,51.5" stroke="black" stroke-width="5"/>
<path d="M607,3004 l60,0 l0,60 l-60,0 z" fill="green"/>
<path d="M637,3034 l-12,91" stroke="black" stroke-width="5"/>
<path d="M6346,1998 l60,0 l0,60 l-60,0 z" fill="green"/>
<path d="M6376,2028 l186.5,159.5" stroke="black" stroke-width="5"/>
<path d="M4863,359 l60,0 l0,60 l-60,0 z" fill="green"/>
<path d="M4893,389 l-518,236" stroke="black" stroke-width="5"/>
<path d="M7171,9691 l60,0 l0,60 l-60,0 z" fill="green"/>
<path d="M7201,9721 l-326,-346" stroke="black" stroke-width="5"/>
<path d="M8910,887 l60,0 l0,60 l-60,0 z" fill="green"/>
<path d="M8940,917 l-34,-136" stroke="black" stroke-width="5"/>
<path d="M7845,9087 l60,0 l0,60 l-60,0 z" fill="green"/>
<path d="M7875,9117 l250,258" stroke="black" stroke-width="5"/>
<path d="M236,6828 l60,0 l0,60 l-60,0 z" fill="green"/>
<path d="M266,6858 l46.5,-295.5" stroke="black" stroke-width="5"/>
<path d="M9528,8447 l60,0 l0,60 l-60,0 z" fill="green"/>
<path d="M9558,8477 l129.5,-39.5" stroke="black" stroke-width="5"/>
<path d="M3461,3079 l60,0 l0,60 l-60,0 z" fill="green"/>
<path d="M3491,3109 l24,-62.5" stroke="black" stroke-width="5"/>
<path d="M3572,3079 l60,0 l0,60 l-60,0 z" fill="green"/>
<path d="M3602,3109 l69.5,-62.5" stroke="black" stroke-width="5"/>
<path d="M2292,3839 l60,0 l0,60 l-60,0 z" fill="green"/>
<path d="M2322,3869 l-57,-41" stroke="black" stroke-width="5"/>
<path d="M2957,1345 l60,0 l0,60 l-60,0 z" fill="green"/>
<path d="M2987,1375 l-174.5,187.5" stroke="black" stroke-width="5"/>
<path d="M9629,7565 l60,0 l0,60 l-60,0 z" fill="green"/>
<path d="M9659,7595 l-128,61" stroke="black" stroke-width="5"/>
<path d="M3696,1585 l60,0 l0,60 l-60,0 z" fill="green"/>
<path d="M3726,1615 l-288.5,-52.5" stroke="black" stroke-width="5"/>
<path d="M9220,1090 l60,0 l0,60 l-60,0 z" fill="green"/>
<path d="M9250,1120 l46.5,51.5" stroke="black" stroke-width="5"/>
<path d="M4057,8917 l60,0 l0,60 l-60,0 z" fill="green"/>
<path d="M4087,8947 l14,-2" stroke="black" stroke-width="5"/>
<path d="M5068,2933 l60,0 l0,60 l-60,0 z" fill="green"/>
<path d="M5098,2963 l214.5,-150.5" stroke="black" stroke-width="5"/>
<path d="M2157,3949 l60,0 l0,60 l-60,0 z" fill="green"/>
<path d="M2187,3979 l78,5" stroke="black" stroke-width="5"/>
<path d="M8386,1076 l60,0 l0,60 l-60,0 z" fill="green"/>
<path d="M8416,1106 l-291,-481" stroke="black" stroke-width="5"/>
<path d="M5884,4164 l60,0 l0,60 l-60,0 z" fill="green"/>
<path d="M5914,4194 l-289,181" stroke="black" stroke-width="5"/>
<path d="M9135,932 l60,0 l0,60 l-60,0 z" fill="green"/>
<path d="M9165,962 l-25,53" stroke="black" stroke-width="5"/>
<path d="M1889,6027 l60,0 l0,60 l-60,0 z" fill="green"/>
<path d="M1919,6057 l268.5,-119.5" stroke="black" stroke-width="5"/>
<path d="M5147,7186 l60,0 l0,60 l-60,0 z" fill="green"/>
<path d="M5177,7216 l135.5,-28.5" stroke="black" stroke-width="5"/>
<path d="M6432,7514 l60,0 l0,60 l-60,0 z" fill="green"/>
<path d="M6462,7544 l100.5,268.5" stroke="black" stroke-width="5"/>
<path d="M91,4237 l60,0 l0,60 l-60,0 z" fill="green"/>
<path d="M121,4267 l504,108" stroke="black" stroke-width="5"/>
<path d="M9177,77 l60,0 l0,60 l-60,0 z" fill="green"/>
<path d="M9207,107 l-144.5,205.5" stroke="black" stroke-width="5"/>
<path d="M6001,2375 l60,0 l0,60 l-60,0 z" fill="green"/>
<path d="M6031,2405 l-406,-530" stroke="black" stroke-width="5"/>
<path d="M9690,6588 l60,0 l0,60 l-60,0 z" fill="green"/>
<path d="M9720,6618 l-32.5,-55.5" stroke="black" stroke-width="5"/>
<path d="M6889,8196 l60,0 l0,60 l-60,0 z" fill="green"/>
<path d="M6919,8226 l268.5,211.5" stroke="black" stroke-width="5"/>
<path d="M2537,1990 l60,0 l0,60 l-60,0 z" fill="green"/>
<path d="M2567,2020 l245.5,167.5" stroke="black" stroke-width="5"/>
<path d="M9810,4273 l60,0 l0,60 l-60,0 z" fill="green"/>
<path d="M9840,4303 l-1090,-553" stroke="black" stroke-width="5"/>
<path d="M7527,7737 l60,0 l0,60 l-60,0 z" fill="green"/>
<path d="M7557,7767 l568,358" stroke="black" stroke-width="5"/>
<path d="M1157,5618 l60,0 l0,60 l-60,0 z" fill="green"/>
<path d="M1187,5648 l-562,-23" stroke="black" stroke-width="5"/>
<path d="M1126,6883 l60,0 l0,60 l-60,0 z" fill="green"/>
<path d="M1156,6913 l-24,1" stroke="black" stroke-width="5"/>
<path d="M6180,2868 l60,0 l0,60 l-60,0 z" fill="green"/>
<path d="M6210,2898 l-272.5,-85.5" stroke="black" stroke-width="5"/>
<path d="M5880,6662 l60,0 l0,60 l-60,0 z" fill="green"/>
<path d="M5910,6692 l27.5,-129.5" stroke="black" stroke-width="5"/>
<path d="M9915,8086 l60,0 l0,60 l-60,0 z" fill="green"/>
<path d="M9945,8116 l-101.5,-147.5" stroke="black" stroke-width="5"/>
<path d="M374,8171 l60,0 l0,60 l-60,0 z" fill="green"/>
<path d="M404,8201 l-91.5,236.5" stroke="black" stroke-width="5"/>
<path d="M1231,6202 l60,0 l0,60 l-60,0 z" fill="green"/>
<path d="M1261,6232 l301.5,-294.5" stroke="black" stroke-width="5"/>
<path d="M654,8511 l60,0 l0,60 l-60,0 z" fill="green"/>
<path d="M684,8541 l19,-26" stroke="black" stroke-width="5"/>
<path d="M8799,6174 l60,0 l0,60 l-60,0 z" fill="green"/>
<path d="M8829,6204 l546,-579" stroke="black" stroke-width="5"/>
<path d="M1110,9459 l60,0 l0,60 l-60,0 z" fill="green"/>
<path d="M1140,9489 l-515,-114" stroke="black" stroke-width="5"/>
<path d="M6953,8029 l60,0 l0,60 l-60,0 z" fill="green"/>
<path d="M6983,8059 l204.5,-246.5" stroke="black" stroke-width="5"/>
<path d="M4159,9004 l60,0 l0,60 l-60,0 z" fill="green"/>
<path d="M4189,9034 l-10,-11" stroke="black" stroke-width="5"/>
<path d="M5163,8200 l60,0 l0,60 l-60,0 z" fill="green"/>
<path d="M5193,8230 l432,-105" stroke="black" stroke-width="5"/>
<text font-size="190.69251784911845" text-anchor="middle" x="9687.5" y="7254.242381247192">
0
</text>
<text font-size="190.69251784911845" text-anchor="middle" x="8125" y="6941.742381247192">
1
</text>
<text font-size="190.69251784911845" text-anchor="middle" x="781" y="7410.242381247192">
2
</text>
<text font-size="190.69251784911845" text-anchor="middle" x="156" y="1472.7423812471914">
3
</text>
<text font-size="190.69251784911845" text-anchor="middle" x="156" y="1785.2423812471914">
4
</text>
<text font-size="190.69251784911845" text-anchor="middle" x="1210.5" y="7058.742381247192">
5
</text>
<text font-size="190.69251784911845" text-anchor="middle" x="9687.5" y="1004.2423812471915">
6
</text>
<text font-size="190.69251784911845" text-anchor="middle" x="703" y="8738.242381247192">
7
</text>
<text font-size="190.69251784911845" text-anchor="middle" x="6562.5" y="1629.2423812471914">
8
</text>
<text font-size="190.69251784911845" text-anchor="middle" x="2812.5" y="3504.2423812471916">
9
</text>
<text font-size="190.69251784911845" text-anchor="middle" x="625" y="3191.7423812471916">
10
</text>
<text font-size="190.69251784911845" text-anchor="middle" x="6562.5" y="2254.2423812471916">
11
</text>
<text font-size="190.69251784911845" text-anchor="middle" x="4375" y="691.7423812471915">
12
</text>
<text font-size="190.69251784911845" text-anchor="middle" x="6875" y="9441.742381247192">
13
</text>
<text font-size="190.69251784911845" text-anchor="middle" x="8906" y="847.7423812471915">
14
</text>
<text font-size="190.69251784911845" text-anchor="middle" x="8125" y="9441.742381247192">
15
</text>
<text font-size="190.69251784911845" text-anchor="middle" x="312.5" y="6629.242381247192">
16
</text>
<text font-size="190.69251784911845" text-anchor="middle" x="9687.5" y="8504.242381247192">
17
</text>
<text font-size="190.69251784911845" text-anchor="middle" x="3515" y="3113.2423812471916">
18
</text>
<text font-size="190.69251784911845" text-anchor="middle" x="3671.5" y="3113.2423812471916">
19
</text>
<text font-size="190.69251784911845" text-anchor="middle" x="2265" y="3894.7423812471916">
20
</text>
<text font-size="190.69251784911845" text-anchor="middle" x="2812.5" y="1629.2423812471914">
21
</text>
<text font-size="190.69251784911845" text-anchor="middle" x="9531" y="7722.742381247192">
22
</text>
<text font-size="190.69251784911845" text-anchor="middle" x="3437.5" y="1629.2423812471914">
23
</text>
<text font-size="190.69251784911845" text-anchor="middle" x="9296.5" y="1238.2423812471914">
24
</text>
<text font-size="190.69251784911845" text-anchor="middle" x="4101" y="9011.742381247192">
25
</text>
<text font-size="190.69251784911845" text-anchor="middle" x="5312.5" y="2879.2423812471916">
26
</text>
<text font-size="190.69251784911845" text-anchor="middle" x="2265" y="4050.7423812471916">
27
</text>
<text font-size="190.69251784911845" text-anchor="middle" x="8125" y="691.7423812471915">
28
</text>
<text font-size="190.69251784911845" text-anchor="middle" x="5625" y="4441.742381247192">
29
</text>
<text font-size="190.69251784911845" text-anchor="middle" x="9140" y="1081.7423812471914">
30
</text>
<text font-size="190.69251784911845" text-anchor="middle" x="2187.5" y="6004.242381247192">
31
</text>
<text font-size="190.69251784911845" text-anchor="middle" x="5312.5" y="7254.242381247192">
32
</text>
<text font-size="190.69251784911845" text-anchor="middle" x="6562.5" y="7879.242381247192">
33
</text>
<text font-size="190.69251784911845" text-anchor="middle" x="625" y="4441.742381247192">
34
</text>
<text font-size="190.69251784911845" text-anchor="middle" x="9062.5" y="379.2423812471915">
35
</text>
<text font-size="190.69251784911845" text-anchor="middle" x="5625" y="1941.7423812471914">
36
</text>
<text font-size="190.69251784911845" text-anchor="middle" x="9687.5" y="6629.242381247192">
37
</text>
<text font-size="190.69251784911845" text-anchor="middle" x="7187.5" y="8504.242381247192">
38
</text>
<text font-size="190.69251784911845" text-anchor="middle" x="2812.5" y="2254.2423812471916">
39
</text>
<text font-size="190.69251784911845" text-anchor="middle" x="8750" y="3816.7423812471916">
40
</text>
<text font-size="190.69251784911845" text-anchor="middle" x="8125" y="8191.742381247192">
41
</text>
<text font-size="190.69251784911845" text-anchor="middle" x="625" y="5691.742381247192">
42
</text>
<text font-size="190.69251784911845" text-anchor="middle" x="1132" y="6980.742381247192">
43
</text>
<text font-size="190.69251784911845" text-anchor="middle" x="5937.5" y="2879.2423812471916">
44
</text>
<text font-size="190.69251784911845" text-anchor="middle" x="5937.5" y="6629.242381247192">
45
</text>
<text font-size="190.69251784911845" text-anchor="middle" x="9843.5" y="8035.242381247192">
46
</text>
<text font-size="190.69251784911845" text-anchor="middle" x="312.5" y="8504.242381247192">
47
</text>
<text font-size="190.69251784911845" text-anchor="middle" x="1562.5" y="6004.242381247192">
48
</text>
<text font-size="190.69251784911845" text-anchor="middle" x="703" y="8581.742381247192">
49
</text>
<text font-size="190.69251784911845" text-anchor="middle" x="9375" y="5691.742381247192">
50
</text>
<text font-size="190.69251784911845" text-anchor="middle" x="625" y="9441.742381247192">
51
</text>
<text font-size="190.69251784911845" text-anchor="middle" x="7187.5" y="7879.242381247192">
52
</text>
<text font-size="190.69251784911845" text-anchor="middle" x="4179" y="9089.742381247192">
53
</text>
<text font-size="190.69251784911845" text-anchor="middle" x="5625" y="8191.742381247192">
54
</text>
</svg>