<svg viewBox="0 0 10000 10000" xmlns="http://www.w3.org/2000/svg">
<path d="M0,0 l10000,0 l0,10000 l-10000,0 z" fill="white"/>
<path d="M8497,7072 l1503,0 l0,148 l-1503,0 z" fill="#0400ff" stroke="black" stroke-width="5"/>
<path d="M7270,6386 l1227,0 l0,1005 l-1227,0 z" fill="#ff00fe" stroke="black" stroke-width="5"/>
<path d="M849,6461 l167,0 l0,1447 l-167,0 z" fill="#0100ff" stroke="black" stroke-width="5"/>
<path d="M0,0 l1846,0 l0,1574 l-1846,0 z" fill="#ff00fe" stroke="black" stroke-width="5"/>
<path d="M0,1574 l1960,0 l0,934 l-1960,0 z" fill="#d500ff" stroke="black" stroke-width="5"/>
<path d="M1016,6956 l357,0 l0,221 l-357,0 z" fill="#ff00f7" stroke="black" stroke-width="5"/>
<path d="M9277,416 l723,0 l0,647 l-723,0 z" fill="#0800ff" stroke="black" stroke-width="5"/>
<path d="M0,8579 l3210,0 l0,422 l-3210,0 z" fill="#f300ff" stroke="black" stroke-width="5"/>
<path d="M6087,0 l1665,0 l0,1948 l-1665,0 z" fill="#e500ff" stroke="black" stroke-width="5"/>
<path d="M2241,2628 l911,0 l0,1186 l-911,0 z" fill="#8900ff" stroke="black" stroke-width="5"/>
<path d="M111,2508 l1053,0 l0,1053 l-1053,0 z" fill="#ff00fe" stroke="black" stroke-width="5"/>
<path d="M6087,1948 l2382,0 l0,381 l-2382,0 z" fill="#1d00ff" stroke="black" stroke-width="5"/>
<path d="M4240,0 l1307,0 l0,1043 l-1307,0 z" fill="#ff00f7" stroke="black" stroke-width="5"/>
<path d="M4605,8644 l3009,0 l0,1356 l-3009,0 z" fill="#ff00fd" stroke="black" stroke-width="5"/>
<path d="M8469,416 l532,0 l0,2316 l-532,0 z" fill="#6500ff" stroke="black" stroke-width="5"/>
<path d="M7621,8863 l509,0 l0,509 l-509,0 z" fill="#ff00f7" stroke="black" stroke-width="5"/>
<path d="M0,6288 l849,0 l0,1620 l-849,0 z" fill="#3c00ff" stroke="black" stroke-width="5"/>
<path d="M8878,8170 l1122,0 l0,988 l-1122,0 z" fill="#ff00fd" stroke="black" stroke-width="5"/>
<path d="M3152,2052 l396,0 l0,3091 l-396,0 z" fill="#ff00fe" stroke="black" stroke-width="5"/>
<path d="M3548,2351 l792,0 l0,1517 l-792,0 z" fill="#ff00fe" stroke="black" stroke-width="5"/>
<path d="M2267,3814 l775,0 l0,775 l-775,0 z" fill="#ff00fc" stroke="black" stroke-width="5"/>
<path d="M2947,1335 l81,0 l0,81 l-81,0 z" fill="#ff00fe" stroke="black" stroke-width="5"/>
<path d="M9083,7220 l917,0 l0,810 l-917,0 z" fill="#ff00fe" stroke="black" stroke-width="5"/>
<path d="M3292,1181 l869,0 l0,869 l-869,0 z" fill="#ff00fe" stroke="black" stroke-width="5"/>
<path d="M9001,1063 l999,0 l0,1330 l-999,0 z" fill="#ff00fe" stroke="black" stroke-width="5"/>
<path d="M3210,8070 l928,0 l0,1755 l-928,0 z" fill="#ff00fb" stroke="black" stroke-width="5"/>
<path d="M4358,2468 l1340,0 l0,1236 l-1340,0 z" fill="#ff00f6" stroke="black" stroke-width="5"/>
<path d="M1582,3374 l659,0 l0,1211 l-659,0 z" fill="#ff00fe" stroke="black" stroke-width="5"/>
<path d="M7752,442 l717,0 l0,1330 l-717,0 z" fill="#ff00fe" stroke="black" stroke-width="5"/>
<path d="M5828,4108 l172,0 l0,173 l-172,0 z" fill="#ff00fe" stroke="black" stroke-width="5"/>
<path d="M9001,416 l276,0 l0,647 l-276,0 z" fill="#0100ff" stroke="black" stroke-width="5"/>
<path d="M1571,5139 l1267,0 l0,999 l-1267,0 z" fill="#ff00fb" stroke="black" stroke-width="5"/>
<path d="M4846,6885 l663,0 l0,663 l-663,0 z" fill="#ff00fc" stroke="black" stroke-width="5"/>
<path d="M5517,6814 l1678,0 l0,988 l-1678,0 z" fill="#2400ff" stroke="black" stroke-width="5"/>
<path d="M0,3566 l1140,0 l0,1313 l-1140,0 z" fill="#ff00fd" stroke="black" stroke-width="5"/>
<path d="M8649,0 l1117,0 l0,416 l-1117,0 z" fill="#ff00fc" stroke="black" stroke-width="5"/>
<path d="M4797,1171 l1290,0 l0,1290 l-1290,0 z" fill="#ff00fd" stroke="black" stroke-width="5"/>
<path d="M9173,6071 l827,0 l0,1001 l-827,0 z" fill="#ff00fe" stroke="black" stroke-width="5"/>
<path d="M5433,8143 l3286,0 l0,498 l-3286,0 z" fill="#ff00fe" stroke="black" stroke-width="5"/>
<path d="M1960,1447 l1181,0 l0,1181 l-1181,0 z" fill="#ff00fd" stroke="black" stroke-width="5"/>
<path d="M8301,2764 l1699,0 l0,3079 l-1699,0 z" fill="#ff00fa" stroke="black" stroke-width="5"/>
<path d="M7195,7391 l1524,0 l0,752 l-1524,0 z" fill="#fd00ff" stroke="black" stroke-width="5"/>
<path d="M485,4946 l1025,0 l0,1188 l-1025,0 z" fill="#ff00fe" stroke="black" stroke-width="5"/>
<path d="M1017,6295 l2782,0 l0,661 l-2782,0 z" fill="#ff00fe" stroke="black" stroke-width="5"/>
<path d="M5709,2567 l1228,0 l0,1058 l-1228,0 z" fill="#ff00fe" stroke="black" stroke-width="5"/>
<path d="M5747,6529 l327,0 l0,285 l-327,0 z" fill="#ff00fc" stroke="black" stroke-width="5"/>
<path d="M8719,8030 l1281,0 l0,140 l-1281,0 z" fill="#0a00ff" stroke="black" stroke-width="5"/>
<path d="M0,7908 l2573,0 l0,361 l-2573,0 z" fill="#ff00fe" stroke="black" stroke-width="5"/>
<path d="M0,6138 l8612,0 l0,150 l-8612,0 z" fill="#3800ff" stroke="black" stroke-width="5"/>
<path d="M311,8269 l747,0 l0,310 l-747,0 z" fill="#ff00fe" stroke="black" stroke-width="5"/>
<path d="M8612,5987 l435,0 l0,435 l-435,0 z" fill="#ff00f3" stroke="black" stroke-width="5"/>
<path d="M0,9001 l2964,0 l0,999 l-2964,0 z" fill="#ff00fe" stroke="black" stroke-width="5"/>
<path d="M5545,7802 l1650,0 l0,341 l-1650,0 z" fill="#0700ff" stroke="black" stroke-width="5"/>
<path d="M4138,8698 l388,0 l0,673 l-388,0 z" fill="#ff00fb" stroke="black" stroke-width="5"/>
<path d="M4954,7991 l479,0 l0,479 l-479,0 z" fill="#ff00f6" stroke="black" stroke-width="5"/>
<path d="M9788,7115 l60,0 l0,60 l-60,0 z" fill="green"/>
<path d="M9818,7145 l-569.5,1" stroke="black" stroke-width="5"/>
<path d="M7916,7032 l60,0 l0,60 l-60,0 z" fill="green"/>
<path d="M7946,7062 l-62.5,-173.5" stroke="black" stroke-width="5"/>
<path d="M885,7277 l60,0 l0,60 l-60,0 z" fill="green"/>
<path d="M915,7307 l17.5,-122.5" stroke="black" stroke-width="5"/>
<path d="M258,1488 l60,0 l0,60 l-60,0 z" fill="green"/>
<path d="M288,1518 l635,-731" stroke="black" stroke-width="5"/>
<path d="M-12,1631 l60,0 l0,60 l-60,0 z" fill="green"/>
<path d="M18,1661 l962,380" stroke="black" stroke-width="5"/>
<path d="M1164,6968 l60,0 l0,60 l-60,0 z" fill="green"/>
<path d="M1194,6998 l0.5,68.5" stroke="black" stroke-width="5"/>
<path d="M9358,969 l60,0 l0,60 l-60,0 z" fill="green"/>
<path d="M9388,999 l250.5,-259.5" stroke="black" stroke-width="5"/>
<path d="M660,8586 l60,0 l0,60 l-60,0 z" fill="green"/>
<path d="M690,8616 l915,174" stroke="black" stroke-width="5"/>
<path d="M6691,1837 l60,0 l0,60 l-60,0 z" fill="green"/>
<path d="M6721,1867 l198.5,-893" stroke="black" stroke-width="5"/>
<path d="M2688,3356 l60,0 l0,60 l-60,0 z" fill="green"/>
<path d="M2718,3386 l-21.5,-165" stroke="black" stroke-width="5"/>
<path d="M607,3004 l60,0 l0,60 l-60,0 z" fill="green"/>
<path d="M637,3034 l0.5,0.5" stroke="black" stroke-width="5"/>
<path d="M6346,1998 l60,0 l0,60 l-60,0 z" fill="green"/>
<path d="M6376,2028 l902,110.5" stroke="black" stroke-width="5"/>
<path d="M4863,359 l60,0 l0,60 l-60,0 z" fill="green"/>
<path d="M4893,389 l0.5,132.5" stroke="black" stroke-width="5"/>
<path d="M7171,9691 l60,0 l0,60 l-60,0 z" fill="green"/>
<path d="M7201,9721 l-1091.5,-399" stroke="black" stroke-width="5"/>
<path d="M8910,887 l60,0 l0,60 l-60,0 z" fill="green"/>
<path d="M8940,917 l-205,657" stroke="black" stroke-width="5"/>
<path d="M7845,9087 l60,0 l0,60 l-60,0 z" fill="green"/>
<path d="M7875,9117 l0.5,0.5" stroke="black" stroke-width="5"/>
<path d="M236,6828 l60,0 l0,60 l-60,0 z" fill="green"/>
<path d="M266,6858 l158.5,240" stroke="black" stroke-width="5"/>
<path d="M9528,8447 l60,0 l0,60 l-60,0 z" fill="green"/>
<path d="M9558,8477 l-119,187" stroke="black" stroke-width="5"/>
<path d="M3461,3079 l60,0 l0,60 l-60,0 z" fill="green"/>
<path d="M3491,3109 l-141,488.5" stroke="black" stroke-width="5"/>
<path d="M3572,3079 l60,0 l0,60 l-60,0 z" fill="green"/>
<path d="M3602,3109 l342,0.5" stroke="black" stroke-width="5"/>
<path d="M2292,3839 l60,0 l0,60 l-60,0 z" fill="green"/>
<path d="M2322,3869 l332.5,332.5" stroke="black" stroke-width="5"/>
<path d="M2957,1345 l60,0 l0,60 l-60,0 z" fill="green"/>
<path d="M2987,1375 l0.5,0.5" stroke="black" stroke-width="5"/>
<path d="M9629,7565 l60,0 l0,60 l-60,0 z" fill="green"/>
<path d="M9659,7595 l-117.5,30" stroke="black" stroke-width="5"/>
<path d="M3696,1585 l60,0 l0,60 l-60,0 z" fill="green"/>
<path d="M3726,1615 l0.5,0.5" stroke="black" stroke-width="5"/>
<path d="M9220,1090 l60,0 l0,60 l-60,0 z" fill="green"/>
<path d="M9250,1120 l250.5,608" stroke="black" stroke-width="5"/>
<path d="M4057,8917 l60,0 l0,60 l-60,0 z" fill="green"/>
<path d="M4087,8947 l-413,0.5" stroke="black" stroke-width="5"/>
<path d="M5068,2933 l60,0 l0,60 l-60,0 z" fill="green"/>
<path d="M5098,2963 l-70,123" stroke="black" stroke-width="5"/>
<path d="M2157,3949 l60,0 l0,60 l-60,0 z" fill="green"/>
<path d="M2187,3979 l-275.5,0.5" stroke="black" stroke-width="5"/>
<path d="M8386,1076 l60,0 l0,60 l-60,0 z" fill="green"/>
<path d="M8416,1106 l-305.5,1" stroke="black" stroke-width="5"/>
<path d="M5884,4164 l60,0 l0,60 l-60,0 z" fill="green"/>
<path d="M5914,4194 l0,0.5" stroke="black" stroke-width="5"/>
<path d="M9135,932 l60,0 l0,60 l-60,0 z" fill="green"/>
<path d="M9165,962 l-26,-222.5" stroke="black" stroke-width="5"/>
<path d="M1889,6027 l60,0 l0,60 l-60,0 z" fill="green"/>
<path d="M1919,6057 l285.5,-418.5" stroke="black" stroke-width="5"/>
<path d="M5147,7186 l60,0 l0,60 l-60,0 z" fill="green"/>
<path d="M5177,7216 l0.5,0.5" stroke="black" stroke-width="5"/>
<path d="M6432,7514 l60,0 l0,60 l-60,0 z" fill="green"/>
<path d="M6462,7544 l-106,-236" stroke="black" stroke-width="5"/>
<path d="M91,4237 l60,0 l0,60 l-60,0 z" fill="green"/>
<path d="M121,4267 l449,-44.5" stroke="black" stroke-width="5"/>
<path d="M9177,77 l60,0 l0,60 l-60,0 z" fill="green"/>
<path d="M9207,107 l0.5,101" stroke="black" stroke-width="5"/>
<path d="M6001,2375 l60,0 l0,60 l-60,0 z" fill="green"/>
<path d="M6031,2405 l-589,-589" stroke="black" stroke-width="5"/>
<path d="M9690,6588 l60,0 l0,60 l-60,0 z" fill="green"/>
<path d="M9720,6618 l-133.5,-46.5" stroke="black" stroke-width="5"/>
<path d="M6889,8196 l60,0 l0,60 l-60,0 z" fill="green"/>
<path d="M6919,8226 l157,166" stroke="black" stroke-width="5"/>
<path d="M2537,1990 l60,0 l0,60 l-60,0 z" fill="green"/>
<path d="M2567,2020 l-16.5,17.5" stroke="black" stroke-width="5"/>
<path d="M9810,4273 l60,0 l0,60 l-60,0 z" fill="green"/>
<path d="M9840,4303 l-689.5,0.5" stroke="black" stroke-width="5"/>
<path d="M7527,7737 l60,0 l0,60 l-60,0 z" fill="green"/>
<path d="M7557,7767 l400,0" stroke="black" stroke-width="5"/>
<path d="M1157,5618 l60,0 l0,60 l-60,0 z" fill="green"/>
<path d="M1187,5648 l-189.5,-108" stroke="black" stroke-width="5"/>
<path d="M1126,6883 l60,0 l0,60 l-60,0 z" fill="green"/>
<path d="M1156,6913 l1252,-287.5" stroke="black" stroke-width="5"/>
<path d="M6180,2868 l60,0 l0,60 l-60,0 z" fill="green"/>
<path d="M6210,2898 l113,198" stroke="black" stroke-width="5"/>
<path d="M5880,6662 l60,0 l0,60 l-60,0 z" fill="green"/>
<path d="M5910,6692 l0.5,-20.5" stroke="black" stroke-width="5"/>
<path d="M9915,8086 l60,0 l0,60 l-60,0 z" fill="green"/>
<path d="M9945,8116 l-585.5,-16" stroke="black" stroke-width="5"/>
<path d="M374,8171 l60,0 l0,60 l-60,0 z" fill="green"/>
<path d="M404,8201 l882.5,-112.5" stroke="black" stroke-width="5"/>
<path d="M1231,6202 l60,0 l0,60 l-60,0 z" fill="green"/>
<path d="M1261,6232 l3045,-19" stroke="black" stroke-width="5"/>
<path d="M654,8511 l60,0 l0,60 l-60,0 z" fill="green"/>
<path d="M684,8541 l0.5,-117" stroke="black" stroke-width="5"/>
<path d="M8799,6174 l60,0 l0,60 l-60,0 z" fill="green"/>
<path d="M8829,6204 l0.5,0.5" stroke="black" stroke-width="5"/>
<path d="M1110,9459 l60,0 l0,60 l-60,0 z" fill="green"/>
<path d="M1140,9489 l342,11.5" stroke="black" stroke-width="5"/>
<path d="M6953,8029 l60,0 l0,60 l-60,0 z" fill="green"/>
<path d="M6983,8059 l-613,-86.5" stroke="black" stroke-width="5"/>
<path d="M4159,9004 l60,0 l0,60 l-60,0 z" fill="green"/>
<path d="M4189,9034 l143,0.5" stroke="black" stroke-width="5"/>
<path d="M5163,8200 l60,0 l0,60 l-60,0 z" fill="green"/>
<path d="M5193,8230 l0.5,0.5" stroke="black" stroke-width="5"/>
<text font-size="190.69251784911845" text-anchor="middle" x="9248.5" y="7212.742381247192">
0
</text>
<text font-size="190.69251784911845" text-anchor="middle" x="7883.5" y="6955.242381247192">
1
</text>
<text font-size="190.69251784911845" text-anchor="middle" x="932.5" y="7251.242381247192">
2
</text>
<text font-size="190.69251784911845" text-anchor="middle" x="923" y="853.7423812471915">
3
</text>
<text font-size="190.69251784911845" text-anchor="middle" x="980" y="2107.7423812471916">
4
</text>
<text font-size="190.69251784911845" text-anchor="middle" x="1194.5" y="7133.242381247192">
5
</text>
<text font-size="190.69251784911845" text-anchor="middle" x="9638.5" y="806.2423812471915">
6
</text>
<text font-size="190.69251784911845" text-anchor="middle" x="1605" y="8856.742381247192">
7
</text>
<text font-size="190.69251784911845" text-anchor="middle" x="6919.5" y="1040.7423812471914">
8
</text>
<text font-size="190.69251784911845" text-anchor="middle" x="2696.5" y="3287.7423812471916">
9
</text>
<text font-size="190.69251784911845" text-anchor="middle" x="637.5" y="3101.2423812471916">
10
</text>
<text font-size="190.69251784911845" text-anchor="middle" x="7278" y="2205.2423812471916">
11
</text>
<text font-size="190.69251784911845" text-anchor="middle" x="4893.5" y="588.2423812471915">
12
</text>
<text font-size="190.69251784911845" text-anchor="middle" x="6109.5" y="9388.742381247192">
13
</text>
<text font-size="190.69251784911845" text-anchor="middle" x="8735" y="1640.7423812471914">
14
</text>
<text font-size="190.69251784911845" text-anchor="middle" x="7875.5" y="9184.242381247192">
15
</text>
<text font-size="190.69251784911845" text-anchor="middle" x="424.5" y="7164.742381247192">
16
</text>
<text font-size="190.69251784911845" text-anchor="middle" x="9439" y="8730.742381247192">
17
</text>
<text font-size="190.69251784911845" text-anchor="middle" x="3350" y="3664.2423812471916">
18
</text>
<text font-size="190.69251784911845" text-anchor="middle" x="3944" y="3176.2423812471916">
19
</text>
<text font-size="190.69251784911845" text-anchor="middle" x="2654.5" y="4268.242381247192">
20
</text>
<text font-size="190.69251784911845" text-anchor="middle" x="2987.5" y="1442.2423812471914">
21
</text>
<text font-size="190.69251784911845" text-anchor="middle" x="9541.5" y="7691.742381247192">
22
</text>
<text font-size="190.69251784911845" text-anchor="middle" x="3726.5" y="1682.2423812471914">
23
</text>
<text font-size="190.69251784911845" text-anchor="middle" x="9500.5" y="1794.7423812471914">
24
</text>
<text font-size="190.69251784911845" text-anchor="middle" x="3674" y="9014.242381247192">
25
</text>
<text font-size="190.69251784911845" text-anchor="middle" x="5028" y="3152.7423812471916">
26
</text>
<text font-size="190.69251784911845" text-anchor="middle" x="1911.5" y="4046.2423812471916">
27
</text>
<text font-size="190.69251784911845" text-anchor="middle" x="8110.5" y="1173.7423812471914">
28
</text>
<text font-size="190.69251784911845" text-anchor="middle" x="5914" y="4261.242381247192">
29
</text>
<text font-size="190.69251784911845" text-anchor="middle" x="9139" y="806.2423812471915">
30
</text>
<text font-size="190.69251784911845" text-anchor="middle" x="2204.5" y="5705.242381247192">
31
</text>
<text font-size="190.69251784911845" text-anchor="middle" x="5177.5" y="7283.242381247192">
32
</text>
<text font-size="190.69251784911845" text-anchor="middle" x="6356" y="7374.742381247192">
33
</text>
<text font-size="190.69251784911845" text-anchor="middle" x="570" y="4289.242381247192">
34
</text>
<text font-size="190.69251784911845" text-anchor="middle" x="9207.5" y="274.7423812471915">
35
</text>
<text font-size="190.69251784911845" text-anchor="middle" x="5442" y="1882.7423812471914">
36
</text>
<text font-size="190.69251784911845" text-anchor="middle" x="9586.5" y="6638.242381247192">
37
</text>
<text font-size="190.69251784911845" text-anchor="middle" x="7076" y="8458.742381247192">
38
</text>
<text font-size="190.69251784911845" text-anchor="middle" x="2550.5" y="2104.2423812471916">
39
</text>
<text font-size="190.69251784911845" text-anchor="middle" x="9150.5" y="4370.242381247192">
40
</text>
<text font-size="190.69251784911845" text-anchor="middle" x="7957" y="7833.742381247192">
41
</text>
<text font-size="190.69251784911845" text-anchor="middle" x="997.5" y="5606.742381247192">
42
</text>
<text font-size="190.69251784911845" text-anchor="middle" x="2408" y="6692.242381247192">
43
</text>
<text font-size="190.69251784911845" text-anchor="middle" x="6323" y="3162.7423812471916">
44
</text>
<text font-size="190.69251784911845" text-anchor="middle" x="5910.5" y="6738.242381247192">
45
</text>
<text font-size="190.69251784911845" text-anchor="middle" x="9359.5" y="8166.742381247192">
46
</text>
<text font-size="190.69251784911845" text-anchor="middle" x="1286.5" y="8155.242381247192">
47
</text>
<text font-size="190.69251784911845" text-anchor="middle" x="4306" y="6279.742381247192">
48
</text>
<text font-size="190.69251784911845" text-anchor="middle" x="684.5" y="8490.742381247192">
49
</text>
<text font-size="190.69251784911845" text-anchor="middle" x="8829.5" y="6271.242381247192">
50
</text>
<text font-size="190.69251784911845" text-anchor="middle" x="1482" y="9567.242381247192">
51
</text>
<text font-size="190.69251784911845" text-anchor="middle" x="6370" y="8039.242381247192">
52
</text>
<text font-size="190.69251784911845" text-anchor="middle" x="4332" y="9101.242381247192">
53
</text>
<text font-size="190.69251784911845" text-anchor="middle" x="5193.5" y="8297.242381247192">
54
</text>
</svg>