<svg viewBox="0 0 10000 10000" xmlns="http://www.w3.org/2000/svg">
<path d="M0,0 l10000,0 l0,10000 l-10000,0 z" fill="white"/>
<path d="M9818,7145 l1,0 l0,1 l-1,0 z" fill="#0000ff" stroke="black" stroke-width="5"/>
<path d="M7946,7062 l1,0 l0,1 l-1,0 z" fill="#0000ff" stroke="black" stroke-width="5"/>
<path d="M915,7307 l1,0 l0,1 l-1,0 z" fill="#0000ff" stroke="black" stroke-width="5"/>
<path d="M288,1518 l1,0 l0,1 l-1,0 z" fill="#0000ff" stroke="black" stroke-width="5"/>
<path d="M18,1661 l1,0 l0,1 l-1,0 z" fill="#0000ff" stroke="black" stroke-width="5"/>
<path d="M1194,6998 l1,0 l0,1 l-1,0 z" fill="#0000ff" stroke="black" stroke-width="5"/>
<path d="M9388,999 l1,0 l0,1 l-1,0 z" fill="#0000ff" stroke="black" stroke-width="5"/>
<path d="M690,8616 l1,0 l0,1 l-1,0 z" fill="#0000ff" stroke="black" stroke-width="5"/>
<path d="M6721,1867 l1,0 l0,1 l-1,0 z" fill="#0000ff" stroke="black" stroke-width="5"/>
<path d="M2718,3386 l1,0 l0,1 l-1,0 z" fill="#0000ff" stroke="black" stroke-width="5"/>
<path d="M637,3034 l1,0 l0,1 l-1,0 z" fill="#0000ff" stroke="black" stroke-width="5"/>
<path d="M6376,2028 l1,0 l0,1 l-1,0 z" fill="#0000ff" stroke="black" stroke-width="5"/>
<path d="M4893,389 l1,0 l0,1 l-1,0 z" fill="#0000ff" stroke="black" stroke-width="5"/>
<path d="M7201,9721 l1,0 l0,1 l-1,0 z" fill="#0000ff" stroke="black" stroke-width="5"/>
<path d="M8940,917 l1,0 l0,1 l-1,0 z" fill="#0000ff" stroke="black" stroke-width="5"/>
<path d="M7875,9117 l1,0 l0,1 l-1,0 z" fill="#0000ff" stroke="black" stroke-width="5"/>
<path d="M266,6858 l1,0 l0,1 l-1,0 z" fill="#0000ff" stroke="black" stroke-width="5"/>
<path d="M9558,8477 l1,0 l0,1 l-1,0 z" fill="#0000ff" stroke="black" stroke-width="5"/>
<path d="M3491,3109 l1,0 l0,1 l-1,0 z" fill="#0000ff" stroke="black" stroke-width="5"/>
<path d="M3602,3109 l1,0 l0,1 l-1,0 z" fill="#0000ff" stroke="black" stroke-width="5"/>
<path d="M2322,3869 l1,0 l0,1 l-1,0 z" fill="#0000ff" stroke="black" stroke-width="5"/>
<path d="M2987,1375 l1,0 l0,1 l-1,0 z" fill="#0000ff" stroke="black" stroke-width="5"/>
<path d="M9659,7595 l1,0 l0,1 l-1,0 z" fill="#0000ff" stroke="black" stroke-width="5"/>
<path d="M3726,1615 l1,0 l0,1 l-1,0 z" fill="#0000ff" stroke="black" stroke-width="5"/>
<path d="M9250,1120 l1,0 l0,1 l-1,0 z" fill="#0000ff" stroke="black" stroke-width="5"/>
<path d="M4087,8947 l1,0 l0,1 l-1,0 z" fill="#0000ff" stroke="black" stroke-width="5"/>
<path d="M5098,2963 l1,0 l0,1 l-1,0 z" fill="#0000ff" stroke="black" stroke-width="5"/>
<path d="M2187,3979 l1,0 l0,1 l-1,0 z" fill="#0000ff" stroke="black" stroke-width="5"/>
<path d="M8416,1106 l1,0 l0,1 l-1,0 z" fill="#0000ff" stroke="black" stroke-width="5"/>
<path d="M5914,4194 l1,0 l0,1 l-1,0 z" fill="#0000ff" stroke="black" stroke-width="5"/>
<path d="M9165,962 l1,0 l0,1 l-1,0 z" fill="#0000ff" stroke="black" stroke-width="5"/>
<path d="M1919,6057 l1,0 l0,1 l-1,0 z" fill="#0000ff" stroke="black" stroke-width="5"/>
<path d="M5177,7216 l1,0 l0,1 l-1,0 z" fill="#0000ff" stroke="black" stroke-width="5"/>
<path d="M0,0 l10000,0 l0,10000 l-10000,0 z" fill="#ff0002" stroke="black" stroke-width="5"/>
<path d="M121,4267 l1,0 l0,1 l-1,0 z" fill="#0000ff" stroke="black" stroke-width="5"/>
<path d="M9207,107 l1,0 l0,1 l-1,0 z" fill="#0000ff" stroke="black" stroke-width="5"/>
<path d="M6031,2405 l1,0 l0,1 l-1,0 z" fill="#0000ff" stroke="black" stroke-width="5"/>
<path d="M9720,6618 l1,0 l0,1 l-1,0 z" fill="#0000ff" stroke="black" stroke-width="5"/>
<path d="M6919,8226 l1,0 l0,1 l-1,0 z" fill="#0000ff" stroke="black" stroke-width="5"/>
<path d="M2567,2020 l1,0 l0,1 l-1,0 z" fill="#0000ff" stroke="black" stroke-width="5"/>
<path d="M9840,4303 l1,0 l0,1 l-1,0 z" fill="#0000ff" stroke="black" stroke-width="5"/>
<path d="M7557,7767 l1,0 l0,1 l-1,0 z" fill="#0000ff" stroke="black" stroke-width="5"/>
<path d="M1187,5648 l1,0 l0,1 l-1,0 z" fill="#0000ff" stroke="black" stroke-width="5"/>
<path d="M1156,6913 l1,0 l0,1 l-1,0 z" fill="#0000ff" stroke="black" stroke-width="5"/>
<path d="M6210,2898 l1,0 l0,1 l-1,0 z" fill="#0000ff" stroke="black" stroke-width="5"/>
<path d="M5910,6692 l1,0 l0,1 l-1,0 z" fill="#0000ff" stroke="black" stroke-width="5"/>
<path d="M9945,8116 l1,0 l0,1 l-1,0 z" fill="#0000ff" stroke="black" stroke-width="5"/>
<path d="M404,8201 l1,0 l0,1 l-1,0 z" fill="#0000ff" stroke="black" stroke-width="5"/>
<path d="M1261,6232 l1,0 l0,1 l-1,0 z" fill="#0000ff" stroke="black" stroke-width="5"/>
<path d="M684,8541 l1,0 l0,1 l-1,0 z" fill="#0000ff" stroke="black" stroke-width="5"/>
<path d="M8829,6204 l1,0 l0,1 l-1,0 z" fill="#0000ff" stroke="black" stroke-width="5"/>
<path d="M1140,9489 l1,0 l0,1 l-1,0 z" fill="#0000ff" stroke="black" stroke-width="5"/>
<path d="M6983,8059 l1,0 l0,1 l-1,0 z" fill="#0000ff" stroke="black" stroke-width="5"/>
<path d="M4189,9034 l1,0 l0,1 l-1,0 z" fill="#0000ff" stroke="black" stroke-width="5"/>
<path d="M5193,8230 l1,0 l0,1 l-1,0 z" fill="#0000ff" stroke="black" stroke-width="5"/>
<path d="M9788,7115 l60,0 l0,60 l-60,0 z" fill="green"/>
<path d="M9818,7145 l0.5,0.5" stroke="black" stroke-width="5"/>
<path d="M7916,7032 l60,0 l0,60 l-60,0 z" fill="green"/>
<path d="M7946,7062 l0.5,0.5" stroke="black" stroke-width="5"/>
<path d="M885,7277 l60,0 l0,60 l-60,0 z" fill="green"/>
<path d="M915,7307 l0.5,0.5" stroke="black" stroke-width="5"/>
<path d="M258,1488 l60,0 l0,60 l-60,0 z" fill="green"/>
<path d="M288,1518 l0.5,0.5" stroke="black" stroke-width="5"/>
<path d="M-12,1631 l60,0 l0,60 l-60,0 z" fill="green"/>
<path d="M18,1661 l0.5,0.5" stroke="black" stroke-width="5"/>
<path d="M1164,6968 l60,0 l0,60 l-60,0 z" fill="green"/>
<path d="M1194,6998 l0.5,0.5" stroke="black" stroke-width="5"/>
<path d="M9358,969 l60,0 l0,60 l-60,0 z" fill="green"/>
<path d="M9388,999 l0.5,0.5" stroke="black" stroke-width="5"/>
<path d="M660,8586 l60,0 l0,60 l-60,0 z" fill="green"/>
<path d="M690,8616 l0.5,0.5" stroke="black" stroke-width="5"/>
<path d="M6691,1837 l60,0 l0,60 l-60,0 z" fill="green"/>
<path d="M6721,1867 l0.5,0.5" stroke="black" stroke-width="5"/>
<path d="M2688,3356 l60,0 l0,60 l-60,0 z" fill="green"/>
<path d="M2718,3386 l0.5,0.5" stroke="black" stroke-width="5"/>
<path d="M607,3004 l60,0 l0,60 l-60,0 z" fill="green"/>
<path d="M637,3034 l0.5,0.5" stroke="black" stroke-width="5"/>
<path d="M6346,1998 l60,0 l0,60 l-60,0 z" fill="green"/>
<path d="M6376,2028 l0.5,0.5" stroke="black" stroke-width="5"/>
<path d="M4863,359 l60,0 l0,60 l-60,0 z" fill="green"/>
<path d="M4893,389 l0.5,0.5" stroke="black" stroke-width="5"/>
<path d="M7171,9691 l60,0 l0,60 l-60,0 z" fill="green"/>
<path d="M7201,9721 l0.5,0.5" stroke="black" stroke-width="5"/>
<path d="M8910,887 l60,0 l0,60 l-60,0 z" fill="green"/>
<path d="M8940,917 l0.5,0.5" stroke="black" stroke-width="5"/>
<path d="M7845,9087 l60,0 l0,60 l-60,0 z" fill="green"/>
<path d="M7875,9117 l0.5,0.5" stroke="black" stroke-width="5"/>
<path d="M236,6828 l60,0 l0,60 l-60,0 z" fill="green"/>
<path d="M266,6858 l0.5,0.5" stroke="black" stroke-width="5"/>
<path d="M9528,8447 l60,0 l0,60 l-60,0 z" fill="green"/>
<path d="M9558,8477 l0.5,0.5" stroke="black" stroke-width="5"/>
<path d="M3461,3079 l60,0 l0,60 l-60,0 z" fill="green"/>
<path d="M3491,3109 l0.5,0.5" stroke="black" stroke-width="5"/>
<path d="M3572,3079 l60,0 l0,60 l-60,0 z" fill="green"/>
<path d="M3602,3109 l0.5,0.5" stroke="black" stroke-width="5"/>
<path d="M2292,3839 l60,0 l0,60 l-60,0 z" fill="green"/>
<path d="M2322,3869 l0.5,0.5" stroke="black" stroke-width="5"/>
<path d="M2957,1345 l60,0 l0,60 l-60,0 z" fill="green"/>
<path d="M2987,1375 l0.5,0.5" stroke="black" stroke-width="5"/>
<path d="M9629,7565 l60,0 l0,60 l-60,0 z" fill="green"/>
<path d="M9659,7595 l0.5,0.5" stroke="black" stroke-width="5"/>
<path d="M3696,1585 l60,0 l0,60 l-60,0 z" fill="green"/>
<path d="M3726,1615 l0.5,0.5" stroke="black" stroke-width="5"/>
<path d="M9220,1090 l60,0 l0,60 l-60,0 z" fill="green"/>
<path d="M9250,1120 l0.5,0.5" stroke="black" stroke-width="5"/>
<path d="M4057,8917 l60,0 l0,60 l-60,0 z" fill="green"/>
<path d="M4087,8947 l0.5,0.5" stroke="black" stroke-width="5"/>
<path d="M5068,2933 l60,0 l0,60 l-60,0 z" fill="green"/>
<path d="M5098,2963 l0.5,0.5" stroke="black" stroke-width="5"/>
<path d="M2157,3949 l60,0 l0,60 l-60,0 z" fill="green"/>
<path d="M2187,3979 l0.5,0.5" stroke="black" stroke-width="5"/>
<path d="M8386,1076 l60,0 l0,60 l-60,0 z" fill="green"/>
<path d="M8416,1106 l0.5,0.5" stroke="black" stroke-width="5"/>
<path d="M5884,4164 l60,0 l0,60 l-60,0 z" fill="green"/>
<path d="M5914,4194 l0.5,0.5" stroke="black" stroke-width="5"/>
<path d="M9135,932 l60,0 l0,60 l-60,0 z" fill="green"/>
<path d="M9165,962 l0.5,0.5" stroke="black" stroke-width="5"/>
<path d="M1889,6027 l60,0 l0,60 l-60,0 z" fill="green"/>
<path d="M1919,6057 l0.5,0.5" stroke="black" stroke-width="5"/>
<path d="M5147,7186 l60,0 l0,60 l-60,0 z" fill="green"/>
<path d="M5177,7216 l0.5,0.5" stroke="black" stroke-width="5"/>
<path d="M6432,7514 l60,0 l0,60 l-60,0 z" fill="green"/>
<path d="M6462,7544 l-1462,-2544" stroke="black" stroke-width="5"/>
<path d="M91,4237 l60,0 l0,60 l-60,0 z" fill="green"/>
<path d="M121,4267 l0.5,0.5" stroke="black" stroke-width="5"/>
<path d="M9177,77 l60,0 l0,60 l-60,0 z" fill="green"/>
<path d="M9207,107 l0.5,0.5" stroke="black" stroke-width="5"/>
<path d="M6001,2375 l60,0 l0,60 l-60,0 z" fill="green"/>
<path d="M6031,2405 l0.5,0.5" stroke="black" stroke-width="5"/>
<path d="M9690,6588 l60,0 l0,60 l-60,0 z" fill="green"/>
<path d="M9720,6618 l0.5,0.5" stroke="black" stroke-width="5"/>
<path d="M6889,8196 l60,0 l0,60 l-60,0 z" fill="green"/>
<path d="M6919,8226 l0.5,0.5" stroke="black" stroke-width="5"/>
<path d="M2537,1990 l60,0 l0,60 l-60,0 z" fill="green"/>
<path d="M2567,2020 l0.5,0.5" stroke="black" stroke-width="5"/>
<path d="M9810,4273 l60,0 l0,60 l-60,0 z" fill="green"/>
<path d="M9840,4303 l0.5,0.5" stroke="black" stroke-width="5"/>
<path d="M7527,7737 l60,0 l0,60 l-60,0 z" fill="green"/>
<path d="M7557,7767 l0.5,0.5" stroke="black" stroke-width="5"/>
<path d="M1157,5618 l60,0 l0,60 l-60,0 z" fill="green"/>
<path d="M1187,5648 l0.5,0.5" stroke="black" stroke-width="5"/>
<path d="M1126,6883 l60,0 l0,60 l-60,0 z" fill="green"/>
<path d="M1156,6913 l0.5,0.5" stroke="black" stroke-width="5"/>
<path d="M6180,2868 l60,0 l0,60 l-60,0 z" fill="green"/>
<path d="M6210,2898 l0.5,0.5" stroke="black" stroke-width="5"/>
<path d="M5880,6662 l60,0 l0,60 l-60,0 z" fill="green"/>
<path d="M5910,6692 l0.5,0.5" stroke="black" stroke-width="5"/>
<path d="M9915,8086 l60,0 l0,60 l-60,0 z" fill="green"/>
<path d="M9945,8116 l0.5,0.5" stroke="black" stroke-width="5"/>
<path d="M374,8171 l60,0 l0,60 l-60,0 z" fill="green"/>
<path d="M404,8201 l0.5,0.5" stroke="black" stroke-width="5"/>
<path d="M1231,6202 l60,0 l0,60 l-60,0 z" fill="green"/>
<path d="M1261,6232 l0.5,0.5" stroke="black" stroke-width="5"/>
<path d="M654,8511 l60,0 l0,60 l-60,0 z" fill="green"/>
<path d="M684,8541 l0.5,0.5" stroke="black" stroke-width="5"/>
<path d="M8799,6174 l60,0 l0,60 l-60,0 z" fill="green"/>
<path d="M8829,6204 l0.5,0.5" stroke="black" stroke-width="5"/>
<path d="M1110,9459 l60,0 l0,60 l-60,0 z" fill="green"/>
<path d="M1140,9489 l0.5,0.5" stroke="black" stroke-width="5"/>
<path d="M6953,8029 l60,0 l0,60 l-60,0 z" fill="green"/>
<path d="M6983,8059 l0.5,0.5" stroke="black" stroke-width="5"/>
<path d="M4159,9004 l60,0 l0,60 l-60,0 z" fill="green"/>
<path d="M4189,9034 l0.5,0.5" stroke="black" stroke-width="5"/>
<path d="M5163,8200 l60,0 l0,60 l-60,0 z" fill="green"/>
<path d="M5193,8230 l0.5,0.5" stroke="black" stroke-width="5"/>
<text font-size="190.69251784911845" text-anchor="middle" x="9818.5" y="7212.242381247192">
0
</text>
<text font-size="190.69251784911845" text-anchor="middle" x="7946.5" y="7129.242381247192">
1
</text>
<text font-size="190.69251784911845" text-anchor="middle" x="915.5" y="7374.242381247192">
2
</text>
<text font-size="190.69251784911845" text-anchor="middle" x="288.5" y="1585.2423812471914">
3
</text>
<text font-size="190.69251784911845" text-anchor="middle" x="18.5" y="1728.2423812471914">
4
</text>
<text font-size="190.69251784911845" text-anchor="middle" x="1194.5" y="7065.242381247192">
5
</text>
<text font-size="190.69251784911845" text-anchor="middle" x="9388.5" y="1066.2423812471914">
6
</text>
<text font-size="190.69251784911845" text-anchor="middle" x="690.5" y="8683.242381247192">
7
</text>
<text font-size="190.69251784911845" text-anchor="middle" x="6721.5" y="1934.2423812471914">
8
</text>
<text font-size="190.69251784911845" text-anchor="middle" x="2718.5" y="3453.2423812471916">
9
</text>
<text font-size="190.69251784911845" text-anchor="middle" x="637.5" y="3101.2423812471916">
10
</text>
<text font-size="190.69251784911845" text-anchor="middle" x="6376.5" y="2095.2423812471916">
11
</text>
<text font-size="190.69251784911845" text-anchor="middle" x="4893.5" y="456.2423812471915">
12
</text>
<text font-size="190.69251784911845" text-anchor="middle" x="7201.5" y="9788.242381247192">
13
</text>
<text font-size="190.69251784911845" text-anchor="middle" x="8940.5" y="984.2423812471915">
14
</text>
<text font-size="190.69251784911845" text-anchor="middle" x="7875.5" y="9184.242381247192">
15
</text>
<text font-size="190.69251784911845" text-anchor="middle" x="266.5" y="6925.242381247192">
16
</text>
<text font-size="190.69251784911845" text-anchor="middle" x="9558.5" y="8544.242381247192">
17
</text>
<text font-size="190.69251784911845" text-anchor="middle" x="3491.5" y="3176.2423812471916">
18
</text>
<text font-size="190.69251784911845" text-anchor="middle" x="3602.5" y="3176.2423812471916">
19
</text>
<text font-size="190.69251784911845" text-anchor="middle" x="2322.5" y="3936.2423812471916">
20
</text>
<text font-size="190.69251784911845" text-anchor="middle" x="2987.5" y="1442.2423812471914">
21
</text>
<text font-size="190.69251784911845" text-anchor="middle" x="9659.5" y="7662.242381247192">
22
</text>
<text font-size="190.69251784911845" text-anchor="middle" x="3726.5" y="1682.2423812471914">
23
</text>
<text font-size="190.69251784911845" text-anchor="middle" x="9250.5" y="1187.2423812471914">
24
</text>
<text font-size="190.69251784911845" text-anchor="middle" x="4087.5" y="9014.242381247192">
25
</text>
<text font-size="190.69251784911845" text-anchor="middle" x="5098.5" y="3030.2423812471916">
26
</text>
<text font-size="190.69251784911845" text-anchor="middle" x="2187.5" y="4046.2423812471916">
27
</text>
<text font-size="190.69251784911845" text-anchor="middle" x="8416.5" y="1173.2423812471914">
28
</text>
<text font-size="190.69251784911845" text-anchor="middle" x="5914.5" y="4261.242381247192">
29
</text>
<text font-size="190.69251784911845" text-anchor="middle" x="9165.5" y="1029.2423812471914">
30
</text>
<text font-size="190.69251784911845" text-anchor="middle" x="1919.5" y="6124.242381247192">
31
</text>
<text font-size="190.69251784911845" text-anchor="middle" x="5177.5" y="7283.242381247192">
32
</text>
<text font-size="190.69251784911845" text-anchor="middle" x="5000" y="5066.742381247192">
33
</text>
<text font-size="190.69251784911845" text-anchor="middle" x="121.5" y="4334.242381247192">
34
</text>
<text font-size="190.69251784911845" text-anchor="middle" x="9207.5" y="174.24238124719145">
35
</text>
<text font-size="190.69251784911845" text-anchor="middle" x="6031.5" y="2472.2423812471916">
36
</text>
<text font-size="190.69251784911845" text-anchor="middle" x="9720.5" y="6685.242381247192">
37
</text>
<text font-size="190.69251784911845" text-anchor="middle" x="6919.5" y="8293.242381247192">
38
</text>
<text font-size="190.69251784911845" text-anchor="middle" x="2567.5" y="2087.2423812471916">
39
</text>
<text font-size="190.69251784911845" text-anchor="middle" x="9840.5" y="4370.242381247192">
40
</text>
<text font-size="190.69251784911845" text-anchor="middle" x="7557.5" y="7834.242381247192">
41
</text>
<text font-size="190.69251784911845" text-anchor="middle" x="1187.5" y="5715.242381247192">
42
</text>
<text font-size="190.69251784911845" text-anchor="middle" x="1156.5" y="6980.242381247192">
43
</text>
<text font-size="190.69251784911845" text-anchor="middle" x="6210.5" y="2965.2423812471916">
44
</text>
<text font-size="190.69251784911845" text-anchor="middle" x="5910.5" y="6759.242381247192">
45
</text>
<text font-size="190.69251784911845" text-anchor="middle" x="9945.5" y="8183.242381247192">
46
</text>
<text font-size="190.69251784911845" text-anchor="middle" x="404.5" y="8268.242381247192">
47
</text>
<text font-size="190.69251784911845" text-anchor="middle" x="1261.5" y="6299.242381247192">
48
</text>
<text font-size="190.69251784911845" text-anchor="middle" x="684.5" y="8608.242381247192">
49
</text>
<text font-size="190.69251784911845" text-anchor="middle" x="8829.5" y="6271.242381247192">
50
</text>
<text font-size="190.69251784911845" text-anchor="middle" x="1140.5" y="9556.242381247192">
51
</text>
<text font-size="190.69251784911845" text-anchor="middle" x="6983.5" y="8126.242381247192">
52
</text>
<text font-size="190.69251784911845" text-anchor="middle" x="4189.5" y="9101.242381247192">
53
</text>
<text font-size="190.69251784911845" text-anchor="middle" x="5193.5" y="8297.242381247192">
54
</text>
</svg>