<svg viewBox="0 0 10000 10000" xmlns="http://www.w3.org/2000/svg">
<path d="M0,0 l10000,0 l0,10000 l-10000,0 z" fill="white"/>
<path d="M5625,1440 l1485,0 l0,190 l-1485,0 z" fill="#3700ff" stroke="black" stroke-width="5"/>
<path d="M0,4554 l1323,0 l0,1827 l-1323,0 z" fill="#ff00fa" stroke="black" stroke-width="5"/>
<path d="M7656,1681 l391,0 l0,334 l-391,0 z" fill="#ff00fe" stroke="black" stroke-width="5"/>
<path d="M5858,1973 l1798,0 l0,159 l-1798,0 z" fill="#0600ff" stroke="black" stroke-width="5"/>
<path d="M4179,556 l453,0 l0,453 l-453,0 z" fill="#ff00f4" stroke="black" stroke-width="5"/>
<path d="M5182,5750 l1639,0 l0,862 l-1639,0 z" fill="#ff00fe" stroke="black" stroke-width="5"/>
<path d="M8512,5587 l577,0 l0,342 l-577,0 z" fill="#ff00f9" stroke="black" stroke-width="5"/>
<path d="M8477,3656 l767,0 l0,767 l-767,0 z" fill="#ff00fd" stroke="black" stroke-width="5"/>
<path d="M3354,8210 l323,0 l0,323 l-323,0 z" fill="#ff00ea" stroke="black" stroke-width="5"/>
<path d="M339,7436 l1260,0 l0,968 l-1260,0 z" fill="#ff00fc" stroke="black" stroke-width="5"/>
<path d="M5374,853 l735,0 l0,587 l-735,0 z" fill="#ff00fc" stroke="black" stroke-width="5"/>
<path d="M3689,6544 l333,0 l0,290 l-333,0 z" fill="#ff00fd" stroke="black" stroke-width="5"/>
<path d="M3736,6841 l575,0 l0,592 l-575,0 z" fill="#ff00fb" stroke="black" stroke-width="5"/>
<path d="M9236,5679 l764,0 l0,1193 l-764,0 z" fill="#ff00fe" stroke="black" stroke-width="5"/>
<path d="M0,8966 l972,0 l0,490 l-972,0 z" fill="#2900ff" stroke="black" stroke-width="5"/>
<path d="M6821,5402 l669,0 l0,669 l-669,0 z" fill="#ff00fc" stroke="black" stroke-width="5"/>
<path d="M6254,3685 l223,0 l0,223 l-223,0 z" fill="#ff00ec" stroke="black" stroke-width="5"/>
<path d="M1323,5297 l497,0 l0,497 l-497,0 z" fill="#ff00f7" stroke="black" stroke-width="5"/>
<path d="M7504,4489 l706,0 l0,706 l-706,0 z" fill="#ff00f0" stroke="black" stroke-width="5"/>
<path d="M3244,5646 l1080,0 l0,898 l-1080,0 z" fill="#a800ff" stroke="black" stroke-width="5"/>
<path d="M6502,3608 l933,0 l0,730 l-933,0 z" fill="#ff00fe" stroke="black" stroke-width="5"/>
<path d="M2735,8549 l680,0 l0,1451 l-680,0 z" fill="#f400ff" stroke="black" stroke-width="5"/>
<path d="M6109,1115 l1001,0 l0,325 l-1001,0 z" fill="#0700ff" stroke="black" stroke-width="5"/>
<path d="M8503,6504 l709,0 l0,552 l-709,0 z" fill="#ff00f6" stroke="black" stroke-width="5"/>
<path d="M6795,4342 l692,0 l0,1048 l-692,0 z" fill="#ff00fe" stroke="black" stroke-width="5"/>
<path d="M5521,5000 l117,0 l0,131 l-117,0 z" fill="#ff00f9" stroke="black" stroke-width="5"/>
<path d="M3415,8772 l1796,0 l0,1228 l-1796,0 z" fill="#cd00ff" stroke="black" stroke-width="5"/>
<path d="M512,3158 l765,0 l0,711 l-765,0 z" fill="#ff00fd" stroke="black" stroke-width="5"/>
<path d="M0,6793 l2875,0 l0,401 l-2875,0 z" fill="#fe00ff" stroke="black" stroke-width="5"/>
<path d="M4194,0 l2517,0 l0,295 l-2517,0 z" fill="#ff00fe" stroke="black" stroke-width="5"/>
<path d="M8329,1225 l1210,0 l0,907 l-1210,0 z" fill="#9500ff" stroke="black" stroke-width="5"/>
<path d="M5464,5187 l543,0 l0,543 l-543,0 z" fill="#ff00f9" stroke="black" stroke-width="5"/>
<path d="M7490,3057 l928,0 l0,1107 l-928,0 z" fill="#ff00e6" stroke="black" stroke-width="5"/>
<path d="M3615,3363 l480,0 l0,1045 l-480,0 z" fill="#ff00fd" stroke="black" stroke-width="5"/>
<path d="M5427,6647 l349,0 l0,349 l-349,0 z" fill="#ff00ed" stroke="black" stroke-width="5"/>
<path d="M2454,934 l1115,0 l0,746 l-1115,0 z" fill="#ff00fd" stroke="black" stroke-width="5"/>
<path d="M2205,3632 l381,0 l0,381 l-381,0 z" fill="#ff00f0" stroke="black" stroke-width="5"/>
<path d="M4269,1892 l1589,0 l0,608 l-1589,0 z" fill="#fb00ff" stroke="black" stroke-width="5"/>
<path d="M5162,1497 l463,0 l0,395 l-463,0 z" fill="#ff00f9" stroke="black" stroke-width="5"/>
<path d="M4324,5646 l858,0 l0,1885 l-858,0 z" fill="#b900ff" stroke="black" stroke-width="5"/>
<path d="M3756,7751 l1021,0 l0,1021 l-1021,0 z" fill="#ff00fe" stroke="black" stroke-width="5"/>
<path d="M4283,4284 l847,0 l0,714 l-847,0 z" fill="#ff00e7" stroke="black" stroke-width="5"/>
<path d="M0,9456 l972,0 l0,544 l-972,0 z" fill="#e600ff" stroke="black" stroke-width="5"/>
<path d="M7886,9236 l708,0 l0,556 l-708,0 z" fill="#ff00fe" stroke="black" stroke-width="5"/>
<path d="M5899,7504 l654,0 l0,2496 l-654,0 z" fill="#7800ff" stroke="black" stroke-width="5"/>
<path d="M5329,7141 l2345,0 l0,363 l-2345,0 z" fill="#ff00fb" stroke="black" stroke-width="5"/>
<path d="M1483,2066 l1035,0 l0,961 l-1035,0 z" fill="#fb00ff" stroke="black" stroke-width="5"/>
<path d="M7945,7598 l183,0 l0,183 l-183,0 z" fill="#ff00fb" stroke="black" stroke-width="5"/>
<path d="M4371,2500 l1071,0 l0,1245 l-1071,0 z" fill="#e100ff" stroke="black" stroke-width="5"/>
<path d="M6275,6640 l629,0 l0,497 l-629,0 z" fill="#ff00f7" stroke="black" stroke-width="5"/>
<path d="M6192,295 l519,0 l0,820 l-519,0 z" fill="#6800ff" stroke="black" stroke-width="5"/>
<path d="M3700,1009 l569,0 l0,2354 l-569,0 z" fill="#8800ff" stroke="black" stroke-width="5"/>
<path d="M2066,7194 l301,0 l0,301 l-301,0 z" fill="#ff00e8" stroke="black" stroke-width="5"/>
<path d="M9129,4845 l377,0 l0,301 l-377,0 z" fill="#ff00fb" stroke="black" stroke-width="5"/>
<path d="M8694,5012 l383,0 l0,383 l-383,0 z" fill="#ff00f0" stroke="black" stroke-width="5"/>
<path d="M5638,4169 l702,0 l0,979 l-702,0 z" fill="#ff00fe" stroke="black" stroke-width="5"/>
<path d="M1947,3157 l775,0 l0,475 l-775,0 z" fill="#1a00ff" stroke="black" stroke-width="5"/>
<path d="M7110,1225 l1219,0 l0,456 l-1219,0 z" fill="#6400ff" stroke="black" stroke-width="5"/>
<path d="M285,1765 l453,0 l0,453 l-453,0 z" fill="#ff00f4" stroke="black" stroke-width="5"/>
<path d="M470,8417 l763,0 l0,549 l-763,0 z" fill="#ff00e7" stroke="black" stroke-width="5"/>
<path d="M1483,1680 l1035,0 l0,386 l-1035,0 z" fill="#3600ff" stroke="black" stroke-width="5"/>
<path d="M6256,1630 l404,0 l0,343 l-404,0 z" fill="#ff00fe" stroke="black" stroke-width="5"/>
<path d="M1287,3169 l660,0 l0,892 l-660,0 z" fill="#ff00fa" stroke="black" stroke-width="5"/>
<path d="M9089,5146 l911,0 l0,533 l-911,0 z" fill="#1e00ff" stroke="black" stroke-width="5"/>
<path d="M2912,3461 l523,0 l0,523 l-523,0 z" fill="#ff00f8" stroke="black" stroke-width="5"/>
<path d="M5545,322 l647,0 l0,531 l-647,0 z" fill="#ff00f9" stroke="black" stroke-width="5"/>
<path d="M0,8166 l277,0 l0,435 l-277,0 z" fill="#ff00f7" stroke="black" stroke-width="5"/>
<path d="M4119,3510 l252,0 l0,459 l-252,0 z" fill="#ff00fe" stroke="black" stroke-width="5"/>
<path d="M1991,8205 l524,0 l0,943 l-524,0 z" fill="#ff00fe" stroke="black" stroke-width="5"/>
<path d="M7110,701 l2258,0 l0,524 l-2258,0 z" fill="#8e00ff" stroke="black" stroke-width="5"/>
<path d="M8813,4440 l837,0 l0,401 l-837,0 z" fill="#ff00f7" stroke="black" stroke-width="5"/>
<path d="M8408,5291 l279,0 l0,279 l-279,0 z" fill="#ff00f9" stroke="black" stroke-width="5"/>
<path d="M9368,195 l632,0 l0,665 l-632,0 z" fill="#ff00fc" stroke="black" stroke-width="5"/>
<path d="M2515,8001 l816,0 l0,548 l-816,0 z" fill="#ff00fe" stroke="black" stroke-width="5"/>
<path d="M972,9050 l422,0 l0,737 l-422,0 z" fill="#ff00fc" stroke="black" stroke-width="5"/>
<path d="M5211,8473 l682,0 l0,627 l-682,0 z" fill="#ff00fe" stroke="black" stroke-width="5"/>
<path d="M9746,862 l254,0 l0,361 l-254,0 z" fill="#ff00f9" stroke="black" stroke-width="5"/>
<path d="M2722,3137 l978,0 l0,157 l-978,0 z" fill="#0c00ff" stroke="black" stroke-width="5"/>
<path d="M6711,0 l633,0 l0,701 l-633,0 z" fill="#ec00ff" stroke="black" stroke-width="5"/>
<path d="M3039,5030 l1868,0 l0,616 l-1868,0 z" fill="#ff00fe" stroke="black" stroke-width="5"/>
<path d="M7768,6176 l337,0 l0,337 l-337,0 z" fill="#ff00ed" stroke="black" stroke-width="5"/>
<path d="M2722,3294 l893,0 l0,167 l-893,0 z" fill="#0e00ff" stroke="black" stroke-width="5"/>
<path d="M8797,7069 l793,0 l0,529 l-793,0 z" fill="#ff00e6" stroke="black" stroke-width="5"/>
<path d="M7487,5195 l921,0 l0,155 l-921,0 z" fill="#1200ff" stroke="black" stroke-width="5"/>
<path d="M2929,5915 l315,0 l0,315 l-315,0 z" fill="#ff00ea" stroke="black" stroke-width="5"/>
<path d="M2555,2393 l1145,0 l0,744 l-1145,0 z" fill="#8700ff" stroke="black" stroke-width="5"/>
<path d="M7344,0 l2024,0 l0,701 l-2024,0 z" fill="#e800ff" stroke="black" stroke-width="5"/>
<path d="M9804,0 l92,0 l0,93 l-92,0 z" fill="#ff00fe" stroke="black" stroke-width="5"/>
<path d="M6340,4474 l442,0 l0,863 l-442,0 z" fill="#ff00f7" stroke="black" stroke-width="5"/>
<path d="M6449,3095 l531,0 l0,511 l-531,0 z" fill="#ff00fe" stroke="black" stroke-width="5"/>
<path d="M413,3027 l2142,0 l0,130 l-2142,0 z" fill="#0e00ff" stroke="black" stroke-width="5"/>
<path d="M2518,1707 l685,0 l0,686 l-685,0 z" fill="#ff00fc" stroke="black" stroke-width="5"/>
<path d="M8732,8669 l506,0 l0,523 l-506,0 z" fill="#ff00f5" stroke="black" stroke-width="5"/>
<path d="M2235,4061 l787,0 l0,787 l-787,0 z" fill="#ff00fe" stroke="black" stroke-width="5"/>
<path d="M7870,8669 l862,0 l0,567 l-862,0 z" fill="#5100ff" stroke="black" stroke-width="5"/>
<path d="M1165,927 l1289,0 l0,753 l-1289,0 z" fill="#ff00fe" stroke="black" stroke-width="5"/>
<path d="M5442,2500 l1005,0 l0,1185 l-1005,0 z" fill="#f300ff" stroke="black" stroke-width="5"/>
<path d="M2515,8549 l220,0 l0,1451 l-220,0 z" fill="#3800ff" stroke="black" stroke-width="5"/>
<path d="M9239,7598 l761,0 l0,2402 l-761,0 z" fill="#ea00ff" stroke="black" stroke-width="5"/>
<path d="M6553,8699 l1317,0 l0,1301 l-1317,0 z" fill="#ff00fd" stroke="black" stroke-width="5"/>
<path d="M2875,6715 l255,0 l0,287 l-255,0 z" fill="#ff00fa" stroke="black" stroke-width="5"/>
<path d="M1735,6098 l695,0 l0,695 l-695,0 z" fill="#ff00fd" stroke="black" stroke-width="5"/>
<path d="M9843,1223 l157,0 l0,1851 l-157,0 z" fill="#ff00fe" stroke="black" stroke-width="5"/>
<path d="M8725,3048 l775,0 l0,599 l-775,0 z" fill="#ff00f6" stroke="black" stroke-width="5"/>
<path d="M8128,7598 l1111,0 l0,1071 l-1111,0 z" fill="#fe00ff" stroke="black" stroke-width="5"/>
<path d="M704,0 l1754,0 l0,927 l-1754,0 z" fill="#9100ff" stroke="black" stroke-width="5"/>
<path d="M7500,2132 l2039,0 l0,166 l-2039,0 z" fill="#0700ff" stroke="black" stroke-width="5"/>
<path d="M0,2218 l1008,0 l0,809 l-1008,0 z" fill="#7700ff" stroke="black" stroke-width="5"/>
<path d="M9539,1364 l304,0 l0,1455 l-304,0 z" fill="#ff00f7" stroke="black" stroke-width="5"/>
<path d="M1008,2035 l475,0 l0,475 l-475,0 z" fill="#ff00f5" stroke="black" stroke-width="5"/>
<path d="M6447,2134 l1053,0 l0,794 l-1053,0 z" fill="#ff00f7" stroke="black" stroke-width="5"/>
<path d="M7919,2298 l1576,0 l0,729 l-1576,0 z" fill="#ff00fd" stroke="black" stroke-width="5"/>
<path d="M4798,3745 l71,0 l0,72 l-71,0 z" fill="#ff00fe" stroke="black" stroke-width="5"/>
<path d="M7519,5350 l878,0 l0,824 l-878,0 z" fill="#ff00fd" stroke="black" stroke-width="5"/>
<path d="M4777,7531 l1122,0 l0,942 l-1122,0 z" fill="#e900ff" stroke="black" stroke-width="5"/>
<path d="M0,78 l704,0 l0,1129 l-704,0 z" fill="#ff00fc" stroke="black" stroke-width="5"/>
<path d="M0,3038 l413,0 l0,1250 l-413,0 z" fill="#ff00fe" stroke="black" stroke-width="5"/>
<path d="M2458,0 l774,0 l0,601 l-774,0 z" fill="#ff00fe" stroke="black" stroke-width="5"/>
<path d="M6287,1500 l60,0 l0,60 l-60,0 z" fill="green"/>
<path d="M6317,1530 l50.5,5" stroke="black" stroke-width="5"/>
<path d="M379,5437 l60,0 l0,60 l-60,0 z" fill="green"/>
<path d="M409,5467 l252.5,0.5" stroke="black" stroke-width="5"/>
<path d="M7821,1789 l60,0 l0,60 l-60,0 z" fill="green"/>
<path d="M7851,1819 l0.5,29" stroke="black" stroke-width="5"/>
<path d="M6302,2004 l60,0 l0,60 l-60,0 z" fill="green"/>
<path d="M6332,2034 l425,18.5" stroke="black" stroke-width="5"/>
<path d="M4375,752 l60,0 l0,60 l-60,0 z" fill="green"/>
<path d="M4405,782 l0.5,0.5" stroke="black" stroke-width="5"/>
<path d="M5495,6174 l60,0 l0,60 l-60,0 z" fill="green"/>
<path d="M5525,6204 l476.5,-23" stroke="black" stroke-width="5"/>
<path d="M8770,5610 l60,0 l0,60 l-60,0 z" fill="green"/>
<path d="M8800,5640 l0.5,118" stroke="black" stroke-width="5"/>
<path d="M8830,4009 l60,0 l0,60 l-60,0 z" fill="green"/>
<path d="M8860,4039 l0.5,0.5" stroke="black" stroke-width="5"/>
<path d="M3485,8341 l60,0 l0,60 l-60,0 z" fill="green"/>
<path d="M3515,8371 l0.5,0.5" stroke="black" stroke-width="5"/>
<path d="M656,8318 l60,0 l0,60 l-60,0 z" fill="green"/>
<path d="M686,8348 l283,-428" stroke="black" stroke-width="5"/>
<path d="M5866,1077 l60,0 l0,60 l-60,0 z" fill="green"/>
<path d="M5896,1107 l-154.5,39.5" stroke="black" stroke-width="5"/>
<path d="M3825,6637 l60,0 l0,60 l-60,0 z" fill="green"/>
<path d="M3855,6667 l0.5,22" stroke="black" stroke-width="5"/>
<path d="M4088,7020 l60,0 l0,60 l-60,0 z" fill="green"/>
<path d="M4118,7050 l-94.5,87" stroke="black" stroke-width="5"/>
<path d="M9875,5936 l60,0 l0,60 l-60,0 z" fill="green"/>
<path d="M9905,5966 l-287,309.5" stroke="black" stroke-width="5"/>
<path d="M449,9349 l60,0 l0,60 l-60,0 z" fill="green"/>
<path d="M479,9379 l7,-168" stroke="black" stroke-width="5"/>
<path d="M7125,5706 l60,0 l0,60 l-60,0 z" fill="green"/>
<path d="M7155,5736 l0.5,0.5" stroke="black" stroke-width="5"/>
<path d="M6335,3766 l60,0 l0,60 l-60,0 z" fill="green"/>
<path d="M6365,3796 l0.5,0.5" stroke="black" stroke-width="5"/>
<path d="M1541,5515 l60,0 l0,60 l-60,0 z" fill="green"/>
<path d="M1571,5545 l0.5,0.5" stroke="black" stroke-width="5"/>
<path d="M7566,5072 l60,0 l0,60 l-60,0 z" fill="green"/>
<path d="M7596,5102 l261,-260" stroke="black" stroke-width="5"/>
<path d="M3379,6121 l60,0 l0,60 l-60,0 z" fill="green"/>
<path d="M3409,6151 l375,-56" stroke="black" stroke-width="5"/>
<path d="M6823,3632 l60,0 l0,60 l-60,0 z" fill="green"/>
<path d="M6853,3662 l115.5,311" stroke="black" stroke-width="5"/>
<path d="M2759,8569 l60,0 l0,60 l-60,0 z" fill="green"/>
<path d="M2789,8599 l286,675.5" stroke="black" stroke-width="5"/>
<path d="M6574,1140 l60,0 l0,60 l-60,0 z" fill="green"/>
<path d="M6604,1170 l5.5,107.5" stroke="black" stroke-width="5"/>
<path d="M8827,6828 l60,0 l0,60 l-60,0 z" fill="green"/>
<path d="M8857,6858 l0.5,-78" stroke="black" stroke-width="5"/>
<path d="M7193,5026 l60,0 l0,60 l-60,0 z" fill="green"/>
<path d="M7223,5056 l-82,-190" stroke="black" stroke-width="5"/>
<path d="M5556,5035 l60,0 l0,60 l-60,0 z" fill="green"/>
<path d="M5586,5065 l-6.5,0.5" stroke="black" stroke-width="5"/>
<path d="M4301,9325 l60,0 l0,60 l-60,0 z" fill="green"/>
<path d="M4331,9355 l-18,31" stroke="black" stroke-width="5"/>
<path d="M1014,3306 l60,0 l0,60 l-60,0 z" fill="green"/>
<path d="M1044,3336 l-149.5,177.5" stroke="black" stroke-width="5"/>
<path d="M2531,6815 l60,0 l0,60 l-60,0 z" fill="green"/>
<path d="M2561,6845 l-1123.5,148.5" stroke="black" stroke-width="5"/>
<path d="M6215,199 l60,0 l0,60 l-60,0 z" fill="green"/>
<path d="M6245,229 l-792.5,-81.5" stroke="black" stroke-width="5"/>
<path d="M8741,1979 l60,0 l0,60 l-60,0 z" fill="green"/>
<path d="M8771,2009 l163,-330.5" stroke="black" stroke-width="5"/>
<path d="M5705,5428 l60,0 l0,60 l-60,0 z" fill="green"/>
<path d="M5735,5458 l0.5,0.5" stroke="black" stroke-width="5"/>
<path d="M8013,3580 l60,0 l0,60 l-60,0 z" fill="green"/>
<path d="M8043,3610 l-89,0.5" stroke="black" stroke-width="5"/>
<path d="M3837,3627 l60,0 l0,60 l-60,0 z" fill="green"/>
<path d="M3867,3657 l-12,228.5" stroke="black" stroke-width="5"/>
<path d="M5571,6791 l60,0 l0,60 l-60,0 z" fill="green"/>
<path d="M5601,6821 l0.5,0.5" stroke="black" stroke-width="5"/>
<path d="M2439,1603 l60,0 l0,60 l-60,0 z" fill="green"/>
<path d="M2469,1633 l542.5,-326" stroke="black" stroke-width="5"/>
<path d="M2365,3792 l60,0 l0,60 l-60,0 z" fill="green"/>
<path d="M2395,3822 l0.5,0.5" stroke="black" stroke-width="5"/>
<path d="M5509,1933 l60,0 l0,60 l-60,0 z" fill="green"/>
<path d="M5539,1963 l-475.5,233" stroke="black" stroke-width="5"/>
<path d="M5363,1698 l60,0 l0,60 l-60,0 z" fill="green"/>
<path d="M5393,1728 l0.5,-33.5" stroke="black" stroke-width="5"/>
<path d="M4349,6685 l60,0 l0,60 l-60,0 z" fill="green"/>
<path d="M4379,6715 l374,-126.5" stroke="black" stroke-width="5"/>
<path d="M4236,8231 l60,0 l0,60 l-60,0 z" fill="green"/>
<path d="M4266,8261 l0.5,0.5" stroke="black" stroke-width="5"/>
<path d="M4676,4677 l60,0 l0,60 l-60,0 z" fill="green"/>
<path d="M4706,4707 l0.5,-66" stroke="black" stroke-width="5"/>
<path d="M527,9502 l60,0 l0,60 l-60,0 z" fill="green"/>
<path d="M557,9532 l-71,196" stroke="black" stroke-width="5"/>
<path d="M8062,9260 l60,0 l0,60 l-60,0 z" fill="green"/>
<path d="M8092,9290 l148,224" stroke="black" stroke-width="5"/>
<path d="M5944,8528 l60,0 l0,60 l-60,0 z" fill="green"/>
<path d="M5974,8558 l252,194" stroke="black" stroke-width="5"/>
<path d="M6471,7182 l60,0 l0,60 l-60,0 z" fill="green"/>
<path d="M6501,7212 l0.5,110.5" stroke="black" stroke-width="5"/>
<path d="M2161,2279 l60,0 l0,60 l-60,0 z" fill="green"/>
<path d="M2191,2309 l-190.5,237.5" stroke="black" stroke-width="5"/>
<path d="M8006,7659 l60,0 l0,60 l-60,0 z" fill="green"/>
<path d="M8036,7689 l0.5,0.5" stroke="black" stroke-width="5"/>
<path d="M4723,3238 l60,0 l0,60 l-60,0 z" fill="green"/>
<path d="M4753,3268 l153.5,-145.5" stroke="black" stroke-width="5"/>
<path d="M6559,6924 l60,0 l0,60 l-60,0 z" fill="green"/>
<path d="M6589,6954 l0.5,-65.5" stroke="black" stroke-width="5"/>
<path d="M6232,801 l60,0 l0,60 l-60,0 z" fill="green"/>
<path d="M6262,831 l189.5,-126" stroke="black" stroke-width="5"/>
<path d="M3772,3269 l60,0 l0,60 l-60,0 z" fill="green"/>
<path d="M3802,3299 l182.5,-1113" stroke="black" stroke-width="5"/>
<path d="M2186,7314 l60,0 l0,60 l-60,0 z" fill="green"/>
<path d="M2216,7344 l0.5,0.5" stroke="black" stroke-width="5"/>
<path d="M9287,4927 l60,0 l0,60 l-60,0 z" fill="green"/>
<path d="M9317,4957 l0.5,38.5" stroke="black" stroke-width="5"/>
<path d="M8855,5173 l60,0 l0,60 l-60,0 z" fill="green"/>
<path d="M8885,5203 l0.5,0.5" stroke="black" stroke-width="5"/>
<path d="M5869,5060 l60,0 l0,60 l-60,0 z" fill="green"/>
<path d="M5899,5090 l90,-431.5" stroke="black" stroke-width="5"/>
<path d="M2301,3529 l60,0 l0,60 l-60,0 z" fill="green"/>
<path d="M2331,3559 l3.5,-164.5" stroke="black" stroke-width="5"/>
<path d="M7924,1554 l60,0 l0,60 l-60,0 z" fill="green"/>
<path d="M7954,1584 l-234.5,-131" stroke="black" stroke-width="5"/>
<path d="M481,1961 l60,0 l0,60 l-60,0 z" fill="green"/>
<path d="M511,1991 l0.5,0.5" stroke="black" stroke-width="5"/>
<path d="M821,8661 l60,0 l0,60 l-60,0 z" fill="green"/>
<path d="M851,8691 l0.5,0.5" stroke="black" stroke-width="5"/>
<path d="M2434,1695 l60,0 l0,60 l-60,0 z" fill="green"/>
<path d="M2464,1725 l-463.5,148" stroke="black" stroke-width="5"/>
<path d="M6428,1741 l60,0 l0,60 l-60,0 z" fill="green"/>
<path d="M6458,1771 l0,30.5" stroke="black" stroke-width="5"/>
<path d="M1756,3531 l60,0 l0,60 l-60,0 z" fill="green"/>
<path d="M1786,3561 l-169,54" stroke="black" stroke-width="5"/>
<path d="M9949,5597 l60,0 l0,60 l-60,0 z" fill="green"/>
<path d="M9979,5627 l-434.5,-214.5" stroke="black" stroke-width="5"/>
<path d="M3143,3692 l60,0 l0,60 l-60,0 z" fill="green"/>
<path d="M3173,3722 l0.5,0.5" stroke="black" stroke-width="5"/>
<path d="M5901,608 l60,0 l0,60 l-60,0 z" fill="green"/>
<path d="M5931,638 l-62.5,-50.5" stroke="black" stroke-width="5"/>
<path d="M29,8353 l60,0 l0,60 l-60,0 z" fill="green"/>
<path d="M59,8383 l79.5,0.5" stroke="black" stroke-width="5"/>
<path d="M4286,3709 l60,0 l0,60 l-60,0 z" fill="green"/>
<path d="M4316,3739 l-71,0.5" stroke="black" stroke-width="5"/>
<path d="M2432,8646 l60,0 l0,60 l-60,0 z" fill="green"/>
<path d="M2462,8676 l-209,0.5" stroke="black" stroke-width="5"/>
<path d="M7527,1116 l60,0 l0,60 l-60,0 z" fill="green"/>
<path d="M7557,1146 l682,-183" stroke="black" stroke-width="5"/>
<path d="M9201,4756 l60,0 l0,60 l-60,0 z" fill="green"/>
<path d="M9231,4786 l0.5,-145.5" stroke="black" stroke-width="5"/>
<path d="M8534,5417 l60,0 l0,60 l-60,0 z" fill="green"/>
<path d="M8564,5447 l-16.5,-16.5" stroke="black" stroke-width="5"/>
<path d="M9947,774 l60,0 l0,60 l-60,0 z" fill="green"/>
<path d="M9977,804 l-293,-276.5" stroke="black" stroke-width="5"/>
<path d="M2844,8469 l60,0 l0,60 l-60,0 z" fill="green"/>
<path d="M2874,8499 l49,-224" stroke="black" stroke-width="5"/>
<path d="M995,9388 l60,0 l0,60 l-60,0 z" fill="green"/>
<path d="M1025,9418 l158,0.5" stroke="black" stroke-width="5"/>
<path d="M5646,8498 l60,0 l0,60 l-60,0 z" fill="green"/>
<path d="M5676,8528 l-124,258.5" stroke="black" stroke-width="5"/>
<path d="M9922,986 l60,0 l0,60 l-60,0 z" fill="green"/>
<path d="M9952,1016 l-79,26.5" stroke="black" stroke-width="5"/>
<path d="M3008,3160 l60,0 l0,60 l-60,0 z" fill="green"/>
<path d="M3038,3190 l173,25.5" stroke="black" stroke-width="5"/>
<path d="M6922,390 l60,0 l0,60 l-60,0 z" fill="green"/>
<path d="M6952,420 l75.5,-69.5" stroke="black" stroke-width="5"/>
<path d="M3943,5560 l60,0 l0,60 l-60,0 z" fill="green"/>
<path d="M3973,5590 l0,-252" stroke="black" stroke-width="5"/>
<path d="M7906,6314 l60,0 l0,60 l-60,0 z" fill="green"/>
<path d="M7936,6344 l0.5,0.5" stroke="black" stroke-width="5"/>
<path d="M3279,3367 l60,0 l0,60 l-60,0 z" fill="green"/>
<path d="M3309,3397 l-140.5,-19.5" stroke="black" stroke-width="5"/>
<path d="M9163,7171 l60,0 l0,60 l-60,0 z" fill="green"/>
<path d="M9193,7201 l0.5,132.5" stroke="black" stroke-width="5"/>
<path d="M7794,5260 l60,0 l0,60 l-60,0 z" fill="green"/>
<path d="M7824,5290 l123.5,-17.5" stroke="black" stroke-width="5"/>
<path d="M3056,6042 l60,0 l0,60 l-60,0 z" fill="green"/>
<path d="M3086,6072 l0.5,0.5" stroke="black" stroke-width="5"/>
<path d="M2962,3052 l60,0 l0,60 l-60,0 z" fill="green"/>
<path d="M2992,3082 l135.5,-317" stroke="black" stroke-width="5"/>
<path d="M7382,264 l60,0 l0,60 l-60,0 z" fill="green"/>
<path d="M7412,294 l944,56.5" stroke="black" stroke-width="5"/>
<path d="M9819,16 l60,0 l0,60 l-60,0 z" fill="green"/>
<path d="M9849,46 l1,0.5" stroke="black" stroke-width="5"/>
<path d="M6507,4875 l60,0 l0,60 l-60,0 z" fill="green"/>
<path d="M6537,4905 l24,0.5" stroke="black" stroke-width="5"/>
<path d="M6599,3414 l60,0 l0,60 l-60,0 z" fill="green"/>
<path d="M6629,3444 l85.5,-93.5" stroke="black" stroke-width="5"/>
<path d="M780,3054 l60,0 l0,60 l-60,0 z" fill="green"/>
<path d="M810,3084 l674,8" stroke="black" stroke-width="5"/>
<path d="M2705,1929 l60,0 l0,60 l-60,0 z" fill="green"/>
<path d="M2735,1959 l125.5,91" stroke="black" stroke-width="5"/>
<path d="M8997,8810 l60,0 l0,60 l-60,0 z" fill="green"/>
<path d="M9027,8840 l-42,90.5" stroke="black" stroke-width="5"/>
<path d="M2598,4424 l60,0 l0,60 l-60,0 z" fill="green"/>
<path d="M2628,4454 l0.5,0.5" stroke="black" stroke-width="5"/>
<path d="M8364,9128 l60,0 l0,60 l-60,0 z" fill="green"/>
<path d="M8394,9158 l-93,-205.5" stroke="black" stroke-width="5"/>
<path d="M2408,1592 l60,0 l0,60 l-60,0 z" fill="green"/>
<path d="M2438,1622 l-628.5,-318.5" stroke="black" stroke-width="5"/>
<path d="M6036,3235 l60,0 l0,60 l-60,0 z" fill="green"/>
<path d="M6066,3265 l-121.5,-172.5" stroke="black" stroke-width="5"/>
<path d="M2649,8731 l60,0 l0,60 l-60,0 z" fill="green"/>
<path d="M2679,8761 l-54,513.5" stroke="black" stroke-width="5"/>
<path d="M9642,8170 l60,0 l0,60 l-60,0 z" fill="green"/>
<path d="M9672,8200 l-52.5,599" stroke="black" stroke-width="5"/>
<path d="M7467,9613 l60,0 l0,60 l-60,0 z" fill="green"/>
<path d="M7497,9643 l-285.5,-293.5" stroke="black" stroke-width="5"/>
<path d="M2956,6828 l60,0 l0,60 l-60,0 z" fill="green"/>
<path d="M2986,6858 l16.5,0.5" stroke="black" stroke-width="5"/>
<path d="M2052,6415 l60,0 l0,60 l-60,0 z" fill="green"/>
<path d="M2082,6445 l0.5,0.5" stroke="black" stroke-width="5"/>
<path d="M9874,2085 l60,0 l0,60 l-60,0 z" fill="green"/>
<path d="M9904,2115 l17.5,33.5" stroke="black" stroke-width="5"/>
<path d="M9082,3349 l60,0 l0,60 l-60,0 z" fill="green"/>
<path d="M9112,3379 l0.5,-31.5" stroke="black" stroke-width="5"/>
<path d="M9147,8580 l60,0 l0,60 l-60,0 z" fill="green"/>
<path d="M9177,8610 l-493.5,-476.5" stroke="black" stroke-width="5"/>
<path d="M2375,-14 l60,0 l0,60 l-60,0 z" fill="green"/>
<path d="M2405,16 l-824,447.5" stroke="black" stroke-width="5"/>
<path d="M9000,2199 l60,0 l0,60 l-60,0 z" fill="green"/>
<path d="M9030,2229 l-510.5,-14" stroke="black" stroke-width="5"/>
<path d="M576,2646 l60,0 l0,60 l-60,0 z" fill="green"/>
<path d="M606,2676 l-102,-53.5" stroke="black" stroke-width="5"/>
<path d="M9720,2061 l60,0 l0,60 l-60,0 z" fill="green"/>
<path d="M9750,2091 l-59,0.5" stroke="black" stroke-width="5"/>
<path d="M1215,2242 l60,0 l0,60 l-60,0 z" fill="green"/>
<path d="M1245,2272 l0.5,0.5" stroke="black" stroke-width="5"/>
<path d="M6943,2371 l60,0 l0,60 l-60,0 z" fill="green"/>
<path d="M6973,2401 l0.5,130" stroke="black" stroke-width="5"/>
<path d="M8940,2681 l60,0 l0,60 l-60,0 z" fill="green"/>
<path d="M8970,2711 l-263,-48.5" stroke="black" stroke-width="5"/>
<path d="M4803,3751 l60,0 l0,60 l-60,0 z" fill="green"/>
<path d="M4833,3781 l0.5,0" stroke="black" stroke-width="5"/>
<path d="M7760,5591 l60,0 l0,60 l-60,0 z" fill="green"/>
<path d="M7790,5621 l168,141" stroke="black" stroke-width="5"/>
<path d="M5617,8350 l60,0 l0,60 l-60,0 z" fill="green"/>
<path d="M5647,8380 l-309,-378" stroke="black" stroke-width="5"/>
<path d="M109,612 l60,0 l0,60 l-60,0 z" fill="green"/>
<path d="M139,642 l213,0.5" stroke="black" stroke-width="5"/>
<path d="M11,3446 l60,0 l0,60 l-60,0 z" fill="green"/>
<path d="M41,3476 l165.5,187" stroke="black" stroke-width="5"/>
<path d="M2647,16 l60,0 l0,60 l-60,0 z" fill="green"/>
<path d="M2677,46 l168,254.5" stroke="black" stroke-width="5"/>
<text font-size="130.18891098082386" text-anchor="middle" x="6367.5" y="1580.5661188432885">
0
</text>
<text font-size="130.18891098082386" text-anchor="middle" x="661.5" y="5513.066118843289">
1
</text>
<text font-size="130.18891098082386" text-anchor="middle" x="7851.5" y="1893.5661188432885">
2
</text>
<text font-size="130.18891098082386" text-anchor="middle" x="6757" y="2098.066118843288">
3
</text>
<text font-size="130.18891098082386" text-anchor="middle" x="4405.5" y="828.0661188432883">
4
</text>
<text font-size="130.18891098082386" text-anchor="middle" x="6001.5" y="6226.566118843289">
5
</text>
<text font-size="130.18891098082386" text-anchor="middle" x="8800.5" y="5803.566118843289">
6
</text>
<text font-size="130.18891098082386" text-anchor="middle" x="8860.5" y="4085.066118843288">
7
</text>
<text font-size="130.18891098082386" text-anchor="middle" x="3515.5" y="8417.066118843288">
8
</text>
<text font-size="130.18891098082386" text-anchor="middle" x="969" y="7965.566118843289">
9
</text>
<text font-size="130.18891098082386" text-anchor="middle" x="5741.5" y="1192.0661188432885">
10
</text>
<text font-size="130.18891098082386" text-anchor="middle" x="3855.5" y="6734.566118843289">
11
</text>
<text font-size="130.18891098082386" text-anchor="middle" x="4023.5" y="7182.566118843289">
12
</text>
<text font-size="130.18891098082386" text-anchor="middle" x="9618" y="6321.066118843289">
13
</text>
<text font-size="130.18891098082386" text-anchor="middle" x="486" y="9256.566118843288">
14
</text>
<text font-size="130.18891098082386" text-anchor="middle" x="7155.5" y="5782.066118843289">
15
</text>
<text font-size="130.18891098082386" text-anchor="middle" x="6365.5" y="3842.066118843288">
16
</text>
<text font-size="130.18891098082386" text-anchor="middle" x="1571.5" y="5591.066118843289">
17
</text>
<text font-size="130.18891098082386" text-anchor="middle" x="7857" y="4887.566118843289">
18
</text>
<text font-size="130.18891098082386" text-anchor="middle" x="3784" y="6140.566118843289">
19
</text>
<text font-size="130.18891098082386" text-anchor="middle" x="6968.5" y="4018.566118843288">
20
</text>
<text font-size="130.18891098082386" text-anchor="middle" x="3075" y="9320.066118843288">
21
</text>
<text font-size="130.18891098082386" text-anchor="middle" x="6609.5" y="1323.0661188432885">
22
</text>
<text font-size="130.18891098082386" text-anchor="middle" x="8857.5" y="6825.566118843289">
23
</text>
<text font-size="130.18891098082386" text-anchor="middle" x="7141" y="4911.566118843289">
24
</text>
<text font-size="130.18891098082386" text-anchor="middle" x="5579.5" y="5111.066118843289">
25
</text>
<text font-size="130.18891098082386" text-anchor="middle" x="4313" y="9431.566118843288">
26
</text>
<text font-size="130.18891098082386" text-anchor="middle" x="894.5" y="3559.066118843288">
27
</text>
<text font-size="130.18891098082386" text-anchor="middle" x="1437.5" y="7039.066118843289">
28
</text>
<text font-size="130.18891098082386" text-anchor="middle" x="5452.5" y="193.06611884328834">
29
</text>
<text font-size="130.18891098082386" text-anchor="middle" x="8934" y="1724.0661188432885">
30
</text>
<text font-size="130.18891098082386" text-anchor="middle" x="5735.5" y="5504.066118843289">
31
</text>
<text font-size="130.18891098082386" text-anchor="middle" x="7954" y="3656.066118843288">
32
</text>
<text font-size="130.18891098082386" text-anchor="middle" x="3855" y="3931.066118843288">
33
</text>
<text font-size="130.18891098082386" text-anchor="middle" x="5601.5" y="6867.066118843289">
34
</text>
<text font-size="130.18891098082386" text-anchor="middle" x="3011.5" y="1352.5661188432885">
35
</text>
<text font-size="130.18891098082386" text-anchor="middle" x="2395.5" y="3868.066118843288">
36
</text>
<text font-size="130.18891098082386" text-anchor="middle" x="5063.5" y="2241.566118843288">
37
</text>
<text font-size="130.18891098082386" text-anchor="middle" x="5393.5" y="1740.0661188432885">
38
</text>
<text font-size="130.18891098082386" text-anchor="middle" x="4753" y="6634.066118843289">
39
</text>
<text font-size="130.18891098082386" text-anchor="middle" x="4266.5" y="8307.066118843288">
40
</text>
<text font-size="130.18891098082386" text-anchor="middle" x="4706.5" y="4686.566118843289">
41
</text>
<text font-size="130.18891098082386" text-anchor="middle" x="486" y="9773.566118843288">
42
</text>
<text font-size="130.18891098082386" text-anchor="middle" x="8240" y="9559.566118843288">
43
</text>
<text font-size="130.18891098082386" text-anchor="middle" x="6226" y="8797.566118843288">
44
</text>
<text font-size="130.18891098082386" text-anchor="middle" x="6501.5" y="7368.066118843289">
45
</text>
<text font-size="130.18891098082386" text-anchor="middle" x="2000.5" y="2592.066118843288">
46
</text>
<text font-size="130.18891098082386" text-anchor="middle" x="8036.5" y="7735.066118843289">
47
</text>
<text font-size="130.18891098082386" text-anchor="middle" x="4906.5" y="3168.066118843288">
48
</text>
<text font-size="130.18891098082386" text-anchor="middle" x="6589.5" y="6934.066118843289">
49
</text>
<text font-size="130.18891098082386" text-anchor="middle" x="6451.5" y="750.5661188432883">
50
</text>
<text font-size="130.18891098082386" text-anchor="middle" x="3984.5" y="2231.566118843288">
51
</text>
<text font-size="130.18891098082386" text-anchor="middle" x="2216.5" y="7390.066118843289">
52
</text>
<text font-size="130.18891098082386" text-anchor="middle" x="9317.5" y="5041.066118843289">
53
</text>
<text font-size="130.18891098082386" text-anchor="middle" x="8885.5" y="5249.066118843289">
54
</text>
<text font-size="130.18891098082386" text-anchor="middle" x="5989" y="4704.066118843289">
55
</text>
<text font-size="130.18891098082386" text-anchor="middle" x="2334.5" y="3440.066118843288">
56
</text>
<text font-size="130.18891098082386" text-anchor="middle" x="7719.5" y="1498.5661188432885">
57
</text>
<text font-size="130.18891098082386" text-anchor="middle" x="511.5" y="2037.0661188432885">
58
</text>
<text font-size="130.18891098082386" text-anchor="middle" x="851.5" y="8737.066118843288">
59
</text>
<text font-size="130.18891098082386" text-anchor="middle" x="2000.5" y="1918.5661188432885">
60
</text>
<text font-size="130.18891098082386" text-anchor="middle" x="6458" y="1847.0661188432885">
61
</text>
<text font-size="130.18891098082386" text-anchor="middle" x="1617" y="3660.566118843288">
62
</text>
<text font-size="130.18891098082386" text-anchor="middle" x="9544.5" y="5458.066118843289">
63
</text>
<text font-size="130.18891098082386" text-anchor="middle" x="3173.5" y="3768.066118843288">
64
</text>
<text font-size="130.18891098082386" text-anchor="middle" x="5868.5" y="633.0661188432883">
65
</text>
<text font-size="130.18891098082386" text-anchor="middle" x="138.5" y="8429.066118843288">
66
</text>
<text font-size="130.18891098082386" text-anchor="middle" x="4245" y="3785.066118843288">
67
</text>
<text font-size="130.18891098082386" text-anchor="middle" x="2253" y="8722.066118843288">
68
</text>
<text font-size="130.18891098082386" text-anchor="middle" x="8239" y="1008.5661188432883">
69
</text>
<text font-size="130.18891098082386" text-anchor="middle" x="9231.5" y="4686.066118843289">
70
</text>
<text font-size="130.18891098082386" text-anchor="middle" x="8547.5" y="5476.066118843289">
71
</text>
<text font-size="130.18891098082386" text-anchor="middle" x="9684" y="573.0661188432883">
72
</text>
<text font-size="130.18891098082386" text-anchor="middle" x="2923" y="8320.566118843288">
73
</text>
<text font-size="130.18891098082386" text-anchor="middle" x="1183" y="9464.066118843288">
74
</text>
<text font-size="130.18891098082386" text-anchor="middle" x="5552" y="8832.066118843288">
75
</text>
<text font-size="130.18891098082386" text-anchor="middle" x="9873" y="1088.0661188432885">
76
</text>
<text font-size="130.18891098082386" text-anchor="middle" x="3211" y="3261.066118843288">
77
</text>
<text font-size="130.18891098082386" text-anchor="middle" x="7027.5" y="396.06611884328834">
78
</text>
<text font-size="130.18891098082386" text-anchor="middle" x="3973" y="5383.566118843289">
79
</text>
<text font-size="130.18891098082386" text-anchor="middle" x="7936.5" y="6390.066118843289">
80
</text>
<text font-size="130.18891098082386" text-anchor="middle" x="3168.5" y="3423.066118843288">
81
</text>
<text font-size="130.18891098082386" text-anchor="middle" x="9193.5" y="7379.066118843289">
82
</text>
<text font-size="130.18891098082386" text-anchor="middle" x="7947.5" y="5318.066118843289">
83
</text>
<text font-size="130.18891098082386" text-anchor="middle" x="3086.5" y="6118.066118843289">
84
</text>
<text font-size="130.18891098082386" text-anchor="middle" x="3127.5" y="2810.566118843288">
85
</text>
<text font-size="130.18891098082386" text-anchor="middle" x="8356" y="396.06611884328834">
86
</text>
<text font-size="130.18891098082386" text-anchor="middle" x="9850" y="92.06611884328835">
87
</text>
<text font-size="130.18891098082386" text-anchor="middle" x="6561" y="4951.066118843289">
88
</text>
<text font-size="130.18891098082386" text-anchor="middle" x="6714.5" y="3396.066118843288">
89
</text>
<text font-size="130.18891098082386" text-anchor="middle" x="1484" y="3137.566118843288">
90
</text>
<text font-size="130.18891098082386" text-anchor="middle" x="2860.5" y="2095.566118843288">
91
</text>
<text font-size="130.18891098082386" text-anchor="middle" x="8985" y="8976.066118843288">
92
</text>
<text font-size="130.18891098082386" text-anchor="middle" x="2628.5" y="4500.066118843289">
93
</text>
<text font-size="130.18891098082386" text-anchor="middle" x="8301" y="8998.066118843288">
94
</text>
<text font-size="130.18891098082386" text-anchor="middle" x="1809.5" y="1349.0661188432885">
95
</text>
<text font-size="130.18891098082386" text-anchor="middle" x="5944.5" y="3138.066118843288">
96
</text>
<text font-size="130.18891098082386" text-anchor="middle" x="2625" y="9320.066118843288">
97
</text>
<text font-size="130.18891098082386" text-anchor="middle" x="9619.5" y="8844.566118843288">
98
</text>
<text font-size="130.18891098082386" text-anchor="middle" x="7211.5" y="9395.066118843288">
99
</text>
<text font-size="130.18891098082386" text-anchor="middle" x="3002.5" y="6904.066118843289">
100
</text>
<text font-size="130.18891098082386" text-anchor="middle" x="2082.5" y="6491.066118843289">
101
</text>
<text font-size="130.18891098082386" text-anchor="middle" x="9921.5" y="2194.066118843288">
102
</text>
<text font-size="130.18891098082386" text-anchor="middle" x="9112.5" y="3393.066118843288">
103
</text>
<text font-size="130.18891098082386" text-anchor="middle" x="8683.5" y="8179.066118843289">
104
</text>
<text font-size="130.18891098082386" text-anchor="middle" x="1581" y="509.06611884328834">
105
</text>
<text font-size="130.18891098082386" text-anchor="middle" x="8519.5" y="2260.566118843288">
106
</text>
<text font-size="130.18891098082386" text-anchor="middle" x="504" y="2668.066118843288">
107
</text>
<text font-size="130.18891098082386" text-anchor="middle" x="9691" y="2137.066118843288">
108
</text>
<text font-size="130.18891098082386" text-anchor="middle" x="1245.5" y="2318.066118843288">
109
</text>
<text font-size="130.18891098082386" text-anchor="middle" x="6973.5" y="2576.566118843288">
110
</text>
<text font-size="130.18891098082386" text-anchor="middle" x="8707" y="2708.066118843288">
111
</text>
<text font-size="130.18891098082386" text-anchor="middle" x="4833.5" y="3826.566118843288">
112
</text>
<text font-size="130.18891098082386" text-anchor="middle" x="7958" y="5807.566118843289">
113
</text>
<text font-size="130.18891098082386" text-anchor="middle" x="5338" y="8047.566118843289">
114
</text>
<text font-size="130.18891098082386" text-anchor="middle" x="352" y="688.0661188432883">
115
</text>
<text font-size="130.18891098082386" text-anchor="middle" x="206.5" y="3708.566118843288">
116
</text>
<text font-size="130.18891098082386" text-anchor="middle" x="2845" y="346.06611884328834">
117
</text>
</svg>