<svg viewBox="0 0 10000 10000" xmlns="http://www.w3.org/2000/svg">
<path d="M0,0 l10000,0 l0,10000 l-10000,0 z" fill="white"/>
<path d="M4335,4336 l5485,0 l0,5485 l-5485,0 z" fill="#ff0000" stroke="black" stroke-width="5"/>
<path d="M59,60 l8169,0 l0,8169 l-8169,0 z" fill="#ff0001" stroke="black" stroke-width="5"/>
<path d="M1858,1859 l3384,0 l0,3384 l-3384,0 z" fill="#ff0001" stroke="black" stroke-width="5"/>
<path d="M2368,2369 l-1251,0 l0,-1251 l1251,0 z" fill="#fd00ff" stroke="black" stroke-width="5"/>
<path d="M2507,2508 l-1947,0 l0,-1947 l1947,0 z" fill="#ff005b" stroke="black" stroke-width="5"/>
<path d="M6533,6534 l1176,0 l0,1176 l-1176,0 z" fill="#ff0089" stroke="black" stroke-width="5"/>
<path d="M6740,6741 l-5850,0 l0,-5850 l5850,0 z" fill="#ff0002" stroke="black" stroke-width="5"/>
<path d="M1468,1469 l4196,0 l0,4196 l-4196,0 z" fill="#ff0016" stroke="black" stroke-width="5"/>
<path d="M8296,8297 l-1026,0 l0,-1026 l1026,0 z" fill="#7900ff" stroke="black" stroke-width="5"/>
<path d="M5710,5711 l-5132,0 l0,-5132 l5132,0 z" fill="#ff0000" stroke="black" stroke-width="5"/>
<path d="M3244,3245 l-914,0 l0,-914 l914,0 z" fill="#0d00ff" stroke="black" stroke-width="5"/>
<path d="M999,1000 l8299,0 l0,8299 l-8299,0 z" fill="#ff0000" stroke="black" stroke-width="5"/>
<path d="M8382,8383 l-3357,0 l0,-3357 l3357,0 z" fill="#ff0051" stroke="black" stroke-width="5"/>
<path d="M3728,3729 l4432,0 l0,4432 l-4432,0 z" fill="#ff0000" stroke="black" stroke-width="5"/>
<path d="M6717,6718 l1793,0 l0,1793 l-1793,0 z" fill="#ff0000" stroke="black" stroke-width="5"/>
<path d="M3451,3452 l2076,0 l0,2076 l-2076,0 z" fill="#ff00af" stroke="black" stroke-width="5"/>
<path d="M4683,4684 l601,0 l0,601 l-601,0 z" fill="#3200ff" stroke="black" stroke-width="5"/>
<path d="M9641,9642 l212,0 l0,212 l-212,0 z" fill="#9000ff" stroke="black" stroke-width="5"/>
<path d="M1920,1921 l-1321,0 l0,-1321 l1321,0 z" fill="#ff0000" stroke="black" stroke-width="5"/>
<path d="M5563,5564 l376,0 l0,376 l-376,0 z" fill="#0700ff" stroke="black" stroke-width="5"/>
<path d="M7406,7407 l-3948,0 l0,-3948 l3948,0 z" fill="#ff0001" stroke="black" stroke-width="5"/>
<path d="M2225,2226 l229,0 l0,229 l-229,0 z" fill="#3500ff" stroke="black" stroke-width="5"/>
<path d="M8464,8465 l-3076,0 l0,-3076 l3076,0 z" fill="#ff0008" stroke="black" stroke-width="5"/>
<path d="M4788,4789 l1684,0 l0,1684 l-1684,0 z" fill="#fd00ff" stroke="black" stroke-width="5"/>
<path d="M1450,1451 l7225,0 l0,7225 l-7225,0 z" fill="#ff0000" stroke="black" stroke-width="5"/>
<path d="M3397,3398 l2081,0 l0,2081 l-2081,0 z" fill="#ff0059" stroke="black" stroke-width="5"/>
<path d="M7379,7380 l654,0 l0,654 l-654,0 z" fill="#1800ff" stroke="black" stroke-width="5"/>
<path d="M943,944 l7307,0 l0,7307 l-7307,0 z" fill="#ff0000" stroke="black" stroke-width="5"/>
<path d="M5647,5648 l-2138,0 l0,-2138 l2138,0 z" fill="#ff0077" stroke="black" stroke-width="5"/>
<path d="M3214,3215 l6105,0 l0,6105 l-6105,0 z" fill="#ff0004" stroke="black" stroke-width="5"/>
<path d="M5868,5869 l67,0 l0,67 l-67,0 z" fill="#0000ff" stroke="black" stroke-width="5"/>
<path d="M7016,7017 l1209,0 l0,1209 l-1209,0 z" fill="#ff000f" stroke="black" stroke-width="5"/>
<path d="M5215,5216 l551,0 l0,551 l-551,0 z" fill="#0a00ff" stroke="black" stroke-width="5"/>
<path d="M5675,5676 l-4550,0 l0,-4550 l4550,0 z" fill="#ff0004" stroke="black" stroke-width="5"/>
<path d="M4434,4435 l-2948,0 l0,-2948 l2948,0 z" fill="#ff006f" stroke="black" stroke-width="5"/>
<path d="M133,134 l4714,0 l0,4714 l-4714,0 z" fill="#ff000f" stroke="black" stroke-width="5"/>
<path d="M5123,5124 l-1323,0 l0,-1323 l1323,0 z" fill="#4f00ff" stroke="black" stroke-width="5"/>
<path d="M4440,4441 l-2447,0 l0,-2447 l2447,0 z" fill="#ff0011" stroke="black" stroke-width="5"/>
<path d="M9045,9046 l-5997,0 l0,-5997 l5997,0 z" fill="#ff0007" stroke="black" stroke-width="5"/>
<path d="M8990,8991 l-5766,0 l0,-5766 l5766,0 z" fill="#ff0015" stroke="black" stroke-width="5"/>
<path d="M5176,5177 l-4635,0 l0,-4635 l4635,0 z" fill="#ff002f" stroke="black" stroke-width="5"/>
<path d="M8141,8142 l-242,0 l0,-242 l242,0 z" fill="#0100ff" stroke="black" stroke-width="5"/>
<path d="M1725,1726 l5203,0 l0,5203 l-5203,0 z" fill="#ff0006" stroke="black" stroke-width="5"/>
<path d="M3910,3911 l2722,0 l0,2722 l-2722,0 z" fill="#ff008f" stroke="black" stroke-width="5"/>
<path d="M7126,7127 l2163,0 l0,2163 l-2163,0 z" fill="#ff0000" stroke="black" stroke-width="5"/>
<path d="M3778,3779 l-501,0 l0,-501 l501,0 z" fill="#6b00ff" stroke="black" stroke-width="5"/>
<path d="M8636,8637 l1231,0 l0,1231 l-1231,0 z" fill="#ff0000" stroke="black" stroke-width="5"/>
<path d="M7926,7927 l-1051,0 l0,-1051 l1051,0 z" fill="#ff0068" stroke="black" stroke-width="5"/>
<path d="M2508,2509 l-2434,0 l0,-2434 l2434,0 z" fill="#ff00fe" stroke="black" stroke-width="5"/>
<path d="M965,966 l4057,0 l0,4057 l-4057,0 z" fill="#ff0000" stroke="black" stroke-width="5"/>
<path d="M6663,6664 l-2608,0 l0,-2608 l2608,0 z" fill="#ff0000" stroke="black" stroke-width="5"/>
<path d="M1863,1864 l6543,0 l0,6543 l-6543,0 z" fill="#ff0001" stroke="black" stroke-width="5"/>
<path d="M4305,9790 l60,0 l0,60 l-60,0 z" fill="green"/>
<path d="M4335,9820 l2742.5,-2741.5" stroke="black" stroke-width="5"/>
<path d="M29,8198 l60,0 l0,60 l-60,0 z" fill="green"/>
<path d="M59,8228 l4084.5,-4083.5" stroke="black" stroke-width="5"/>
<path d="M1828,5212 l60,0 l0,60 l-60,0 z" fill="green"/>
<path d="M1858,5242 l1692,-1691" stroke="black" stroke-width="5"/>
<path d="M2338,1087 l60,0 l0,60 l-60,0 z" fill="green"/>
<path d="M2368,1117 l-625.5,626.5" stroke="black" stroke-width="5"/>
<path d="M2477,530 l60,0 l0,60 l-60,0 z" fill="green"/>
<path d="M2507,560 l-973.5,974.5" stroke="black" stroke-width="5"/>
<path d="M6503,7679 l60,0 l0,60 l-60,0 z" fill="green"/>
<path d="M6533,7709 l588,-587" stroke="black" stroke-width="5"/>
<path d="M6710,860 l60,0 l0,60 l-60,0 z" fill="green"/>
<path d="M6740,890 l-2925,2926" stroke="black" stroke-width="5"/>
<path d="M1438,5634 l60,0 l0,60 l-60,0 z" fill="green"/>
<path d="M1468,5664 l2098,-2097" stroke="black" stroke-width="5"/>
<path d="M8266,7240 l60,0 l0,60 l-60,0 z" fill="green"/>
<path d="M8296,7270 l-513,514" stroke="black" stroke-width="5"/>
<path d="M5680,548 l60,0 l0,60 l-60,0 z" fill="green"/>
<path d="M5710,578 l-2566,2567" stroke="black" stroke-width="5"/>
<path d="M3214,2300 l60,0 l0,60 l-60,0 z" fill="green"/>
<path d="M3244,2330 l-457,458" stroke="black" stroke-width="5"/>
<path d="M969,9268 l60,0 l0,60 l-60,0 z" fill="green"/>
<path d="M999,9298 l4149.5,-4148.5" stroke="black" stroke-width="5"/>
<path d="M8352,4995 l60,0 l0,60 l-60,0 z" fill="green"/>
<path d="M8382,5025 l-1678.5,1679.5" stroke="black" stroke-width="5"/>
<path d="M3698,8130 l60,0 l0,60 l-60,0 z" fill="green"/>
<path d="M3728,8160 l2216,-2215" stroke="black" stroke-width="5"/>
<path d="M6687,8480 l60,0 l0,60 l-60,0 z" fill="green"/>
<path d="M6717,8510 l896.5,-895.5" stroke="black" stroke-width="5"/>
<path d="M3421,5497 l60,0 l0,60 l-60,0 z" fill="green"/>
<path d="M3451,5527 l1038,-1037" stroke="black" stroke-width="5"/>
<path d="M4653,5254 l60,0 l0,60 l-60,0 z" fill="green"/>
<path d="M4683,5284 l300.5,-299.5" stroke="black" stroke-width="5"/>
<path d="M9611,9823 l60,0 l0,60 l-60,0 z" fill="green"/>
<path d="M9641,9853 l106,-105" stroke="black" stroke-width="5"/>
<path d="M1890,569 l60,0 l0,60 l-60,0 z" fill="green"/>
<path d="M1920,599 l-660.5,661.5" stroke="black" stroke-width="5"/>
<path d="M5533,5909 l60,0 l0,60 l-60,0 z" fill="green"/>
<path d="M5563,5939 l188,-187" stroke="black" stroke-width="5"/>
<path d="M7376,3428 l60,0 l0,60 l-60,0 z" fill="green"/>
<path d="M7406,3458 l-1974,1975" stroke="black" stroke-width="5"/>
<path d="M2195,2424 l60,0 l0,60 l-60,0 z" fill="green"/>
<path d="M2225,2454 l114.5,-113.5" stroke="black" stroke-width="5"/>
<path d="M8434,5358 l60,0 l0,60 l-60,0 z" fill="green"/>
<path d="M8464,5388 l-1538,1539" stroke="black" stroke-width="5"/>
<path d="M4758,6442 l60,0 l0,60 l-60,0 z" fill="green"/>
<path d="M4788,6472 l842,-841" stroke="black" stroke-width="5"/>
<path d="M1420,8645 l60,0 l0,60 l-60,0 z" fill="green"/>
<path d="M1450,8675 l3612.5,-3611.5" stroke="black" stroke-width="5"/>
<path d="M3367,5448 l60,0 l0,60 l-60,0 z" fill="green"/>
<path d="M3397,5478 l1040.5,-1039.5" stroke="black" stroke-width="5"/>
<path d="M7349,8003 l60,0 l0,60 l-60,0 z" fill="green"/>
<path d="M7379,8033 l327,-326" stroke="black" stroke-width="5"/>
<path d="M913,8220 l60,0 l0,60 l-60,0 z" fill="green"/>
<path d="M943,8250 l3653.5,-3652.5" stroke="black" stroke-width="5"/>
<path d="M5617,3479 l60,0 l0,60 l-60,0 z" fill="green"/>
<path d="M5647,3509 l-1069,1070" stroke="black" stroke-width="5"/>
<path d="M3184,9289 l60,0 l0,60 l-60,0 z" fill="green"/>
<path d="M3214,9319 l3052.5,-3051.5" stroke="black" stroke-width="5"/>
<path d="M5838,5905 l60,0 l0,60 l-60,0 z" fill="green"/>
<path d="M5868,5935 l33.5,-32.5" stroke="black" stroke-width="5"/>
<path d="M6986,8195 l60,0 l0,60 l-60,0 z" fill="green"/>
<path d="M7016,8225 l604.5,-603.5" stroke="black" stroke-width="5"/>
<path d="M5185,5736 l60,0 l0,60 l-60,0 z" fill="green"/>
<path d="M5215,5766 l275.5,-274.5" stroke="black" stroke-width="5"/>
<path d="M5645,1095 l60,0 l0,60 l-60,0 z" fill="green"/>
<path d="M5675,1125 l-2275,2276" stroke="black" stroke-width="5"/>
<path d="M4404,1456 l60,0 l0,60 l-60,0 z" fill="green"/>
<path d="M4434,1486 l-1474,1475" stroke="black" stroke-width="5"/>
<path d="M103,4817 l60,0 l0,60 l-60,0 z" fill="green"/>
<path d="M133,4847 l2357,-2356" stroke="black" stroke-width="5"/>
<path d="M5093,3770 l60,0 l0,60 l-60,0 z" fill="green"/>
<path d="M5123,3800 l-661.5,662.5" stroke="black" stroke-width="5"/>
<path d="M4410,1963 l60,0 l0,60 l-60,0 z" fill="green"/>
<path d="M4440,1993 l-1223.5,1224.5" stroke="black" stroke-width="5"/>
<path d="M9015,3018 l60,0 l0,60 l-60,0 z" fill="green"/>
<path d="M9045,3048 l-2998.5,2999.5" stroke="black" stroke-width="5"/>
<path d="M8960,3194 l60,0 l0,60 l-60,0 z" fill="green"/>
<path d="M8990,3224 l-2883,2884" stroke="black" stroke-width="5"/>
<path d="M5146,511 l60,0 l0,60 l-60,0 z" fill="green"/>
<path d="M5176,541 l-2317.5,2318.5" stroke="black" stroke-width="5"/>
<path d="M8111,7869 l60,0 l0,60 l-60,0 z" fill="green"/>
<path d="M8141,7899 l-121,122" stroke="black" stroke-width="5"/>
<path d="M1695,6898 l60,0 l0,60 l-60,0 z" fill="green"/>
<path d="M1725,6928 l2601.5,-2600.5" stroke="black" stroke-width="5"/>
<path d="M3880,6602 l60,0 l0,60 l-60,0 z" fill="green"/>
<path d="M3910,6632 l1361,-1360" stroke="black" stroke-width="5"/>
<path d="M7096,9259 l60,0 l0,60 l-60,0 z" fill="green"/>
<path d="M7126,9289 l1081.5,-1080.5" stroke="black" stroke-width="5"/>
<path d="M3748,3247 l60,0 l0,60 l-60,0 z" fill="green"/>
<path d="M3778,3277 l-250.5,251.5" stroke="black" stroke-width="5"/>
<path d="M8606,9837 l60,0 l0,60 l-60,0 z" fill="green"/>
<path d="M8636,9867 l615.5,-614.5" stroke="black" stroke-width="5"/>
<path d="M7896,6845 l60,0 l0,60 l-60,0 z" fill="green"/>
<path d="M7926,6875 l-525.5,526.5" stroke="black" stroke-width="5"/>
<path d="M2478,44 l60,0 l0,60 l-60,0 z" fill="green"/>
<path d="M2508,74 l-1217,1218" stroke="black" stroke-width="5"/>
<path d="M935,4992 l60,0 l0,60 l-60,0 z" fill="green"/>
<path d="M965,5022 l2028.5,-2027.5" stroke="black" stroke-width="5"/>
<path d="M6633,4025 l60,0 l0,60 l-60,0 z" fill="green"/>
<path d="M6663,4055 l-1304,1305" stroke="black" stroke-width="5"/>
<path d="M1833,8376 l60,0 l0,60 l-60,0 z" fill="green"/>
<path d="M1863,8406 l3271.5,-3270.5" stroke="black" stroke-width="5"/>
<text font-size="196.116135138184" text-anchor="middle" x="7077.5" y="7147.1406472983645">
0
</text>
<text font-size="196.116135138184" text-anchor="middle" x="4143.5" y="4213.1406472983645">
1
</text>
<text font-size="196.116135138184" text-anchor="middle" x="3550" y="3619.6406472983645">
2
</text>
<text font-size="196.116135138184" text-anchor="middle" x="1742.5" y="1812.1406472983645">
3
</text>
<text font-size="196.116135138184" text-anchor="middle" x="1533.5" y="1603.1406472983645">
4
</text>
<text font-size="196.116135138184" text-anchor="middle" x="7121" y="7190.6406472983645">
5
</text>
<text font-size="196.116135138184" text-anchor="middle" x="3815" y="3884.6406472983645">
6
</text>
<text font-size="196.116135138184" text-anchor="middle" x="3566" y="3635.6406472983645">
7
</text>
<text font-size="196.116135138184" text-anchor="middle" x="7783" y="7852.6406472983645">
8
</text>
<text font-size="196.116135138184" text-anchor="middle" x="3144" y="3213.6406472983645">
9
</text>
<text font-size="196.116135138184" text-anchor="middle" x="2787" y="2856.6406472983645">
10
</text>
<text font-size="196.116135138184" text-anchor="middle" x="5148.5" y="5218.1406472983645">
11
</text>
<text font-size="196.116135138184" text-anchor="middle" x="6703.5" y="6773.1406472983645">
12
</text>
<text font-size="196.116135138184" text-anchor="middle" x="5944" y="6013.6406472983645">
13
</text>
<text font-size="196.116135138184" text-anchor="middle" x="7613.5" y="7683.1406472983645">
14
</text>
<text font-size="196.116135138184" text-anchor="middle" x="4489" y="4558.6406472983645">
15
</text>
<text font-size="196.116135138184" text-anchor="middle" x="4983.5" y="5053.1406472983645">
16
</text>
<text font-size="196.116135138184" text-anchor="middle" x="9747" y="9816.640647298364">
17
</text>
<text font-size="196.116135138184" text-anchor="middle" x="1259.5" y="1329.1406472983645">
18
</text>
<text font-size="196.116135138184" text-anchor="middle" x="5751" y="5820.6406472983645">
19
</text>
<text font-size="196.116135138184" text-anchor="middle" x="5432" y="5501.6406472983645">
20
</text>
<text font-size="196.116135138184" text-anchor="middle" x="2339.5" y="2409.1406472983645">
21
</text>
<text font-size="196.116135138184" text-anchor="middle" x="6926" y="6995.6406472983645">
22
</text>
<text font-size="196.116135138184" text-anchor="middle" x="5630" y="5699.6406472983645">
23
</text>
<text font-size="196.116135138184" text-anchor="middle" x="5062.5" y="5132.1406472983645">
24
</text>
<text font-size="196.116135138184" text-anchor="middle" x="4437.5" y="4507.1406472983645">
25
</text>
<text font-size="196.116135138184" text-anchor="middle" x="7706" y="7775.6406472983645">
26
</text>
<text font-size="196.116135138184" text-anchor="middle" x="4596.5" y="4666.1406472983645">
27
</text>
<text font-size="196.116135138184" text-anchor="middle" x="4578" y="4647.6406472983645">
28
</text>
<text font-size="196.116135138184" text-anchor="middle" x="6266.5" y="6336.1406472983645">
29
</text>
<text font-size="196.116135138184" text-anchor="middle" x="5901.5" y="5971.1406472983645">
30
</text>
<text font-size="196.116135138184" text-anchor="middle" x="7620.5" y="7690.1406472983645">
31
</text>
<text font-size="196.116135138184" text-anchor="middle" x="5490.5" y="5560.1406472983645">
32
</text>
<text font-size="196.116135138184" text-anchor="middle" x="3400" y="3469.6406472983645">
33
</text>
<text font-size="196.116135138184" text-anchor="middle" x="2960" y="3029.6406472983645">
34
</text>
<text font-size="196.116135138184" text-anchor="middle" x="2490" y="2559.6406472983645">
35
</text>
<text font-size="196.116135138184" text-anchor="middle" x="4461.5" y="4531.1406472983645">
36
</text>
<text font-size="196.116135138184" text-anchor="middle" x="3216.5" y="3286.1406472983645">
37
</text>
<text font-size="196.116135138184" text-anchor="middle" x="6046.5" y="6116.1406472983645">
38
</text>
<text font-size="196.116135138184" text-anchor="middle" x="6107" y="6176.6406472983645">
39
</text>
<text font-size="196.116135138184" text-anchor="middle" x="2858.5" y="2928.1406472983645">
40
</text>
<text font-size="196.116135138184" text-anchor="middle" x="8020" y="8089.6406472983645">
41
</text>
<text font-size="196.116135138184" text-anchor="middle" x="4326.5" y="4396.1406472983645">
42
</text>
<text font-size="196.116135138184" text-anchor="middle" x="5271" y="5340.6406472983645">
43
</text>
<text font-size="196.116135138184" text-anchor="middle" x="8207.5" y="8277.140647298364">
44
</text>
<text font-size="196.116135138184" text-anchor="middle" x="3527.5" y="3597.1406472983645">
45
</text>
<text font-size="196.116135138184" text-anchor="middle" x="9251.5" y="9321.140647298364">
46
</text>
<text font-size="196.116135138184" text-anchor="middle" x="7400.5" y="7470.1406472983645">
47
</text>
<text font-size="196.116135138184" text-anchor="middle" x="1291" y="1360.6406472983645">
48
</text>
<text font-size="196.116135138184" text-anchor="middle" x="2993.5" y="3063.1406472983645">
49
</text>
<text font-size="196.116135138184" text-anchor="middle" x="5359" y="5428.6406472983645">
50
</text>
<text font-size="196.116135138184" text-anchor="middle" x="5134.5" y="5204.1406472983645">
51
</text>
</svg>