<svg viewBox="0 0 10000 10000" xmlns="http://www.w3.org/2000/svg">
<path d="M0,0 l10000,0 l0,10000 l-10000,0 z" fill="white"/>
<path d="M3750,8750 l1250,0 l0,1250 l-1250,0 z" fill="#ff0004" stroke="black" stroke-width="5"/>
<path d="M0,8125 l625,0 l0,625 l-625,0 z" fill="#0700ff" stroke="black" stroke-width="5"/>
<path d="M1250,5000 l625,0 l0,625 l-625,0 z" fill="#c500ff" stroke="black" stroke-width="5"/>
<path d="M1875,625 l625,0 l0,625 l-625,0 z" fill="#2100ff" stroke="black" stroke-width="5"/>
<path d="M2500,312 l312,0 l0,313 l-312,0 z" fill="#0200ff" stroke="black" stroke-width="5"/>
<path d="M6250,7500 l625,0 l0,625 l-625,0 z" fill="#8e00ff" stroke="black" stroke-width="5"/>
<path d="M6250,0 l1250,0 l0,1250 l-1250,0 z" fill="#ca00ff" stroke="black" stroke-width="5"/>
<path d="M1250,5625 l625,0 l0,625 l-625,0 z" fill="#0800ff" stroke="black" stroke-width="5"/>
<path d="M8125,6875 l625,0 l0,625 l-625,0 z" fill="#1300ff" stroke="black" stroke-width="5"/>
<path d="M5625,0 l625,0 l0,625 l-625,0 z" fill="#ff0003" stroke="black" stroke-width="5"/>
<path d="M2500,1250 l1250,0 l0,1250 l-1250,0 z" fill="#2d00ff" stroke="black" stroke-width="5"/>
<path d="M0,8750 l1250,0 l0,1250 l-1250,0 z" fill="#ff0007" stroke="black" stroke-width="5"/>
<path d="M8125,5000 l312,0 l0,312 l-312,0 z" fill="#0000ff" stroke="black" stroke-width="5"/>
<path d="M2500,7500 l1250,0 l0,1250 l-1250,0 z" fill="#ff0017" stroke="black" stroke-width="5"/>
<path d="M6250,8125 l625,0 l0,625 l-625,0 z" fill="#ff0000" stroke="black" stroke-width="5"/>
<path d="M3437,5312 l313,0 l0,313 l-313,0 z" fill="#0000ff" stroke="black" stroke-width="5"/>
<path d="M3750,5000 l1250,0 l0,1250 l-1250,0 z" fill="#ff00e2" stroke="black" stroke-width="5"/>
<path d="M8750,8750 l1250,0 l0,1250 l-1250,0 z" fill="#ff0001" stroke="black" stroke-width="5"/>
<path d="M1875,0 l625,0 l0,625 l-625,0 z" fill="#ff000d" stroke="black" stroke-width="5"/>
<path d="M5312,5937 l313,0 l0,313 l-313,0 z" fill="#0300ff" stroke="black" stroke-width="5"/>
<path d="M6250,2500 l1250,0 l0,1250 l-1250,0 z" fill="#ff008a" stroke="black" stroke-width="5"/>
<path d="M1250,1250 l1250,0 l0,1250 l-1250,0 z" fill="#ff0007" stroke="black" stroke-width="5"/>
<path d="M8437,5312 l313,0 l0,313 l-313,0 z" fill="#0400ff" stroke="black" stroke-width="5"/>
<path d="M4375,6250 l625,0 l0,625 l-625,0 z" fill="#0a00ff" stroke="black" stroke-width="5"/>
<path d="M1250,8437 l312,0 l0,313 l-312,0 z" fill="#0100ff" stroke="black" stroke-width="5"/>
<path d="M3125,5312 l312,0 l0,313 l-312,0 z" fill="#0100ff" stroke="black" stroke-width="5"/>
<path d="M6875,7500 l625,0 l0,625 l-625,0 z" fill="#1400ff" stroke="black" stroke-width="5"/>
<path d="M625,8125 l625,0 l0,625 l-625,0 z" fill="#5200ff" stroke="black" stroke-width="5"/>
<path d="M5000,2500 l1250,0 l0,1250 l-1250,0 z" fill="#ce00ff" stroke="black" stroke-width="5"/>
<path d="M2500,8750 l1250,0 l0,1250 l-1250,0 z" fill="#8300ff" stroke="black" stroke-width="5"/>
<path d="M5625,5625 l625,0 l0,625 l-625,0 z" fill="#ff0088" stroke="black" stroke-width="5"/>
<path d="M6875,8125 l625,0 l0,625 l-625,0 z" fill="#ff00a3" stroke="black" stroke-width="5"/>
<path d="M5000,5625 l312,0 l0,312 l-312,0 z" fill="#0100ff" stroke="black" stroke-width="5"/>
<path d="M5625,625 l625,0 l0,625 l-625,0 z" fill="#2000ff" stroke="black" stroke-width="5"/>
<path d="M4375,1250 l625,0 l0,625 l-625,0 z" fill="#0500ff" stroke="black" stroke-width="5"/>
<path d="M0,2500 l2500,0 l0,2500 l-2500,0 z" fill="#ff0096" stroke="black" stroke-width="5"/>
<path d="M5000,3750 l1250,0 l0,1250 l-1250,0 z" fill="#4100ff" stroke="black" stroke-width="5"/>
<path d="M4375,1875 l625,0 l0,625 l-625,0 z" fill="#5200ff" stroke="black" stroke-width="5"/>
<path d="M8750,2500 l625,0 l0,625 l-625,0 z" fill="#0600ff" stroke="black" stroke-width="5"/>
<path d="M8750,3125 l625,0 l0,625 l-625,0 z" fill="#0200ff" stroke="black" stroke-width="5"/>
<path d="M5000,0 l625,0 l0,625 l-625,0 z" fill="#0200ff" stroke="black" stroke-width="5"/>
<path d="M7500,7500 l1250,0 l0,1250 l-1250,0 z" fill="#ff00fb" stroke="black" stroke-width="5"/>
<path d="M1250,6250 l1250,0 l0,1250 l-1250,0 z" fill="#9900ff" stroke="black" stroke-width="5"/>
<path d="M3750,6250 l625,0 l0,625 l-625,0 z" fill="#0500ff" stroke="black" stroke-width="5"/>
<path d="M6250,8750 l1250,0 l0,1250 l-1250,0 z" fill="#ff0005" stroke="black" stroke-width="5"/>
<path d="M2500,2500 l2500,0 l0,2500 l-2500,0 z" fill="#ff0004" stroke="black" stroke-width="5"/>
<path d="M7500,8750 l1250,0 l0,1250 l-1250,0 z" fill="#ff0000" stroke="black" stroke-width="5"/>
<path d="M7500,6875 l625,0 l0,625 l-625,0 z" fill="#e600ff" stroke="black" stroke-width="5"/>
<path d="M2500,0 l312,0 l0,312 l-312,0 z" fill="#0000ff" stroke="black" stroke-width="5"/>
<path d="M0,5000 l1250,0 l0,1250 l-1250,0 z" fill="#ff0013" stroke="black" stroke-width="5"/>
<path d="M6250,3750 l1250,0 l0,1250 l-1250,0 z" fill="#ff000e" stroke="black" stroke-width="5"/>
<path d="M1562,8125 l313,0 l0,312 l-313,0 z" fill="#0100ff" stroke="black" stroke-width="5"/>
<path d="M4305,9790 l60,0 l0,60 l-60,0 z" fill="green"/>
<path d="M4335,9820 l40,-445" stroke="black" stroke-width="5"/>
<path d="M29,8198 l60,0 l0,60 l-60,0 z" fill="green"/>
<path d="M59,8228 l253.5,209.5" stroke="black" stroke-width="5"/>
<path d="M1828,5212 l60,0 l0,60 l-60,0 z" fill="green"/>
<path d="M1858,5242 l-295.5,70.5" stroke="black" stroke-width="5"/>
<path d="M2338,1087 l60,0 l0,60 l-60,0 z" fill="green"/>
<path d="M2368,1117 l-180.5,-179.5" stroke="black" stroke-width="5"/>
<path d="M2477,530 l60,0 l0,60 l-60,0 z" fill="green"/>
<path d="M2507,560 l149,-91.5" stroke="black" stroke-width="5"/>
<path d="M6503,7679 l60,0 l0,60 l-60,0 z" fill="green"/>
<path d="M6533,7709 l29.5,103.5" stroke="black" stroke-width="5"/>
<path d="M6710,860 l60,0 l0,60 l-60,0 z" fill="green"/>
<path d="M6740,890 l135,-265" stroke="black" stroke-width="5"/>
<path d="M1438,5634 l60,0 l0,60 l-60,0 z" fill="green"/>
<path d="M1468,5664 l94.5,273.5" stroke="black" stroke-width="5"/>
<path d="M8266,7240 l60,0 l0,60 l-60,0 z" fill="green"/>
<path d="M8296,7270 l141.5,-82.5" stroke="black" stroke-width="5"/>
<path d="M5680,548 l60,0 l0,60 l-60,0 z" fill="green"/>
<path d="M5710,578 l227.5,-265.5" stroke="black" stroke-width="5"/>
<path d="M3214,2300 l60,0 l0,60 l-60,0 z" fill="green"/>
<path d="M3244,2330 l-119,-455" stroke="black" stroke-width="5"/>
<path d="M969,9268 l60,0 l0,60 l-60,0 z" fill="green"/>
<path d="M999,9298 l-374,77" stroke="black" stroke-width="5"/>
<path d="M8352,4995 l60,0 l0,60 l-60,0 z" fill="green"/>
<path d="M8382,5025 l-101,131" stroke="black" stroke-width="5"/>
<path d="M3698,8130 l60,0 l0,60 l-60,0 z" fill="green"/>
<path d="M3728,8160 l-603,-35" stroke="black" stroke-width="5"/>
<path d="M6687,8480 l60,0 l0,60 l-60,0 z" fill="green"/>
<path d="M6717,8510 l-154.5,-72.5" stroke="black" stroke-width="5"/>
<path d="M3421,5497 l60,0 l0,60 l-60,0 z" fill="green"/>
<path d="M3451,5527 l142.5,-58.5" stroke="black" stroke-width="5"/>
<path d="M4653,5254 l60,0 l0,60 l-60,0 z" fill="green"/>
<path d="M4683,5284 l-308,341" stroke="black" stroke-width="5"/>
<path d="M9611,9823 l60,0 l0,60 l-60,0 z" fill="green"/>
<path d="M9641,9853 l-266,-478" stroke="black" stroke-width="5"/>
<path d="M1890,569 l60,0 l0,60 l-60,0 z" fill="green"/>
<path d="M1920,599 l267.5,-286.5" stroke="black" stroke-width="5"/>
<path d="M5533,5909 l60,0 l0,60 l-60,0 z" fill="green"/>
<path d="M5563,5939 l-94.5,154.5" stroke="black" stroke-width="5"/>
<path d="M7376,3428 l60,0 l0,60 l-60,0 z" fill="green"/>
<path d="M7406,3458 l-531,-333" stroke="black" stroke-width="5"/>
<path d="M2195,2424 l60,0 l0,60 l-60,0 z" fill="green"/>
<path d="M2225,2454 l-350,-579" stroke="black" stroke-width="5"/>
<path d="M8434,5358 l60,0 l0,60 l-60,0 z" fill="green"/>
<path d="M8464,5388 l129.5,80.5" stroke="black" stroke-width="5"/>
<path d="M4758,6442 l60,0 l0,60 l-60,0 z" fill="green"/>
<path d="M4788,6472 l-100.5,90.5" stroke="black" stroke-width="5"/>
<path d="M1420,8645 l60,0 l0,60 l-60,0 z" fill="green"/>
<path d="M1450,8675 l-44,-81.5" stroke="black" stroke-width="5"/>
<path d="M3367,5448 l60,0 l0,60 l-60,0 z" fill="green"/>
<path d="M3397,5478 l-116,-9.5" stroke="black" stroke-width="5"/>
<path d="M7349,8003 l60,0 l0,60 l-60,0 z" fill="green"/>
<path d="M7379,8033 l-191.5,-220.5" stroke="black" stroke-width="5"/>
<path d="M913,8220 l60,0 l0,60 l-60,0 z" fill="green"/>
<path d="M943,8250 l-5.5,187.5" stroke="black" stroke-width="5"/>
<path d="M5617,3479 l60,0 l0,60 l-60,0 z" fill="green"/>
<path d="M5647,3509 l-22,-384" stroke="black" stroke-width="5"/>
<path d="M3184,9289 l60,0 l0,60 l-60,0 z" fill="green"/>
<path d="M3214,9319 l-89,56" stroke="black" stroke-width="5"/>
<path d="M5838,5905 l60,0 l0,60 l-60,0 z" fill="green"/>
<path d="M5868,5935 l69.5,2.5" stroke="black" stroke-width="5"/>
<path d="M6986,8195 l60,0 l0,60 l-60,0 z" fill="green"/>
<path d="M7016,8225 l171.5,212.5" stroke="black" stroke-width="5"/>
<path d="M5185,5736 l60,0 l0,60 l-60,0 z" fill="green"/>
<path d="M5215,5766 l-59,15" stroke="black" stroke-width="5"/>
<path d="M5645,1095 l60,0 l0,60 l-60,0 z" fill="green"/>
<path d="M5675,1125 l262.5,-187.5" stroke="black" stroke-width="5"/>
<path d="M4404,1456 l60,0 l0,60 l-60,0 z" fill="green"/>
<path d="M4434,1486 l253.5,76.5" stroke="black" stroke-width="5"/>
<path d="M103,4817 l60,0 l0,60 l-60,0 z" fill="green"/>
<path d="M133,4847 l1117,-1097" stroke="black" stroke-width="5"/>
<path d="M5093,3770 l60,0 l0,60 l-60,0 z" fill="green"/>
<path d="M5123,3800 l502,575" stroke="black" stroke-width="5"/>
<path d="M4410,1963 l60,0 l0,60 l-60,0 z" fill="green"/>
<path d="M4440,1993 l247.5,194.5" stroke="black" stroke-width="5"/>
<path d="M9015,3018 l60,0 l0,60 l-60,0 z" fill="green"/>
<path d="M9045,3048 l17.5,-235.5" stroke="black" stroke-width="5"/>
<path d="M8960,3194 l60,0 l0,60 l-60,0 z" fill="green"/>
<path d="M8990,3224 l72.5,213.5" stroke="black" stroke-width="5"/>
<path d="M5146,511 l60,0 l0,60 l-60,0 z" fill="green"/>
<path d="M5176,541 l136.5,-228.5" stroke="black" stroke-width="5"/>
<path d="M8111,7869 l60,0 l0,60 l-60,0 z" fill="green"/>
<path d="M8141,7899 l-16,226" stroke="black" stroke-width="5"/>
<path d="M1695,6898 l60,0 l0,60 l-60,0 z" fill="green"/>
<path d="M1725,6928 l150,-53" stroke="black" stroke-width="5"/>
<path d="M3880,6602 l60,0 l0,60 l-60,0 z" fill="green"/>
<path d="M3910,6632 l152.5,-69.5" stroke="black" stroke-width="5"/>
<path d="M7096,9259 l60,0 l0,60 l-60,0 z" fill="green"/>
<path d="M7126,9289 l-251,86" stroke="black" stroke-width="5"/>
<path d="M3748,3247 l60,0 l0,60 l-60,0 z" fill="green"/>
<path d="M3778,3277 l-28,473" stroke="black" stroke-width="5"/>
<path d="M8606,9837 l60,0 l0,60 l-60,0 z" fill="green"/>
<path d="M8636,9867 l-511,-492" stroke="black" stroke-width="5"/>
<path d="M7896,6845 l60,0 l0,60 l-60,0 z" fill="green"/>
<path d="M7926,6875 l-113.5,312.5" stroke="black" stroke-width="5"/>
<path d="M2478,44 l60,0 l0,60 l-60,0 z" fill="green"/>
<path d="M2508,74 l148,82" stroke="black" stroke-width="5"/>
<path d="M935,4992 l60,0 l0,60 l-60,0 z" fill="green"/>
<path d="M965,5022 l-340,603" stroke="black" stroke-width="5"/>
<path d="M6633,4025 l60,0 l0,60 l-60,0 z" fill="green"/>
<path d="M6663,4055 l212,320" stroke="black" stroke-width="5"/>
<path d="M1833,8376 l60,0 l0,60 l-60,0 z" fill="green"/>
<path d="M1863,8406 l-144.5,-125" stroke="black" stroke-width="5"/>
<text font-size="196.116135138184" text-anchor="middle" x="4375" y="9443.640647298364">
0
</text>
<text font-size="196.116135138184" text-anchor="middle" x="312.5" y="8506.140647298364">
1
</text>
<text font-size="196.116135138184" text-anchor="middle" x="1562.5" y="5381.1406472983645">
2
</text>
<text font-size="196.116135138184" text-anchor="middle" x="2187.5" y="1006.1406472983645">
3
</text>
<text font-size="196.116135138184" text-anchor="middle" x="2656" y="537.1406472983645">
4
</text>
<text font-size="196.116135138184" text-anchor="middle" x="6562.5" y="7881.1406472983645">
5
</text>
<text font-size="196.116135138184" text-anchor="middle" x="6875" y="693.6406472983645">
6
</text>
<text font-size="196.116135138184" text-anchor="middle" x="1562.5" y="6006.1406472983645">
7
</text>
<text font-size="196.116135138184" text-anchor="middle" x="8437.5" y="7256.1406472983645">
8
</text>
<text font-size="196.116135138184" text-anchor="middle" x="5937.5" y="381.1406472983644">
9
</text>
<text font-size="196.116135138184" text-anchor="middle" x="3125" y="1943.6406472983645">
10
</text>
<text font-size="196.116135138184" text-anchor="middle" x="625" y="9443.640647298364">
11
</text>
<text font-size="196.116135138184" text-anchor="middle" x="8281" y="5224.6406472983645">
12
</text>
<text font-size="196.116135138184" text-anchor="middle" x="3125" y="8193.640647298364">
13
</text>
<text font-size="196.116135138184" text-anchor="middle" x="6562.5" y="8506.140647298364">
14
</text>
<text font-size="196.116135138184" text-anchor="middle" x="3593.5" y="5537.1406472983645">
15
</text>
<text font-size="196.116135138184" text-anchor="middle" x="4375" y="5693.6406472983645">
16
</text>
<text font-size="196.116135138184" text-anchor="middle" x="9375" y="9443.640647298364">
17
</text>
<text font-size="196.116135138184" text-anchor="middle" x="2187.5" y="381.1406472983644">
18
</text>
<text font-size="196.116135138184" text-anchor="middle" x="5468.5" y="6162.1406472983645">
19
</text>
<text font-size="196.116135138184" text-anchor="middle" x="6875" y="3193.6406472983645">
20
</text>
<text font-size="196.116135138184" text-anchor="middle" x="1875" y="1943.6406472983645">
21
</text>
<text font-size="196.116135138184" text-anchor="middle" x="8593.5" y="5537.1406472983645">
22
</text>
<text font-size="196.116135138184" text-anchor="middle" x="4687.5" y="6631.1406472983645">
23
</text>
<text font-size="196.116135138184" text-anchor="middle" x="1406" y="8662.140647298364">
24
</text>
<text font-size="196.116135138184" text-anchor="middle" x="3281" y="5537.1406472983645">
25
</text>
<text font-size="196.116135138184" text-anchor="middle" x="7187.5" y="7881.1406472983645">
26
</text>
<text font-size="196.116135138184" text-anchor="middle" x="937.5" y="8506.140647298364">
27
</text>
<text font-size="196.116135138184" text-anchor="middle" x="5625" y="3193.6406472983645">
28
</text>
<text font-size="196.116135138184" text-anchor="middle" x="3125" y="9443.640647298364">
29
</text>
<text font-size="196.116135138184" text-anchor="middle" x="5937.5" y="6006.1406472983645">
30
</text>
<text font-size="196.116135138184" text-anchor="middle" x="7187.5" y="8506.140647298364">
31
</text>
<text font-size="196.116135138184" text-anchor="middle" x="5156" y="5849.6406472983645">
32
</text>
<text font-size="196.116135138184" text-anchor="middle" x="5937.5" y="1006.1406472983645">
33
</text>
<text font-size="196.116135138184" text-anchor="middle" x="4687.5" y="1631.1406472983645">
34
</text>
<text font-size="196.116135138184" text-anchor="middle" x="1250" y="3818.6406472983645">
35
</text>
<text font-size="196.116135138184" text-anchor="middle" x="5625" y="4443.6406472983645">
36
</text>
<text font-size="196.116135138184" text-anchor="middle" x="4687.5" y="2256.1406472983645">
37
</text>
<text font-size="196.116135138184" text-anchor="middle" x="9062.5" y="2881.1406472983645">
38
</text>
<text font-size="196.116135138184" text-anchor="middle" x="9062.5" y="3506.1406472983645">
39
</text>
<text font-size="196.116135138184" text-anchor="middle" x="5312.5" y="381.1406472983644">
40
</text>
<text font-size="196.116135138184" text-anchor="middle" x="8125" y="8193.640647298364">
41
</text>
<text font-size="196.116135138184" text-anchor="middle" x="1875" y="6943.6406472983645">
42
</text>
<text font-size="196.116135138184" text-anchor="middle" x="4062.5" y="6631.1406472983645">
43
</text>
<text font-size="196.116135138184" text-anchor="middle" x="6875" y="9443.640647298364">
44
</text>
<text font-size="196.116135138184" text-anchor="middle" x="3750" y="3818.6406472983645">
45
</text>
<text font-size="196.116135138184" text-anchor="middle" x="8125" y="9443.640647298364">
46
</text>
<text font-size="196.116135138184" text-anchor="middle" x="7812.5" y="7256.1406472983645">
47
</text>
<text font-size="196.116135138184" text-anchor="middle" x="2656" y="224.6406472983644">
48
</text>
<text font-size="196.116135138184" text-anchor="middle" x="625" y="5693.6406472983645">
49
</text>
<text font-size="196.116135138184" text-anchor="middle" x="6875" y="4443.6406472983645">
50
</text>
<text font-size="196.116135138184" text-anchor="middle" x="1718.5" y="8349.640647298364">
51
</text>
</svg>