<svg xmlns="http://www.w3.org/2000/svg" viewBox="0 0 1600 900" fill="none">
  <defs>
    <linearGradient id="p0" x1="0" y1="0" x2="0" y2="900" gradientUnits="userSpaceOnUse">
      <stop stop-color="#09111d"/>
      <stop offset="1" stop-color="#060a12"/>
    </linearGradient>
    <radialGradient id="p1" cx="0" cy="0" r="1" gradientUnits="userSpaceOnUse" gradientTransform="translate(1190 150) rotate(90) scale(320 320)">
      <stop stop-color="#6ee7b7" stop-opacity=".14"/>
      <stop offset="1" stop-color="#6ee7b7" stop-opacity="0"/>
    </radialGradient>
  </defs>
  <rect width="1600" height="900" fill="url(#p0)"/>
  <rect width="1600" height="900" fill="url(#p1)"/>
  <g opacity=".12" stroke="#9fb2d6" stroke-width="1">
    <path d="M0 116h1600"/>
    <path d="M0 248h1600"/>
    <path d="M0 380h1600"/>
    <path d="M0 512h1600"/>
    <path d="M0 644h1600"/>
    <path d="M0 776h1600"/>
    <path d="M120 0v900"/>
    <path d="M360 0v900"/>
    <path d="M600 0v900"/>
    <path d="M840 0v900"/>
    <path d="M1080 0v900"/>
    <path d="M1320 0v900"/>
  </g>
  <g opacity=".09">
    <circle cx="180" cy="156" r="3" fill="#7dd3fc"/>
    <circle cx="420" cy="156" r="3" fill="#8bdaaa"/>
    <circle cx="660" cy="156" r="3" fill="#f6c177"/>
    <circle cx="900" cy="156" r="3" fill="#7dd3fc"/>
    <circle cx="1140" cy="156" r="3" fill="#8bdaaa"/>
    <circle cx="1380" cy="156" r="3" fill="#f6c177"/>
  </g>
</svg>
