<svg xmlns="http://www.w3.org/2000/svg" viewBox="0 0 1600 900" fill="none">
  <defs>
    <linearGradient id="g0" x1="0" y1="0" x2="1600" y2="900" gradientUnits="userSpaceOnUse">
      <stop stop-color="#060b14"/>
      <stop offset="0.54" stop-color="#0b1322"/>
      <stop offset="1" stop-color="#050810"/>
    </linearGradient>
    <radialGradient id="g1" cx="0" cy="0" r="1" gradientUnits="userSpaceOnUse" gradientTransform="translate(1220 220) rotate(90) scale(320 320)">
      <stop stop-color="#6ee7b7" stop-opacity=".24"/>
      <stop offset="1" stop-color="#6ee7b7" stop-opacity="0"/>
    </radialGradient>
    <radialGradient id="g2" cx="0" cy="0" r="1" gradientUnits="userSpaceOnUse" gradientTransform="translate(340 720) rotate(90) scale(380 380)">
      <stop stop-color="#7dd3fc" stop-opacity=".18"/>
      <stop offset="1" stop-color="#7dd3fc" stop-opacity="0"/>
    </radialGradient>
  </defs>
  <rect width="1600" height="900" fill="url(#g0)"/>
  <rect width="1600" height="900" fill="url(#g1)"/>
  <rect width="1600" height="900" fill="url(#g2)"/>
  <g opacity=".22">
    <path d="M-60 230C150 140 320 140 520 220s340 110 520 48 330-120 610-36" stroke="#8bdaaa" stroke-width="2"/>
    <path d="M-40 560C180 470 360 470 590 540s360 118 560 58 280-126 490-78" stroke="#7dd3fc" stroke-width="2"/>
    <path d="M-10 790C180 700 360 690 560 748s360 104 560 40 330-124 510-88" stroke="#f6c177" stroke-width="2"/>
  </g>
  <g opacity=".18">
    <circle cx="980" cy="170" r="4" fill="#8bdaaa"/>
    <circle cx="1040" cy="186" r="3" fill="#8bdaaa"/>
    <circle cx="1112" cy="152" r="4" fill="#7dd3fc"/>
    <circle cx="1200" cy="204" r="3" fill="#f6c177"/>
    <circle cx="1260" cy="146" r="4" fill="#8bdaaa"/>
    <circle cx="302" cy="664" r="4" fill="#7dd3fc"/>
    <circle cx="390" cy="704" r="3" fill="#8bdaaa"/>
    <circle cx="472" cy="648" r="4" fill="#f6c177"/>
    <circle cx="548" cy="718" r="3" fill="#7dd3fc"/>
  </g>
  <g opacity=".13" stroke="#a9b6d6" stroke-width="1">
    <path d="M96 96h220"/>
    <path d="M1290 720h160"/>
    <path d="M118 820h260"/>
    <path d="M1340 94h120"/>
    <path d="M186 184l72 28 56-52 88 40"/>
    <path d="M1160 260l84 32 58-58 88 46"/>
  </g>
</svg>
