<svg viewBox="0 0 10000 10000" xmlns="http://www.w3.org/2000/svg">
<path d="M0,0 l10000,0 l0,10000 l-10000,0 z" fill="white"/>
<path d="M9818,9819 l-2673,0 l0,-2673 l2673,0 z" fill="#ff004c" stroke="black" stroke-width="5"/>
<path d="M7946,7947 l-884,0 l0,-884 l884,0 z" fill="#b500ff" stroke="black" stroke-width="5"/>
<path d="M915,916 l6392,0 l0,6392 l-6392,0 z" fill="#ff0008" stroke="black" stroke-width="5"/>
<path d="M288,289 l1230,0 l0,1230 l-1230,0 z" fill="#8e00ff" stroke="black" stroke-width="5"/>
<path d="M18,19 l1643,0 l0,1643 l-1643,0 z" fill="#ff00fb" stroke="black" stroke-width="5"/>
<path d="M1194,1195 l5804,0 l0,5804 l-5804,0 z" fill="#ff0000" stroke="black" stroke-width="5"/>
<path d="M9388,9389 l-8389,0 l0,-8389 l8389,0 z" fill="#ff0002" stroke="black" stroke-width="5"/>
<path d="M690,691 l7926,0 l0,7926 l-7926,0 z" fill="#ff0000" stroke="black" stroke-width="5"/>
<path d="M6721,6722 l-4854,0 l0,-4854 l4854,0 z" fill="#ff0012" stroke="black" stroke-width="5"/>
<path d="M2718,2719 l668,0 l0,668 l-668,0 z" fill="#1c00ff" stroke="black" stroke-width="5"/>
<path d="M637,638 l2397,0 l0,2397 l-2397,0 z" fill="#ff0015" stroke="black" stroke-width="5"/>
<path d="M6376,6377 l-4348,0 l0,-4348 l4348,0 z" fill="#ff001c" stroke="black" stroke-width="5"/>
<path d="M4893,4894 l-4504,0 l0,-4504 l4504,0 z" fill="#ff0002" stroke="black" stroke-width="5"/>
<path d="M7201,7202 l2520,0 l0,2520 l-2520,0 z" fill="#ff00a9" stroke="black" stroke-width="5"/>
<path d="M8940,8941 l-8023,0 l0,-8023 l8023,0 z" fill="#ff0001" stroke="black" stroke-width="5"/>
<path d="M7875,7876 l1242,0 l0,1242 l-1242,0 z" fill="#ff000d" stroke="black" stroke-width="5"/>
<path d="M266,267 l6592,0 l0,6592 l-6592,0 z" fill="#ff0005" stroke="black" stroke-width="5"/>
<path d="M9558,9559 l-1081,0 l0,-1081 l1081,0 z" fill="#ff00f9" stroke="black" stroke-width="5"/>
<path d="M3491,3492 l-382,0 l0,-382 l382,0 z" fill="#0800ff" stroke="black" stroke-width="5"/>
<path d="M3602,3603 l-493,0 l0,-493 l493,0 z" fill="#1900ff" stroke="black" stroke-width="5"/>
<path d="M2322,2323 l1547,0 l0,1547 l-1547,0 z" fill="#ff0021" stroke="black" stroke-width="5"/>
<path d="M2987,2988 l-1612,0 l0,-1612 l1612,0 z" fill="#ff0000" stroke="black" stroke-width="5"/>
<path d="M9659,9660 l-2064,0 l0,-2064 l2064,0 z" fill="#ff0012" stroke="black" stroke-width="5"/>
<path d="M3726,3727 l-2111,0 l0,-2111 l2111,0 z" fill="#ff0010" stroke="black" stroke-width="5"/>
<path d="M9250,9251 l-8130,0 l0,-8130 l8130,0 z" fill="#ff0000" stroke="black" stroke-width="5"/>
<path d="M4087,4088 l4860,0 l0,4860 l-4860,0 z" fill="#ff0002" stroke="black" stroke-width="5"/>
<path d="M5098,5099 l-2135,0 l0,-2135 l2135,0 z" fill="#ff003b" stroke="black" stroke-width="5"/>
<path d="M2187,2188 l1792,0 l0,1792 l-1792,0 z" fill="#ff0024" stroke="black" stroke-width="5"/>
<path d="M8416,8417 l-7310,0 l0,-7310 l7310,0 z" fill="#ff0000" stroke="black" stroke-width="5"/>
<path d="M5914,5915 l-1720,0 l0,-1720 l1720,0 z" fill="#ff0000" stroke="black" stroke-width="5"/>
<path d="M9165,9166 l-8203,0 l0,-8203 l8203,0 z" fill="#ff0001" stroke="black" stroke-width="5"/>
<path d="M1919,1920 l4138,0 l0,4138 l-4138,0 z" fill="#ff0002" stroke="black" stroke-width="5"/>
<path d="M5177,5178 l2039,0 l0,2039 l-2039,0 z" fill="#ff0006" stroke="black" stroke-width="5"/>
<path d="M6462,6463 l1082,0 l0,1082 l-1082,0 z" fill="#1200ff" stroke="black" stroke-width="5"/>
<path d="M121,122 l4146,0 l0,4146 l-4146,0 z" fill="#ff0004" stroke="black" stroke-width="5"/>
<path d="M9207,9208 l-9100,0 l0,-9100 l9100,0 z" fill="#ff0000" stroke="black" stroke-width="5"/>
<path d="M6031,6032 l-3626,0 l0,-3626 l3626,0 z" fill="#ff0009" stroke="black" stroke-width="5"/>
<path d="M9720,9721 l-3102,0 l0,-3102 l3102,0 z" fill="#ff0004" stroke="black" stroke-width="5"/>
<path d="M6919,6920 l1307,0 l0,1307 l-1307,0 z" fill="#ff00fd" stroke="black" stroke-width="5"/>
<path d="M2567,2568 l-547,0 l0,-547 l547,0 z" fill="#1e00ff" stroke="black" stroke-width="5"/>
<path d="M9840,9841 l-5537,0 l0,-5537 l5537,0 z" fill="#ff000f" stroke="black" stroke-width="5"/>
<path d="M7557,7558 l210,0 l0,210 l-210,0 z" fill="#0000ff" stroke="black" stroke-width="5"/>
<path d="M1187,1188 l4461,0 l0,4461 l-4461,0 z" fill="#ff0002" stroke="black" stroke-width="5"/>
<path d="M1156,1157 l5757,0 l0,5757 l-5757,0 z" fill="#ff0001" stroke="black" stroke-width="5"/>
<path d="M6210,6211 l-3312,0 l0,-3312 l3312,0 z" fill="#ff0008" stroke="black" stroke-width="5"/>
<path d="M5910,5911 l782,0 l0,782 l-782,0 z" fill="#ff000c" stroke="black" stroke-width="5"/>
<path d="M9945,9946 l-1829,0 l0,-1829 l1829,0 z" fill="#ff005e" stroke="black" stroke-width="5"/>
<path d="M404,405 l7797,0 l0,7797 l-7797,0 z" fill="#ff0000" stroke="black" stroke-width="5"/>
<path d="M1261,1262 l4971,0 l0,4971 l-4971,0 z" fill="#ff0011" stroke="black" stroke-width="5"/>
<path d="M684,685 l7857,0 l0,7857 l-7857,0 z" fill="#ff0000" stroke="black" stroke-width="5"/>
<path d="M8829,8830 l-2625,0 l0,-2625 l2625,0 z" fill="#ff0000" stroke="black" stroke-width="5"/>
<path d="M1140,1141 l8349,0 l0,8349 l-8349,0 z" fill="#ff0001" stroke="black" stroke-width="5"/>
<path d="M6983,6984 l1076,0 l0,1076 l-1076,0 z" fill="#1d00ff" stroke="black" stroke-width="5"/>
<path d="M4189,4190 l4845,0 l0,4845 l-4845,0 z" fill="#ff0000" stroke="black" stroke-width="5"/>
<path d="M5193,5194 l3037,0 l0,3037 l-3037,0 z" fill="#ff0000" stroke="black" stroke-width="5"/>
<path d="M9788,7115 l60,0 l0,60 l-60,0 z" fill="green"/>
<path d="M9818,7145 l-1336.5,1337.5" stroke="black" stroke-width="5"/>
<path d="M7916,7032 l60,0 l0,60 l-60,0 z" fill="green"/>
<path d="M7946,7062 l-442,443" stroke="black" stroke-width="5"/>
<path d="M885,7277 l60,0 l0,60 l-60,0 z" fill="green"/>
<path d="M915,7307 l3196,-3195" stroke="black" stroke-width="5"/>
<path d="M258,1488 l60,0 l0,60 l-60,0 z" fill="green"/>
<path d="M288,1518 l615,-614" stroke="black" stroke-width="5"/>
<path d="M-12,1631 l60,0 l0,60 l-60,0 z" fill="green"/>
<path d="M18,1661 l821.5,-820.5" stroke="black" stroke-width="5"/>
<path d="M1164,6968 l60,0 l0,60 l-60,0 z" fill="green"/>
<path d="M1194,6998 l2902,-2901" stroke="black" stroke-width="5"/>
<path d="M9358,969 l60,0 l0,60 l-60,0 z" fill="green"/>
<path d="M9388,999 l-4194.5,4195.5" stroke="black" stroke-width="5"/>
<path d="M660,8586 l60,0 l0,60 l-60,0 z" fill="green"/>
<path d="M690,8616 l3963,-3962" stroke="black" stroke-width="5"/>
<path d="M6691,1837 l60,0 l0,60 l-60,0 z" fill="green"/>
<path d="M6721,1867 l-2427,2428" stroke="black" stroke-width="5"/>
<path d="M2688,3356 l60,0 l0,60 l-60,0 z" fill="green"/>
<path d="M2718,3386 l334,-333" stroke="black" stroke-width="5"/>
<path d="M607,3004 l60,0 l0,60 l-60,0 z" fill="green"/>
<path d="M637,3034 l1198.5,-1197.5" stroke="black" stroke-width="5"/>
<path d="M6346,1998 l60,0 l0,60 l-60,0 z" fill="green"/>
<path d="M6376,2028 l-2174,2175" stroke="black" stroke-width="5"/>
<path d="M4863,359 l60,0 l0,60 l-60,0 z" fill="green"/>
<path d="M4893,389 l-2252,2253" stroke="black" stroke-width="5"/>
<path d="M7171,9691 l60,0 l0,60 l-60,0 z" fill="green"/>
<path d="M7201,9721 l1260,-1259" stroke="black" stroke-width="5"/>
<path d="M8910,887 l60,0 l0,60 l-60,0 z" fill="green"/>
<path d="M8940,917 l-4011.5,4012.5" stroke="black" stroke-width="5"/>
<path d="M7845,9087 l60,0 l0,60 l-60,0 z" fill="green"/>
<path d="M7875,9117 l621,-620" stroke="black" stroke-width="5"/>
<path d="M236,6828 l60,0 l0,60 l-60,0 z" fill="green"/>
<path d="M266,6858 l3296,-3295" stroke="black" stroke-width="5"/>
<path d="M9528,8447 l60,0 l0,60 l-60,0 z" fill="green"/>
<path d="M9558,8477 l-540.5,541.5" stroke="black" stroke-width="5"/>
<path d="M3461,3079 l60,0 l0,60 l-60,0 z" fill="green"/>
<path d="M3491,3109 l-191,192" stroke="black" stroke-width="5"/>
<path d="M3572,3079 l60,0 l0,60 l-60,0 z" fill="green"/>
<path d="M3602,3109 l-246.5,247.5" stroke="black" stroke-width="5"/>
<path d="M2292,3839 l60,0 l0,60 l-60,0 z" fill="green"/>
<path d="M2322,3869 l773.5,-772.5" stroke="black" stroke-width="5"/>
<path d="M2957,1345 l60,0 l0,60 l-60,0 z" fill="green"/>
<path d="M2987,1375 l-806,807" stroke="black" stroke-width="5"/>
<path d="M9629,7565 l60,0 l0,60 l-60,0 z" fill="green"/>
<path d="M9659,7595 l-1032,1033" stroke="black" stroke-width="5"/>
<path d="M3696,1585 l60,0 l0,60 l-60,0 z" fill="green"/>
<path d="M3726,1615 l-1055.5,1056.5" stroke="black" stroke-width="5"/>
<path d="M9220,1090 l60,0 l0,60 l-60,0 z" fill="green"/>
<path d="M9250,1120 l-4065,4066" stroke="black" stroke-width="5"/>
<path d="M4057,8917 l60,0 l0,60 l-60,0 z" fill="green"/>
<path d="M4087,8947 l2430,-2429" stroke="black" stroke-width="5"/>
<path d="M5068,2933 l60,0 l0,60 l-60,0 z" fill="green"/>
<path d="M5098,2963 l-1067.5,1068.5" stroke="black" stroke-width="5"/>
<path d="M2157,3949 l60,0 l0,60 l-60,0 z" fill="green"/>
<path d="M2187,3979 l896,-895" stroke="black" stroke-width="5"/>
<path d="M8386,1076 l60,0 l0,60 l-60,0 z" fill="green"/>
<path d="M8416,1106 l-3655,3656" stroke="black" stroke-width="5"/>
<path d="M5884,4164 l60,0 l0,60 l-60,0 z" fill="green"/>
<path d="M5914,4194 l-860,861" stroke="black" stroke-width="5"/>
<path d="M9135,932 l60,0 l0,60 l-60,0 z" fill="green"/>
<path d="M9165,962 l-4101.5,4102.5" stroke="black" stroke-width="5"/>
<path d="M1889,6027 l60,0 l0,60 l-60,0 z" fill="green"/>
<path d="M1919,6057 l2069,-2068" stroke="black" stroke-width="5"/>
<path d="M5147,7186 l60,0 l0,60 l-60,0 z" fill="green"/>
<path d="M5177,7216 l1019.5,-1018.5" stroke="black" stroke-width="5"/>
<path d="M6432,7514 l60,0 l0,60 l-60,0 z" fill="green"/>
<path d="M6462,7544 l541,-540" stroke="black" stroke-width="5"/>
<path d="M91,4237 l60,0 l0,60 l-60,0 z" fill="green"/>
<path d="M121,4267 l2073,-2072" stroke="black" stroke-width="5"/>
<path d="M9177,77 l60,0 l0,60 l-60,0 z" fill="green"/>
<path d="M9207,107 l-4550,4551" stroke="black" stroke-width="5"/>
<path d="M6001,2375 l60,0 l0,60 l-60,0 z" fill="green"/>
<path d="M6031,2405 l-1813,1814" stroke="black" stroke-width="5"/>
<path d="M9690,6588 l60,0 l0,60 l-60,0 z" fill="green"/>
<path d="M9720,6618 l-1551,1552" stroke="black" stroke-width="5"/>
<path d="M6889,8196 l60,0 l0,60 l-60,0 z" fill="green"/>
<path d="M6919,8226 l653.5,-652.5" stroke="black" stroke-width="5"/>
<path d="M2537,1990 l60,0 l0,60 l-60,0 z" fill="green"/>
<path d="M2567,2020 l-273.5,274.5" stroke="black" stroke-width="5"/>
<path d="M9810,4273 l60,0 l0,60 l-60,0 z" fill="green"/>
<path d="M9840,4303 l-2768.5,2769.5" stroke="black" stroke-width="5"/>
<path d="M7527,7737 l60,0 l0,60 l-60,0 z" fill="green"/>
<path d="M7557,7767 l105,-104" stroke="black" stroke-width="5"/>
<path d="M1157,5618 l60,0 l0,60 l-60,0 z" fill="green"/>
<path d="M1187,5648 l2230.5,-2229.5" stroke="black" stroke-width="5"/>
<path d="M1126,6883 l60,0 l0,60 l-60,0 z" fill="green"/>
<path d="M1156,6913 l2878.5,-2877.5" stroke="black" stroke-width="5"/>
<path d="M6180,2868 l60,0 l0,60 l-60,0 z" fill="green"/>
<path d="M6210,2898 l-1656,1657" stroke="black" stroke-width="5"/>
<path d="M5880,6662 l60,0 l0,60 l-60,0 z" fill="green"/>
<path d="M5910,6692 l391,-390" stroke="black" stroke-width="5"/>
<path d="M9915,8086 l60,0 l0,60 l-60,0 z" fill="green"/>
<path d="M9945,8116 l-914.5,915.5" stroke="black" stroke-width="5"/>
<path d="M374,8171 l60,0 l0,60 l-60,0 z" fill="green"/>
<path d="M404,8201 l3898.5,-3897.5" stroke="black" stroke-width="5"/>
<path d="M1231,6202 l60,0 l0,60 l-60,0 z" fill="green"/>
<path d="M1261,6232 l2485.5,-2484.5" stroke="black" stroke-width="5"/>
<path d="M654,8511 l60,0 l0,60 l-60,0 z" fill="green"/>
<path d="M684,8541 l3928.5,-3927.5" stroke="black" stroke-width="5"/>
<path d="M8799,6174 l60,0 l0,60 l-60,0 z" fill="green"/>
<path d="M8829,6204 l-1312.5,1313.5" stroke="black" stroke-width="5"/>
<path d="M1110,9459 l60,0 l0,60 l-60,0 z" fill="green"/>
<path d="M1140,9489 l4174.5,-4173.5" stroke="black" stroke-width="5"/>
<path d="M6953,8029 l60,0 l0,60 l-60,0 z" fill="green"/>
<path d="M6983,8059 l538,-537" stroke="black" stroke-width="5"/>
<path d="M4159,9004 l60,0 l0,60 l-60,0 z" fill="green"/>
<path d="M4189,9034 l2422.5,-2421.5" stroke="black" stroke-width="5"/>
<path d="M5163,8200 l60,0 l0,60 l-60,0 z" fill="green"/>
<path d="M5193,8230 l1518.5,-1517.5" stroke="black" stroke-width="5"/>
<text font-size="190.69251784911845" text-anchor="middle" x="8481.5" y="8549.242381247192">
0
</text>
<text font-size="190.69251784911845" text-anchor="middle" x="7504" y="7571.742381247192">
1
</text>
<text font-size="190.69251784911845" text-anchor="middle" x="4111" y="4178.742381247192">
2
</text>
<text font-size="190.69251784911845" text-anchor="middle" x="903" y="970.7423812471915">
3
</text>
<text font-size="190.69251784911845" text-anchor="middle" x="839.5" y="907.2423812471915">
4
</text>
<text font-size="190.69251784911845" text-anchor="middle" x="4096" y="4163.742381247192">
5
</text>
<text font-size="190.69251784911845" text-anchor="middle" x="5193.5" y="5261.242381247192">
6
</text>
<text font-size="190.69251784911845" text-anchor="middle" x="4653" y="4720.742381247192">
7
</text>
<text font-size="190.69251784911845" text-anchor="middle" x="4294" y="4361.742381247192">
8
</text>
<text font-size="190.69251784911845" text-anchor="middle" x="3052" y="3119.7423812471916">
9
</text>
<text font-size="190.69251784911845" text-anchor="middle" x="1835.5" y="1903.2423812471914">
10
</text>
<text font-size="190.69251784911845" text-anchor="middle" x="4202" y="4269.742381247192">
11
</text>
<text font-size="190.69251784911845" text-anchor="middle" x="2641" y="2708.7423812471916">
12
</text>
<text font-size="190.69251784911845" text-anchor="middle" x="8461" y="8528.742381247192">
13
</text>
<text font-size="190.69251784911845" text-anchor="middle" x="4928.5" y="4996.242381247192">
14
</text>
<text font-size="190.69251784911845" text-anchor="middle" x="8496" y="8563.742381247192">
15
</text>
<text font-size="190.69251784911845" text-anchor="middle" x="3562" y="3629.7423812471916">
16
</text>
<text font-size="190.69251784911845" text-anchor="middle" x="9017.5" y="9085.242381247192">
17
</text>
<text font-size="190.69251784911845" text-anchor="middle" x="3300" y="3367.7423812471916">
18
</text>
<text font-size="190.69251784911845" text-anchor="middle" x="3355.5" y="3423.2423812471916">
19
</text>
<text font-size="190.69251784911845" text-anchor="middle" x="3095.5" y="3163.2423812471916">
20
</text>
<text font-size="190.69251784911845" text-anchor="middle" x="2181" y="2248.7423812471916">
21
</text>
<text font-size="190.69251784911845" text-anchor="middle" x="8627" y="8694.742381247192">
22
</text>
<text font-size="190.69251784911845" text-anchor="middle" x="2670.5" y="2738.2423812471916">
23
</text>
<text font-size="190.69251784911845" text-anchor="middle" x="5185" y="5252.742381247192">
24
</text>
<text font-size="190.69251784911845" text-anchor="middle" x="6517" y="6584.742381247192">
25
</text>
<text font-size="190.69251784911845" text-anchor="middle" x="4030.5" y="4098.242381247192">
26
</text>
<text font-size="190.69251784911845" text-anchor="middle" x="3083" y="3150.7423812471916">
27
</text>
<text font-size="190.69251784911845" text-anchor="middle" x="4761" y="4828.742381247192">
28
</text>
<text font-size="190.69251784911845" text-anchor="middle" x="5054" y="5121.742381247192">
29
</text>
<text font-size="190.69251784911845" text-anchor="middle" x="5063.5" y="5131.242381247192">
30
</text>
<text font-size="190.69251784911845" text-anchor="middle" x="3988" y="4055.7423812471916">
31
</text>
<text font-size="190.69251784911845" text-anchor="middle" x="6196.5" y="6264.242381247192">
32
</text>
<text font-size="190.69251784911845" text-anchor="middle" x="7003" y="7070.742381247192">
33
</text>
<text font-size="190.69251784911845" text-anchor="middle" x="2194" y="2261.7423812471916">
34
</text>
<text font-size="190.69251784911845" text-anchor="middle" x="4657" y="4724.742381247192">
35
</text>
<text font-size="190.69251784911845" text-anchor="middle" x="4218" y="4285.742381247192">
36
</text>
<text font-size="190.69251784911845" text-anchor="middle" x="8169" y="8236.742381247192">
37
</text>
<text font-size="190.69251784911845" text-anchor="middle" x="7572.5" y="7640.242381247192">
38
</text>
<text font-size="190.69251784911845" text-anchor="middle" x="2293.5" y="2361.2423812471916">
39
</text>
<text font-size="190.69251784911845" text-anchor="middle" x="7071.5" y="7139.242381247192">
40
</text>
<text font-size="190.69251784911845" text-anchor="middle" x="7662" y="7729.742381247192">
41
</text>
<text font-size="190.69251784911845" text-anchor="middle" x="3417.5" y="3485.2423812471916">
42
</text>
<text font-size="190.69251784911845" text-anchor="middle" x="4034.5" y="4102.242381247192">
43
</text>
<text font-size="190.69251784911845" text-anchor="middle" x="4554" y="4621.742381247192">
44
</text>
<text font-size="190.69251784911845" text-anchor="middle" x="6301" y="6368.742381247192">
45
</text>
<text font-size="190.69251784911845" text-anchor="middle" x="9030.5" y="9098.242381247192">
46
</text>
<text font-size="190.69251784911845" text-anchor="middle" x="4302.5" y="4370.242381247192">
47
</text>
<text font-size="190.69251784911845" text-anchor="middle" x="3746.5" y="3814.2423812471916">
48
</text>
<text font-size="190.69251784911845" text-anchor="middle" x="4612.5" y="4680.242381247192">
49
</text>
<text font-size="190.69251784911845" text-anchor="middle" x="7516.5" y="7584.242381247192">
50
</text>
<text font-size="190.69251784911845" text-anchor="middle" x="5314.5" y="5382.242381247192">
51
</text>
<text font-size="190.69251784911845" text-anchor="middle" x="7521" y="7588.742381247192">
52
</text>
<text font-size="190.69251784911845" text-anchor="middle" x="6611.5" y="6679.242381247192">
53
</text>
<text font-size="190.69251784911845" text-anchor="middle" x="6711.5" y="6779.242381247192">
54
</text>
</svg>