<svg viewBox="0 0 10000 10000" xmlns="http://www.w3.org/2000/svg">
<path d="M0,0 l10000,0 l0,10000 l-10000,0 z" fill="white"/>
<path d="M4335,9820 l1,0 l0,1 l-1,0 z" fill="#0000ff" stroke="black" stroke-width="5"/>
<path d="M59,8228 l1,0 l0,1 l-1,0 z" fill="#0000ff" stroke="black" stroke-width="5"/>
<path d="M1858,5242 l1,0 l0,1 l-1,0 z" fill="#0000ff" stroke="black" stroke-width="5"/>
<path d="M2368,1117 l1,0 l0,1 l-1,0 z" fill="#0000ff" stroke="black" stroke-width="5"/>
<path d="M2507,560 l1,0 l0,1 l-1,0 z" fill="#0000ff" stroke="black" stroke-width="5"/>
<path d="M6533,7709 l1,0 l0,1 l-1,0 z" fill="#0000ff" stroke="black" stroke-width="5"/>
<path d="M6740,890 l1,0 l0,1 l-1,0 z" fill="#0000ff" stroke="black" stroke-width="5"/>
<path d="M1468,5664 l1,0 l0,1 l-1,0 z" fill="#0000ff" stroke="black" stroke-width="5"/>
<path d="M8296,7270 l1,0 l0,1 l-1,0 z" fill="#0000ff" stroke="black" stroke-width="5"/>
<path d="M5710,578 l1,0 l0,1 l-1,0 z" fill="#0000ff" stroke="black" stroke-width="5"/>
<path d="M3244,2330 l1,0 l0,1 l-1,0 z" fill="#0000ff" stroke="black" stroke-width="5"/>
<path d="M999,9298 l1,0 l0,1 l-1,0 z" fill="#0000ff" stroke="black" stroke-width="5"/>
<path d="M8382,5025 l1,0 l0,1 l-1,0 z" fill="#0000ff" stroke="black" stroke-width="5"/>
<path d="M3728,8160 l1,0 l0,1 l-1,0 z" fill="#0000ff" stroke="black" stroke-width="5"/>
<path d="M6717,8510 l1,0 l0,1 l-1,0 z" fill="#0000ff" stroke="black" stroke-width="5"/>
<path d="M3451,5527 l1,0 l0,1 l-1,0 z" fill="#0000ff" stroke="black" stroke-width="5"/>
<path d="M4683,5284 l1,0 l0,1 l-1,0 z" fill="#0000ff" stroke="black" stroke-width="5"/>
<path d="M9641,9853 l1,0 l0,1 l-1,0 z" fill="#0000ff" stroke="black" stroke-width="5"/>
<path d="M1920,599 l1,0 l0,1 l-1,0 z" fill="#0000ff" stroke="black" stroke-width="5"/>
<path d="M5563,5939 l1,0 l0,1 l-1,0 z" fill="#0000ff" stroke="black" stroke-width="5"/>
<path d="M7406,3458 l1,0 l0,1 l-1,0 z" fill="#0000ff" stroke="black" stroke-width="5"/>
<path d="M2225,2454 l1,0 l0,1 l-1,0 z" fill="#0000ff" stroke="black" stroke-width="5"/>
<path d="M8464,5388 l1,0 l0,1 l-1,0 z" fill="#0000ff" stroke="black" stroke-width="5"/>
<path d="M4788,6472 l1,0 l0,1 l-1,0 z" fill="#0000ff" stroke="black" stroke-width="5"/>
<path d="M1450,8675 l1,0 l0,1 l-1,0 z" fill="#0000ff" stroke="black" stroke-width="5"/>
<path d="M3397,5478 l1,0 l0,1 l-1,0 z" fill="#0000ff" stroke="black" stroke-width="5"/>
<path d="M7379,8033 l1,0 l0,1 l-1,0 z" fill="#0000ff" stroke="black" stroke-width="5"/>
<path d="M943,8250 l1,0 l0,1 l-1,0 z" fill="#0000ff" stroke="black" stroke-width="5"/>
<path d="M5647,3509 l1,0 l0,1 l-1,0 z" fill="#0000ff" stroke="black" stroke-width="5"/>
<path d="M3214,9319 l1,0 l0,1 l-1,0 z" fill="#0000ff" stroke="black" stroke-width="5"/>
<path d="M5868,5935 l1,0 l0,1 l-1,0 z" fill="#0000ff" stroke="black" stroke-width="5"/>
<path d="M7016,8225 l1,0 l0,1 l-1,0 z" fill="#0000ff" stroke="black" stroke-width="5"/>
<path d="M5215,5766 l1,0 l0,1 l-1,0 z" fill="#0000ff" stroke="black" stroke-width="5"/>
<path d="M5675,1125 l1,0 l0,1 l-1,0 z" fill="#0000ff" stroke="black" stroke-width="5"/>
<path d="M4434,1486 l1,0 l0,1 l-1,0 z" fill="#0000ff" stroke="black" stroke-width="5"/>
<path d="M133,4847 l1,0 l0,1 l-1,0 z" fill="#0000ff" stroke="black" stroke-width="5"/>
<path d="M5123,3800 l1,0 l0,1 l-1,0 z" fill="#0000ff" stroke="black" stroke-width="5"/>
<path d="M4440,1993 l1,0 l0,1 l-1,0 z" fill="#0000ff" stroke="black" stroke-width="5"/>
<path d="M9045,3048 l1,0 l0,1 l-1,0 z" fill="#0000ff" stroke="black" stroke-width="5"/>
<path d="M8990,3224 l1,0 l0,1 l-1,0 z" fill="#0000ff" stroke="black" stroke-width="5"/>
<path d="M5176,541 l1,0 l0,1 l-1,0 z" fill="#0000ff" stroke="black" stroke-width="5"/>
<path d="M8141,7899 l1,0 l0,1 l-1,0 z" fill="#0000ff" stroke="black" stroke-width="5"/>
<path d="M1725,6928 l1,0 l0,1 l-1,0 z" fill="#0000ff" stroke="black" stroke-width="5"/>
<path d="M3910,6632 l1,0 l0,1 l-1,0 z" fill="#0000ff" stroke="black" stroke-width="5"/>
<path d="M7126,9289 l1,0 l0,1 l-1,0 z" fill="#0000ff" stroke="black" stroke-width="5"/>
<path d="M3778,3277 l1,0 l0,1 l-1,0 z" fill="#0000ff" stroke="black" stroke-width="5"/>
<path d="M8636,9867 l1,0 l0,1 l-1,0 z" fill="#0000ff" stroke="black" stroke-width="5"/>
<path d="M7926,6875 l1,0 l0,1 l-1,0 z" fill="#0000ff" stroke="black" stroke-width="5"/>
<path d="M2508,74 l1,0 l0,1 l-1,0 z" fill="#0000ff" stroke="black" stroke-width="5"/>
<path d="M965,5022 l1,0 l0,1 l-1,0 z" fill="#0000ff" stroke="black" stroke-width="5"/>
<path d="M6663,4055 l1,0 l0,1 l-1,0 z" fill="#0000ff" stroke="black" stroke-width="5"/>
<path d="M1863,8406 l1,0 l0,1 l-1,0 z" fill="#0000ff" stroke="black" stroke-width="5"/>
<path d="M4305,9790 l60,0 l0,60 l-60,0 z" fill="green"/>
<path d="M4335,9820 l0.5,0.5" stroke="black" stroke-width="5"/>
<path d="M29,8198 l60,0 l0,60 l-60,0 z" fill="green"/>
<path d="M59,8228 l0.5,0.5" stroke="black" stroke-width="5"/>
<path d="M1828,5212 l60,0 l0,60 l-60,0 z" fill="green"/>
<path d="M1858,5242 l0.5,0.5" stroke="black" stroke-width="5"/>
<path d="M2338,1087 l60,0 l0,60 l-60,0 z" fill="green"/>
<path d="M2368,1117 l0.5,0.5" stroke="black" stroke-width="5"/>
<path d="M2477,530 l60,0 l0,60 l-60,0 z" fill="green"/>
<path d="M2507,560 l0.5,0.5" stroke="black" stroke-width="5"/>
<path d="M6503,7679 l60,0 l0,60 l-60,0 z" fill="green"/>
<path d="M6533,7709 l0.5,0.5" stroke="black" stroke-width="5"/>
<path d="M6710,860 l60,0 l0,60 l-60,0 z" fill="green"/>
<path d="M6740,890 l0.5,0.5" stroke="black" stroke-width="5"/>
<path d="M1438,5634 l60,0 l0,60 l-60,0 z" fill="green"/>
<path d="M1468,5664 l0.5,0.5" stroke="black" stroke-width="5"/>
<path d="M8266,7240 l60,0 l0,60 l-60,0 z" fill="green"/>
<path d="M8296,7270 l0.5,0.5" stroke="black" stroke-width="5"/>
<path d="M5680,548 l60,0 l0,60 l-60,0 z" fill="green"/>
<path d="M5710,578 l0.5,0.5" stroke="black" stroke-width="5"/>
<path d="M3214,2300 l60,0 l0,60 l-60,0 z" fill="green"/>
<path d="M3244,2330 l0.5,0.5" stroke="black" stroke-width="5"/>
<path d="M969,9268 l60,0 l0,60 l-60,0 z" fill="green"/>
<path d="M999,9298 l0.5,0.5" stroke="black" stroke-width="5"/>
<path d="M8352,4995 l60,0 l0,60 l-60,0 z" fill="green"/>
<path d="M8382,5025 l0.5,0.5" stroke="black" stroke-width="5"/>
<path d="M3698,8130 l60,0 l0,60 l-60,0 z" fill="green"/>
<path d="M3728,8160 l0.5,0.5" stroke="black" stroke-width="5"/>
<path d="M6687,8480 l60,0 l0,60 l-60,0 z" fill="green"/>
<path d="M6717,8510 l0.5,0.5" stroke="black" stroke-width="5"/>
<path d="M3421,5497 l60,0 l0,60 l-60,0 z" fill="green"/>
<path d="M3451,5527 l0.5,0.5" stroke="black" stroke-width="5"/>
<path d="M4653,5254 l60,0 l0,60 l-60,0 z" fill="green"/>
<path d="M4683,5284 l0.5,0.5" stroke="black" stroke-width="5"/>
<path d="M9611,9823 l60,0 l0,60 l-60,0 z" fill="green"/>
<path d="M9641,9853 l0.5,0.5" stroke="black" stroke-width="5"/>
<path d="M1890,569 l60,0 l0,60 l-60,0 z" fill="green"/>
<path d="M1920,599 l0.5,0.5" stroke="black" stroke-width="5"/>
<path d="M5533,5909 l60,0 l0,60 l-60,0 z" fill="green"/>
<path d="M5563,5939 l0.5,0.5" stroke="black" stroke-width="5"/>
<path d="M7376,3428 l60,0 l0,60 l-60,0 z" fill="green"/>
<path d="M7406,3458 l0.5,0.5" stroke="black" stroke-width="5"/>
<path d="M2195,2424 l60,0 l0,60 l-60,0 z" fill="green"/>
<path d="M2225,2454 l0.5,0.5" stroke="black" stroke-width="5"/>
<path d="M8434,5358 l60,0 l0,60 l-60,0 z" fill="green"/>
<path d="M8464,5388 l0.5,0.5" stroke="black" stroke-width="5"/>
<path d="M4758,6442 l60,0 l0,60 l-60,0 z" fill="green"/>
<path d="M4788,6472 l0.5,0.5" stroke="black" stroke-width="5"/>
<path d="M1420,8645 l60,0 l0,60 l-60,0 z" fill="green"/>
<path d="M1450,8675 l0.5,0.5" stroke="black" stroke-width="5"/>
<path d="M3367,5448 l60,0 l0,60 l-60,0 z" fill="green"/>
<path d="M3397,5478 l0.5,0.5" stroke="black" stroke-width="5"/>
<path d="M7349,8003 l60,0 l0,60 l-60,0 z" fill="green"/>
<path d="M7379,8033 l0.5,0.5" stroke="black" stroke-width="5"/>
<path d="M913,8220 l60,0 l0,60 l-60,0 z" fill="green"/>
<path d="M943,8250 l0.5,0.5" stroke="black" stroke-width="5"/>
<path d="M5617,3479 l60,0 l0,60 l-60,0 z" fill="green"/>
<path d="M5647,3509 l0.5,0.5" stroke="black" stroke-width="5"/>
<path d="M3184,9289 l60,0 l0,60 l-60,0 z" fill="green"/>
<path d="M3214,9319 l0.5,0.5" stroke="black" stroke-width="5"/>
<path d="M5838,5905 l60,0 l0,60 l-60,0 z" fill="green"/>
<path d="M5868,5935 l0.5,0.5" stroke="black" stroke-width="5"/>
<path d="M6986,8195 l60,0 l0,60 l-60,0 z" fill="green"/>
<path d="M7016,8225 l0.5,0.5" stroke="black" stroke-width="5"/>
<path d="M5185,5736 l60,0 l0,60 l-60,0 z" fill="green"/>
<path d="M5215,5766 l0.5,0.5" stroke="black" stroke-width="5"/>
<path d="M5645,1095 l60,0 l0,60 l-60,0 z" fill="green"/>
<path d="M5675,1125 l0.5,0.5" stroke="black" stroke-width="5"/>
<path d="M4404,1456 l60,0 l0,60 l-60,0 z" fill="green"/>
<path d="M4434,1486 l0.5,0.5" stroke="black" stroke-width="5"/>
<path d="M103,4817 l60,0 l0,60 l-60,0 z" fill="green"/>
<path d="M133,4847 l0.5,0.5" stroke="black" stroke-width="5"/>
<path d="M5093,3770 l60,0 l0,60 l-60,0 z" fill="green"/>
<path d="M5123,3800 l0.5,0.5" stroke="black" stroke-width="5"/>
<path d="M4410,1963 l60,0 l0,60 l-60,0 z" fill="green"/>
<path d="M4440,1993 l0.5,0.5" stroke="black" stroke-width="5"/>
<path d="M9015,3018 l60,0 l0,60 l-60,0 z" fill="green"/>
<path d="M9045,3048 l0.5,0.5" stroke="black" stroke-width="5"/>
<path d="M8960,3194 l60,0 l0,60 l-60,0 z" fill="green"/>
<path d="M8990,3224 l0.5,0.5" stroke="black" stroke-width="5"/>
<path d="M5146,511 l60,0 l0,60 l-60,0 z" fill="green"/>
<path d="M5176,541 l0.5,0.5" stroke="black" stroke-width="5"/>
<path d="M8111,7869 l60,0 l0,60 l-60,0 z" fill="green"/>
<path d="M8141,7899 l0.5,0.5" stroke="black" stroke-width="5"/>
<path d="M1695,6898 l60,0 l0,60 l-60,0 z" fill="green"/>
<path d="M1725,6928 l0.5,0.5" stroke="black" stroke-width="5"/>
<path d="M3880,6602 l60,0 l0,60 l-60,0 z" fill="green"/>
<path d="M3910,6632 l0.5,0.5" stroke="black" stroke-width="5"/>
<path d="M7096,9259 l60,0 l0,60 l-60,0 z" fill="green"/>
<path d="M7126,9289 l0.5,0.5" stroke="black" stroke-width="5"/>
<path d="M3748,3247 l60,0 l0,60 l-60,0 z" fill="green"/>
<path d="M3778,3277 l0.5,0.5" stroke="black" stroke-width="5"/>
<path d="M8606,9837 l60,0 l0,60 l-60,0 z" fill="green"/>
<path d="M8636,9867 l0.5,0.5" stroke="black" stroke-width="5"/>
<path d="M7896,6845 l60,0 l0,60 l-60,0 z" fill="green"/>
<path d="M7926,6875 l0.5,0.5" stroke="black" stroke-width="5"/>
<path d="M2478,44 l60,0 l0,60 l-60,0 z" fill="green"/>
<path d="M2508,74 l0.5,0.5" stroke="black" stroke-width="5"/>
<path d="M935,4992 l60,0 l0,60 l-60,0 z" fill="green"/>
<path d="M965,5022 l0.5,0.5" stroke="black" stroke-width="5"/>
<path d="M6633,4025 l60,0 l0,60 l-60,0 z" fill="green"/>
<path d="M6663,4055 l0.5,0.5" stroke="black" stroke-width="5"/>
<path d="M1833,8376 l60,0 l0,60 l-60,0 z" fill="green"/>
<path d="M1863,8406 l0.5,0.5" stroke="black" stroke-width="5"/>
<text font-size="196.116135138184" text-anchor="middle" x="4335.5" y="9889.140647298364">
0
</text>
<text font-size="196.116135138184" text-anchor="middle" x="59.5" y="8297.140647298364">
1
</text>
<text font-size="196.116135138184" text-anchor="middle" x="1858.5" y="5311.1406472983645">
2
</text>
<text font-size="196.116135138184" text-anchor="middle" x="2368.5" y="1186.1406472983645">
3
</text>
<text font-size="196.116135138184" text-anchor="middle" x="2507.5" y="629.1406472983645">
4
</text>
<text font-size="196.116135138184" text-anchor="middle" x="6533.5" y="7778.1406472983645">
5
</text>
<text font-size="196.116135138184" text-anchor="middle" x="6740.5" y="959.1406472983645">
6
</text>
<text font-size="196.116135138184" text-anchor="middle" x="1468.5" y="5733.1406472983645">
7
</text>
<text font-size="196.116135138184" text-anchor="middle" x="8296.5" y="7339.1406472983645">
8
</text>
<text font-size="196.116135138184" text-anchor="middle" x="5710.5" y="647.1406472983645">
9
</text>
<text font-size="196.116135138184" text-anchor="middle" x="3244.5" y="2399.1406472983645">
10
</text>
<text font-size="196.116135138184" text-anchor="middle" x="999.5" y="9367.140647298364">
11
</text>
<text font-size="196.116135138184" text-anchor="middle" x="8382.5" y="5094.1406472983645">
12
</text>
<text font-size="196.116135138184" text-anchor="middle" x="3728.5" y="8229.140647298364">
13
</text>
<text font-size="196.116135138184" text-anchor="middle" x="6717.5" y="8579.140647298364">
14
</text>
<text font-size="196.116135138184" text-anchor="middle" x="3451.5" y="5596.1406472983645">
15
</text>
<text font-size="196.116135138184" text-anchor="middle" x="4683.5" y="5353.1406472983645">
16
</text>
<text font-size="196.116135138184" text-anchor="middle" x="9641.5" y="9922.140647298364">
17
</text>
<text font-size="196.116135138184" text-anchor="middle" x="1920.5" y="668.1406472983645">
18
</text>
<text font-size="196.116135138184" text-anchor="middle" x="5563.5" y="6008.1406472983645">
19
</text>
<text font-size="196.116135138184" text-anchor="middle" x="7406.5" y="3527.1406472983645">
20
</text>
<text font-size="196.116135138184" text-anchor="middle" x="2225.5" y="2523.1406472983645">
21
</text>
<text font-size="196.116135138184" text-anchor="middle" x="8464.5" y="5457.1406472983645">
22
</text>
<text font-size="196.116135138184" text-anchor="middle" x="4788.5" y="6541.1406472983645">
23
</text>
<text font-size="196.116135138184" text-anchor="middle" x="1450.5" y="8744.140647298364">
24
</text>
<text font-size="196.116135138184" text-anchor="middle" x="3397.5" y="5547.1406472983645">
25
</text>
<text font-size="196.116135138184" text-anchor="middle" x="7379.5" y="8102.1406472983645">
26
</text>
<text font-size="196.116135138184" text-anchor="middle" x="943.5" y="8319.140647298364">
27
</text>
<text font-size="196.116135138184" text-anchor="middle" x="5647.5" y="3578.1406472983645">
28
</text>
<text font-size="196.116135138184" text-anchor="middle" x="3214.5" y="9388.140647298364">
29
</text>
<text font-size="196.116135138184" text-anchor="middle" x="5868.5" y="6004.1406472983645">
30
</text>
<text font-size="196.116135138184" text-anchor="middle" x="7016.5" y="8294.140647298364">
31
</text>
<text font-size="196.116135138184" text-anchor="middle" x="5215.5" y="5835.1406472983645">
32
</text>
<text font-size="196.116135138184" text-anchor="middle" x="5675.5" y="1194.1406472983645">
33
</text>
<text font-size="196.116135138184" text-anchor="middle" x="4434.5" y="1555.1406472983645">
34
</text>
<text font-size="196.116135138184" text-anchor="middle" x="133.5" y="4916.1406472983645">
35
</text>
<text font-size="196.116135138184" text-anchor="middle" x="5123.5" y="3869.1406472983645">
36
</text>
<text font-size="196.116135138184" text-anchor="middle" x="4440.5" y="2062.1406472983645">
37
</text>
<text font-size="196.116135138184" text-anchor="middle" x="9045.5" y="3117.1406472983645">
38
</text>
<text font-size="196.116135138184" text-anchor="middle" x="8990.5" y="3293.1406472983645">
39
</text>
<text font-size="196.116135138184" text-anchor="middle" x="5176.5" y="610.1406472983645">
40
</text>
<text font-size="196.116135138184" text-anchor="middle" x="8141.5" y="7968.1406472983645">
41
</text>
<text font-size="196.116135138184" text-anchor="middle" x="1725.5" y="6997.1406472983645">
42
</text>
<text font-size="196.116135138184" text-anchor="middle" x="3910.5" y="6701.1406472983645">
43
</text>
<text font-size="196.116135138184" text-anchor="middle" x="7126.5" y="9358.140647298364">
44
</text>
<text font-size="196.116135138184" text-anchor="middle" x="3778.5" y="3346.1406472983645">
45
</text>
<text font-size="196.116135138184" text-anchor="middle" x="8636.5" y="9936.140647298364">
46
</text>
<text font-size="196.116135138184" text-anchor="middle" x="7926.5" y="6944.1406472983645">
47
</text>
<text font-size="196.116135138184" text-anchor="middle" x="2508.5" y="143.1406472983644">
48
</text>
<text font-size="196.116135138184" text-anchor="middle" x="965.5" y="5091.1406472983645">
49
</text>
<text font-size="196.116135138184" text-anchor="middle" x="6663.5" y="4124.1406472983645">
50
</text>
<text font-size="196.116135138184" text-anchor="middle" x="1863.5" y="8475.140647298364">
51
</text>
</svg>