<svg viewBox="0 0 10000 10000" xmlns="http://www.w3.org/2000/svg">
<path d="M0,0 l10000,0 l0,10000 l-10000,0 z" fill="white"/>
<path d="M6317,6318 l-4787,0 l0,-4787 l4787,0 z" fill="#ff0000" stroke="black" stroke-width="5"/>
<path d="M409,410 l5058,0 l0,5058 l-5058,0 z" fill="#ff0004" stroke="black" stroke-width="5"/>
<path d="M7851,7852 l-6032,0 l0,-6032 l6032,0 z" fill="#ff0000" stroke="black" stroke-width="5"/>
<path d="M6332,6333 l-4298,0 l0,-4298 l4298,0 z" fill="#ff000d" stroke="black" stroke-width="5"/>
<path d="M4405,4406 l-3623,0 l0,-3623 l3623,0 z" fill="#ff0000" stroke="black" stroke-width="5"/>
<path d="M5525,5526 l679,0 l0,679 l-679,0 z" fill="#4000ff" stroke="black" stroke-width="5"/>
<path d="M8800,8801 l-3160,0 l0,-3160 l3160,0 z" fill="#ff0000" stroke="black" stroke-width="5"/>
<path d="M8860,8861 l-4821,0 l0,-4821 l4821,0 z" fill="#ff0000" stroke="black" stroke-width="5"/>
<path d="M3515,3516 l4856,0 l0,4856 l-4856,0 z" fill="#ff0000" stroke="black" stroke-width="5"/>
<path d="M686,687 l7662,0 l0,7662 l-7662,0 z" fill="#ff0000" stroke="black" stroke-width="5"/>
<path d="M5896,5897 l-4789,0 l0,-4789 l4789,0 z" fill="#ff0000" stroke="black" stroke-width="5"/>
<path d="M3855,3856 l2812,0 l0,2812 l-2812,0 z" fill="#ff0000" stroke="black" stroke-width="5"/>
<path d="M4118,4119 l2932,0 l0,2932 l-2932,0 z" fill="#ff0000" stroke="black" stroke-width="5"/>
<path d="M9905,9906 l-3939,0 l0,-3939 l3939,0 z" fill="#ff0002" stroke="black" stroke-width="5"/>
<path d="M479,480 l8900,0 l0,8900 l-8900,0 z" fill="#ff0000" stroke="black" stroke-width="5"/>
<path d="M7155,7156 l-1419,0 l0,-1419 l1419,0 z" fill="#ff001a" stroke="black" stroke-width="5"/>
<path d="M6365,6366 l-2569,0 l0,-2569 l2569,0 z" fill="#ff0000" stroke="black" stroke-width="5"/>
<path d="M1571,1572 l3974,0 l0,3974 l-3974,0 z" fill="#ff0000" stroke="black" stroke-width="5"/>
<path d="M7596,7597 l-2494,0 l0,-2494 l2494,0 z" fill="#ff0002" stroke="black" stroke-width="5"/>
<path d="M3409,3410 l2742,0 l0,2742 l-2742,0 z" fill="#ff001b" stroke="black" stroke-width="5"/>
<path d="M6853,6854 l-3191,0 l0,-3191 l3191,0 z" fill="#ff0002" stroke="black" stroke-width="5"/>
<path d="M2789,2790 l5810,0 l0,5810 l-5810,0 z" fill="#ff0000" stroke="black" stroke-width="5"/>
<path d="M6604,6605 l-5434,0 l0,-5434 l5434,0 z" fill="#ff0006" stroke="black" stroke-width="5"/>
<path d="M8857,8858 l-1999,0 l0,-1999 l1999,0 z" fill="#ff0004" stroke="black" stroke-width="5"/>
<path d="M7223,7224 l-2167,0 l0,-2167 l2167,0 z" fill="#ff000e" stroke="black" stroke-width="5"/>
<path d="M5586,5587 l-521,0 l0,-521 l521,0 z" fill="#ff0001" stroke="black" stroke-width="5"/>
<path d="M4331,4332 l5024,0 l0,5024 l-5024,0 z" fill="#ff0009" stroke="black" stroke-width="5"/>
<path d="M1044,1045 l2292,0 l0,2292 l-2292,0 z" fill="#ff0006" stroke="black" stroke-width="5"/>
<path d="M2561,2562 l4284,0 l0,4284 l-4284,0 z" fill="#ff0002" stroke="black" stroke-width="5"/>
<path d="M6245,6246 l-6016,0 l0,-6016 l6016,0 z" fill="#ff0000" stroke="black" stroke-width="5"/>
<path d="M8771,8772 l-6762,0 l0,-6762 l6762,0 z" fill="#ff0001" stroke="black" stroke-width="5"/>
<path d="M5735,5736 l-277,0 l0,-277 l277,0 z" fill="#3000ff" stroke="black" stroke-width="5"/>
<path d="M8043,8044 l-4433,0 l0,-4433 l4433,0 z" fill="#ff0001" stroke="black" stroke-width="5"/>
<path d="M3867,3868 l-210,0 l0,-210 l210,0 z" fill="#0500ff" stroke="black" stroke-width="5"/>
<path d="M5601,5602 l1220,0 l0,1220 l-1220,0 z" fill="#ff0002" stroke="black" stroke-width="5"/>
<path d="M2469,2470 l-836,0 l0,-836 l836,0 z" fill="#f600ff" stroke="black" stroke-width="5"/>
<path d="M2395,2396 l1427,0 l0,1427 l-1427,0 z" fill="#ff0002" stroke="black" stroke-width="5"/>
<path d="M5539,5540 l-3576,0 l0,-3576 l3576,0 z" fill="#ff0004" stroke="black" stroke-width="5"/>
<path d="M5393,5394 l-3665,0 l0,-3665 l3665,0 z" fill="#ff0000" stroke="black" stroke-width="5"/>
<path d="M4379,4380 l2336,0 l0,2336 l-2336,0 z" fill="#ff006d" stroke="black" stroke-width="5"/>
<path d="M4266,4267 l3995,0 l0,3995 l-3995,0 z" fill="#ff0002" stroke="black" stroke-width="5"/>
<path d="M4706,4707 l1,0 l0,1 l-1,0 z" fill="#0000ff" stroke="black" stroke-width="5"/>
<path d="M557,558 l8975,0 l0,8975 l-8975,0 z" fill="#ff0000" stroke="black" stroke-width="5"/>
<path d="M8092,8093 l1198,0 l0,1198 l-1198,0 z" fill="#ff0029" stroke="black" stroke-width="5"/>
<path d="M5974,5975 l2584,0 l0,2584 l-2584,0 z" fill="#ff0082" stroke="black" stroke-width="5"/>
<path d="M6501,6502 l711,0 l0,711 l-711,0 z" fill="#b600ff" stroke="black" stroke-width="5"/>
<path d="M2191,2192 l118,0 l0,118 l-118,0 z" fill="#0000ff" stroke="black" stroke-width="5"/>
<path d="M8036,8037 l-347,0 l0,-347 l347,0 z" fill="#ff0027" stroke="black" stroke-width="5"/>
<path d="M4753,4754 l-1485,0 l0,-1485 l1485,0 z" fill="#ff00e1" stroke="black" stroke-width="5"/>
<path d="M6589,6590 l365,0 l0,365 l-365,0 z" fill="#7700ff" stroke="black" stroke-width="5"/>
<path d="M6262,6263 l-5431,0 l0,-5431 l5431,0 z" fill="#ff0000" stroke="black" stroke-width="5"/>
<path d="M3802,3803 l-503,0 l0,-503 l503,0 z" fill="#0600ff" stroke="black" stroke-width="5"/>
<path d="M2216,2217 l5128,0 l0,5128 l-5128,0 z" fill="#ff0000" stroke="black" stroke-width="5"/>
<path d="M9317,9318 l-4360,0 l0,-4360 l4360,0 z" fill="#ff0000" stroke="black" stroke-width="5"/>
<path d="M8885,8886 l-3682,0 l0,-3682 l3682,0 z" fill="#ff0000" stroke="black" stroke-width="5"/>
<path d="M5899,5900 l-809,0 l0,-809 l809,0 z" fill="#fd00ff" stroke="black" stroke-width="5"/>
<path d="M2331,2332 l1228,0 l0,1228 l-1228,0 z" fill="#f200ff" stroke="black" stroke-width="5"/>
<path d="M7954,7955 l-6370,0 l0,-6370 l6370,0 z" fill="#ff0000" stroke="black" stroke-width="5"/>
<path d="M511,512 l1480,0 l0,1480 l-1480,0 z" fill="#ff0004" stroke="black" stroke-width="5"/>
<path d="M851,852 l7840,0 l0,7840 l-7840,0 z" fill="#ff0000" stroke="black" stroke-width="5"/>
<path d="M2464,2465 l-739,0 l0,-739 l739,0 z" fill="#5e00ff" stroke="black" stroke-width="5"/>
<path d="M6458,6459 l-4687,0 l0,-4687 l4687,0 z" fill="#ff0000" stroke="black" stroke-width="5"/>
<path d="M1786,1787 l1775,0 l0,1775 l-1775,0 z" fill="#ff0011" stroke="black" stroke-width="5"/>
<path d="M9979,9980 l-4352,0 l0,-4352 l4352,0 z" fill="#ff0008" stroke="black" stroke-width="5"/>
<path d="M3173,3174 l549,0 l0,549 l-549,0 z" fill="#ff00e9" stroke="black" stroke-width="5"/>
<path d="M5931,5932 l-5293,0 l0,-5293 l5293,0 z" fill="#ff0000" stroke="black" stroke-width="5"/>
<path d="M59,60 l8324,0 l0,8324 l-8324,0 z" fill="#ff0000" stroke="black" stroke-width="5"/>
<path d="M4316,4317 l-577,0 l0,-577 l577,0 z" fill="#ff0044" stroke="black" stroke-width="5"/>
<path d="M2462,2463 l6214,0 l0,6214 l-6214,0 z" fill="#ff0000" stroke="black" stroke-width="5"/>
<path d="M7557,7558 l-6411,0 l0,-6411 l6411,0 z" fill="#ff0001" stroke="black" stroke-width="5"/>
<path d="M9231,9232 l-4445,0 l0,-4445 l4445,0 z" fill="#ff0000" stroke="black" stroke-width="5"/>
<path d="M8564,8565 l-3117,0 l0,-3117 l3117,0 z" fill="#ff0000" stroke="black" stroke-width="5"/>
<path d="M9977,9978 l-9173,0 l0,-9173 l9173,0 z" fill="#ff0000" stroke="black" stroke-width="5"/>
<path d="M2874,2875 l5625,0 l0,5625 l-5625,0 z" fill="#ff0000" stroke="black" stroke-width="5"/>
<path d="M1025,1026 l8393,0 l0,8393 l-8393,0 z" fill="#ff0000" stroke="black" stroke-width="5"/>
<path d="M5676,5677 l2852,0 l0,2852 l-2852,0 z" fill="#ff0001" stroke="black" stroke-width="5"/>
<path d="M9952,9953 l-8936,0 l0,-8936 l8936,0 z" fill="#ff0000" stroke="black" stroke-width="5"/>
<path d="M3038,3039 l152,0 l0,152 l-152,0 z" fill="#0000ff" stroke="black" stroke-width="5"/>
<path d="M6952,6953 l-6532,0 l0,-6532 l6532,0 z" fill="#ff0000" stroke="black" stroke-width="5"/>
<path d="M3973,3974 l1617,0 l0,1617 l-1617,0 z" fill="#ff0067" stroke="black" stroke-width="5"/>
<path d="M7936,7937 l-1592,0 l0,-1592 l1592,0 z" fill="#ff0000" stroke="black" stroke-width="5"/>
<path d="M3309,3310 l88,0 l0,88 l-88,0 z" fill="#0000ff" stroke="black" stroke-width="5"/>
<path d="M9193,9194 l-1992,0 l0,-1992 l1992,0 z" fill="#ff0004" stroke="black" stroke-width="5"/>
<path d="M7824,7825 l-2534,0 l0,-2534 l2534,0 z" fill="#ff000a" stroke="black" stroke-width="5"/>
<path d="M3086,3087 l2986,0 l0,2986 l-2986,0 z" fill="#ff0000" stroke="black" stroke-width="5"/>
<path d="M2992,2993 l90,0 l0,90 l-90,0 z" fill="#0000ff" stroke="black" stroke-width="5"/>
<path d="M7412,7413 l-7118,0 l0,-7118 l7118,0 z" fill="#ff0000" stroke="black" stroke-width="5"/>
<path d="M9849,9850 l-9803,0 l0,-9803 l9803,0 z" fill="#ff0000" stroke="black" stroke-width="5"/>
<path d="M6537,6538 l-1632,0 l0,-1632 l1632,0 z" fill="#ff000a" stroke="black" stroke-width="5"/>
<path d="M6629,6630 l-3185,0 l0,-3185 l3185,0 z" fill="#ff0000" stroke="black" stroke-width="5"/>
<path d="M810,811 l2274,0 l0,2274 l-2274,0 z" fill="#ff0045" stroke="black" stroke-width="5"/>
<path d="M2735,2736 l-776,0 l0,-776 l776,0 z" fill="#ff00d5" stroke="black" stroke-width="5"/>
<path d="M9027,9028 l-187,0 l0,-187 l187,0 z" fill="#0e00ff" stroke="black" stroke-width="5"/>
<path d="M2628,2629 l1826,0 l0,1826 l-1826,0 z" fill="#ff0013" stroke="black" stroke-width="5"/>
<path d="M8394,8395 l764,0 l0,764 l-764,0 z" fill="#6e00ff" stroke="black" stroke-width="5"/>
<path d="M2438,2439 l-816,0 l0,-816 l816,0 z" fill="#c700ff" stroke="black" stroke-width="5"/>
<path d="M6066,6067 l-2801,0 l0,-2801 l2801,0 z" fill="#ff0012" stroke="black" stroke-width="5"/>
<path d="M2679,2680 l6082,0 l0,6082 l-6082,0 z" fill="#ff0000" stroke="black" stroke-width="5"/>
<path d="M9672,9673 l-1472,0 l0,-1472 l1472,0 z" fill="#fe00ff" stroke="black" stroke-width="5"/>
<path d="M7497,7498 l2146,0 l0,2146 l-2146,0 z" fill="#ff0047" stroke="black" stroke-width="5"/>
<path d="M2986,2987 l3872,0 l0,3872 l-3872,0 z" fill="#ff0000" stroke="black" stroke-width="5"/>
<path d="M2082,2083 l4363,0 l0,4363 l-4363,0 z" fill="#ff0000" stroke="black" stroke-width="5"/>
<path d="M9904,9905 l-7789,0 l0,-7789 l7789,0 z" fill="#ff0000" stroke="black" stroke-width="5"/>
<path d="M9112,9113 l-5733,0 l0,-5733 l5733,0 z" fill="#ff0000" stroke="black" stroke-width="5"/>
<path d="M9177,9178 l-567,0 l0,-567 l567,0 z" fill="#2800ff" stroke="black" stroke-width="5"/>
<path d="M2405,2406 l-2389,0 l0,-2389 l2389,0 z" fill="#ff0088" stroke="black" stroke-width="5"/>
<path d="M9030,9031 l-6801,0 l0,-6801 l6801,0 z" fill="#ff0002" stroke="black" stroke-width="5"/>
<path d="M606,607 l2070,0 l0,2070 l-2070,0 z" fill="#ff0056" stroke="black" stroke-width="5"/>
<path d="M9750,9751 l-7659,0 l0,-7659 l7659,0 z" fill="#ff0000" stroke="black" stroke-width="5"/>
<path d="M1245,1246 l1027,0 l0,1027 l-1027,0 z" fill="#ff0015" stroke="black" stroke-width="5"/>
<path d="M6973,6974 l-4572,0 l0,-4572 l4572,0 z" fill="#ff0000" stroke="black" stroke-width="5"/>
<path d="M8970,8971 l-6259,0 l0,-6259 l6259,0 z" fill="#ff0000" stroke="black" stroke-width="5"/>
<path d="M4833,4834 l-1052,0 l0,-1052 l1052,0 z" fill="#ff0000" stroke="black" stroke-width="5"/>
<path d="M7790,7791 l-2169,0 l0,-2169 l2169,0 z" fill="#ff000d" stroke="black" stroke-width="5"/>
<path d="M5647,5648 l2733,0 l0,2733 l-2733,0 z" fill="#ff0012" stroke="black" stroke-width="5"/>
<path d="M139,140 l503,0 l0,503 l-503,0 z" fill="#4200ff" stroke="black" stroke-width="5"/>
<path d="M41,42 l3435,0 l0,3435 l-3435,0 z" fill="#ff0001" stroke="black" stroke-width="5"/>
<path d="M2677,2678 l-2631,0 l0,-2631 l2631,0 z" fill="#ff0002" stroke="black" stroke-width="5"/>
<path d="M6287,1500 l60,0 l0,60 l-60,0 z" fill="green"/>
<path d="M6317,1530 l-2393.5,2394.5" stroke="black" stroke-width="5"/>
<path d="M379,5437 l60,0 l0,60 l-60,0 z" fill="green"/>
<path d="M409,5467 l2529,-2528" stroke="black" stroke-width="5"/>
<path d="M7821,1789 l60,0 l0,60 l-60,0 z" fill="green"/>
<path d="M7851,1819 l-3016,3017" stroke="black" stroke-width="5"/>
<path d="M6302,2004 l60,0 l0,60 l-60,0 z" fill="green"/>
<path d="M6332,2034 l-2149,2150" stroke="black" stroke-width="5"/>
<path d="M4375,752 l60,0 l0,60 l-60,0 z" fill="green"/>
<path d="M4405,782 l-1811.5,1812.5" stroke="black" stroke-width="5"/>
<path d="M5495,6174 l60,0 l0,60 l-60,0 z" fill="green"/>
<path d="M5525,6204 l339.5,-338.5" stroke="black" stroke-width="5"/>
<path d="M8770,5610 l60,0 l0,60 l-60,0 z" fill="green"/>
<path d="M8800,5640 l-1580,1581" stroke="black" stroke-width="5"/>
<path d="M8830,4009 l60,0 l0,60 l-60,0 z" fill="green"/>
<path d="M8860,4039 l-2410.5,2411.5" stroke="black" stroke-width="5"/>
<path d="M3485,8341 l60,0 l0,60 l-60,0 z" fill="green"/>
<path d="M3515,8371 l2428,-2427" stroke="black" stroke-width="5"/>
<path d="M656,8318 l60,0 l0,60 l-60,0 z" fill="green"/>
<path d="M686,8348 l3831,-3830" stroke="black" stroke-width="5"/>
<path d="M5866,1077 l60,0 l0,60 l-60,0 z" fill="green"/>
<path d="M5896,1107 l-2394.5,2395.5" stroke="black" stroke-width="5"/>
<path d="M3825,6637 l60,0 l0,60 l-60,0 z" fill="green"/>
<path d="M3855,6667 l1406,-1405" stroke="black" stroke-width="5"/>
<path d="M4088,7020 l60,0 l0,60 l-60,0 z" fill="green"/>
<path d="M4118,7050 l1466,-1465" stroke="black" stroke-width="5"/>
<path d="M9875,5936 l60,0 l0,60 l-60,0 z" fill="green"/>
<path d="M9905,5966 l-1969.5,1970.5" stroke="black" stroke-width="5"/>
<path d="M449,9349 l60,0 l0,60 l-60,0 z" fill="green"/>
<path d="M479,9379 l4450,-4449" stroke="black" stroke-width="5"/>
<path d="M7125,5706 l60,0 l0,60 l-60,0 z" fill="green"/>
<path d="M7155,5736 l-709.5,710.5" stroke="black" stroke-width="5"/>
<path d="M6335,3766 l60,0 l0,60 l-60,0 z" fill="green"/>
<path d="M6365,3796 l-1284.5,1285.5" stroke="black" stroke-width="5"/>
<path d="M1541,5515 l60,0 l0,60 l-60,0 z" fill="green"/>
<path d="M1571,5545 l1987,-1986" stroke="black" stroke-width="5"/>
<path d="M7566,5072 l60,0 l0,60 l-60,0 z" fill="green"/>
<path d="M7596,5102 l-1247,1248" stroke="black" stroke-width="5"/>
<path d="M3379,6121 l60,0 l0,60 l-60,0 z" fill="green"/>
<path d="M3409,6151 l1371,-1370" stroke="black" stroke-width="5"/>
<path d="M6823,3632 l60,0 l0,60 l-60,0 z" fill="green"/>
<path d="M6853,3662 l-1595.5,1596.5" stroke="black" stroke-width="5"/>
<path d="M2759,8569 l60,0 l0,60 l-60,0 z" fill="green"/>
<path d="M2789,8599 l2905,-2904" stroke="black" stroke-width="5"/>
<path d="M6574,1140 l60,0 l0,60 l-60,0 z" fill="green"/>
<path d="M6604,1170 l-2717,2718" stroke="black" stroke-width="5"/>
<path d="M8827,6828 l60,0 l0,60 l-60,0 z" fill="green"/>
<path d="M8857,6858 l-999.5,1000.5" stroke="black" stroke-width="5"/>
<path d="M7193,5026 l60,0 l0,60 l-60,0 z" fill="green"/>
<path d="M7223,5056 l-1083.5,1084.5" stroke="black" stroke-width="5"/>
<path d="M5556,5035 l60,0 l0,60 l-60,0 z" fill="green"/>
<path d="M5586,5065 l-260.5,261.5" stroke="black" stroke-width="5"/>
<path d="M4301,9325 l60,0 l0,60 l-60,0 z" fill="green"/>
<path d="M4331,9355 l2512,-2511" stroke="black" stroke-width="5"/>
<path d="M1014,3306 l60,0 l0,60 l-60,0 z" fill="green"/>
<path d="M1044,3336 l1146,-1145" stroke="black" stroke-width="5"/>
<path d="M2531,6815 l60,0 l0,60 l-60,0 z" fill="green"/>
<path d="M2561,6845 l2142,-2141" stroke="black" stroke-width="5"/>
<path d="M6215,199 l60,0 l0,60 l-60,0 z" fill="green"/>
<path d="M6245,229 l-3008,3009" stroke="black" stroke-width="5"/>
<path d="M8741,1979 l60,0 l0,60 l-60,0 z" fill="green"/>
<path d="M8771,2009 l-3381,3382" stroke="black" stroke-width="5"/>
<path d="M5705,5428 l60,0 l0,60 l-60,0 z" fill="green"/>
<path d="M5735,5458 l-138.5,139.5" stroke="black" stroke-width="5"/>
<path d="M8013,3580 l60,0 l0,60 l-60,0 z" fill="green"/>
<path d="M8043,3610 l-2216.5,2217.5" stroke="black" stroke-width="5"/>
<path d="M3837,3627 l60,0 l0,60 l-60,0 z" fill="green"/>
<path d="M3867,3657 l-105,106" stroke="black" stroke-width="5"/>
<path d="M5571,6791 l60,0 l0,60 l-60,0 z" fill="green"/>
<path d="M5601,6821 l610,-609" stroke="black" stroke-width="5"/>
<path d="M2439,1603 l60,0 l0,60 l-60,0 z" fill="green"/>
<path d="M2469,1633 l-418,419" stroke="black" stroke-width="5"/>
<path d="M2365,3792 l60,0 l0,60 l-60,0 z" fill="green"/>
<path d="M2395,3822 l713.5,-712.5" stroke="black" stroke-width="5"/>
<path d="M5509,1933 l60,0 l0,60 l-60,0 z" fill="green"/>
<path d="M5539,1963 l-1788,1789" stroke="black" stroke-width="5"/>
<path d="M5363,1698 l60,0 l0,60 l-60,0 z" fill="green"/>
<path d="M5393,1728 l-1832.5,1833.5" stroke="black" stroke-width="5"/>
<path d="M4349,6685 l60,0 l0,60 l-60,0 z" fill="green"/>
<path d="M4379,6715 l1168,-1167" stroke="black" stroke-width="5"/>
<path d="M4236,8231 l60,0 l0,60 l-60,0 z" fill="green"/>
<path d="M4266,8261 l1997.5,-1996.5" stroke="black" stroke-width="5"/>
<path d="M4676,4677 l60,0 l0,60 l-60,0 z" fill="green"/>
<path d="M4706,4707 l0.5,0.5" stroke="black" stroke-width="5"/>
<path d="M527,9502 l60,0 l0,60 l-60,0 z" fill="green"/>
<path d="M557,9532 l4487.5,-4486.5" stroke="black" stroke-width="5"/>
<path d="M8062,9260 l60,0 l0,60 l-60,0 z" fill="green"/>
<path d="M8092,9290 l599,-598" stroke="black" stroke-width="5"/>
<path d="M5944,8528 l60,0 l0,60 l-60,0 z" fill="green"/>
<path d="M5974,8558 l1292,-1291" stroke="black" stroke-width="5"/>
<path d="M6471,7182 l60,0 l0,60 l-60,0 z" fill="green"/>
<path d="M6501,7212 l355.5,-354.5" stroke="black" stroke-width="5"/>
<path d="M2161,2279 l60,0 l0,60 l-60,0 z" fill="green"/>
<path d="M2191,2309 l59,-58" stroke="black" stroke-width="5"/>
<path d="M8006,7659 l60,0 l0,60 l-60,0 z" fill="green"/>
<path d="M8036,7689 l-173.5,174.5" stroke="black" stroke-width="5"/>
<path d="M4723,3238 l60,0 l0,60 l-60,0 z" fill="green"/>
<path d="M4753,3268 l-742.5,743.5" stroke="black" stroke-width="5"/>
<path d="M6559,6924 l60,0 l0,60 l-60,0 z" fill="green"/>
<path d="M6589,6954 l182.5,-181.5" stroke="black" stroke-width="5"/>
<path d="M6232,801 l60,0 l0,60 l-60,0 z" fill="green"/>
<path d="M6262,831 l-2715.5,2716.5" stroke="black" stroke-width="5"/>
<path d="M3772,3269 l60,0 l0,60 l-60,0 z" fill="green"/>
<path d="M3802,3299 l-251.5,252.5" stroke="black" stroke-width="5"/>
<path d="M2186,7314 l60,0 l0,60 l-60,0 z" fill="green"/>
<path d="M2216,7344 l2564,-2563" stroke="black" stroke-width="5"/>
<path d="M9287,4927 l60,0 l0,60 l-60,0 z" fill="green"/>
<path d="M9317,4957 l-2180,2181" stroke="black" stroke-width="5"/>
<path d="M8855,5173 l60,0 l0,60 l-60,0 z" fill="green"/>
<path d="M8885,5203 l-1841,1842" stroke="black" stroke-width="5"/>
<path d="M5869,5060 l60,0 l0,60 l-60,0 z" fill="green"/>
<path d="M5899,5090 l-404.5,405.5" stroke="black" stroke-width="5"/>
<path d="M2301,3529 l60,0 l0,60 l-60,0 z" fill="green"/>
<path d="M2331,3559 l614,-613" stroke="black" stroke-width="5"/>
<path d="M7924,1554 l60,0 l0,60 l-60,0 z" fill="green"/>
<path d="M7954,1584 l-3185,3186" stroke="black" stroke-width="5"/>
<path d="M481,1961 l60,0 l0,60 l-60,0 z" fill="green"/>
<path d="M511,1991 l740,-739" stroke="black" stroke-width="5"/>
<path d="M821,8661 l60,0 l0,60 l-60,0 z" fill="green"/>
<path d="M851,8691 l3920,-3919" stroke="black" stroke-width="5"/>
<path d="M2434,1695 l60,0 l0,60 l-60,0 z" fill="green"/>
<path d="M2464,1725 l-369.5,370.5" stroke="black" stroke-width="5"/>
<path d="M6428,1741 l60,0 l0,60 l-60,0 z" fill="green"/>
<path d="M6458,1771 l-2343.5,2344.5" stroke="black" stroke-width="5"/>
<path d="M1756,3531 l60,0 l0,60 l-60,0 z" fill="green"/>
<path d="M1786,3561 l887.5,-886.5" stroke="black" stroke-width="5"/>
<path d="M9949,5597 l60,0 l0,60 l-60,0 z" fill="green"/>
<path d="M9979,5627 l-2176,2177" stroke="black" stroke-width="5"/>
<path d="M3143,3692 l60,0 l0,60 l-60,0 z" fill="green"/>
<path d="M3173,3722 l274.5,-273.5" stroke="black" stroke-width="5"/>
<path d="M5901,608 l60,0 l0,60 l-60,0 z" fill="green"/>
<path d="M5931,638 l-2646.5,2647.5" stroke="black" stroke-width="5"/>
<path d="M29,8353 l60,0 l0,60 l-60,0 z" fill="green"/>
<path d="M59,8383 l4162,-4161" stroke="black" stroke-width="5"/>
<path d="M4286,3709 l60,0 l0,60 l-60,0 z" fill="green"/>
<path d="M4316,3739 l-288.5,289.5" stroke="black" stroke-width="5"/>
<path d="M2432,8646 l60,0 l0,60 l-60,0 z" fill="green"/>
<path d="M2462,8676 l3107,-3106" stroke="black" stroke-width="5"/>
<path d="M7527,1116 l60,0 l0,60 l-60,0 z" fill="green"/>
<path d="M7557,1146 l-3205.5,3206.5" stroke="black" stroke-width="5"/>
<path d="M9201,4756 l60,0 l0,60 l-60,0 z" fill="green"/>
<path d="M9231,4786 l-2222.5,2223.5" stroke="black" stroke-width="5"/>
<path d="M8534,5417 l60,0 l0,60 l-60,0 z" fill="green"/>
<path d="M8564,5447 l-1558.5,1559.5" stroke="black" stroke-width="5"/>
<path d="M9947,774 l60,0 l0,60 l-60,0 z" fill="green"/>
<path d="M9977,804 l-4586.5,4587.5" stroke="black" stroke-width="5"/>
<path d="M2844,8469 l60,0 l0,60 l-60,0 z" fill="green"/>
<path d="M2874,8499 l2812.5,-2811.5" stroke="black" stroke-width="5"/>
<path d="M995,9388 l60,0 l0,60 l-60,0 z" fill="green"/>
<path d="M1025,9418 l4196.5,-4195.5" stroke="black" stroke-width="5"/>
<path d="M5646,8498 l60,0 l0,60 l-60,0 z" fill="green"/>
<path d="M5676,8528 l1426,-1425" stroke="black" stroke-width="5"/>
<path d="M9922,986 l60,0 l0,60 l-60,0 z" fill="green"/>
<path d="M9952,1016 l-4468,4469" stroke="black" stroke-width="5"/>
<path d="M3008,3160 l60,0 l0,60 l-60,0 z" fill="green"/>
<path d="M3038,3190 l76,-75" stroke="black" stroke-width="5"/>
<path d="M6922,390 l60,0 l0,60 l-60,0 z" fill="green"/>
<path d="M6952,420 l-3266,3267" stroke="black" stroke-width="5"/>
<path d="M3943,5560 l60,0 l0,60 l-60,0 z" fill="green"/>
<path d="M3973,5590 l808.5,-807.5" stroke="black" stroke-width="5"/>
<path d="M7906,6314 l60,0 l0,60 l-60,0 z" fill="green"/>
<path d="M7936,6344 l-796,797" stroke="black" stroke-width="5"/>
<path d="M3279,3367 l60,0 l0,60 l-60,0 z" fill="green"/>
<path d="M3309,3397 l44,-43" stroke="black" stroke-width="5"/>
<path d="M9163,7171 l60,0 l0,60 l-60,0 z" fill="green"/>
<path d="M9193,7201 l-996,997" stroke="black" stroke-width="5"/>
<path d="M7794,5260 l60,0 l0,60 l-60,0 z" fill="green"/>
<path d="M7824,5290 l-1267,1268" stroke="black" stroke-width="5"/>
<path d="M3056,6042 l60,0 l0,60 l-60,0 z" fill="green"/>
<path d="M3086,6072 l1493,-1492" stroke="black" stroke-width="5"/>
<path d="M2962,3052 l60,0 l0,60 l-60,0 z" fill="green"/>
<path d="M2992,3082 l45,-44" stroke="black" stroke-width="5"/>
<path d="M7382,264 l60,0 l0,60 l-60,0 z" fill="green"/>
<path d="M7412,294 l-3559,3560" stroke="black" stroke-width="5"/>
<path d="M9819,16 l60,0 l0,60 l-60,0 z" fill="green"/>
<path d="M9849,46 l-4901.5,4902.5" stroke="black" stroke-width="5"/>
<path d="M6507,4875 l60,0 l0,60 l-60,0 z" fill="green"/>
<path d="M6537,4905 l-816,817" stroke="black" stroke-width="5"/>
<path d="M6599,3414 l60,0 l0,60 l-60,0 z" fill="green"/>
<path d="M6629,3444 l-1592.5,1593.5" stroke="black" stroke-width="5"/>
<path d="M780,3054 l60,0 l0,60 l-60,0 z" fill="green"/>
<path d="M810,3084 l1137,-1136" stroke="black" stroke-width="5"/>
<path d="M2705,1929 l60,0 l0,60 l-60,0 z" fill="green"/>
<path d="M2735,1959 l-388,389" stroke="black" stroke-width="5"/>
<path d="M8997,8810 l60,0 l0,60 l-60,0 z" fill="green"/>
<path d="M9027,8840 l-93.5,94.5" stroke="black" stroke-width="5"/>
<path d="M2598,4424 l60,0 l0,60 l-60,0 z" fill="green"/>
<path d="M2628,4454 l913,-912" stroke="black" stroke-width="5"/>
<path d="M8364,9128 l60,0 l0,60 l-60,0 z" fill="green"/>
<path d="M8394,9158 l382,-381" stroke="black" stroke-width="5"/>
<path d="M2408,1592 l60,0 l0,60 l-60,0 z" fill="green"/>
<path d="M2438,1622 l-408,409" stroke="black" stroke-width="5"/>
<path d="M6036,3235 l60,0 l0,60 l-60,0 z" fill="green"/>
<path d="M6066,3265 l-1400.5,1401.5" stroke="black" stroke-width="5"/>
<path d="M2649,8731 l60,0 l0,60 l-60,0 z" fill="green"/>
<path d="M2679,8761 l3041,-3040" stroke="black" stroke-width="5"/>
<path d="M9642,8170 l60,0 l0,60 l-60,0 z" fill="green"/>
<path d="M9672,8200 l-736,737" stroke="black" stroke-width="5"/>
<path d="M7467,9613 l60,0 l0,60 l-60,0 z" fill="green"/>
<path d="M7497,9643 l1073,-1072" stroke="black" stroke-width="5"/>
<path d="M2956,6828 l60,0 l0,60 l-60,0 z" fill="green"/>
<path d="M2986,6858 l1936,-1935" stroke="black" stroke-width="5"/>
<path d="M2052,6415 l60,0 l0,60 l-60,0 z" fill="green"/>
<path d="M2082,6445 l2181.5,-2180.5" stroke="black" stroke-width="5"/>
<path d="M9874,2085 l60,0 l0,60 l-60,0 z" fill="green"/>
<path d="M9904,2115 l-3894.5,3895.5" stroke="black" stroke-width="5"/>
<path d="M9082,3349 l60,0 l0,60 l-60,0 z" fill="green"/>
<path d="M9112,3379 l-2866.5,2867.5" stroke="black" stroke-width="5"/>
<path d="M9147,8580 l60,0 l0,60 l-60,0 z" fill="green"/>
<path d="M9177,8610 l-283.5,284.5" stroke="black" stroke-width="5"/>
<path d="M2375,-14 l60,0 l0,60 l-60,0 z" fill="green"/>
<path d="M2405,16 l-1194.5,1195.5" stroke="black" stroke-width="5"/>
<path d="M9000,2199 l60,0 l0,60 l-60,0 z" fill="green"/>
<path d="M9030,2229 l-3400.5,3401.5" stroke="black" stroke-width="5"/>
<path d="M576,2646 l60,0 l0,60 l-60,0 z" fill="green"/>
<path d="M606,2676 l1035,-1034" stroke="black" stroke-width="5"/>
<path d="M9720,2061 l60,0 l0,60 l-60,0 z" fill="green"/>
<path d="M9750,2091 l-3829.5,3830.5" stroke="black" stroke-width="5"/>
<path d="M1215,2242 l60,0 l0,60 l-60,0 z" fill="green"/>
<path d="M1245,2272 l513.5,-512.5" stroke="black" stroke-width="5"/>
<path d="M6943,2371 l60,0 l0,60 l-60,0 z" fill="green"/>
<path d="M6973,2401 l-2286,2287" stroke="black" stroke-width="5"/>
<path d="M8940,2681 l60,0 l0,60 l-60,0 z" fill="green"/>
<path d="M8970,2711 l-3129.5,3130.5" stroke="black" stroke-width="5"/>
<path d="M4803,3751 l60,0 l0,60 l-60,0 z" fill="green"/>
<path d="M4833,3781 l-526,527" stroke="black" stroke-width="5"/>
<path d="M7760,5591 l60,0 l0,60 l-60,0 z" fill="green"/>
<path d="M7790,5621 l-1084.5,1085.5" stroke="black" stroke-width="5"/>
<path d="M5617,8350 l60,0 l0,60 l-60,0 z" fill="green"/>
<path d="M5647,8380 l1366.5,-1365.5" stroke="black" stroke-width="5"/>
<path d="M109,612 l60,0 l0,60 l-60,0 z" fill="green"/>
<path d="M139,642 l251.5,-250.5" stroke="black" stroke-width="5"/>
<path d="M11,3446 l60,0 l0,60 l-60,0 z" fill="green"/>
<path d="M41,3476 l1717.5,-1716.5" stroke="black" stroke-width="5"/>
<path d="M2647,16 l60,0 l0,60 l-60,0 z" fill="green"/>
<path d="M2677,46 l-1315.5,1316.5" stroke="black" stroke-width="5"/>
<text font-size="130.18891098082386" text-anchor="middle" x="3923.5" y="3970.066118843288">
0
</text>
<text font-size="130.18891098082386" text-anchor="middle" x="2938" y="2984.566118843288">
1
</text>
<text font-size="130.18891098082386" text-anchor="middle" x="4835" y="4881.566118843289">
2
</text>
<text font-size="130.18891098082386" text-anchor="middle" x="4183" y="4229.566118843289">
3
</text>
<text font-size="130.18891098082386" text-anchor="middle" x="2593.5" y="2640.066118843288">
4
</text>
<text font-size="130.18891098082386" text-anchor="middle" x="5864.5" y="5911.066118843289">
5
</text>
<text font-size="130.18891098082386" text-anchor="middle" x="7220" y="7266.566118843289">
6
</text>
<text font-size="130.18891098082386" text-anchor="middle" x="6449.5" y="6496.066118843289">
7
</text>
<text font-size="130.18891098082386" text-anchor="middle" x="5943" y="5989.566118843289">
8
</text>
<text font-size="130.18891098082386" text-anchor="middle" x="4517" y="4563.566118843289">
9
</text>
<text font-size="130.18891098082386" text-anchor="middle" x="3501.5" y="3548.066118843288">
10
</text>
<text font-size="130.18891098082386" text-anchor="middle" x="5261" y="5307.566118843289">
11
</text>
<text font-size="130.18891098082386" text-anchor="middle" x="5584" y="5630.566118843289">
12
</text>
<text font-size="130.18891098082386" text-anchor="middle" x="7935.5" y="7982.066118843289">
13
</text>
<text font-size="130.18891098082386" text-anchor="middle" x="4929" y="4975.566118843289">
14
</text>
<text font-size="130.18891098082386" text-anchor="middle" x="6445.5" y="6492.066118843289">
15
</text>
<text font-size="130.18891098082386" text-anchor="middle" x="5080.5" y="5127.066118843289">
16
</text>
<text font-size="130.18891098082386" text-anchor="middle" x="3558" y="3604.566118843288">
17
</text>
<text font-size="130.18891098082386" text-anchor="middle" x="6349" y="6395.566118843289">
18
</text>
<text font-size="130.18891098082386" text-anchor="middle" x="4780" y="4826.566118843289">
19
</text>
<text font-size="130.18891098082386" text-anchor="middle" x="5257.5" y="5304.066118843289">
20
</text>
<text font-size="130.18891098082386" text-anchor="middle" x="5694" y="5740.566118843289">
21
</text>
<text font-size="130.18891098082386" text-anchor="middle" x="3887" y="3933.566118843288">
22
</text>
<text font-size="130.18891098082386" text-anchor="middle" x="7857.5" y="7904.066118843289">
23
</text>
<text font-size="130.18891098082386" text-anchor="middle" x="6139.5" y="6186.066118843289">
24
</text>
<text font-size="130.18891098082386" text-anchor="middle" x="5325.5" y="5372.066118843289">
25
</text>
<text font-size="130.18891098082386" text-anchor="middle" x="6843" y="6889.566118843289">
26
</text>
<text font-size="130.18891098082386" text-anchor="middle" x="2190" y="2236.566118843288">
27
</text>
<text font-size="130.18891098082386" text-anchor="middle" x="4703" y="4749.566118843289">
28
</text>
<text font-size="130.18891098082386" text-anchor="middle" x="3237" y="3283.566118843288">
29
</text>
<text font-size="130.18891098082386" text-anchor="middle" x="5390" y="5436.566118843289">
30
</text>
<text font-size="130.18891098082386" text-anchor="middle" x="5596.5" y="5643.066118843289">
31
</text>
<text font-size="130.18891098082386" text-anchor="middle" x="5826.5" y="5873.066118843289">
32
</text>
<text font-size="130.18891098082386" text-anchor="middle" x="3762" y="3808.566118843288">
33
</text>
<text font-size="130.18891098082386" text-anchor="middle" x="6211" y="6257.566118843289">
34
</text>
<text font-size="130.18891098082386" text-anchor="middle" x="2051" y="2097.566118843288">
35
</text>
<text font-size="130.18891098082386" text-anchor="middle" x="3108.5" y="3155.066118843288">
36
</text>
<text font-size="130.18891098082386" text-anchor="middle" x="3751" y="3797.566118843288">
37
</text>
<text font-size="130.18891098082386" text-anchor="middle" x="3560.5" y="3607.066118843288">
38
</text>
<text font-size="130.18891098082386" text-anchor="middle" x="5547" y="5593.566118843289">
39
</text>
<text font-size="130.18891098082386" text-anchor="middle" x="6263.5" y="6310.066118843289">
40
</text>
<text font-size="130.18891098082386" text-anchor="middle" x="4706.5" y="4753.066118843289">
41
</text>
<text font-size="130.18891098082386" text-anchor="middle" x="5044.5" y="5091.066118843289">
42
</text>
<text font-size="130.18891098082386" text-anchor="middle" x="8691" y="8737.566118843288">
43
</text>
<text font-size="130.18891098082386" text-anchor="middle" x="7266" y="7312.566118843289">
44
</text>
<text font-size="130.18891098082386" text-anchor="middle" x="6856.5" y="6903.066118843289">
45
</text>
<text font-size="130.18891098082386" text-anchor="middle" x="2250" y="2296.566118843288">
46
</text>
<text font-size="130.18891098082386" text-anchor="middle" x="7862.5" y="7909.066118843289">
47
</text>
<text font-size="130.18891098082386" text-anchor="middle" x="4010.5" y="4057.066118843288">
48
</text>
<text font-size="130.18891098082386" text-anchor="middle" x="6771.5" y="6818.066118843289">
49
</text>
<text font-size="130.18891098082386" text-anchor="middle" x="3546.5" y="3593.066118843288">
50
</text>
<text font-size="130.18891098082386" text-anchor="middle" x="3550.5" y="3597.066118843288">
51
</text>
<text font-size="130.18891098082386" text-anchor="middle" x="4780" y="4826.566118843289">
52
</text>
<text font-size="130.18891098082386" text-anchor="middle" x="7137" y="7183.566118843289">
53
</text>
<text font-size="130.18891098082386" text-anchor="middle" x="7044" y="7090.566118843289">
54
</text>
<text font-size="130.18891098082386" text-anchor="middle" x="5494.5" y="5541.066118843289">
55
</text>
<text font-size="130.18891098082386" text-anchor="middle" x="2945" y="2991.566118843288">
56
</text>
<text font-size="130.18891098082386" text-anchor="middle" x="4769" y="4815.566118843289">
57
</text>
<text font-size="130.18891098082386" text-anchor="middle" x="1251" y="1297.5661188432885">
58
</text>
<text font-size="130.18891098082386" text-anchor="middle" x="4771" y="4817.566118843289">
59
</text>
<text font-size="130.18891098082386" text-anchor="middle" x="2094.5" y="2141.066118843288">
60
</text>
<text font-size="130.18891098082386" text-anchor="middle" x="4114.5" y="4161.066118843289">
61
</text>
<text font-size="130.18891098082386" text-anchor="middle" x="2673.5" y="2720.066118843288">
62
</text>
<text font-size="130.18891098082386" text-anchor="middle" x="7803" y="7849.566118843289">
63
</text>
<text font-size="130.18891098082386" text-anchor="middle" x="3447.5" y="3494.066118843288">
64
</text>
<text font-size="130.18891098082386" text-anchor="middle" x="3284.5" y="3331.066118843288">
65
</text>
<text font-size="130.18891098082386" text-anchor="middle" x="4221" y="4267.566118843289">
66
</text>
<text font-size="130.18891098082386" text-anchor="middle" x="4027.5" y="4074.066118843288">
67
</text>
<text font-size="130.18891098082386" text-anchor="middle" x="5569" y="5615.566118843289">
68
</text>
<text font-size="130.18891098082386" text-anchor="middle" x="4351.5" y="4398.066118843289">
69
</text>
<text font-size="130.18891098082386" text-anchor="middle" x="7008.5" y="7055.066118843289">
70
</text>
<text font-size="130.18891098082386" text-anchor="middle" x="7005.5" y="7052.066118843289">
71
</text>
<text font-size="130.18891098082386" text-anchor="middle" x="5390.5" y="5437.066118843289">
72
</text>
<text font-size="130.18891098082386" text-anchor="middle" x="5686.5" y="5733.066118843289">
73
</text>
<text font-size="130.18891098082386" text-anchor="middle" x="5221.5" y="5268.066118843289">
74
</text>
<text font-size="130.18891098082386" text-anchor="middle" x="7102" y="7148.566118843289">
75
</text>
<text font-size="130.18891098082386" text-anchor="middle" x="5484" y="5530.566118843289">
76
</text>
<text font-size="130.18891098082386" text-anchor="middle" x="3114" y="3160.566118843288">
77
</text>
<text font-size="130.18891098082386" text-anchor="middle" x="3686" y="3732.566118843288">
78
</text>
<text font-size="130.18891098082386" text-anchor="middle" x="4781.5" y="4828.066118843289">
79
</text>
<text font-size="130.18891098082386" text-anchor="middle" x="7140" y="7186.566118843289">
80
</text>
<text font-size="130.18891098082386" text-anchor="middle" x="3353" y="3399.566118843288">
81
</text>
<text font-size="130.18891098082386" text-anchor="middle" x="8197" y="8243.566118843288">
82
</text>
<text font-size="130.18891098082386" text-anchor="middle" x="6557" y="6603.566118843289">
83
</text>
<text font-size="130.18891098082386" text-anchor="middle" x="4579" y="4625.566118843289">
84
</text>
<text font-size="130.18891098082386" text-anchor="middle" x="3037" y="3083.566118843288">
85
</text>
<text font-size="130.18891098082386" text-anchor="middle" x="3853" y="3899.566118843288">
86
</text>
<text font-size="130.18891098082386" text-anchor="middle" x="4947.5" y="4994.066118843289">
87
</text>
<text font-size="130.18891098082386" text-anchor="middle" x="5721" y="5767.566118843289">
88
</text>
<text font-size="130.18891098082386" text-anchor="middle" x="5036.5" y="5083.066118843289">
89
</text>
<text font-size="130.18891098082386" text-anchor="middle" x="1947" y="1993.5661188432885">
90
</text>
<text font-size="130.18891098082386" text-anchor="middle" x="2347" y="2393.566118843288">
91
</text>
<text font-size="130.18891098082386" text-anchor="middle" x="8933.5" y="8980.066118843288">
92
</text>
<text font-size="130.18891098082386" text-anchor="middle" x="3541" y="3587.566118843288">
93
</text>
<text font-size="130.18891098082386" text-anchor="middle" x="8776" y="8822.566118843288">
94
</text>
<text font-size="130.18891098082386" text-anchor="middle" x="2030" y="2076.566118843288">
95
</text>
<text font-size="130.18891098082386" text-anchor="middle" x="4665.5" y="4712.066118843289">
96
</text>
<text font-size="130.18891098082386" text-anchor="middle" x="5720" y="5766.566118843289">
97
</text>
<text font-size="130.18891098082386" text-anchor="middle" x="8936" y="8982.566118843288">
98
</text>
<text font-size="130.18891098082386" text-anchor="middle" x="8570" y="8616.566118843288">
99
</text>
<text font-size="130.18891098082386" text-anchor="middle" x="4922" y="4968.566118843289">
100
</text>
<text font-size="130.18891098082386" text-anchor="middle" x="4263.5" y="4310.066118843289">
101
</text>
<text font-size="130.18891098082386" text-anchor="middle" x="6009.5" y="6056.066118843289">
102
</text>
<text font-size="130.18891098082386" text-anchor="middle" x="6245.5" y="6292.066118843289">
103
</text>
<text font-size="130.18891098082386" text-anchor="middle" x="8893.5" y="8940.066118843288">
104
</text>
<text font-size="130.18891098082386" text-anchor="middle" x="1210.5" y="1257.0661188432885">
105
</text>
<text font-size="130.18891098082386" text-anchor="middle" x="5629.5" y="5676.066118843289">
106
</text>
<text font-size="130.18891098082386" text-anchor="middle" x="1641" y="1687.5661188432885">
107
</text>
<text font-size="130.18891098082386" text-anchor="middle" x="5920.5" y="5967.066118843289">
108
</text>
<text font-size="130.18891098082386" text-anchor="middle" x="1758.5" y="1805.0661188432885">
109
</text>
<text font-size="130.18891098082386" text-anchor="middle" x="4687" y="4733.566118843289">
110
</text>
<text font-size="130.18891098082386" text-anchor="middle" x="5840.5" y="5887.066118843289">
111
</text>
<text font-size="130.18891098082386" text-anchor="middle" x="4307" y="4353.566118843289">
112
</text>
<text font-size="130.18891098082386" text-anchor="middle" x="6705.5" y="6752.066118843289">
113
</text>
<text font-size="130.18891098082386" text-anchor="middle" x="7013.5" y="7060.066118843289">
114
</text>
<text font-size="130.18891098082386" text-anchor="middle" x="390.5" y="437.06611884328834">
115
</text>
<text font-size="130.18891098082386" text-anchor="middle" x="1758.5" y="1805.0661188432885">
116
</text>
<text font-size="130.18891098082386" text-anchor="middle" x="1361.5" y="1408.0661188432885">
117
</text>
</svg>