<svg viewBox="0 0 10000 10000" xmlns="http://www.w3.org/2000/svg">
<path d="M0,0 l10000,0 l0,10000 l-10000,0 z" fill="white"/>
<path d="M9818,7145 l0,0 l0,0 l0,0 z" fill="#0000ff" stroke="black" stroke-width="5"/>
<path d="M7946,7062 l0,0 l0,0 l0,0 z" fill="#0000ff" stroke="black" stroke-width="5"/>
<path d="M367,6759 l1095,0 l0,1095 l-1095,0 z" fill="#2500ff" stroke="black" stroke-width="5"/>
<path d="M0,343 l1462,0 l0,2349 l-1462,0 z" fill="#ff00ea" stroke="black" stroke-width="5"/>
<path d="M18,1661 l0,0 l0,0 l0,0 z" fill="#0000ff" stroke="black" stroke-width="5"/>
<path d="M1194,6998 l0,0 l0,0 l0,0 z" fill="#0000ff" stroke="black" stroke-width="5"/>
<path d="M7842,0 l2158,0 l0,2544 l-2158,0 z" fill="#ff00d9" stroke="black" stroke-width="5"/>
<path d="M139,8065 l1101,0 l0,1101 l-1101,0 z" fill="#df00ff" stroke="black" stroke-width="5"/>
<path d="M6043,1189 l1355,0 l0,1355 l-1355,0 z" fill="#6b00ff" stroke="black" stroke-width="5"/>
<path d="M2718,3386 l0,0 l0,0 l0,0 z" fill="#0000ff" stroke="black" stroke-width="5"/>
<path d="M637,3034 l0,0 l0,0 l0,0 z" fill="#0000ff" stroke="black" stroke-width="5"/>
<path d="M6376,2028 l0,0 l0,0 l0,0 z" fill="#0000ff" stroke="black" stroke-width="5"/>
<path d="M3742,0 l2301,0 l0,1539 l-2301,0 z" fill="#ff0042" stroke="black" stroke-width="5"/>
<path d="M7201,9721 l0,0 l0,0 l0,0 z" fill="#0000ff" stroke="black" stroke-width="5"/>
<path d="M8940,917 l0,0 l0,0 l0,0 z" fill="#0000ff" stroke="black" stroke-width="5"/>
<path d="M7875,9117 l0,0 l0,0 l0,0 z" fill="#0000ff" stroke="black" stroke-width="5"/>
<path d="M164,6756 l203,0 l0,203 l-203,0 z" fill="#0000ff" stroke="black" stroke-width="5"/>
<path d="M9558,8477 l0,0 l0,0 l0,0 z" fill="#0000ff" stroke="black" stroke-width="5"/>
<path d="M3491,3109 l0,0 l0,0 l0,0 z" fill="#0000ff" stroke="black" stroke-width="5"/>
<path d="M3602,3109 l0,0 l0,0 l0,0 z" fill="#0000ff" stroke="black" stroke-width="5"/>
<path d="M2322,3869 l0,0 l0,0 l0,0 z" fill="#0000ff" stroke="black" stroke-width="5"/>
<path d="M2866,1254 l241,0 l0,241 l-241,0 z" fill="#ff0007" stroke="black" stroke-width="5"/>
<path d="M9659,7595 l0,0 l0,0 l0,0 z" fill="#0000ff" stroke="black" stroke-width="5"/>
<path d="M3650,1539 l151,0 l0,151 l-151,0 z" fill="#0000ff" stroke="black" stroke-width="5"/>
<path d="M9250,1120 l0,0 l0,0 l0,0 z" fill="#0000ff" stroke="black" stroke-width="5"/>
<path d="M4087,8947 l0,0 l0,0 l0,0 z" fill="#0000ff" stroke="black" stroke-width="5"/>
<path d="M5098,2963 l0,0 l0,0 l0,0 z" fill="#0000ff" stroke="black" stroke-width="5"/>
<path d="M2187,3979 l0,0 l0,0 l0,0 z" fill="#0000ff" stroke="black" stroke-width="5"/>
<path d="M8416,1106 l0,0 l0,0 l0,0 z" fill="#0000ff" stroke="black" stroke-width="5"/>
<path d="M5914,4194 l0,0 l0,0 l0,0 z" fill="#0000ff" stroke="black" stroke-width="5"/>
<path d="M9165,962 l0,0 l0,0 l0,0 z" fill="#0000ff" stroke="black" stroke-width="5"/>
<path d="M1919,6057 l0,0 l0,0 l0,0 z" fill="#0000ff" stroke="black" stroke-width="5"/>
<path d="M5177,7216 l0,0 l0,0 l0,0 z" fill="#0000ff" stroke="black" stroke-width="5"/>
<path d="M1462,2544 l8538,0 l0,7456 l-8538,0 z" fill="#ff0006" stroke="black" stroke-width="5"/>
<path d="M0,2925 l1462,0 l0,2683 l-1462,0 z" fill="#ff0049" stroke="black" stroke-width="5"/>
<path d="M9207,107 l0,0 l0,0 l0,0 z" fill="#0000ff" stroke="black" stroke-width="5"/>
<path d="M6018,2392 l25,0 l0,25 l-25,0 z" fill="#0000ff" stroke="black" stroke-width="5"/>
<path d="M9720,6618 l0,0 l0,0 l0,0 z" fill="#0000ff" stroke="black" stroke-width="5"/>
<path d="M6919,8226 l0,0 l0,0 l0,0 z" fill="#0000ff" stroke="black" stroke-width="5"/>
<path d="M2042,1495 l1049,0 l0,1049 l-1049,0 z" fill="#ec00ff" stroke="black" stroke-width="5"/>
<path d="M9840,4303 l0,0 l0,0 l0,0 z" fill="#0000ff" stroke="black" stroke-width="5"/>
<path d="M7557,7767 l0,0 l0,0 l0,0 z" fill="#0000ff" stroke="black" stroke-width="5"/>
<path d="M1147,5608 l79,0 l0,79 l-79,0 z" fill="#0000ff" stroke="black" stroke-width="5"/>
<path d="M1156,6913 l0,0 l0,0 l0,0 z" fill="#0000ff" stroke="black" stroke-width="5"/>
<path d="M6210,2898 l0,0 l0,0 l0,0 z" fill="#0000ff" stroke="black" stroke-width="5"/>
<path d="M5910,6692 l0,0 l0,0 l0,0 z" fill="#0000ff" stroke="black" stroke-width="5"/>
<path d="M9945,8116 l0,0 l0,0 l0,0 z" fill="#0000ff" stroke="black" stroke-width="5"/>
<path d="M404,8201 l0,0 l0,0 l0,0 z" fill="#0000ff" stroke="black" stroke-width="5"/>
<path d="M1059,6030 l403,0 l0,403 l-403,0 z" fill="#0000ff" stroke="black" stroke-width="5"/>
<path d="M684,8541 l0,0 l0,0 l0,0 z" fill="#0000ff" stroke="black" stroke-width="5"/>
<path d="M8829,6204 l0,0 l0,0 l0,0 z" fill="#0000ff" stroke="black" stroke-width="5"/>
<path d="M817,9166 l645,0 l0,645 l-645,0 z" fill="#0c00ff" stroke="black" stroke-width="5"/>
<path d="M6983,8059 l0,0 l0,0 l0,0 z" fill="#0000ff" stroke="black" stroke-width="5"/>
<path d="M4189,9034 l0,0 l0,0 l0,0 z" fill="#0000ff" stroke="black" stroke-width="5"/>
<path d="M5193,8230 l0,0 l0,0 l0,0 z" fill="#0000ff" stroke="black" stroke-width="5"/>
<path d="M9788,7115 l60,0 l0,60 l-60,0 z" fill="green"/>
<path d="M9818,7145 l0,0" stroke="black" stroke-width="5"/>
<path d="M7916,7032 l60,0 l0,60 l-60,0 z" fill="green"/>
<path d="M7946,7062 l0,0" stroke="black" stroke-width="5"/>
<path d="M885,7277 l60,0 l0,60 l-60,0 z" fill="green"/>
<path d="M915,7307 l-0.5,-0.5" stroke="black" stroke-width="5"/>
<path d="M258,1488 l60,0 l0,60 l-60,0 z" fill="green"/>
<path d="M288,1518 l443,-0.5" stroke="black" stroke-width="5"/>
<path d="M-12,1631 l60,0 l0,60 l-60,0 z" fill="green"/>
<path d="M18,1661 l0,0" stroke="black" stroke-width="5"/>
<path d="M1164,6968 l60,0 l0,60 l-60,0 z" fill="green"/>
<path d="M1194,6998 l0,0" stroke="black" stroke-width="5"/>
<path d="M9358,969 l60,0 l0,60 l-60,0 z" fill="green"/>
<path d="M9388,999 l-467,273" stroke="black" stroke-width="5"/>
<path d="M660,8586 l60,0 l0,60 l-60,0 z" fill="green"/>
<path d="M690,8616 l-0.5,-0.5" stroke="black" stroke-width="5"/>
<path d="M6691,1837 l60,0 l0,60 l-60,0 z" fill="green"/>
<path d="M6721,1867 l-0.5,-0.5" stroke="black" stroke-width="5"/>
<path d="M2688,3356 l60,0 l0,60 l-60,0 z" fill="green"/>
<path d="M2718,3386 l0,0" stroke="black" stroke-width="5"/>
<path d="M607,3004 l60,0 l0,60 l-60,0 z" fill="green"/>
<path d="M637,3034 l0,0" stroke="black" stroke-width="5"/>
<path d="M6346,1998 l60,0 l0,60 l-60,0 z" fill="green"/>
<path d="M6376,2028 l0,0" stroke="black" stroke-width="5"/>
<path d="M4863,359 l60,0 l0,60 l-60,0 z" fill="green"/>
<path d="M4893,389 l-0.5,380.5" stroke="black" stroke-width="5"/>
<path d="M7171,9691 l60,0 l0,60 l-60,0 z" fill="green"/>
<path d="M7201,9721 l0,0" stroke="black" stroke-width="5"/>
<path d="M8910,887 l60,0 l0,60 l-60,0 z" fill="green"/>
<path d="M8940,917 l0,0" stroke="black" stroke-width="5"/>
<path d="M7845,9087 l60,0 l0,60 l-60,0 z" fill="green"/>
<path d="M7875,9117 l0,0" stroke="black" stroke-width="5"/>
<path d="M236,6828 l60,0 l0,60 l-60,0 z" fill="green"/>
<path d="M266,6858 l-0.5,-0.5" stroke="black" stroke-width="5"/>
<path d="M9528,8447 l60,0 l0,60 l-60,0 z" fill="green"/>
<path d="M9558,8477 l0,0" stroke="black" stroke-width="5"/>
<path d="M3461,3079 l60,0 l0,60 l-60,0 z" fill="green"/>
<path d="M3491,3109 l0,0" stroke="black" stroke-width="5"/>
<path d="M3572,3079 l60,0 l0,60 l-60,0 z" fill="green"/>
<path d="M3602,3109 l0,0" stroke="black" stroke-width="5"/>
<path d="M2292,3839 l60,0 l0,60 l-60,0 z" fill="green"/>
<path d="M2322,3869 l0,0" stroke="black" stroke-width="5"/>
<path d="M2957,1345 l60,0 l0,60 l-60,0 z" fill="green"/>
<path d="M2987,1375 l-0.5,-0.5" stroke="black" stroke-width="5"/>
<path d="M9629,7565 l60,0 l0,60 l-60,0 z" fill="green"/>
<path d="M9659,7595 l0,0" stroke="black" stroke-width="5"/>
<path d="M3696,1585 l60,0 l0,60 l-60,0 z" fill="green"/>
<path d="M3726,1615 l-0.5,-0.5" stroke="black" stroke-width="5"/>
<path d="M9220,1090 l60,0 l0,60 l-60,0 z" fill="green"/>
<path d="M9250,1120 l0,0" stroke="black" stroke-width="5"/>
<path d="M4057,8917 l60,0 l0,60 l-60,0 z" fill="green"/>
<path d="M4087,8947 l0,0" stroke="black" stroke-width="5"/>
<path d="M5068,2933 l60,0 l0,60 l-60,0 z" fill="green"/>
<path d="M5098,2963 l0,0" stroke="black" stroke-width="5"/>
<path d="M2157,3949 l60,0 l0,60 l-60,0 z" fill="green"/>
<path d="M2187,3979 l0,0" stroke="black" stroke-width="5"/>
<path d="M8386,1076 l60,0 l0,60 l-60,0 z" fill="green"/>
<path d="M8416,1106 l0,0" stroke="black" stroke-width="5"/>
<path d="M5884,4164 l60,0 l0,60 l-60,0 z" fill="green"/>
<path d="M5914,4194 l0,0" stroke="black" stroke-width="5"/>
<path d="M9135,932 l60,0 l0,60 l-60,0 z" fill="green"/>
<path d="M9165,962 l0,0" stroke="black" stroke-width="5"/>
<path d="M1889,6027 l60,0 l0,60 l-60,0 z" fill="green"/>
<path d="M1919,6057 l0,0" stroke="black" stroke-width="5"/>
<path d="M5147,7186 l60,0 l0,60 l-60,0 z" fill="green"/>
<path d="M5177,7216 l0,0" stroke="black" stroke-width="5"/>
<path d="M6432,7514 l60,0 l0,60 l-60,0 z" fill="green"/>
<path d="M6462,7544 l-731,-1272" stroke="black" stroke-width="5"/>
<path d="M91,4237 l60,0 l0,60 l-60,0 z" fill="green"/>
<path d="M121,4267 l610,-0.5" stroke="black" stroke-width="5"/>
<path d="M9177,77 l60,0 l0,60 l-60,0 z" fill="green"/>
<path d="M9207,107 l0,0" stroke="black" stroke-width="5"/>
<path d="M6001,2375 l60,0 l0,60 l-60,0 z" fill="green"/>
<path d="M6031,2405 l-0.5,-0.5" stroke="black" stroke-width="5"/>
<path d="M9690,6588 l60,0 l0,60 l-60,0 z" fill="green"/>
<path d="M9720,6618 l0,0" stroke="black" stroke-width="5"/>
<path d="M6889,8196 l60,0 l0,60 l-60,0 z" fill="green"/>
<path d="M6919,8226 l0,0" stroke="black" stroke-width="5"/>
<path d="M2537,1990 l60,0 l0,60 l-60,0 z" fill="green"/>
<path d="M2567,2020 l-0.5,-0.5" stroke="black" stroke-width="5"/>
<path d="M9810,4273 l60,0 l0,60 l-60,0 z" fill="green"/>
<path d="M9840,4303 l0,0" stroke="black" stroke-width="5"/>
<path d="M7527,7737 l60,0 l0,60 l-60,0 z" fill="green"/>
<path d="M7557,7767 l0,0" stroke="black" stroke-width="5"/>
<path d="M1157,5618 l60,0 l0,60 l-60,0 z" fill="green"/>
<path d="M1187,5648 l-0.5,-0.5" stroke="black" stroke-width="5"/>
<path d="M1126,6883 l60,0 l0,60 l-60,0 z" fill="green"/>
<path d="M1156,6913 l0,0" stroke="black" stroke-width="5"/>
<path d="M6180,2868 l60,0 l0,60 l-60,0 z" fill="green"/>
<path d="M6210,2898 l0,0" stroke="black" stroke-width="5"/>
<path d="M5880,6662 l60,0 l0,60 l-60,0 z" fill="green"/>
<path d="M5910,6692 l0,0" stroke="black" stroke-width="5"/>
<path d="M9915,8086 l60,0 l0,60 l-60,0 z" fill="green"/>
<path d="M9945,8116 l0,0" stroke="black" stroke-width="5"/>
<path d="M374,8171 l60,0 l0,60 l-60,0 z" fill="green"/>
<path d="M404,8201 l0,0" stroke="black" stroke-width="5"/>
<path d="M1231,6202 l60,0 l0,60 l-60,0 z" fill="green"/>
<path d="M1261,6232 l-0.5,-0.5" stroke="black" stroke-width="5"/>
<path d="M654,8511 l60,0 l0,60 l-60,0 z" fill="green"/>
<path d="M684,8541 l0,0" stroke="black" stroke-width="5"/>
<path d="M8799,6174 l60,0 l0,60 l-60,0 z" fill="green"/>
<path d="M8829,6204 l0,0" stroke="black" stroke-width="5"/>
<path d="M1110,9459 l60,0 l0,60 l-60,0 z" fill="green"/>
<path d="M1140,9489 l-0.5,-0.5" stroke="black" stroke-width="5"/>
<path d="M6953,8029 l60,0 l0,60 l-60,0 z" fill="green"/>
<path d="M6983,8059 l0,0" stroke="black" stroke-width="5"/>
<path d="M4159,9004 l60,0 l0,60 l-60,0 z" fill="green"/>
<path d="M4189,9034 l0,0" stroke="black" stroke-width="5"/>
<path d="M5163,8200 l60,0 l0,60 l-60,0 z" fill="green"/>
<path d="M5193,8230 l0,0" stroke="black" stroke-width="5"/>
<text font-size="190.69251784911845" text-anchor="middle" x="9818" y="7211.742381247192">
0
</text>
<text font-size="190.69251784911845" text-anchor="middle" x="7946" y="7128.742381247192">
1
</text>
<text font-size="190.69251784911845" text-anchor="middle" x="914.5" y="7373.242381247192">
2
</text>
<text font-size="190.69251784911845" text-anchor="middle" x="731" y="1584.2423812471914">
3
</text>
<text font-size="190.69251784911845" text-anchor="middle" x="18" y="1727.7423812471914">
4
</text>
<text font-size="190.69251784911845" text-anchor="middle" x="1194" y="7064.742381247192">
5
</text>
<text font-size="190.69251784911845" text-anchor="middle" x="8921" y="1338.7423812471914">
6
</text>
<text font-size="190.69251784911845" text-anchor="middle" x="689.5" y="8682.242381247192">
7
</text>
<text font-size="190.69251784911845" text-anchor="middle" x="6720.5" y="1933.2423812471914">
8
</text>
<text font-size="190.69251784911845" text-anchor="middle" x="2718" y="3452.7423812471916">
9
</text>
<text font-size="190.69251784911845" text-anchor="middle" x="637" y="3100.7423812471916">
10
</text>
<text font-size="190.69251784911845" text-anchor="middle" x="6376" y="2094.7423812471916">
11
</text>
<text font-size="190.69251784911845" text-anchor="middle" x="4892.5" y="836.2423812471915">
12
</text>
<text font-size="190.69251784911845" text-anchor="middle" x="7201" y="9787.742381247192">
13
</text>
<text font-size="190.69251784911845" text-anchor="middle" x="8940" y="983.7423812471915">
14
</text>
<text font-size="190.69251784911845" text-anchor="middle" x="7875" y="9183.742381247192">
15
</text>
<text font-size="190.69251784911845" text-anchor="middle" x="265.5" y="6924.242381247192">
16
</text>
<text font-size="190.69251784911845" text-anchor="middle" x="9558" y="8543.742381247192">
17
</text>
<text font-size="190.69251784911845" text-anchor="middle" x="3491" y="3175.7423812471916">
18
</text>
<text font-size="190.69251784911845" text-anchor="middle" x="3602" y="3175.7423812471916">
19
</text>
<text font-size="190.69251784911845" text-anchor="middle" x="2322" y="3935.7423812471916">
20
</text>
<text font-size="190.69251784911845" text-anchor="middle" x="2986.5" y="1441.2423812471914">
21
</text>
<text font-size="190.69251784911845" text-anchor="middle" x="9659" y="7661.742381247192">
22
</text>
<text font-size="190.69251784911845" text-anchor="middle" x="3725.5" y="1681.2423812471914">
23
</text>
<text font-size="190.69251784911845" text-anchor="middle" x="9250" y="1186.7423812471914">
24
</text>
<text font-size="190.69251784911845" text-anchor="middle" x="4087" y="9013.742381247192">
25
</text>
<text font-size="190.69251784911845" text-anchor="middle" x="5098" y="3029.7423812471916">
26
</text>
<text font-size="190.69251784911845" text-anchor="middle" x="2187" y="4045.7423812471916">
27
</text>
<text font-size="190.69251784911845" text-anchor="middle" x="8416" y="1172.7423812471914">
28
</text>
<text font-size="190.69251784911845" text-anchor="middle" x="5914" y="4260.742381247192">
29
</text>
<text font-size="190.69251784911845" text-anchor="middle" x="9165" y="1028.7423812471914">
30
</text>
<text font-size="190.69251784911845" text-anchor="middle" x="1919" y="6123.742381247192">
31
</text>
<text font-size="190.69251784911845" text-anchor="middle" x="5177" y="7282.742381247192">
32
</text>
<text font-size="190.69251784911845" text-anchor="middle" x="5731" y="6338.742381247192">
33
</text>
<text font-size="190.69251784911845" text-anchor="middle" x="731" y="4333.242381247192">
34
</text>
<text font-size="190.69251784911845" text-anchor="middle" x="9207" y="173.74238124719145">
35
</text>
<text font-size="190.69251784911845" text-anchor="middle" x="6030.5" y="2471.2423812471916">
36
</text>
<text font-size="190.69251784911845" text-anchor="middle" x="9720" y="6684.742381247192">
37
</text>
<text font-size="190.69251784911845" text-anchor="middle" x="6919" y="8292.742381247192">
38
</text>
<text font-size="190.69251784911845" text-anchor="middle" x="2566.5" y="2086.2423812471916">
39
</text>
<text font-size="190.69251784911845" text-anchor="middle" x="9840" y="4369.742381247192">
40
</text>
<text font-size="190.69251784911845" text-anchor="middle" x="7557" y="7833.742381247192">
41
</text>
<text font-size="190.69251784911845" text-anchor="middle" x="1186.5" y="5714.242381247192">
42
</text>
<text font-size="190.69251784911845" text-anchor="middle" x="1156" y="6979.742381247192">
43
</text>
<text font-size="190.69251784911845" text-anchor="middle" x="6210" y="2964.7423812471916">
44
</text>
<text font-size="190.69251784911845" text-anchor="middle" x="5910" y="6758.742381247192">
45
</text>
<text font-size="190.69251784911845" text-anchor="middle" x="9945" y="8182.742381247192">
46
</text>
<text font-size="190.69251784911845" text-anchor="middle" x="404" y="8267.742381247192">
47
</text>
<text font-size="190.69251784911845" text-anchor="middle" x="1260.5" y="6298.242381247192">
48
</text>
<text font-size="190.69251784911845" text-anchor="middle" x="684" y="8607.742381247192">
49
</text>
<text font-size="190.69251784911845" text-anchor="middle" x="8829" y="6270.742381247192">
50
</text>
<text font-size="190.69251784911845" text-anchor="middle" x="1139.5" y="9555.242381247192">
51
</text>
<text font-size="190.69251784911845" text-anchor="middle" x="6983" y="8125.742381247192">
52
</text>
<text font-size="190.69251784911845" text-anchor="middle" x="4189" y="9100.742381247192">
53
</text>
<text font-size="190.69251784911845" text-anchor="middle" x="5193" y="8296.742381247192">
54
</text>
</svg>