<svg viewBox="0 0 10000 10000" xmlns="http://www.w3.org/2000/svg">
<path d="M0,0 l10000,0 l0,10000 l-10000,0 z" fill="white"/>
<path d="M9818,7145 l182,0 l0,971 l-182,0 z" fill="#0200ff" stroke="black" stroke-width="5"/>
<path d="M7946,6057 l883,0 l0,1088 l-883,0 z" fill="#e300ff" stroke="black" stroke-width="5"/>
<path d="M0,7307 l1194,0 l0,894 l-1194,0 z" fill="#1e00ff" stroke="black" stroke-width="5"/>
<path d="M0,0 l2567,0 l0,1661 l-2567,0 z" fill="#ff00bc" stroke="black" stroke-width="5"/>
<path d="M0,1661 l637,0 l0,1448 l-637,0 z" fill="#4c00ff" stroke="black" stroke-width="5"/>
<path d="M1194,6998 l2893,0 l0,3002 l-2893,0 z" fill="#ff0000" stroke="black" stroke-width="5"/>
<path d="M9165,999 l835,0 l0,121 l-835,0 z" fill="#0000ff" stroke="black" stroke-width="5"/>
<path d="M0,8616 l1194,0 l0,873 l-1194,0 z" fill="#bd00ff" stroke="black" stroke-width="5"/>
<path d="M6721,1867 l3279,0 l0,1031 l-3279,0 z" fill="#ec00ff" stroke="black" stroke-width="5"/>
<path d="M2322,3386 l2571,0 l0,483 l-2571,0 z" fill="#a800ff" stroke="black" stroke-width="5"/>
<path d="M637,1661 l1930,0 l0,1448 l-1930,0 z" fill="#ff0050" stroke="black" stroke-width="5"/>
<path d="M6210,1867 l511,0 l0,1031 l-511,0 z" fill="#0a00ff" stroke="black" stroke-width="5"/>
<path d="M4893,0 l3523,0 l0,1867 l-3523,0 z" fill="#ff0014" stroke="black" stroke-width="5"/>
<path d="M7201,9721 l745,0 l0,279 l-745,0 z" fill="#0100ff" stroke="black" stroke-width="5"/>
<path d="M8416,0 l749,0 l0,1106 l-749,0 z" fill="#3200ff" stroke="black" stroke-width="5"/>
<path d="M7201,8059 l745,0 l0,1662 l-745,0 z" fill="#ff0015" stroke="black" stroke-width="5"/>
<path d="M0,6057 l1194,0 l0,856 l-1194,0 z" fill="#2200ff" stroke="black" stroke-width="5"/>
<path d="M7946,8116 l1999,0 l0,1884 l-1999,0 z" fill="#ff002e" stroke="black" stroke-width="5"/>
<path d="M2322,3109 l1280,0 l0,277 l-1280,0 z" fill="#3100ff" stroke="black" stroke-width="5"/>
<path d="M3602,3109 l1291,0 l0,277 l-1291,0 z" fill="#3500ff" stroke="black" stroke-width="5"/>
<path d="M2322,3869 l2571,0 l0,2188 l-2571,0 z" fill="#ff0006" stroke="black" stroke-width="5"/>
<path d="M2567,0 l2326,0 l0,1615 l-2326,0 z" fill="#ff0000" stroke="black" stroke-width="5"/>
<path d="M7946,7145 l1872,0 l0,971 l-1872,0 z" fill="#ff0059" stroke="black" stroke-width="5"/>
<path d="M3726,1615 l1167,0 l0,1494 l-1167,0 z" fill="#ff0061" stroke="black" stroke-width="5"/>
<path d="M9165,1120 l835,0 l0,747 l-835,0 z" fill="#7500ff" stroke="black" stroke-width="5"/>
<path d="M4087,8947 l102,0 l0,1053 l-102,0 z" fill="#0300ff" stroke="black" stroke-width="5"/>
<path d="M4893,2963 l1317,0 l0,1231 l-1317,0 z" fill="#ff00f9" stroke="black" stroke-width="5"/>
<path d="M0,3109 l2322,0 l0,1158 l-2322,0 z" fill="#ff0032" stroke="black" stroke-width="5"/>
<path d="M8416,1106 l749,0 l0,761 l-749,0 z" fill="#a600ff" stroke="black" stroke-width="5"/>
<path d="M4893,4194 l1317,0 l0,1863 l-1317,0 z" fill="#ff0000" stroke="black" stroke-width="5"/>
<path d="M9165,962 l835,0 l0,37 l-835,0 z" fill="#0000ff" stroke="black" stroke-width="5"/>
<path d="M1194,6057 l2893,0 l0,175 l-2893,0 z" fill="#6500ff" stroke="black" stroke-width="5"/>
<path d="M4087,6057 l1823,0 l0,2173 l-1823,0 z" fill="#ff0006" stroke="black" stroke-width="5"/>
<path d="M6462,6057 l1484,0 l0,1710 l-1484,0 z" fill="#5000ff" stroke="black" stroke-width="5"/>
<path d="M0,4267 l1187,0 l0,1790 l-1187,0 z" fill="#ff00bf" stroke="black" stroke-width="5"/>
<path d="M9165,0 l835,0 l0,962 l-835,0 z" fill="#ff0091" stroke="black" stroke-width="5"/>
<path d="M4893,1867 l1317,0 l0,1096 l-1317,0 z" fill="#f900ff" stroke="black" stroke-width="5"/>
<path d="M9720,6057 l280,0 l0,1088 l-280,0 z" fill="#4f00ff" stroke="black" stroke-width="5"/>
<path d="M5910,8226 l1291,0 l0,1774 l-1291,0 z" fill="#ff00cf" stroke="black" stroke-width="5"/>
<path d="M2567,1615 l1159,0 l0,1494 l-1159,0 z" fill="#ff00df" stroke="black" stroke-width="5"/>
<path d="M9840,2898 l160,0 l0,3159 l-160,0 z" fill="#0600ff" stroke="black" stroke-width="5"/>
<path d="M6462,7767 l1484,0 l0,292 l-1484,0 z" fill="#4800ff" stroke="black" stroke-width="5"/>
<path d="M1187,4267 l1135,0 l0,1790 l-1135,0 z" fill="#ff009d" stroke="black" stroke-width="5"/>
<path d="M0,6913 l1194,0 l0,394 l-1194,0 z" fill="#2700ff" stroke="black" stroke-width="5"/>
<path d="M6210,2898 l3630,0 l0,3159 l-3630,0 z" fill="#ff0007" stroke="black" stroke-width="5"/>
<path d="M5910,6057 l552,0 l0,2002 l-552,0 z" fill="#ff0003" stroke="black" stroke-width="5"/>
<path d="M9945,8116 l55,0 l0,1884 l-55,0 z" fill="#0300ff" stroke="black" stroke-width="5"/>
<path d="M0,8201 l684,0 l0,415 l-684,0 z" fill="#3600ff" stroke="black" stroke-width="5"/>
<path d="M1194,6232 l2893,0 l0,766 l-2893,0 z" fill="#8d00ff" stroke="black" stroke-width="5"/>
<path d="M684,8201 l510,0 l0,415 l-510,0 z" fill="#fa00ff" stroke="black" stroke-width="5"/>
<path d="M8829,6057 l891,0 l0,1088 l-891,0 z" fill="#ff0011" stroke="black" stroke-width="5"/>
<path d="M0,9489 l1194,0 l0,511 l-1194,0 z" fill="#1900ff" stroke="black" stroke-width="5"/>
<path d="M5910,8059 l1291,0 l0,167 l-1291,0 z" fill="#0100ff" stroke="black" stroke-width="5"/>
<path d="M4189,8947 l1721,0 l0,1053 l-1721,0 z" fill="#ff000b" stroke="black" stroke-width="5"/>
<path d="M4087,8230 l1823,0 l0,717 l-1823,0 z" fill="#ff000e" stroke="black" stroke-width="5"/>
<path d="M9788,7115 l60,0 l0,60 l-60,0 z" fill="green"/>
<path d="M9818,7145 l91,485.5" stroke="black" stroke-width="5"/>
<path d="M7916,7032 l60,0 l0,60 l-60,0 z" fill="green"/>
<path d="M7946,7062 l441.5,-461" stroke="black" stroke-width="5"/>
<path d="M885,7277 l60,0 l0,60 l-60,0 z" fill="green"/>
<path d="M915,7307 l-318,447" stroke="black" stroke-width="5"/>
<path d="M258,1488 l60,0 l0,60 l-60,0 z" fill="green"/>
<path d="M288,1518 l995.5,-687.5" stroke="black" stroke-width="5"/>
<path d="M-12,1631 l60,0 l0,60 l-60,0 z" fill="green"/>
<path d="M18,1661 l300.5,724" stroke="black" stroke-width="5"/>
<path d="M1164,6968 l60,0 l0,60 l-60,0 z" fill="green"/>
<path d="M1194,6998 l1446.5,1501" stroke="black" stroke-width="5"/>
<path d="M9358,969 l60,0 l0,60 l-60,0 z" fill="green"/>
<path d="M9388,999 l194.5,60.5" stroke="black" stroke-width="5"/>
<path d="M660,8586 l60,0 l0,60 l-60,0 z" fill="green"/>
<path d="M690,8616 l-93,436.5" stroke="black" stroke-width="5"/>
<path d="M6691,1837 l60,0 l0,60 l-60,0 z" fill="green"/>
<path d="M6721,1867 l1639.5,515.5" stroke="black" stroke-width="5"/>
<path d="M2688,3356 l60,0 l0,60 l-60,0 z" fill="green"/>
<path d="M2718,3386 l889.5,241.5" stroke="black" stroke-width="5"/>
<path d="M607,3004 l60,0 l0,60 l-60,0 z" fill="green"/>
<path d="M637,3034 l965,-649" stroke="black" stroke-width="5"/>
<path d="M6346,1998 l60,0 l0,60 l-60,0 z" fill="green"/>
<path d="M6376,2028 l89.5,354.5" stroke="black" stroke-width="5"/>
<path d="M4863,359 l60,0 l0,60 l-60,0 z" fill="green"/>
<path d="M4893,389 l1761.5,544.5" stroke="black" stroke-width="5"/>
<path d="M7171,9691 l60,0 l0,60 l-60,0 z" fill="green"/>
<path d="M7201,9721 l372.5,139.5" stroke="black" stroke-width="5"/>
<path d="M8910,887 l60,0 l0,60 l-60,0 z" fill="green"/>
<path d="M8940,917 l-149.5,-364" stroke="black" stroke-width="5"/>
<path d="M7845,9087 l60,0 l0,60 l-60,0 z" fill="green"/>
<path d="M7875,9117 l-301.5,-227" stroke="black" stroke-width="5"/>
<path d="M236,6828 l60,0 l0,60 l-60,0 z" fill="green"/>
<path d="M266,6858 l331,-373" stroke="black" stroke-width="5"/>
<path d="M9528,8447 l60,0 l0,60 l-60,0 z" fill="green"/>
<path d="M9558,8477 l-612.5,581" stroke="black" stroke-width="5"/>
<path d="M3461,3079 l60,0 l0,60 l-60,0 z" fill="green"/>
<path d="M3491,3109 l-529,138.5" stroke="black" stroke-width="5"/>
<path d="M3572,3079 l60,0 l0,60 l-60,0 z" fill="green"/>
<path d="M3602,3109 l645.5,138.5" stroke="black" stroke-width="5"/>
<path d="M2292,3839 l60,0 l0,60 l-60,0 z" fill="green"/>
<path d="M2322,3869 l1285.5,1094" stroke="black" stroke-width="5"/>
<path d="M2957,1345 l60,0 l0,60 l-60,0 z" fill="green"/>
<path d="M2987,1375 l743,-567.5" stroke="black" stroke-width="5"/>
<path d="M9629,7565 l60,0 l0,60 l-60,0 z" fill="green"/>
<path d="M9659,7595 l-777,35.5" stroke="black" stroke-width="5"/>
<path d="M3696,1585 l60,0 l0,60 l-60,0 z" fill="green"/>
<path d="M3726,1615 l583.5,747" stroke="black" stroke-width="5"/>
<path d="M9220,1090 l60,0 l0,60 l-60,0 z" fill="green"/>
<path d="M9250,1120 l332.5,373.5" stroke="black" stroke-width="5"/>
<path d="M4057,8917 l60,0 l0,60 l-60,0 z" fill="green"/>
<path d="M4087,8947 l51,526.5" stroke="black" stroke-width="5"/>
<path d="M5068,2933 l60,0 l0,60 l-60,0 z" fill="green"/>
<path d="M5098,2963 l453.5,615.5" stroke="black" stroke-width="5"/>
<path d="M2157,3949 l60,0 l0,60 l-60,0 z" fill="green"/>
<path d="M2187,3979 l-1026,-291" stroke="black" stroke-width="5"/>
<path d="M8386,1076 l60,0 l0,60 l-60,0 z" fill="green"/>
<path d="M8416,1106 l374.5,380.5" stroke="black" stroke-width="5"/>
<path d="M5884,4164 l60,0 l0,60 l-60,0 z" fill="green"/>
<path d="M5914,4194 l-362.5,931.5" stroke="black" stroke-width="5"/>
<path d="M9135,932 l60,0 l0,60 l-60,0 z" fill="green"/>
<path d="M9165,962 l417.5,18.5" stroke="black" stroke-width="5"/>
<path d="M1889,6027 l60,0 l0,60 l-60,0 z" fill="green"/>
<path d="M1919,6057 l721.5,87.5" stroke="black" stroke-width="5"/>
<path d="M5147,7186 l60,0 l0,60 l-60,0 z" fill="green"/>
<path d="M5177,7216 l-178.5,-72.5" stroke="black" stroke-width="5"/>
<path d="M6432,7514 l60,0 l0,60 l-60,0 z" fill="green"/>
<path d="M6462,7544 l742,-632" stroke="black" stroke-width="5"/>
<path d="M91,4237 l60,0 l0,60 l-60,0 z" fill="green"/>
<path d="M121,4267 l472.5,895" stroke="black" stroke-width="5"/>
<path d="M9177,77 l60,0 l0,60 l-60,0 z" fill="green"/>
<path d="M9207,107 l375.5,374" stroke="black" stroke-width="5"/>
<path d="M6001,2375 l60,0 l0,60 l-60,0 z" fill="green"/>
<path d="M6031,2405 l-479.5,10" stroke="black" stroke-width="5"/>
<path d="M9690,6588 l60,0 l0,60 l-60,0 z" fill="green"/>
<path d="M9720,6618 l140,-17" stroke="black" stroke-width="5"/>
<path d="M6889,8196 l60,0 l0,60 l-60,0 z" fill="green"/>
<path d="M6919,8226 l-363.5,887" stroke="black" stroke-width="5"/>
<path d="M2537,1990 l60,0 l0,60 l-60,0 z" fill="green"/>
<path d="M2567,2020 l579.5,342" stroke="black" stroke-width="5"/>
<path d="M9810,4273 l60,0 l0,60 l-60,0 z" fill="green"/>
<path d="M9840,4303 l80,174.5" stroke="black" stroke-width="5"/>
<path d="M7527,7737 l60,0 l0,60 l-60,0 z" fill="green"/>
<path d="M7557,7767 l-353,146" stroke="black" stroke-width="5"/>
<path d="M1157,5618 l60,0 l0,60 l-60,0 z" fill="green"/>
<path d="M1187,5648 l567.5,-486" stroke="black" stroke-width="5"/>
<path d="M1126,6883 l60,0 l0,60 l-60,0 z" fill="green"/>
<path d="M1156,6913 l-559,197" stroke="black" stroke-width="5"/>
<path d="M6180,2868 l60,0 l0,60 l-60,0 z" fill="green"/>
<path d="M6210,2898 l1815,1579.5" stroke="black" stroke-width="5"/>
<path d="M5880,6662 l60,0 l0,60 l-60,0 z" fill="green"/>
<path d="M5910,6692 l276,366" stroke="black" stroke-width="5"/>
<path d="M9915,8086 l60,0 l0,60 l-60,0 z" fill="green"/>
<path d="M9945,8116 l27.5,942" stroke="black" stroke-width="5"/>
<path d="M374,8171 l60,0 l0,60 l-60,0 z" fill="green"/>
<path d="M404,8201 l-62,207.5" stroke="black" stroke-width="5"/>
<path d="M1231,6202 l60,0 l0,60 l-60,0 z" fill="green"/>
<path d="M1261,6232 l1379.5,383" stroke="black" stroke-width="5"/>
<path d="M654,8511 l60,0 l0,60 l-60,0 z" fill="green"/>
<path d="M684,8541 l255,-132.5" stroke="black" stroke-width="5"/>
<path d="M8799,6174 l60,0 l0,60 l-60,0 z" fill="green"/>
<path d="M8829,6204 l445.5,397" stroke="black" stroke-width="5"/>
<path d="M1110,9459 l60,0 l0,60 l-60,0 z" fill="green"/>
<path d="M1140,9489 l-543,255.5" stroke="black" stroke-width="5"/>
<path d="M6953,8029 l60,0 l0,60 l-60,0 z" fill="green"/>
<path d="M6983,8059 l-427.5,83.5" stroke="black" stroke-width="5"/>
<path d="M4159,9004 l60,0 l0,60 l-60,0 z" fill="green"/>
<path d="M4189,9034 l860.5,439.5" stroke="black" stroke-width="5"/>
<path d="M5163,8200 l60,0 l0,60 l-60,0 z" fill="green"/>
<path d="M5193,8230 l-194.5,358.5" stroke="black" stroke-width="5"/>
<text font-size="190.69251784911845" text-anchor="middle" x="9909" y="7697.242381247192">
0
</text>
<text font-size="190.69251784911845" text-anchor="middle" x="8387.5" y="6667.742381247192">
1
</text>
<text font-size="190.69251784911845" text-anchor="middle" x="597" y="7820.742381247192">
2
</text>
<text font-size="190.69251784911845" text-anchor="middle" x="1283.5" y="897.2423812471915">
3
</text>
<text font-size="190.69251784911845" text-anchor="middle" x="318.5" y="2451.7423812471916">
4
</text>
<text font-size="190.69251784911845" text-anchor="middle" x="2640.5" y="8565.742381247192">
5
</text>
<text font-size="190.69251784911845" text-anchor="middle" x="9582.5" y="1126.2423812471914">
6
</text>
<text font-size="190.69251784911845" text-anchor="middle" x="597" y="9119.242381247192">
7
</text>
<text font-size="190.69251784911845" text-anchor="middle" x="8360.5" y="2449.2423812471916">
8
</text>
<text font-size="190.69251784911845" text-anchor="middle" x="3607.5" y="3694.2423812471916">
9
</text>
<text font-size="190.69251784911845" text-anchor="middle" x="1602" y="2451.7423812471916">
10
</text>
<text font-size="190.69251784911845" text-anchor="middle" x="6465.5" y="2449.2423812471916">
11
</text>
<text font-size="190.69251784911845" text-anchor="middle" x="6654.5" y="1000.2423812471915">
12
</text>
<text font-size="190.69251784911845" text-anchor="middle" x="7573.5" y="9927.242381247192">
13
</text>
<text font-size="190.69251784911845" text-anchor="middle" x="8790.5" y="619.7423812471915">
14
</text>
<text font-size="190.69251784911845" text-anchor="middle" x="7573.5" y="8956.742381247192">
15
</text>
<text font-size="190.69251784911845" text-anchor="middle" x="597" y="6551.742381247192">
16
</text>
<text font-size="190.69251784911845" text-anchor="middle" x="8945.5" y="9124.742381247192">
17
</text>
<text font-size="190.69251784911845" text-anchor="middle" x="2962" y="3314.2423812471916">
18
</text>
<text font-size="190.69251784911845" text-anchor="middle" x="4247.5" y="3314.2423812471916">
19
</text>
<text font-size="190.69251784911845" text-anchor="middle" x="3607.5" y="5029.742381247192">
20
</text>
<text font-size="190.69251784911845" text-anchor="middle" x="3730" y="874.2423812471915">
21
</text>
<text font-size="190.69251784911845" text-anchor="middle" x="8882" y="7697.242381247192">
22
</text>
<text font-size="190.69251784911845" text-anchor="middle" x="4309.5" y="2428.7423812471916">
23
</text>
<text font-size="190.69251784911845" text-anchor="middle" x="9582.5" y="1560.2423812471914">
24
</text>
<text font-size="190.69251784911845" text-anchor="middle" x="4138" y="9540.242381247192">
25
</text>
<text font-size="190.69251784911845" text-anchor="middle" x="5551.5" y="3645.2423812471916">
26
</text>
<text font-size="190.69251784911845" text-anchor="middle" x="1161" y="3754.7423812471916">
27
</text>
<text font-size="190.69251784911845" text-anchor="middle" x="8790.5" y="1553.2423812471914">
28
</text>
<text font-size="190.69251784911845" text-anchor="middle" x="5551.5" y="5192.242381247192">
29
</text>
<text font-size="190.69251784911845" text-anchor="middle" x="9582.5" y="1047.2423812471914">
30
</text>
<text font-size="190.69251784911845" text-anchor="middle" x="2640.5" y="6211.242381247192">
31
</text>
<text font-size="190.69251784911845" text-anchor="middle" x="4998.5" y="7210.242381247192">
32
</text>
<text font-size="190.69251784911845" text-anchor="middle" x="7204" y="6978.742381247192">
33
</text>
<text font-size="190.69251784911845" text-anchor="middle" x="593.5" y="5228.742381247192">
34
</text>
<text font-size="190.69251784911845" text-anchor="middle" x="9582.5" y="547.7423812471915">
35
</text>
<text font-size="190.69251784911845" text-anchor="middle" x="5551.5" y="2481.7423812471916">
36
</text>
<text font-size="190.69251784911845" text-anchor="middle" x="9860" y="6667.742381247192">
37
</text>
<text font-size="190.69251784911845" text-anchor="middle" x="6555.5" y="9179.742381247192">
38
</text>
<text font-size="190.69251784911845" text-anchor="middle" x="3146.5" y="2428.7423812471916">
39
</text>
<text font-size="190.69251784911845" text-anchor="middle" x="9920" y="4544.242381247192">
40
</text>
<text font-size="190.69251784911845" text-anchor="middle" x="7204" y="7979.742381247192">
41
</text>
<text font-size="190.69251784911845" text-anchor="middle" x="1754.5" y="5228.742381247192">
42
</text>
<text font-size="190.69251784911845" text-anchor="middle" x="597" y="7176.742381247192">
43
</text>
<text font-size="190.69251784911845" text-anchor="middle" x="8025" y="4544.242381247192">
44
</text>
<text font-size="190.69251784911845" text-anchor="middle" x="6186" y="7124.742381247192">
45
</text>
<text font-size="190.69251784911845" text-anchor="middle" x="9972.5" y="9124.742381247192">
46
</text>
<text font-size="190.69251784911845" text-anchor="middle" x="342" y="8475.242381247192">
47
</text>
<text font-size="190.69251784911845" text-anchor="middle" x="2640.5" y="6681.742381247192">
48
</text>
<text font-size="190.69251784911845" text-anchor="middle" x="939" y="8475.242381247192">
49
</text>
<text font-size="190.69251784911845" text-anchor="middle" x="9274.5" y="6667.742381247192">
50
</text>
<text font-size="190.69251784911845" text-anchor="middle" x="597" y="9811.242381247192">
51
</text>
<text font-size="190.69251784911845" text-anchor="middle" x="6555.5" y="8209.242381247192">
52
</text>
<text font-size="190.69251784911845" text-anchor="middle" x="5049.5" y="9540.242381247192">
53
</text>
<text font-size="190.69251784911845" text-anchor="middle" x="4998.5" y="8655.242381247192">
54
</text>
</svg>