<svg viewBox="0 0 10000 10000" xmlns="http://www.w3.org/2000/svg">
<path d="M0,0 l10000,0 l0,10000 l-10000,0 z" fill="white"/>
<path d="M6317,1530 l0,0 l0,0 l0,0 z" fill="#0000ff" stroke="black" stroke-width="5"/>
<path d="M0,4901 l974,0 l0,1131 l-974,0 z" fill="#7f00ff" stroke="black" stroke-width="5"/>
<path d="M7851,1819 l0,0 l0,0 l0,0 z" fill="#0000ff" stroke="black" stroke-width="5"/>
<path d="M6332,2034 l0,0 l0,0 l0,0 z" fill="#0000ff" stroke="black" stroke-width="5"/>
<path d="M4405,782 l0,0 l0,0 l0,0 z" fill="#0000ff" stroke="black" stroke-width="5"/>
<path d="M5525,6204 l0,0 l0,0 l0,0 z" fill="#0000ff" stroke="black" stroke-width="5"/>
<path d="M8800,5640 l0,0 l0,0 l0,0 z" fill="#0000ff" stroke="black" stroke-width="5"/>
<path d="M8860,4039 l0,0 l0,0 l0,0 z" fill="#0000ff" stroke="black" stroke-width="5"/>
<path d="M3515,8371 l0,0 l0,0 l0,0 z" fill="#0000ff" stroke="black" stroke-width="5"/>
<path d="M397,8059 l577,0 l0,577 l-577,0 z" fill="#3100ff" stroke="black" stroke-width="5"/>
<path d="M5896,1107 l0,0 l0,0 l0,0 z" fill="#0000ff" stroke="black" stroke-width="5"/>
<path d="M3855,6667 l0,0 l0,0 l0,0 z" fill="#0000ff" stroke="black" stroke-width="5"/>
<path d="M4118,7050 l0,0 l0,0 l0,0 z" fill="#0000ff" stroke="black" stroke-width="5"/>
<path d="M9905,5966 l0,0 l0,0 l0,0 z" fill="#0000ff" stroke="black" stroke-width="5"/>
<path d="M0,8883 l974,0 l0,991 l-974,0 z" fill="#8d00ff" stroke="black" stroke-width="5"/>
<path d="M7155,5736 l0,0 l0,0 l0,0 z" fill="#0000ff" stroke="black" stroke-width="5"/>
<path d="M6365,3796 l0,0 l0,0 l0,0 z" fill="#0000ff" stroke="black" stroke-width="5"/>
<path d="M1571,5545 l0,0 l0,0 l0,0 z" fill="#0000ff" stroke="black" stroke-width="5"/>
<path d="M7596,5102 l0,0 l0,0 l0,0 z" fill="#0000ff" stroke="black" stroke-width="5"/>
<path d="M3409,6151 l0,0 l0,0 l0,0 z" fill="#0000ff" stroke="black" stroke-width="5"/>
<path d="M6853,3662 l0,0 l0,0 l0,0 z" fill="#0000ff" stroke="black" stroke-width="5"/>
<path d="M2789,8599 l0,0 l0,0 l0,0 z" fill="#0000ff" stroke="black" stroke-width="5"/>
<path d="M5507,73 l2193,0 l0,2193 l-2193,0 z" fill="#ff00b3" stroke="black" stroke-width="5"/>
<path d="M8857,6858 l0,0 l0,0 l0,0 z" fill="#0000ff" stroke="black" stroke-width="5"/>
<path d="M7223,5056 l0,0 l0,0 l0,0 z" fill="#0000ff" stroke="black" stroke-width="5"/>
<path d="M5586,5065 l0,0 l0,0 l0,0 z" fill="#0000ff" stroke="black" stroke-width="5"/>
<path d="M4331,9355 l0,0 l0,0 l0,0 z" fill="#0000ff" stroke="black" stroke-width="5"/>
<path d="M825,3117 l437,0 l0,437 l-437,0 z" fill="#4b00ff" stroke="black" stroke-width="5"/>
<path d="M2561,6845 l0,0 l0,0 l0,0 z" fill="#0000ff" stroke="black" stroke-width="5"/>
<path d="M6245,229 l0,0 l0,0 l0,0 z" fill="#0000ff" stroke="black" stroke-width="5"/>
<path d="M8771,2009 l0,0 l0,0 l0,0 z" fill="#0000ff" stroke="black" stroke-width="5"/>
<path d="M5735,5458 l0,0 l0,0 l0,0 z" fill="#0000ff" stroke="black" stroke-width="5"/>
<path d="M8043,3610 l0,0 l0,0 l0,0 z" fill="#0000ff" stroke="black" stroke-width="5"/>
<path d="M3867,3657 l0,0 l0,0 l0,0 z" fill="#0000ff" stroke="black" stroke-width="5"/>
<path d="M5601,6821 l0,0 l0,0 l0,0 z" fill="#0000ff" stroke="black" stroke-width="5"/>
<path d="M2469,1633 l0,0 l0,0 l0,0 z" fill="#0000ff" stroke="black" stroke-width="5"/>
<path d="M2395,3822 l0,0 l0,0 l0,0 z" fill="#0000ff" stroke="black" stroke-width="5"/>
<path d="M5539,1963 l0,0 l0,0 l0,0 z" fill="#0000ff" stroke="black" stroke-width="5"/>
<path d="M5393,1728 l0,0 l0,0 l0,0 z" fill="#0000ff" stroke="black" stroke-width="5"/>
<path d="M4379,6715 l0,0 l0,0 l0,0 z" fill="#0000ff" stroke="black" stroke-width="5"/>
<path d="M4266,8261 l0,0 l0,0 l0,0 z" fill="#0000ff" stroke="black" stroke-width="5"/>
<path d="M4706,4707 l0,0 l0,0 l0,0 z" fill="#0000ff" stroke="black" stroke-width="5"/>
<path d="M557,9532 l0,0 l0,0 l0,0 z" fill="#0000ff" stroke="black" stroke-width="5"/>
<path d="M8092,9290 l0,0 l0,0 l0,0 z" fill="#0000ff" stroke="black" stroke-width="5"/>
<path d="M974,3558 l9026,0 l0,6442 l-9026,0 z" fill="#ff0002" stroke="black" stroke-width="5"/>
<path d="M6501,7212 l0,0 l0,0 l0,0 z" fill="#0000ff" stroke="black" stroke-width="5"/>
<path d="M2191,2309 l0,0 l0,0 l0,0 z" fill="#0000ff" stroke="black" stroke-width="5"/>
<path d="M8036,7689 l0,0 l0,0 l0,0 z" fill="#0000ff" stroke="black" stroke-width="5"/>
<path d="M4602,3117 l301,0 l0,301 l-301,0 z" fill="#0100ff" stroke="black" stroke-width="5"/>
<path d="M6589,6954 l0,0 l0,0 l0,0 z" fill="#0000ff" stroke="black" stroke-width="5"/>
<path d="M6262,831 l0,0 l0,0 l0,0 z" fill="#0000ff" stroke="black" stroke-width="5"/>
<path d="M3621,3118 l361,0 l0,361 l-361,0 z" fill="#0100ff" stroke="black" stroke-width="5"/>
<path d="M2216,7344 l0,0 l0,0 l0,0 z" fill="#0000ff" stroke="black" stroke-width="5"/>
<path d="M9317,4957 l0,0 l0,0 l0,0 z" fill="#0000ff" stroke="black" stroke-width="5"/>
<path d="M8885,5203 l0,0 l0,0 l0,0 z" fill="#0000ff" stroke="black" stroke-width="5"/>
<path d="M5899,5090 l0,0 l0,0 l0,0 z" fill="#0000ff" stroke="black" stroke-width="5"/>
<path d="M2331,3559 l0,0 l0,0 l0,0 z" fill="#0000ff" stroke="black" stroke-width="5"/>
<path d="M7954,1584 l0,0 l0,0 l0,0 z" fill="#0000ff" stroke="black" stroke-width="5"/>
<path d="M511,1991 l0,0 l0,0 l0,0 z" fill="#0000ff" stroke="black" stroke-width="5"/>
<path d="M796,8636 l109,0 l0,109 l-109,0 z" fill="#0000ff" stroke="black" stroke-width="5"/>
<path d="M2464,1725 l0,0 l0,0 l0,0 z" fill="#0000ff" stroke="black" stroke-width="5"/>
<path d="M6458,1771 l0,0 l0,0 l0,0 z" fill="#0000ff" stroke="black" stroke-width="5"/>
<path d="M1786,3561 l0,0 l0,0 l0,0 z" fill="#0000ff" stroke="black" stroke-width="5"/>
<path d="M9979,5627 l0,0 l0,0 l0,0 z" fill="#0000ff" stroke="black" stroke-width="5"/>
<path d="M3173,3722 l0,0 l0,0 l0,0 z" fill="#0000ff" stroke="black" stroke-width="5"/>
<path d="M5931,638 l0,0 l0,0 l0,0 z" fill="#0000ff" stroke="black" stroke-width="5"/>
<path d="M0,8044 l397,0 l0,677 l-397,0 z" fill="#ff0057" stroke="black" stroke-width="5"/>
<path d="M4316,3739 l0,0 l0,0 l0,0 z" fill="#0000ff" stroke="black" stroke-width="5"/>
<path d="M2462,8676 l0,0 l0,0 l0,0 z" fill="#0000ff" stroke="black" stroke-width="5"/>
<path d="M7557,1146 l0,0 l0,0 l0,0 z" fill="#0000ff" stroke="black" stroke-width="5"/>
<path d="M9231,4786 l0,0 l0,0 l0,0 z" fill="#0000ff" stroke="black" stroke-width="5"/>
<path d="M8564,5447 l0,0 l0,0 l0,0 z" fill="#0000ff" stroke="black" stroke-width="5"/>
<path d="M9881,708 l119,0 l0,191 l-119,0 z" fill="#0200ff" stroke="black" stroke-width="5"/>
<path d="M2874,8499 l0,0 l0,0 l0,0 z" fill="#0000ff" stroke="black" stroke-width="5"/>
<path d="M1025,9418 l0,0 l0,0 l0,0 z" fill="#0000ff" stroke="black" stroke-width="5"/>
<path d="M5676,8528 l0,0 l0,0 l0,0 z" fill="#0000ff" stroke="black" stroke-width="5"/>
<path d="M9952,1016 l0,0 l0,0 l0,0 z" fill="#0000ff" stroke="black" stroke-width="5"/>
<path d="M2966,3118 l143,0 l0,143 l-143,0 z" fill="#0000ff" stroke="black" stroke-width="5"/>
<path d="M6952,420 l0,0 l0,0 l0,0 z" fill="#0000ff" stroke="black" stroke-width="5"/>
<path d="M3973,5590 l0,0 l0,0 l0,0 z" fill="#0000ff" stroke="black" stroke-width="5"/>
<path d="M7936,6344 l0,0 l0,0 l0,0 z" fill="#0000ff" stroke="black" stroke-width="5"/>
<path d="M3147,3235 l323,0 l0,323 l-323,0 z" fill="#0700ff" stroke="black" stroke-width="5"/>
<path d="M9193,7201 l0,0 l0,0 l0,0 z" fill="#0000ff" stroke="black" stroke-width="5"/>
<path d="M7824,5290 l0,0 l0,0 l0,0 z" fill="#0000ff" stroke="black" stroke-width="5"/>
<path d="M3086,6072 l0,0 l0,0 l0,0 z" fill="#0000ff" stroke="black" stroke-width="5"/>
<path d="M2992,3082 l0,0 l0,0 l0,0 z" fill="#0000ff" stroke="black" stroke-width="5"/>
<path d="M7412,294 l0,0 l0,0 l0,0 z" fill="#0000ff" stroke="black" stroke-width="5"/>
<path d="M9186,0 l814,0 l0,708 l-814,0 z" fill="#ff0000" stroke="black" stroke-width="5"/>
<path d="M6537,4905 l0,0 l0,0 l0,0 z" fill="#0000ff" stroke="black" stroke-width="5"/>
<path d="M6514,3329 l229,0 l0,229 l-229,0 z" fill="#1600ff" stroke="black" stroke-width="5"/>
<path d="M810,3084 l0,0 l0,0 l0,0 z" fill="#0000ff" stroke="black" stroke-width="5"/>
<path d="M2735,1959 l0,0 l0,0 l0,0 z" fill="#0000ff" stroke="black" stroke-width="5"/>
<path d="M9027,8840 l0,0 l0,0 l0,0 z" fill="#0000ff" stroke="black" stroke-width="5"/>
<path d="M2628,4454 l0,0 l0,0 l0,0 z" fill="#0000ff" stroke="black" stroke-width="5"/>
<path d="M8394,9158 l0,0 l0,0 l0,0 z" fill="#0000ff" stroke="black" stroke-width="5"/>
<path d="M2438,1622 l0,0 l0,0 l0,0 z" fill="#0000ff" stroke="black" stroke-width="5"/>
<path d="M5772,2971 l587,0 l0,587 l-587,0 z" fill="#2500ff" stroke="black" stroke-width="5"/>
<path d="M2679,8761 l0,0 l0,0 l0,0 z" fill="#0000ff" stroke="black" stroke-width="5"/>
<path d="M9672,8200 l0,0 l0,0 l0,0 z" fill="#0000ff" stroke="black" stroke-width="5"/>
<path d="M7497,9643 l0,0 l0,0 l0,0 z" fill="#0000ff" stroke="black" stroke-width="5"/>
<path d="M2986,6858 l0,0 l0,0 l0,0 z" fill="#0000ff" stroke="black" stroke-width="5"/>
<path d="M2082,6445 l0,0 l0,0 l0,0 z" fill="#0000ff" stroke="black" stroke-width="5"/>
<path d="M9904,2115 l0,0 l0,0 l0,0 z" fill="#0000ff" stroke="black" stroke-width="5"/>
<path d="M9112,3379 l0,0 l0,0 l0,0 z" fill="#0000ff" stroke="black" stroke-width="5"/>
<path d="M9177,8610 l0,0 l0,0 l0,0 z" fill="#0000ff" stroke="black" stroke-width="5"/>
<path d="M0,0 l5506,0 l0,3117 l-5506,0 z" fill="#ff0012" stroke="black" stroke-width="5"/>
<path d="M7700,899 l2300,0 l0,2659 l-2300,0 z" fill="#ff0082" stroke="black" stroke-width="5"/>
<path d="M606,2676 l0,0 l0,0 l0,0 z" fill="#0000ff" stroke="black" stroke-width="5"/>
<path d="M9750,2091 l0,0 l0,0 l0,0 z" fill="#0000ff" stroke="black" stroke-width="5"/>
<path d="M1245,2272 l0,0 l0,0 l0,0 z" fill="#0000ff" stroke="black" stroke-width="5"/>
<path d="M6838,2266 l269,0 l0,269 l-269,0 z" fill="#0500ff" stroke="black" stroke-width="5"/>
<path d="M8970,2711 l0,0 l0,0 l0,0 z" fill="#0000ff" stroke="black" stroke-width="5"/>
<path d="M4833,3781 l0,0 l0,0 l0,0 z" fill="#0000ff" stroke="black" stroke-width="5"/>
<path d="M7790,5621 l0,0 l0,0 l0,0 z" fill="#0000ff" stroke="black" stroke-width="5"/>
<path d="M5647,8380 l0,0 l0,0 l0,0 z" fill="#0000ff" stroke="black" stroke-width="5"/>
<path d="M139,642 l0,0 l0,0 l0,0 z" fill="#0000ff" stroke="black" stroke-width="5"/>
<path d="M0,3117 l399,0 l0,717 l-399,0 z" fill="#9500ff" stroke="black" stroke-width="5"/>
<path d="M2677,46 l0,0 l0,0 l0,0 z" fill="#0000ff" stroke="black" stroke-width="5"/>
<path d="M6287,1500 l60,0 l0,60 l-60,0 z" fill="green"/>
<path d="M6317,1530 l0,0" stroke="black" stroke-width="5"/>
<path d="M379,5437 l60,0 l0,60 l-60,0 z" fill="green"/>
<path d="M409,5467 l78,-0.5" stroke="black" stroke-width="5"/>
<path d="M7821,1789 l60,0 l0,60 l-60,0 z" fill="green"/>
<path d="M7851,1819 l0,0" stroke="black" stroke-width="5"/>
<path d="M6302,2004 l60,0 l0,60 l-60,0 z" fill="green"/>
<path d="M6332,2034 l0,0" stroke="black" stroke-width="5"/>
<path d="M4375,752 l60,0 l0,60 l-60,0 z" fill="green"/>
<path d="M4405,782 l0,0" stroke="black" stroke-width="5"/>
<path d="M5495,6174 l60,0 l0,60 l-60,0 z" fill="green"/>
<path d="M5525,6204 l0,0" stroke="black" stroke-width="5"/>
<path d="M8770,5610 l60,0 l0,60 l-60,0 z" fill="green"/>
<path d="M8800,5640 l0,0" stroke="black" stroke-width="5"/>
<path d="M8830,4009 l60,0 l0,60 l-60,0 z" fill="green"/>
<path d="M8860,4039 l0,0" stroke="black" stroke-width="5"/>
<path d="M3485,8341 l60,0 l0,60 l-60,0 z" fill="green"/>
<path d="M3515,8371 l0,0" stroke="black" stroke-width="5"/>
<path d="M656,8318 l60,0 l0,60 l-60,0 z" fill="green"/>
<path d="M686,8348 l-0.5,-0.5" stroke="black" stroke-width="5"/>
<path d="M5866,1077 l60,0 l0,60 l-60,0 z" fill="green"/>
<path d="M5896,1107 l0,0" stroke="black" stroke-width="5"/>
<path d="M3825,6637 l60,0 l0,60 l-60,0 z" fill="green"/>
<path d="M3855,6667 l0,0" stroke="black" stroke-width="5"/>
<path d="M4088,7020 l60,0 l0,60 l-60,0 z" fill="green"/>
<path d="M4118,7050 l0,0" stroke="black" stroke-width="5"/>
<path d="M9875,5936 l60,0 l0,60 l-60,0 z" fill="green"/>
<path d="M9905,5966 l0,0" stroke="black" stroke-width="5"/>
<path d="M449,9349 l60,0 l0,60 l-60,0 z" fill="green"/>
<path d="M479,9379 l8,-0.5" stroke="black" stroke-width="5"/>
<path d="M7125,5706 l60,0 l0,60 l-60,0 z" fill="green"/>
<path d="M7155,5736 l0,0" stroke="black" stroke-width="5"/>
<path d="M6335,3766 l60,0 l0,60 l-60,0 z" fill="green"/>
<path d="M6365,3796 l0,0" stroke="black" stroke-width="5"/>
<path d="M1541,5515 l60,0 l0,60 l-60,0 z" fill="green"/>
<path d="M1571,5545 l0,0" stroke="black" stroke-width="5"/>
<path d="M7566,5072 l60,0 l0,60 l-60,0 z" fill="green"/>
<path d="M7596,5102 l0,0" stroke="black" stroke-width="5"/>
<path d="M3379,6121 l60,0 l0,60 l-60,0 z" fill="green"/>
<path d="M3409,6151 l0,0" stroke="black" stroke-width="5"/>
<path d="M6823,3632 l60,0 l0,60 l-60,0 z" fill="green"/>
<path d="M6853,3662 l0,0" stroke="black" stroke-width="5"/>
<path d="M2759,8569 l60,0 l0,60 l-60,0 z" fill="green"/>
<path d="M2789,8599 l0,0" stroke="black" stroke-width="5"/>
<path d="M6574,1140 l60,0 l0,60 l-60,0 z" fill="green"/>
<path d="M6604,1170 l-0.5,-0.5" stroke="black" stroke-width="5"/>
<path d="M8827,6828 l60,0 l0,60 l-60,0 z" fill="green"/>
<path d="M8857,6858 l0,0" stroke="black" stroke-width="5"/>
<path d="M7193,5026 l60,0 l0,60 l-60,0 z" fill="green"/>
<path d="M7223,5056 l0,0" stroke="black" stroke-width="5"/>
<path d="M5556,5035 l60,0 l0,60 l-60,0 z" fill="green"/>
<path d="M5586,5065 l0,0" stroke="black" stroke-width="5"/>
<path d="M4301,9325 l60,0 l0,60 l-60,0 z" fill="green"/>
<path d="M4331,9355 l0,0" stroke="black" stroke-width="5"/>
<path d="M1014,3306 l60,0 l0,60 l-60,0 z" fill="green"/>
<path d="M1044,3336 l-0.5,-0.5" stroke="black" stroke-width="5"/>
<path d="M2531,6815 l60,0 l0,60 l-60,0 z" fill="green"/>
<path d="M2561,6845 l0,0" stroke="black" stroke-width="5"/>
<path d="M6215,199 l60,0 l0,60 l-60,0 z" fill="green"/>
<path d="M6245,229 l0,0" stroke="black" stroke-width="5"/>
<path d="M8741,1979 l60,0 l0,60 l-60,0 z" fill="green"/>
<path d="M8771,2009 l0,0" stroke="black" stroke-width="5"/>
<path d="M5705,5428 l60,0 l0,60 l-60,0 z" fill="green"/>
<path d="M5735,5458 l0,0" stroke="black" stroke-width="5"/>
<path d="M8013,3580 l60,0 l0,60 l-60,0 z" fill="green"/>
<path d="M8043,3610 l0,0" stroke="black" stroke-width="5"/>
<path d="M3837,3627 l60,0 l0,60 l-60,0 z" fill="green"/>
<path d="M3867,3657 l0,0" stroke="black" stroke-width="5"/>
<path d="M5571,6791 l60,0 l0,60 l-60,0 z" fill="green"/>
<path d="M5601,6821 l0,0" stroke="black" stroke-width="5"/>
<path d="M2439,1603 l60,0 l0,60 l-60,0 z" fill="green"/>
<path d="M2469,1633 l0,0" stroke="black" stroke-width="5"/>
<path d="M2365,3792 l60,0 l0,60 l-60,0 z" fill="green"/>
<path d="M2395,3822 l0,0" stroke="black" stroke-width="5"/>
<path d="M5509,1933 l60,0 l0,60 l-60,0 z" fill="green"/>
<path d="M5539,1963 l0,0" stroke="black" stroke-width="5"/>
<path d="M5363,1698 l60,0 l0,60 l-60,0 z" fill="green"/>
<path d="M5393,1728 l0,0" stroke="black" stroke-width="5"/>
<path d="M4349,6685 l60,0 l0,60 l-60,0 z" fill="green"/>
<path d="M4379,6715 l0,0" stroke="black" stroke-width="5"/>
<path d="M4236,8231 l60,0 l0,60 l-60,0 z" fill="green"/>
<path d="M4266,8261 l0,0" stroke="black" stroke-width="5"/>
<path d="M4676,4677 l60,0 l0,60 l-60,0 z" fill="green"/>
<path d="M4706,4707 l0,0" stroke="black" stroke-width="5"/>
<path d="M527,9502 l60,0 l0,60 l-60,0 z" fill="green"/>
<path d="M557,9532 l0,0" stroke="black" stroke-width="5"/>
<path d="M8062,9260 l60,0 l0,60 l-60,0 z" fill="green"/>
<path d="M8092,9290 l0,0" stroke="black" stroke-width="5"/>
<path d="M5944,8528 l60,0 l0,60 l-60,0 z" fill="green"/>
<path d="M5974,8558 l-487,-1779" stroke="black" stroke-width="5"/>
<path d="M6471,7182 l60,0 l0,60 l-60,0 z" fill="green"/>
<path d="M6501,7212 l0,0" stroke="black" stroke-width="5"/>
<path d="M2161,2279 l60,0 l0,60 l-60,0 z" fill="green"/>
<path d="M2191,2309 l0,0" stroke="black" stroke-width="5"/>
<path d="M8006,7659 l60,0 l0,60 l-60,0 z" fill="green"/>
<path d="M8036,7689 l0,0" stroke="black" stroke-width="5"/>
<path d="M4723,3238 l60,0 l0,60 l-60,0 z" fill="green"/>
<path d="M4753,3268 l-0.5,-0.5" stroke="black" stroke-width="5"/>
<path d="M6559,6924 l60,0 l0,60 l-60,0 z" fill="green"/>
<path d="M6589,6954 l0,0" stroke="black" stroke-width="5"/>
<path d="M6232,801 l60,0 l0,60 l-60,0 z" fill="green"/>
<path d="M6262,831 l0,0" stroke="black" stroke-width="5"/>
<path d="M3772,3269 l60,0 l0,60 l-60,0 z" fill="green"/>
<path d="M3802,3299 l-0.5,-0.5" stroke="black" stroke-width="5"/>
<path d="M2186,7314 l60,0 l0,60 l-60,0 z" fill="green"/>
<path d="M2216,7344 l0,0" stroke="black" stroke-width="5"/>
<path d="M9287,4927 l60,0 l0,60 l-60,0 z" fill="green"/>
<path d="M9317,4957 l0,0" stroke="black" stroke-width="5"/>
<path d="M8855,5173 l60,0 l0,60 l-60,0 z" fill="green"/>
<path d="M8885,5203 l0,0" stroke="black" stroke-width="5"/>
<path d="M5869,5060 l60,0 l0,60 l-60,0 z" fill="green"/>
<path d="M5899,5090 l0,0" stroke="black" stroke-width="5"/>
<path d="M2301,3529 l60,0 l0,60 l-60,0 z" fill="green"/>
<path d="M2331,3559 l0,0" stroke="black" stroke-width="5"/>
<path d="M7924,1554 l60,0 l0,60 l-60,0 z" fill="green"/>
<path d="M7954,1584 l0,0" stroke="black" stroke-width="5"/>
<path d="M481,1961 l60,0 l0,60 l-60,0 z" fill="green"/>
<path d="M511,1991 l0,0" stroke="black" stroke-width="5"/>
<path d="M821,8661 l60,0 l0,60 l-60,0 z" fill="green"/>
<path d="M851,8691 l-0.5,-0.5" stroke="black" stroke-width="5"/>
<path d="M2434,1695 l60,0 l0,60 l-60,0 z" fill="green"/>
<path d="M2464,1725 l0,0" stroke="black" stroke-width="5"/>
<path d="M6428,1741 l60,0 l0,60 l-60,0 z" fill="green"/>
<path d="M6458,1771 l0,0" stroke="black" stroke-width="5"/>
<path d="M1756,3531 l60,0 l0,60 l-60,0 z" fill="green"/>
<path d="M1786,3561 l0,0" stroke="black" stroke-width="5"/>
<path d="M9949,5597 l60,0 l0,60 l-60,0 z" fill="green"/>
<path d="M9979,5627 l0,0" stroke="black" stroke-width="5"/>
<path d="M3143,3692 l60,0 l0,60 l-60,0 z" fill="green"/>
<path d="M3173,3722 l0,0" stroke="black" stroke-width="5"/>
<path d="M5901,608 l60,0 l0,60 l-60,0 z" fill="green"/>
<path d="M5931,638 l0,0" stroke="black" stroke-width="5"/>
<path d="M29,8353 l60,0 l0,60 l-60,0 z" fill="green"/>
<path d="M59,8383 l139.5,-0.5" stroke="black" stroke-width="5"/>
<path d="M4286,3709 l60,0 l0,60 l-60,0 z" fill="green"/>
<path d="M4316,3739 l0,0" stroke="black" stroke-width="5"/>
<path d="M2432,8646 l60,0 l0,60 l-60,0 z" fill="green"/>
<path d="M2462,8676 l0,0" stroke="black" stroke-width="5"/>
<path d="M7527,1116 l60,0 l0,60 l-60,0 z" fill="green"/>
<path d="M7557,1146 l0,0" stroke="black" stroke-width="5"/>
<path d="M9201,4756 l60,0 l0,60 l-60,0 z" fill="green"/>
<path d="M9231,4786 l0,0" stroke="black" stroke-width="5"/>
<path d="M8534,5417 l60,0 l0,60 l-60,0 z" fill="green"/>
<path d="M8564,5447 l0,0" stroke="black" stroke-width="5"/>
<path d="M9947,774 l60,0 l0,60 l-60,0 z" fill="green"/>
<path d="M9977,804 l-36.5,-0.5" stroke="black" stroke-width="5"/>
<path d="M2844,8469 l60,0 l0,60 l-60,0 z" fill="green"/>
<path d="M2874,8499 l0,0" stroke="black" stroke-width="5"/>
<path d="M995,9388 l60,0 l0,60 l-60,0 z" fill="green"/>
<path d="M1025,9418 l0,0" stroke="black" stroke-width="5"/>
<path d="M5646,8498 l60,0 l0,60 l-60,0 z" fill="green"/>
<path d="M5676,8528 l0,0" stroke="black" stroke-width="5"/>
<path d="M9922,986 l60,0 l0,60 l-60,0 z" fill="green"/>
<path d="M9952,1016 l0,0" stroke="black" stroke-width="5"/>
<path d="M3008,3160 l60,0 l0,60 l-60,0 z" fill="green"/>
<path d="M3038,3190 l-0.5,-0.5" stroke="black" stroke-width="5"/>
<path d="M6922,390 l60,0 l0,60 l-60,0 z" fill="green"/>
<path d="M6952,420 l0,0" stroke="black" stroke-width="5"/>
<path d="M3943,5560 l60,0 l0,60 l-60,0 z" fill="green"/>
<path d="M3973,5590 l0,0" stroke="black" stroke-width="5"/>
<path d="M7906,6314 l60,0 l0,60 l-60,0 z" fill="green"/>
<path d="M7936,6344 l0,0" stroke="black" stroke-width="5"/>
<path d="M3279,3367 l60,0 l0,60 l-60,0 z" fill="green"/>
<path d="M3309,3397 l-0.5,-0.5" stroke="black" stroke-width="5"/>
<path d="M9163,7171 l60,0 l0,60 l-60,0 z" fill="green"/>
<path d="M9193,7201 l0,0" stroke="black" stroke-width="5"/>
<path d="M7794,5260 l60,0 l0,60 l-60,0 z" fill="green"/>
<path d="M7824,5290 l0,0" stroke="black" stroke-width="5"/>
<path d="M3056,6042 l60,0 l0,60 l-60,0 z" fill="green"/>
<path d="M3086,6072 l0,0" stroke="black" stroke-width="5"/>
<path d="M2962,3052 l60,0 l0,60 l-60,0 z" fill="green"/>
<path d="M2992,3082 l0,0" stroke="black" stroke-width="5"/>
<path d="M7382,264 l60,0 l0,60 l-60,0 z" fill="green"/>
<path d="M7412,294 l0,0" stroke="black" stroke-width="5"/>
<path d="M9819,16 l60,0 l0,60 l-60,0 z" fill="green"/>
<path d="M9849,46 l-256,308" stroke="black" stroke-width="5"/>
<path d="M6507,4875 l60,0 l0,60 l-60,0 z" fill="green"/>
<path d="M6537,4905 l0,0" stroke="black" stroke-width="5"/>
<path d="M6599,3414 l60,0 l0,60 l-60,0 z" fill="green"/>
<path d="M6629,3444 l-0.5,-0.5" stroke="black" stroke-width="5"/>
<path d="M780,3054 l60,0 l0,60 l-60,0 z" fill="green"/>
<path d="M810,3084 l0,0" stroke="black" stroke-width="5"/>
<path d="M2705,1929 l60,0 l0,60 l-60,0 z" fill="green"/>
<path d="M2735,1959 l0,0" stroke="black" stroke-width="5"/>
<path d="M8997,8810 l60,0 l0,60 l-60,0 z" fill="green"/>
<path d="M9027,8840 l0,0" stroke="black" stroke-width="5"/>
<path d="M2598,4424 l60,0 l0,60 l-60,0 z" fill="green"/>
<path d="M2628,4454 l0,0" stroke="black" stroke-width="5"/>
<path d="M8364,9128 l60,0 l0,60 l-60,0 z" fill="green"/>
<path d="M8394,9158 l0,0" stroke="black" stroke-width="5"/>
<path d="M2408,1592 l60,0 l0,60 l-60,0 z" fill="green"/>
<path d="M2438,1622 l0,0" stroke="black" stroke-width="5"/>
<path d="M6036,3235 l60,0 l0,60 l-60,0 z" fill="green"/>
<path d="M6066,3265 l-0.5,-0.5" stroke="black" stroke-width="5"/>
<path d="M2649,8731 l60,0 l0,60 l-60,0 z" fill="green"/>
<path d="M2679,8761 l0,0" stroke="black" stroke-width="5"/>
<path d="M9642,8170 l60,0 l0,60 l-60,0 z" fill="green"/>
<path d="M9672,8200 l0,0" stroke="black" stroke-width="5"/>
<path d="M7467,9613 l60,0 l0,60 l-60,0 z" fill="green"/>
<path d="M7497,9643 l0,0" stroke="black" stroke-width="5"/>
<path d="M2956,6828 l60,0 l0,60 l-60,0 z" fill="green"/>
<path d="M2986,6858 l0,0" stroke="black" stroke-width="5"/>
<path d="M2052,6415 l60,0 l0,60 l-60,0 z" fill="green"/>
<path d="M2082,6445 l0,0" stroke="black" stroke-width="5"/>
<path d="M9874,2085 l60,0 l0,60 l-60,0 z" fill="green"/>
<path d="M9904,2115 l0,0" stroke="black" stroke-width="5"/>
<path d="M9082,3349 l60,0 l0,60 l-60,0 z" fill="green"/>
<path d="M9112,3379 l0,0" stroke="black" stroke-width="5"/>
<path d="M9147,8580 l60,0 l0,60 l-60,0 z" fill="green"/>
<path d="M9177,8610 l0,0" stroke="black" stroke-width="5"/>
<path d="M2375,-14 l60,0 l0,60 l-60,0 z" fill="green"/>
<path d="M2405,16 l348,1542.5" stroke="black" stroke-width="5"/>
<path d="M9000,2199 l60,0 l0,60 l-60,0 z" fill="green"/>
<path d="M9030,2229 l-180,-0.5" stroke="black" stroke-width="5"/>
<path d="M576,2646 l60,0 l0,60 l-60,0 z" fill="green"/>
<path d="M606,2676 l0,0" stroke="black" stroke-width="5"/>
<path d="M9720,2061 l60,0 l0,60 l-60,0 z" fill="green"/>
<path d="M9750,2091 l0,0" stroke="black" stroke-width="5"/>
<path d="M1215,2242 l60,0 l0,60 l-60,0 z" fill="green"/>
<path d="M1245,2272 l0,0" stroke="black" stroke-width="5"/>
<path d="M6943,2371 l60,0 l0,60 l-60,0 z" fill="green"/>
<path d="M6973,2401 l-0.5,-0.5" stroke="black" stroke-width="5"/>
<path d="M8940,2681 l60,0 l0,60 l-60,0 z" fill="green"/>
<path d="M8970,2711 l0,0" stroke="black" stroke-width="5"/>
<path d="M4803,3751 l60,0 l0,60 l-60,0 z" fill="green"/>
<path d="M4833,3781 l0,0" stroke="black" stroke-width="5"/>
<path d="M7760,5591 l60,0 l0,60 l-60,0 z" fill="green"/>
<path d="M7790,5621 l0,0" stroke="black" stroke-width="5"/>
<path d="M5617,8350 l60,0 l0,60 l-60,0 z" fill="green"/>
<path d="M5647,8380 l0,0" stroke="black" stroke-width="5"/>
<path d="M109,612 l60,0 l0,60 l-60,0 z" fill="green"/>
<path d="M139,642 l0,0" stroke="black" stroke-width="5"/>
<path d="M11,3446 l60,0 l0,60 l-60,0 z" fill="green"/>
<path d="M41,3476 l158.5,-0.5" stroke="black" stroke-width="5"/>
<path d="M2647,16 l60,0 l0,60 l-60,0 z" fill="green"/>
<path d="M2677,46 l0,0" stroke="black" stroke-width="5"/>
<text font-size="130.18891098082386" text-anchor="middle" x="6317" y="1575.5661188432885">
0
</text>
<text font-size="130.18891098082386" text-anchor="middle" x="487" y="5512.066118843289">
1
</text>
<text font-size="130.18891098082386" text-anchor="middle" x="7851" y="1864.5661188432885">
2
</text>
<text font-size="130.18891098082386" text-anchor="middle" x="6332" y="2079.566118843288">
3
</text>
<text font-size="130.18891098082386" text-anchor="middle" x="4405" y="827.5661188432883">
4
</text>
<text font-size="130.18891098082386" text-anchor="middle" x="5525" y="6249.566118843289">
5
</text>
<text font-size="130.18891098082386" text-anchor="middle" x="8800" y="5685.566118843289">
6
</text>
<text font-size="130.18891098082386" text-anchor="middle" x="8860" y="4084.566118843288">
7
</text>
<text font-size="130.18891098082386" text-anchor="middle" x="3515" y="8416.566118843288">
8
</text>
<text font-size="130.18891098082386" text-anchor="middle" x="685.5" y="8393.066118843288">
9
</text>
<text font-size="130.18891098082386" text-anchor="middle" x="5896" y="1152.5661188432885">
10
</text>
<text font-size="130.18891098082386" text-anchor="middle" x="3855" y="6712.566118843289">
11
</text>
<text font-size="130.18891098082386" text-anchor="middle" x="4118" y="7095.566118843289">
12
</text>
<text font-size="130.18891098082386" text-anchor="middle" x="9905" y="6011.566118843289">
13
</text>
<text font-size="130.18891098082386" text-anchor="middle" x="487" y="9424.066118843288">
14
</text>
<text font-size="130.18891098082386" text-anchor="middle" x="7155" y="5781.566118843289">
15
</text>
<text font-size="130.18891098082386" text-anchor="middle" x="6365" y="3841.566118843288">
16
</text>
<text font-size="130.18891098082386" text-anchor="middle" x="1571" y="5590.566118843289">
17
</text>
<text font-size="130.18891098082386" text-anchor="middle" x="7596" y="5147.566118843289">
18
</text>
<text font-size="130.18891098082386" text-anchor="middle" x="3409" y="6196.566118843289">
19
</text>
<text font-size="130.18891098082386" text-anchor="middle" x="6853" y="3707.566118843288">
20
</text>
<text font-size="130.18891098082386" text-anchor="middle" x="2789" y="8644.566118843288">
21
</text>
<text font-size="130.18891098082386" text-anchor="middle" x="6603.5" y="1215.0661188432885">
22
</text>
<text font-size="130.18891098082386" text-anchor="middle" x="8857" y="6903.566118843289">
23
</text>
<text font-size="130.18891098082386" text-anchor="middle" x="7223" y="5101.566118843289">
24
</text>
<text font-size="130.18891098082386" text-anchor="middle" x="5586" y="5110.566118843289">
25
</text>
<text font-size="130.18891098082386" text-anchor="middle" x="4331" y="9400.566118843288">
26
</text>
<text font-size="130.18891098082386" text-anchor="middle" x="1043.5" y="3381.066118843288">
27
</text>
<text font-size="130.18891098082386" text-anchor="middle" x="2561" y="6890.566118843289">
28
</text>
<text font-size="130.18891098082386" text-anchor="middle" x="6245" y="274.56611884328834">
29
</text>
<text font-size="130.18891098082386" text-anchor="middle" x="8771" y="2054.566118843288">
30
</text>
<text font-size="130.18891098082386" text-anchor="middle" x="5735" y="5503.566118843289">
31
</text>
<text font-size="130.18891098082386" text-anchor="middle" x="8043" y="3655.566118843288">
32
</text>
<text font-size="130.18891098082386" text-anchor="middle" x="3867" y="3702.566118843288">
33
</text>
<text font-size="130.18891098082386" text-anchor="middle" x="5601" y="6866.566118843289">
34
</text>
<text font-size="130.18891098082386" text-anchor="middle" x="2469" y="1678.5661188432885">
35
</text>
<text font-size="130.18891098082386" text-anchor="middle" x="2395" y="3867.566118843288">
36
</text>
<text font-size="130.18891098082386" text-anchor="middle" x="5539" y="2008.5661188432885">
37
</text>
<text font-size="130.18891098082386" text-anchor="middle" x="5393" y="1773.5661188432885">
38
</text>
<text font-size="130.18891098082386" text-anchor="middle" x="4379" y="6760.566118843289">
39
</text>
<text font-size="130.18891098082386" text-anchor="middle" x="4266" y="8306.566118843288">
40
</text>
<text font-size="130.18891098082386" text-anchor="middle" x="4706" y="4752.566118843289">
41
</text>
<text font-size="130.18891098082386" text-anchor="middle" x="557" y="9577.566118843288">
42
</text>
<text font-size="130.18891098082386" text-anchor="middle" x="8092" y="9335.566118843288">
43
</text>
<text font-size="130.18891098082386" text-anchor="middle" x="5487" y="6824.566118843289">
44
</text>
<text font-size="130.18891098082386" text-anchor="middle" x="6501" y="7257.566118843289">
45
</text>
<text font-size="130.18891098082386" text-anchor="middle" x="2191" y="2354.566118843288">
46
</text>
<text font-size="130.18891098082386" text-anchor="middle" x="8036" y="7734.566118843289">
47
</text>
<text font-size="130.18891098082386" text-anchor="middle" x="4752.5" y="3313.066118843288">
48
</text>
<text font-size="130.18891098082386" text-anchor="middle" x="6589" y="6999.566118843289">
49
</text>
<text font-size="130.18891098082386" text-anchor="middle" x="6262" y="876.5661188432883">
50
</text>
<text font-size="130.18891098082386" text-anchor="middle" x="3801.5" y="3344.066118843288">
51
</text>
<text font-size="130.18891098082386" text-anchor="middle" x="2216" y="7389.566118843289">
52
</text>
<text font-size="130.18891098082386" text-anchor="middle" x="9317" y="5002.566118843289">
53
</text>
<text font-size="130.18891098082386" text-anchor="middle" x="8885" y="5248.566118843289">
54
</text>
<text font-size="130.18891098082386" text-anchor="middle" x="5899" y="5135.566118843289">
55
</text>
<text font-size="130.18891098082386" text-anchor="middle" x="2331" y="3604.566118843288">
56
</text>
<text font-size="130.18891098082386" text-anchor="middle" x="7954" y="1629.5661188432885">
57
</text>
<text font-size="130.18891098082386" text-anchor="middle" x="511" y="2036.5661188432885">
58
</text>
<text font-size="130.18891098082386" text-anchor="middle" x="850.5" y="8736.066118843288">
59
</text>
<text font-size="130.18891098082386" text-anchor="middle" x="2464" y="1770.5661188432885">
60
</text>
<text font-size="130.18891098082386" text-anchor="middle" x="6458" y="1816.5661188432885">
61
</text>
<text font-size="130.18891098082386" text-anchor="middle" x="1786" y="3606.566118843288">
62
</text>
<text font-size="130.18891098082386" text-anchor="middle" x="9979" y="5672.566118843289">
63
</text>
<text font-size="130.18891098082386" text-anchor="middle" x="3173" y="3767.566118843288">
64
</text>
<text font-size="130.18891098082386" text-anchor="middle" x="5931" y="683.5661188432883">
65
</text>
<text font-size="130.18891098082386" text-anchor="middle" x="198.5" y="8428.066118843288">
66
</text>
<text font-size="130.18891098082386" text-anchor="middle" x="4316" y="3784.566118843288">
67
</text>
<text font-size="130.18891098082386" text-anchor="middle" x="2462" y="8721.566118843288">
68
</text>
<text font-size="130.18891098082386" text-anchor="middle" x="7557" y="1191.5661188432885">
69
</text>
<text font-size="130.18891098082386" text-anchor="middle" x="9231" y="4831.566118843289">
70
</text>
<text font-size="130.18891098082386" text-anchor="middle" x="8564" y="5492.566118843289">
71
</text>
<text font-size="130.18891098082386" text-anchor="middle" x="9940.5" y="849.0661188432883">
72
</text>
<text font-size="130.18891098082386" text-anchor="middle" x="2874" y="8544.566118843288">
73
</text>
<text font-size="130.18891098082386" text-anchor="middle" x="1025" y="9463.566118843288">
74
</text>
<text font-size="130.18891098082386" text-anchor="middle" x="5676" y="8573.566118843288">
75
</text>
<text font-size="130.18891098082386" text-anchor="middle" x="9952" y="1061.5661188432885">
76
</text>
<text font-size="130.18891098082386" text-anchor="middle" x="3037.5" y="3235.066118843288">
77
</text>
<text font-size="130.18891098082386" text-anchor="middle" x="6952" y="465.56611884328834">
78
</text>
<text font-size="130.18891098082386" text-anchor="middle" x="3973" y="5635.566118843289">
79
</text>
<text font-size="130.18891098082386" text-anchor="middle" x="7936" y="6389.566118843289">
80
</text>
<text font-size="130.18891098082386" text-anchor="middle" x="3308.5" y="3442.066118843288">
81
</text>
<text font-size="130.18891098082386" text-anchor="middle" x="9193" y="7246.566118843289">
82
</text>
<text font-size="130.18891098082386" text-anchor="middle" x="7824" y="5335.566118843289">
83
</text>
<text font-size="130.18891098082386" text-anchor="middle" x="3086" y="6117.566118843289">
84
</text>
<text font-size="130.18891098082386" text-anchor="middle" x="2992" y="3127.566118843288">
85
</text>
<text font-size="130.18891098082386" text-anchor="middle" x="7412" y="339.56611884328834">
86
</text>
<text font-size="130.18891098082386" text-anchor="middle" x="9593" y="399.56611884328834">
87
</text>
<text font-size="130.18891098082386" text-anchor="middle" x="6537" y="4950.566118843289">
88
</text>
<text font-size="130.18891098082386" text-anchor="middle" x="6628.5" y="3489.066118843288">
89
</text>
<text font-size="130.18891098082386" text-anchor="middle" x="810" y="3129.566118843288">
90
</text>
<text font-size="130.18891098082386" text-anchor="middle" x="2735" y="2004.5661188432885">
91
</text>
<text font-size="130.18891098082386" text-anchor="middle" x="9027" y="8885.566118843288">
92
</text>
<text font-size="130.18891098082386" text-anchor="middle" x="2628" y="4499.566118843289">
93
</text>
<text font-size="130.18891098082386" text-anchor="middle" x="8394" y="9203.566118843288">
94
</text>
<text font-size="130.18891098082386" text-anchor="middle" x="2438" y="1667.5661188432885">
95
</text>
<text font-size="130.18891098082386" text-anchor="middle" x="6065.5" y="3310.066118843288">
96
</text>
<text font-size="130.18891098082386" text-anchor="middle" x="2679" y="8806.566118843288">
97
</text>
<text font-size="130.18891098082386" text-anchor="middle" x="9672" y="8245.566118843288">
98
</text>
<text font-size="130.18891098082386" text-anchor="middle" x="7497" y="9688.566118843288">
99
</text>
<text font-size="130.18891098082386" text-anchor="middle" x="2986" y="6903.566118843289">
100
</text>
<text font-size="130.18891098082386" text-anchor="middle" x="2082" y="6490.566118843289">
101
</text>
<text font-size="130.18891098082386" text-anchor="middle" x="9904" y="2160.566118843288">
102
</text>
<text font-size="130.18891098082386" text-anchor="middle" x="9112" y="3424.566118843288">
103
</text>
<text font-size="130.18891098082386" text-anchor="middle" x="9177" y="8655.566118843288">
104
</text>
<text font-size="130.18891098082386" text-anchor="middle" x="2753" y="1604.0661188432885">
105
</text>
<text font-size="130.18891098082386" text-anchor="middle" x="8850" y="2274.066118843288">
106
</text>
<text font-size="130.18891098082386" text-anchor="middle" x="606" y="2721.566118843288">
107
</text>
<text font-size="130.18891098082386" text-anchor="middle" x="9750" y="2136.566118843288">
108
</text>
<text font-size="130.18891098082386" text-anchor="middle" x="1245" y="2317.566118843288">
109
</text>
<text font-size="130.18891098082386" text-anchor="middle" x="6972.5" y="2446.066118843288">
110
</text>
<text font-size="130.18891098082386" text-anchor="middle" x="8970" y="2756.566118843288">
111
</text>
<text font-size="130.18891098082386" text-anchor="middle" x="4833" y="3826.566118843288">
112
</text>
<text font-size="130.18891098082386" text-anchor="middle" x="7790" y="5666.566118843289">
113
</text>
<text font-size="130.18891098082386" text-anchor="middle" x="5647" y="8425.566118843288">
114
</text>
<text font-size="130.18891098082386" text-anchor="middle" x="139" y="687.5661188432883">
115
</text>
<text font-size="130.18891098082386" text-anchor="middle" x="199.5" y="3521.066118843288">
116
</text>
<text font-size="130.18891098082386" text-anchor="middle" x="2677" y="91.56611884328835">
117
</text>
</svg>