<svg viewBox="0 0 10000 10000" xmlns="http://www.w3.org/2000/svg">
<path d="M0,0 l10000,0 l0,10000 l-10000,0 z" fill="white"/>
<path d="M4141,9626 l389,0 l0,374 l-389,0 z" fill="#ff00f5" stroke="black" stroke-width="5"/>
<path d="M0,6176 l613,0 l0,3824 l-613,0 z" fill="#ba00ff" stroke="black" stroke-width="5"/>
<path d="M1545,4783 l773,0 l0,919 l-773,0 z" fill="#ff00e7" stroke="black" stroke-width="5"/>
<path d="M1367,743 l2003,0 l0,904 l-2003,0 z" fill="#ff00fa" stroke="black" stroke-width="5"/>
<path d="M2055,162 l1315,0 l0,581 l-1315,0 z" fill="#7c00ff" stroke="black" stroke-width="5"/>
<path d="M6014,7190 l872,0 l0,951 l-872,0 z" fill="#ff00f5" stroke="black" stroke-width="5"/>
<path d="M6315,0 l1340,0 l0,1805 l-1340,0 z" fill="#ff00fb" stroke="black" stroke-width="5"/>
<path d="M707,5145 l838,0 l0,1036 l-838,0 z" fill="#2600ff" stroke="black" stroke-width="5"/>
<path d="M7787,7167 l2213,0 l0,526 l-2213,0 z" fill="#8d00ff" stroke="black" stroke-width="5"/>
<path d="M5621,489 l179,0 l0,179 l-179,0 z" fill="#ff00fd" stroke="black" stroke-width="5"/>
<path d="M2448,1647 l1489,0 l0,1393 l-1489,0 z" fill="#4b00ff" stroke="black" stroke-width="5"/>
<path d="M781,9080 l437,0 l0,437 l-437,0 z" fill="#ff00f4" stroke="black" stroke-width="5"/>
<path d="M6921,3955 l3079,0 l0,1145 l-3079,0 z" fill="#ea00ff" stroke="black" stroke-width="5"/>
<path d="M3440,7872 l577,0 l0,577 l-577,0 z" fill="#ff00fa" stroke="black" stroke-width="5"/>
<path d="M6674,8467 l86,0 l0,87 l-86,0 z" fill="#ff00fe" stroke="black" stroke-width="5"/>
<path d="M3425,3732 l927,0 l0,2305 l-927,0 z" fill="#e500ff" stroke="black" stroke-width="5"/>
<path d="M4354,4566 l1136,0 l0,1136 l-1136,0 z" fill="#ff00fd" stroke="black" stroke-width="5"/>
<path d="M9482,9694 l319,0 l0,306 l-319,0 z" fill="#ff00f1" stroke="black" stroke-width="5"/>
<path d="M1786,465 l269,0 l0,269 l-269,0 z" fill="#ff00e7" stroke="black" stroke-width="5"/>
<path d="M4850,5881 l772,0 l0,1690 l-772,0 z" fill="#ff00fd" stroke="black" stroke-width="5"/>
<path d="M6947,2796 l740,0 l0,1159 l-740,0 z" fill="#ff00fe" stroke="black" stroke-width="5"/>
<path d="M2003,2232 l445,0 l0,445 l-445,0 z" fill="#ff00f5" stroke="black" stroke-width="5"/>
<path d="M7803,5100 l1323,0 l0,950 l-1323,0 z" fill="#ff00f7" stroke="black" stroke-width="5"/>
<path d="M4599,5881 l251,0 l0,4119 l-251,0 z" fill="#4400ff" stroke="black" stroke-width="5"/>
<path d="M613,8588 l1554,0 l0,492 l-1554,0 z" fill="#6100ff" stroke="black" stroke-width="5"/>
<path d="M2369,4276 l1056,0 l0,1761 l-1056,0 z" fill="#ff00fc" stroke="black" stroke-width="5"/>
<path d="M6886,7167 l901,0 l0,1004 l-901,0 z" fill="#6000ff" stroke="black" stroke-width="5"/>
<path d="M613,7479 l851,0 l0,1109 l-851,0 z" fill="#fc00ff" stroke="black" stroke-width="5"/>
<path d="M5224,2523 l1151,0 l0,1973 l-1151,0 z" fill="#ff00fe" stroke="black" stroke-width="5"/>
<path d="M2167,8463 l1974,0 l0,1537 l-1974,0 z" fill="#fe00ff" stroke="black" stroke-width="5"/>
<path d="M5682,5671 l451,0 l0,529 l-451,0 z" fill="#ff00f2" stroke="black" stroke-width="5"/>
<path d="M6598,8171 l837,0 l0,292 l-837,0 z" fill="#ff00fc" stroke="black" stroke-width="5"/>
<path d="M4352,5702 l1330,0 l0,179 l-1330,0 z" fill="#0600ff" stroke="black" stroke-width="5"/>
<path d="M5247,697 l1068,0 l0,1708 l-1068,0 z" fill="#ff00fb" stroke="black" stroke-width="5"/>
<path d="M3370,211 l1128,0 l0,1368 l-1128,0 z" fill="#5200ff" stroke="black" stroke-width="5"/>
<path d="M0,936 l667,0 l0,5240 l-667,0 z" fill="#ff00fe" stroke="black" stroke-width="5"/>
<path d="M4352,2608 l872,0 l0,1958 l-872,0 z" fill="#4c00ff" stroke="black" stroke-width="5"/>
<path d="M3937,1579 l1118,0 l0,1029 l-1118,0 z" fill="#ff00f5" stroke="black" stroke-width="5"/>
<path d="M7704,1378 l2296,0 l0,1726 l-2296,0 z" fill="#ff00fe" stroke="black" stroke-width="5"/>
<path d="M7687,3104 l2313,0 l0,851 l-2313,0 z" fill="#3a00ff" stroke="black" stroke-width="5"/>
<path d="M4498,0 l749,0 l0,1458 l-749,0 z" fill="#1300ff" stroke="black" stroke-width="5"/>
<path d="M7787,7693 l1352,0 l0,1204 l-1352,0 z" fill="#ff00f7" stroke="black" stroke-width="5"/>
<path d="M634,6181 l2265,0 l0,1298 l-2265,0 z" fill="#ff00fc" stroke="black" stroke-width="5"/>
<path d="M2899,6037 l1700,0 l0,1811 l-1700,0 z" fill="#df00ff" stroke="black" stroke-width="5"/>
<path d="M6919,9082 l415,0 l0,415 l-415,0 z" fill="#ff00f2" stroke="black" stroke-width="5"/>
<path d="M3324,3040 l909,0 l0,692 l-909,0 z" fill="#ff00f6" stroke="black" stroke-width="5"/>
<path d="M8565,9796 l143,0 l0,143 l-143,0 z" fill="#ff00ee" stroke="black" stroke-width="5"/>
<path d="M7502,6451 l849,0 l0,716 l-849,0 z" fill="#ff00e7" stroke="black" stroke-width="5"/>
<path d="M0,0 l4498,0 l0,162 l-4498,0 z" fill="#0a00ff" stroke="black" stroke-width="5"/>
<path d="M673,4661 l654,0 l0,484 l-654,0 z" fill="#ff00f6" stroke="black" stroke-width="5"/>
<path d="M6406,3798 l515,0 l0,515 l-515,0 z" fill="#ff00f8" stroke="black" stroke-width="5"/>
<path d="M1464,7479 l1435,0 l0,984 l-1435,0 z" fill="#e900ff" stroke="black" stroke-width="5"/>
<path d="M4305,9790 l60,0 l0,60 l-60,0 z" fill="green"/>
<path d="M4335,9820 l0.5,-7" stroke="black" stroke-width="5"/>
<path d="M29,8198 l60,0 l0,60 l-60,0 z" fill="green"/>
<path d="M59,8228 l247.5,-140" stroke="black" stroke-width="5"/>
<path d="M1828,5212 l60,0 l0,60 l-60,0 z" fill="green"/>
<path d="M1858,5242 l73.5,0.5" stroke="black" stroke-width="5"/>
<path d="M2338,1087 l60,0 l0,60 l-60,0 z" fill="green"/>
<path d="M2368,1117 l0.5,78" stroke="black" stroke-width="5"/>
<path d="M2477,530 l60,0 l0,60 l-60,0 z" fill="green"/>
<path d="M2507,560 l205.5,-107.5" stroke="black" stroke-width="5"/>
<path d="M6503,7679 l60,0 l0,60 l-60,0 z" fill="green"/>
<path d="M6533,7709 l-83,-43.5" stroke="black" stroke-width="5"/>
<path d="M6710,860 l60,0 l0,60 l-60,0 z" fill="green"/>
<path d="M6740,890 l245,12.5" stroke="black" stroke-width="5"/>
<path d="M1438,5634 l60,0 l0,60 l-60,0 z" fill="green"/>
<path d="M1468,5664 l-342,-1" stroke="black" stroke-width="5"/>
<path d="M8266,7240 l60,0 l0,60 l-60,0 z" fill="green"/>
<path d="M8296,7270 l597.5,160" stroke="black" stroke-width="5"/>
<path d="M5680,548 l60,0 l0,60 l-60,0 z" fill="green"/>
<path d="M5710,578 l0.5,0.5" stroke="black" stroke-width="5"/>
<path d="M3214,2300 l60,0 l0,60 l-60,0 z" fill="green"/>
<path d="M3244,2330 l-51.5,13.5" stroke="black" stroke-width="5"/>
<path d="M969,9268 l60,0 l0,60 l-60,0 z" fill="green"/>
<path d="M999,9298 l0.5,0.5" stroke="black" stroke-width="5"/>
<path d="M8352,4995 l60,0 l0,60 l-60,0 z" fill="green"/>
<path d="M8382,5025 l78.5,-497.5" stroke="black" stroke-width="5"/>
<path d="M3698,8130 l60,0 l0,60 l-60,0 z" fill="green"/>
<path d="M3728,8160 l0.5,0.5" stroke="black" stroke-width="5"/>
<path d="M6687,8480 l60,0 l0,60 l-60,0 z" fill="green"/>
<path d="M6717,8510 l0,0.5" stroke="black" stroke-width="5"/>
<path d="M3421,5497 l60,0 l0,60 l-60,0 z" fill="green"/>
<path d="M3451,5527 l437.5,-642.5" stroke="black" stroke-width="5"/>
<path d="M4653,5254 l60,0 l0,60 l-60,0 z" fill="green"/>
<path d="M4683,5284 l239,-150" stroke="black" stroke-width="5"/>
<path d="M9611,9823 l60,0 l0,60 l-60,0 z" fill="green"/>
<path d="M9641,9853 l0.5,-6" stroke="black" stroke-width="5"/>
<path d="M1890,569 l60,0 l0,60 l-60,0 z" fill="green"/>
<path d="M1920,599 l0.5,0.5" stroke="black" stroke-width="5"/>
<path d="M5533,5909 l60,0 l0,60 l-60,0 z" fill="green"/>
<path d="M5563,5939 l-327,787" stroke="black" stroke-width="5"/>
<path d="M7376,3428 l60,0 l0,60 l-60,0 z" fill="green"/>
<path d="M7406,3458 l-89,-82.5" stroke="black" stroke-width="5"/>
<path d="M2195,2424 l60,0 l0,60 l-60,0 z" fill="green"/>
<path d="M2225,2454 l0.5,0.5" stroke="black" stroke-width="5"/>
<path d="M8434,5358 l60,0 l0,60 l-60,0 z" fill="green"/>
<path d="M8464,5388 l0.5,187" stroke="black" stroke-width="5"/>
<path d="M4758,6442 l60,0 l0,60 l-60,0 z" fill="green"/>
<path d="M4788,6472 l-63.5,1468.5" stroke="black" stroke-width="5"/>
<path d="M1420,8645 l60,0 l0,60 l-60,0 z" fill="green"/>
<path d="M1450,8675 l-60,159" stroke="black" stroke-width="5"/>
<path d="M3367,5448 l60,0 l0,60 l-60,0 z" fill="green"/>
<path d="M3397,5478 l-500,-321.5" stroke="black" stroke-width="5"/>
<path d="M7349,8003 l60,0 l0,60 l-60,0 z" fill="green"/>
<path d="M7379,8033 l-42.5,-364" stroke="black" stroke-width="5"/>
<path d="M913,8220 l60,0 l0,60 l-60,0 z" fill="green"/>
<path d="M943,8250 l95.5,-216.5" stroke="black" stroke-width="5"/>
<path d="M5617,3479 l60,0 l0,60 l-60,0 z" fill="green"/>
<path d="M5647,3509 l152.5,0.5" stroke="black" stroke-width="5"/>
<path d="M3184,9289 l60,0 l0,60 l-60,0 z" fill="green"/>
<path d="M3214,9319 l-60,-87.5" stroke="black" stroke-width="5"/>
<path d="M5838,5905 l60,0 l0,60 l-60,0 z" fill="green"/>
<path d="M5868,5935 l39.5,0.5" stroke="black" stroke-width="5"/>
<path d="M6986,8195 l60,0 l0,60 l-60,0 z" fill="green"/>
<path d="M7016,8225 l0.5,92" stroke="black" stroke-width="5"/>
<path d="M5185,5736 l60,0 l0,60 l-60,0 z" fill="green"/>
<path d="M5215,5766 l-198,25.5" stroke="black" stroke-width="5"/>
<path d="M5645,1095 l60,0 l0,60 l-60,0 z" fill="green"/>
<path d="M5675,1125 l106,426" stroke="black" stroke-width="5"/>
<path d="M4404,1456 l60,0 l0,60 l-60,0 z" fill="green"/>
<path d="M4434,1486 l-500,-591" stroke="black" stroke-width="5"/>
<path d="M103,4817 l60,0 l0,60 l-60,0 z" fill="green"/>
<path d="M133,4847 l200.5,-1291" stroke="black" stroke-width="5"/>
<path d="M5093,3770 l60,0 l0,60 l-60,0 z" fill="green"/>
<path d="M5123,3800 l-335,-213" stroke="black" stroke-width="5"/>
<path d="M4410,1963 l60,0 l0,60 l-60,0 z" fill="green"/>
<path d="M4440,1993 l56,100.5" stroke="black" stroke-width="5"/>
<path d="M9015,3018 l60,0 l0,60 l-60,0 z" fill="green"/>
<path d="M9045,3048 l-193,-807" stroke="black" stroke-width="5"/>
<path d="M8960,3194 l60,0 l0,60 l-60,0 z" fill="green"/>
<path d="M8990,3224 l-146.5,305.5" stroke="black" stroke-width="5"/>
<path d="M5146,511 l60,0 l0,60 l-60,0 z" fill="green"/>
<path d="M5176,541 l-303.5,188" stroke="black" stroke-width="5"/>
<path d="M8111,7869 l60,0 l0,60 l-60,0 z" fill="green"/>
<path d="M8141,7899 l322,396" stroke="black" stroke-width="5"/>
<path d="M1695,6898 l60,0 l0,60 l-60,0 z" fill="green"/>
<path d="M1725,6928 l41.5,-98" stroke="black" stroke-width="5"/>
<path d="M3880,6602 l60,0 l0,60 l-60,0 z" fill="green"/>
<path d="M3910,6632 l-161,310.5" stroke="black" stroke-width="5"/>
<path d="M7096,9259 l60,0 l0,60 l-60,0 z" fill="green"/>
<path d="M7126,9289 l0.5,0.5" stroke="black" stroke-width="5"/>
<path d="M3748,3247 l60,0 l0,60 l-60,0 z" fill="green"/>
<path d="M3778,3277 l0.5,109" stroke="black" stroke-width="5"/>
<path d="M8606,9837 l60,0 l0,60 l-60,0 z" fill="green"/>
<path d="M8636,9867 l0.5,0.5" stroke="black" stroke-width="5"/>
<path d="M7896,6845 l60,0 l0,60 l-60,0 z" fill="green"/>
<path d="M7926,6875 l0.5,-66" stroke="black" stroke-width="5"/>
<path d="M2478,44 l60,0 l0,60 l-60,0 z" fill="green"/>
<path d="M2508,74 l-259,7" stroke="black" stroke-width="5"/>
<path d="M935,4992 l60,0 l0,60 l-60,0 z" fill="green"/>
<path d="M965,5022 l35,-119" stroke="black" stroke-width="5"/>
<path d="M6633,4025 l60,0 l0,60 l-60,0 z" fill="green"/>
<path d="M6663,4055 l0.5,0.5" stroke="black" stroke-width="5"/>
<path d="M1833,8376 l60,0 l0,60 l-60,0 z" fill="green"/>
<path d="M1863,8406 l318.5,-435" stroke="black" stroke-width="5"/>
<text font-size="196.116135138184" text-anchor="middle" x="4335.5" y="9881.640647298364">
0
</text>
<text font-size="196.116135138184" text-anchor="middle" x="306.5" y="8156.6406472983645">
1
</text>
<text font-size="196.116135138184" text-anchor="middle" x="1931.5" y="5311.1406472983645">
2
</text>
<text font-size="196.116135138184" text-anchor="middle" x="2368.5" y="1263.6406472983645">
3
</text>
<text font-size="196.116135138184" text-anchor="middle" x="2712.5" y="521.1406472983645">
4
</text>
<text font-size="196.116135138184" text-anchor="middle" x="6450" y="7734.1406472983645">
5
</text>
<text font-size="196.116135138184" text-anchor="middle" x="6985" y="971.1406472983645">
6
</text>
<text font-size="196.116135138184" text-anchor="middle" x="1126" y="5731.6406472983645">
7
</text>
<text font-size="196.116135138184" text-anchor="middle" x="8893.5" y="7498.6406472983645">
8
</text>
<text font-size="196.116135138184" text-anchor="middle" x="5710.5" y="647.1406472983645">
9
</text>
<text font-size="196.116135138184" text-anchor="middle" x="3192.5" y="2412.1406472983645">
10
</text>
<text font-size="196.116135138184" text-anchor="middle" x="999.5" y="9367.140647298364">
11
</text>
<text font-size="196.116135138184" text-anchor="middle" x="8460.5" y="4596.1406472983645">
12
</text>
<text font-size="196.116135138184" text-anchor="middle" x="3728.5" y="8229.140647298364">
13
</text>
<text font-size="196.116135138184" text-anchor="middle" x="6717" y="8579.140647298364">
14
</text>
<text font-size="196.116135138184" text-anchor="middle" x="3888.5" y="4953.1406472983645">
15
</text>
<text font-size="196.116135138184" text-anchor="middle" x="4922" y="5202.6406472983645">
16
</text>
<text font-size="196.116135138184" text-anchor="middle" x="9641.5" y="9915.640647298364">
17
</text>
<text font-size="196.116135138184" text-anchor="middle" x="1920.5" y="668.1406472983645">
18
</text>
<text font-size="196.116135138184" text-anchor="middle" x="5236" y="6794.6406472983645">
19
</text>
<text font-size="196.116135138184" text-anchor="middle" x="7317" y="3444.1406472983645">
20
</text>
<text font-size="196.116135138184" text-anchor="middle" x="2225.5" y="2523.1406472983645">
21
</text>
<text font-size="196.116135138184" text-anchor="middle" x="8464.5" y="5643.6406472983645">
22
</text>
<text font-size="196.116135138184" text-anchor="middle" x="4724.5" y="8009.1406472983645">
23
</text>
<text font-size="196.116135138184" text-anchor="middle" x="1390" y="8902.640647298364">
24
</text>
<text font-size="196.116135138184" text-anchor="middle" x="2897" y="5225.1406472983645">
25
</text>
<text font-size="196.116135138184" text-anchor="middle" x="7336.5" y="7737.6406472983645">
26
</text>
<text font-size="196.116135138184" text-anchor="middle" x="1038.5" y="8102.1406472983645">
27
</text>
<text font-size="196.116135138184" text-anchor="middle" x="5799.5" y="3578.1406472983645">
28
</text>
<text font-size="196.116135138184" text-anchor="middle" x="3154" y="9300.140647298364">
29
</text>
<text font-size="196.116135138184" text-anchor="middle" x="5907.5" y="6004.1406472983645">
30
</text>
<text font-size="196.116135138184" text-anchor="middle" x="7016.5" y="8385.640647298364">
31
</text>
<text font-size="196.116135138184" text-anchor="middle" x="5017" y="5860.1406472983645">
32
</text>
<text font-size="196.116135138184" text-anchor="middle" x="5781" y="1619.6406472983645">
33
</text>
<text font-size="196.116135138184" text-anchor="middle" x="3934" y="963.6406472983645">
34
</text>
<text font-size="196.116135138184" text-anchor="middle" x="333.5" y="3624.6406472983645">
35
</text>
<text font-size="196.116135138184" text-anchor="middle" x="4788" y="3655.6406472983645">
36
</text>
<text font-size="196.116135138184" text-anchor="middle" x="4496" y="2162.1406472983645">
37
</text>
<text font-size="196.116135138184" text-anchor="middle" x="8852" y="2309.6406472983645">
38
</text>
<text font-size="196.116135138184" text-anchor="middle" x="8843.5" y="3598.1406472983645">
39
</text>
<text font-size="196.116135138184" text-anchor="middle" x="4872.5" y="797.6406472983645">
40
</text>
<text font-size="196.116135138184" text-anchor="middle" x="8463" y="8363.640647298364">
41
</text>
<text font-size="196.116135138184" text-anchor="middle" x="1766.5" y="6898.6406472983645">
42
</text>
<text font-size="196.116135138184" text-anchor="middle" x="3749" y="7011.1406472983645">
43
</text>
<text font-size="196.116135138184" text-anchor="middle" x="7126.5" y="9358.140647298364">
44
</text>
<text font-size="196.116135138184" text-anchor="middle" x="3778.5" y="3454.6406472983645">
45
</text>
<text font-size="196.116135138184" text-anchor="middle" x="8636.5" y="9936.140647298364">
46
</text>
<text font-size="196.116135138184" text-anchor="middle" x="7926.5" y="6877.6406472983645">
47
</text>
<text font-size="196.116135138184" text-anchor="middle" x="2249" y="149.6406472983644">
48
</text>
<text font-size="196.116135138184" text-anchor="middle" x="1000" y="4971.6406472983645">
49
</text>
<text font-size="196.116135138184" text-anchor="middle" x="6663.5" y="4124.1406472983645">
50
</text>
<text font-size="196.116135138184" text-anchor="middle" x="2181.5" y="8039.6406472983645">
51
</text>
</svg>