<svg viewBox="0 0 10000 10000" xmlns="http://www.w3.org/2000/svg">
<path d="M0,0 l10000,0 l0,10000 l-10000,0 z" fill="white"/>
<path d="M5840,1053 l955,0 l0,478 l-955,0 z" fill="#7f00ff" stroke="black" stroke-width="5"/>
<path d="M0,4725 l1152,0 l0,743 l-1152,0 z" fill="#5300ff" stroke="black" stroke-width="5"/>
<path d="M7672,1640 l359,0 l0,180 l-359,0 z" fill="#7f00ff" stroke="black" stroke-width="5"/>
<path d="M5508,1210 l1649,0 l0,825 l-1649,0 z" fill="#7f00ff" stroke="black" stroke-width="5"/>
<path d="M4194,571 l423,0 l0,212 l-423,0 z" fill="#8000ff" stroke="black" stroke-width="5"/>
<path d="M4940,5619 l1171,0 l0,586 l-1171,0 z" fill="#7f00ff" stroke="black" stroke-width="5"/>
<path d="M8589,5429 l423,0 l0,212 l-423,0 z" fill="#7f00ff" stroke="black" stroke-width="5"/>
<path d="M8485,3664 l751,0 l0,376 l-751,0 z" fill="#7f00ff" stroke="black" stroke-width="5"/>
<path d="M3370,8226 l291,0 l0,146 l-291,0 z" fill="#7e00ff" stroke="black" stroke-width="5"/>
<path d="M150,7812 l1073,0 l0,537 l-1073,0 z" fill="#8000ff" stroke="black" stroke-width="5"/>
<path d="M5578,840 l637,0 l0,268 l-637,0 z" fill="#5f00ff" stroke="black" stroke-width="5"/>
<path d="M3704,6516 l303,0 l0,152 l-303,0 z" fill="#8100ff" stroke="black" stroke-width="5"/>
<path d="M3837,6769 l563,0 l0,282 l-563,0 z" fill="#8000ff" stroke="black" stroke-width="5"/>
<path d="M9431,5492 l569,0 l0,475 l-569,0 z" fill="#3400ff" stroke="black" stroke-width="5"/>
<path d="M0,8707 l1152,0 l0,673 l-1152,0 z" fill="#6300ff" stroke="black" stroke-width="5"/>
<path d="M6831,5412 l649,0 l0,325 l-649,0 z" fill="#8000ff" stroke="black" stroke-width="5"/>
<path d="M6264,3695 l203,0 l0,102 l-203,0 z" fill="#8100ff" stroke="black" stroke-width="5"/>
<path d="M1337,5311 l469,0 l0,235 l-469,0 z" fill="#8000ff" stroke="black" stroke-width="5"/>
<path d="M7272,4778 l649,0 l0,325 l-649,0 z" fill="#7f00ff" stroke="black" stroke-width="5"/>
<path d="M2777,5519 l1265,0 l0,633 l-1265,0 z" fill="#7f00ff" stroke="black" stroke-width="5"/>
<path d="M6442,3251 l823,0 l0,412 l-823,0 z" fill="#8000ff" stroke="black" stroke-width="5"/>
<path d="M2257,8067 l1065,0 l0,533 l-1065,0 z" fill="#7f00ff" stroke="black" stroke-width="5"/>
<path d="M5732,1170 l1745,0 l0,762 l-1745,0 z" fill="#6600ff" stroke="black" stroke-width="5"/>
<path d="M8563,6564 l589,0 l0,295 l-589,0 z" fill="#8000ff" stroke="black" stroke-width="5"/>
<path d="M6803,4636 l841,0 l0,421 l-841,0 z" fill="#7f00ff" stroke="black" stroke-width="5"/>
<path d="M5528,5007 l117,0 l0,59 l-117,0 z" fill="#7e00ff" stroke="black" stroke-width="5"/>
<path d="M3450,8474 l1763,0 l0,882 l-1763,0 z" fill="#7f00ff" stroke="black" stroke-width="5"/>
<path d="M683,2975 l723,0 l0,362 l-723,0 z" fill="#8000ff" stroke="black" stroke-width="5"/>
<path d="M2015,6299 l1093,0 l0,547 l-1093,0 z" fill="#8000ff" stroke="black" stroke-width="5"/>
<path d="M5815,229 l861,0 l0,431 l-861,0 z" fill="#7f00ff" stroke="black" stroke-width="5"/>
<path d="M8069,2009 l1405,0 l0,595 l-1405,0 z" fill="#6000ff" stroke="black" stroke-width="5"/>
<path d="M5478,5201 l515,0 l0,258 l-515,0 z" fill="#7f00ff" stroke="black" stroke-width="5"/>
<path d="M7590,3157 l907,0 l0,454 l-907,0 z" fill="#7f00ff" stroke="black" stroke-width="5"/>
<path d="M3523,3313 l689,0 l0,345 l-689,0 z" fill="#7f00ff" stroke="black" stroke-width="5"/>
<path d="M5442,6662 l319,0 l0,160 l-319,0 z" fill="#8000ff" stroke="black" stroke-width="5"/>
<path d="M2024,1633 l891,0 l0,446 l-891,0 z" fill="#8000ff" stroke="black" stroke-width="5"/>
<path d="M2220,3647 l351,0 l0,176 l-351,0 z" fill="#8000ff" stroke="black" stroke-width="5"/>
<path d="M5029,1963 l1021,0 l0,511 l-1021,0 z" fill="#7f00ff" stroke="black" stroke-width="5"/>
<path d="M5190,1728 l407,0 l0,204 l-407,0 z" fill="#8000ff" stroke="black" stroke-width="5"/>
<path d="M3592,5928 l1575,0 l0,788 l-1575,0 z" fill="#7f00ff" stroke="black" stroke-width="5"/>
<path d="M3756,7751 l1021,0 l0,511 l-1021,0 z" fill="#7f00ff" stroke="black" stroke-width="5"/>
<path d="M4358,4359 l697,0 l0,349 l-697,0 z" fill="#7f00ff" stroke="black" stroke-width="5"/>
<path d="M151,9126 l813,0 l0,407 l-813,0 z" fill="#7f00ff" stroke="black" stroke-width="5"/>
<path d="M7784,8982 l617,0 l0,309 l-617,0 z" fill="#7f00ff" stroke="black" stroke-width="5"/>
<path d="M5055,7639 l1839,0 l0,920 l-1839,0 z" fill="#7f00ff" stroke="black" stroke-width="5"/>
<path d="M6057,6768 l889,0 l0,445 l-889,0 z" fill="#8000ff" stroke="black" stroke-width="5"/>
<path d="M1673,2309 l1037,0 l0,519 l-1037,0 z" fill="#7f00ff" stroke="black" stroke-width="5"/>
<path d="M7949,7602 l175,0 l0,88 l-175,0 z" fill="#7e00ff" stroke="black" stroke-width="5"/>
<path d="M4099,3268 l1309,0 l0,655 l-1309,0 z" fill="#7f00ff" stroke="black" stroke-width="5"/>
<path d="M6326,6691 l527,0 l0,264 l-527,0 z" fill="#7f00ff" stroke="black" stroke-width="5"/>
<path d="M5772,831 l981,0 l0,491 l-981,0 z" fill="#7f00ff" stroke="black" stroke-width="5"/>
<path d="M3003,3299 l1599,0 l0,800 l-1599,0 z" fill="#7f00ff" stroke="black" stroke-width="5"/>
<path d="M2081,7209 l271,0 l0,136 l-271,0 z" fill="#8000ff" stroke="black" stroke-width="5"/>
<path d="M9156,4796 l323,0 l0,162 l-323,0 z" fill="#7f00ff" stroke="black" stroke-width="5"/>
<path d="M8709,5027 l353,0 l0,177 l-353,0 z" fill="#8000ff" stroke="black" stroke-width="5"/>
<path d="M5485,4676 l829,0 l0,415 l-829,0 z" fill="#7f00ff" stroke="black" stroke-width="5"/>
<path d="M1668,3559 l1327,0 l0,664 l-1327,0 z" fill="#7f00ff" stroke="black" stroke-width="5"/>
<path d="M7388,1584 l1133,0 l0,567 l-1133,0 z" fill="#7f00ff" stroke="black" stroke-width="5"/>
<path d="M300,1991 l423,0 l0,212 l-423,0 z" fill="#8000ff" stroke="black" stroke-width="5"/>
<path d="M561,8401 l581,0 l0,291 l-581,0 z" fill="#8000ff" stroke="black" stroke-width="5"/>
<path d="M1892,1725 l1145,0 l0,573 l-1145,0 z" fill="#7f00ff" stroke="black" stroke-width="5"/>
<path d="M6273,1771 l371,0 l0,186 l-371,0 z" fill="#7f00ff" stroke="black" stroke-width="5"/>
<path d="M1420,3561 l733,0 l0,367 l-733,0 z" fill="#8000ff" stroke="black" stroke-width="5"/>
<path d="M9246,5292 l754,0 l0,336 l-754,0 z" fill="#0800ff" stroke="black" stroke-width="5"/>
<path d="M2926,3722 l495,0 l0,248 l-495,0 z" fill="#7f00ff" stroke="black" stroke-width="5"/>
<path d="M5653,638 l557,0 l0,279 l-557,0 z" fill="#7f00ff" stroke="black" stroke-width="5"/>
<path d="M0,8220 l223,0 l0,164 l-223,0 z" fill="#4200ff" stroke="black" stroke-width="5"/>
<path d="M4147,3739 l339,0 l0,170 l-339,0 z" fill="#7f00ff" stroke="black" stroke-width="5"/>
<path d="M2117,8331 l691,0 l0,346 l-691,0 z" fill="#7f00ff" stroke="black" stroke-width="5"/>
<path d="M6816,1146 l1483,0 l0,742 l-1483,0 z" fill="#7f00ff" stroke="black" stroke-width="5"/>
<path d="M8958,4786 l547,0 l0,274 l-547,0 z" fill="#7f00ff" stroke="black" stroke-width="5"/>
<path d="M8432,5447 l265,0 l0,133 l-265,0 z" fill="#8000ff" stroke="black" stroke-width="5"/>
<path d="M9663,804 l337,0 l0,315 l-337,0 z" fill="#2a00ff" stroke="black" stroke-width="5"/>
<path d="M2542,8167 l665,0 l0,333 l-665,0 z" fill="#7f00ff" stroke="black" stroke-width="5"/>
<path d="M756,9149 l539,0 l0,270 l-539,0 z" fill="#7f00ff" stroke="black" stroke-width="5"/>
<path d="M5350,8202 l653,0 l0,327 l-653,0 z" fill="#7f00ff" stroke="black" stroke-width="5"/>
<path d="M9808,1016 l192,0 l0,145 l-192,0 z" fill="#4000ff" stroke="black" stroke-width="5"/>
<path d="M2524,3190 l1029,0 l0,515 l-1029,0 z" fill="#7f00ff" stroke="black" stroke-width="5"/>
<path d="M6586,420 l733,0 l0,367 l-733,0 z" fill="#7f00ff" stroke="black" stroke-width="5"/>
<path d="M3437,5590 l1073,0 l0,537 l-1073,0 z" fill="#7f00ff" stroke="black" stroke-width="5"/>
<path d="M7783,6344 l307,0 l0,154 l-307,0 z" fill="#8000ff" stroke="black" stroke-width="5"/>
<path d="M2814,3397 l991,0 l0,496 l-991,0 z" fill="#7f00ff" stroke="black" stroke-width="5"/>
<path d="M8904,6912 l579,0 l0,290 l-579,0 z" fill="#7f00ff" stroke="black" stroke-width="5"/>
<path d="M7372,5290 l905,0 l0,453 l-905,0 z" fill="#8000ff" stroke="black" stroke-width="5"/>
<path d="M2944,6072 l285,0 l0,143 l-285,0 z" fill="#8100ff" stroke="black" stroke-width="5"/>
<path d="M2353,3082 l1279,0 l0,640 l-1279,0 z" fill="#7f00ff" stroke="black" stroke-width="5"/>
<path d="M6751,294 l1323,0 l0,662 l-1323,0 z" fill="#7f00ff" stroke="black" stroke-width="5"/>
<path d="M9803,46 l93,0 l0,47 l-93,0 z" fill="#8600ff" stroke="black" stroke-width="5"/>
<path d="M6246,4905 l583,0 l0,292 l-583,0 z" fill="#7f00ff" stroke="black" stroke-width="5"/>
<path d="M6369,3444 l521,0 l0,261 l-521,0 z" fill="#8000ff" stroke="black" stroke-width="5"/>
<path d="M139,3084 l1343,0 l0,672 l-1343,0 z" fill="#7f00ff" stroke="black" stroke-width="5"/>
<path d="M2403,1959 l665,0 l0,333 l-665,0 z" fill="#7f00ff" stroke="black" stroke-width="5"/>
<path d="M8787,8600 l481,0 l0,241 l-481,0 z" fill="#7f00ff" stroke="black" stroke-width="5"/>
<path d="M2241,4454 l775,0 l0,388 l-775,0 z" fill="#8000ff" stroke="black" stroke-width="5"/>
<path d="M7830,8594 l1129,0 l0,565 l-1129,0 z" fill="#7f00ff" stroke="black" stroke-width="5"/>
<path d="M1948,1622 l981,0 l0,491 l-981,0 z" fill="#7f00ff" stroke="black" stroke-width="5"/>
<path d="M5479,3265 l1175,0 l0,588 l-1175,0 z" fill="#7f00ff" stroke="black" stroke-width="5"/>
<path d="M2173,8255 l1013,0 l0,507 l-1013,0 z" fill="#7f00ff" stroke="black" stroke-width="5"/>
<path d="M8925,8200 l1075,0 l0,116 l-1075,0 z" fill="#0100ff" stroke="black" stroke-width="5"/>
<path d="M6858,9004 l1279,0 l0,640 l-1279,0 z" fill="#7f00ff" stroke="black" stroke-width="5"/>
<path d="M2857,6858 l259,0 l0,130 l-259,0 z" fill="#8100ff" stroke="black" stroke-width="5"/>
<path d="M1744,6445 l677,0 l0,339 l-677,0 z" fill="#7f00ff" stroke="black" stroke-width="5"/>
<path d="M9635,2115 l365,0 l0,270 l-365,0 z" fill="#4100ff" stroke="black" stroke-width="5"/>
<path d="M8792,3379 l641,0 l0,321 l-641,0 z" fill="#8000ff" stroke="black" stroke-width="5"/>
<path d="M8623,8610 l1109,0 l0,210 l-1109,0 z" fill="#1500ff" stroke="black" stroke-width="5"/>
<path d="M1542,16 l1727,0 l0,864 l-1727,0 z" fill="#7f00ff" stroke="black" stroke-width="5"/>
<path d="M8150,2229 l1761,0 l0,881 l-1761,0 z" fill="#7f00ff" stroke="black" stroke-width="5"/>
<path d="M0,2676 l1258,0 l0,652 l-1258,0 z" fill="#7800ff" stroke="black" stroke-width="5"/>
<path d="M9437,2091 l563,0 l0,314 l-563,0 z" fill="#6b00ff" stroke="black" stroke-width="5"/>
<path d="M1023,2272 l445,0 l0,223 l-445,0 z" fill="#7f00ff" stroke="black" stroke-width="5"/>
<path d="M6542,2401 l863,0 l0,432 l-863,0 z" fill="#7f00ff" stroke="black" stroke-width="5"/>
<path d="M8449,2711 l1043,0 l0,522 l-1043,0 z" fill="#7f00ff" stroke="black" stroke-width="5"/>
<path d="M4798,3781 l71,0 l0,36 l-71,0 z" fill="#8200ff" stroke="black" stroke-width="5"/>
<path d="M7375,5621 l831,0 l0,416 l-831,0 z" fill="#7f00ff" stroke="black" stroke-width="5"/>
<path d="M5077,8380 l1141,0 l0,571 l-1141,0 z" fill="#7f00ff" stroke="black" stroke-width="5"/>
<path d="M0,642 l571,0 l0,432 l-571,0 z" fill="#3f00ff" stroke="black" stroke-width="5"/>
<path d="M0,3476 l400,0 l0,359 l-400,0 z" fill="#2d00ff" stroke="black" stroke-width="5"/>
<path d="M2340,46 l675,0 l0,338 l-675,0 z" fill="#7f00ff" stroke="black" stroke-width="5"/>
<path d="M6287,1500 l60,0 l0,60 l-60,0 z" fill="green"/>
<path d="M6317,1530 l0.5,-238" stroke="black" stroke-width="5"/>
<path d="M379,5437 l60,0 l0,60 l-60,0 z" fill="green"/>
<path d="M409,5467 l167,-370.5" stroke="black" stroke-width="5"/>
<path d="M7821,1789 l60,0 l0,60 l-60,0 z" fill="green"/>
<path d="M7851,1819 l0.5,-89" stroke="black" stroke-width="5"/>
<path d="M6302,2004 l60,0 l0,60 l-60,0 z" fill="green"/>
<path d="M6332,2034 l0.5,-411.5" stroke="black" stroke-width="5"/>
<path d="M4375,752 l60,0 l0,60 l-60,0 z" fill="green"/>
<path d="M4405,782 l0.5,-105" stroke="black" stroke-width="5"/>
<path d="M5495,6174 l60,0 l0,60 l-60,0 z" fill="green"/>
<path d="M5525,6204 l0.5,-292" stroke="black" stroke-width="5"/>
<path d="M8770,5610 l60,0 l0,60 l-60,0 z" fill="green"/>
<path d="M8800,5640 l0.5,-105" stroke="black" stroke-width="5"/>
<path d="M8830,4009 l60,0 l0,60 l-60,0 z" fill="green"/>
<path d="M8860,4039 l0.5,-187" stroke="black" stroke-width="5"/>
<path d="M3485,8341 l60,0 l0,60 l-60,0 z" fill="green"/>
<path d="M3515,8371 l0.5,-72" stroke="black" stroke-width="5"/>
<path d="M656,8318 l60,0 l0,60 l-60,0 z" fill="green"/>
<path d="M686,8348 l0.5,-267.5" stroke="black" stroke-width="5"/>
<path d="M5866,1077 l60,0 l0,60 l-60,0 z" fill="green"/>
<path d="M5896,1107 l0.5,-133" stroke="black" stroke-width="5"/>
<path d="M3825,6637 l60,0 l0,60 l-60,0 z" fill="green"/>
<path d="M3855,6667 l0.5,-75" stroke="black" stroke-width="5"/>
<path d="M4088,7020 l60,0 l0,60 l-60,0 z" fill="green"/>
<path d="M4118,7050 l0.5,-140" stroke="black" stroke-width="5"/>
<path d="M9875,5936 l60,0 l0,60 l-60,0 z" fill="green"/>
<path d="M9905,5966 l-189.5,-236.5" stroke="black" stroke-width="5"/>
<path d="M449,9349 l60,0 l0,60 l-60,0 z" fill="green"/>
<path d="M479,9379 l97,-335.5" stroke="black" stroke-width="5"/>
<path d="M7125,5706 l60,0 l0,60 l-60,0 z" fill="green"/>
<path d="M7155,5736 l0.5,-161.5" stroke="black" stroke-width="5"/>
<path d="M6335,3766 l60,0 l0,60 l-60,0 z" fill="green"/>
<path d="M6365,3796 l0.5,-50" stroke="black" stroke-width="5"/>
<path d="M1541,5515 l60,0 l0,60 l-60,0 z" fill="green"/>
<path d="M1571,5545 l0.5,-116.5" stroke="black" stroke-width="5"/>
<path d="M7566,5072 l60,0 l0,60 l-60,0 z" fill="green"/>
<path d="M7596,5102 l0.5,-161.5" stroke="black" stroke-width="5"/>
<path d="M3379,6121 l60,0 l0,60 l-60,0 z" fill="green"/>
<path d="M3409,6151 l0.5,-315.5" stroke="black" stroke-width="5"/>
<path d="M6823,3632 l60,0 l0,60 l-60,0 z" fill="green"/>
<path d="M6853,3662 l0.5,-205" stroke="black" stroke-width="5"/>
<path d="M2759,8569 l60,0 l0,60 l-60,0 z" fill="green"/>
<path d="M2789,8599 l0.5,-265.5" stroke="black" stroke-width="5"/>
<path d="M6574,1140 l60,0 l0,60 l-60,0 z" fill="green"/>
<path d="M6604,1170 l0.5,381" stroke="black" stroke-width="5"/>
<path d="M8827,6828 l60,0 l0,60 l-60,0 z" fill="green"/>
<path d="M8857,6858 l0.5,-146.5" stroke="black" stroke-width="5"/>
<path d="M7193,5026 l60,0 l0,60 l-60,0 z" fill="green"/>
<path d="M7223,5056 l0.5,-209.5" stroke="black" stroke-width="5"/>
<path d="M5556,5035 l60,0 l0,60 l-60,0 z" fill="green"/>
<path d="M5586,5065 l0.5,-28.5" stroke="black" stroke-width="5"/>
<path d="M4301,9325 l60,0 l0,60 l-60,0 z" fill="green"/>
<path d="M4331,9355 l0.5,-440" stroke="black" stroke-width="5"/>
<path d="M1014,3306 l60,0 l0,60 l-60,0 z" fill="green"/>
<path d="M1044,3336 l0.5,-180" stroke="black" stroke-width="5"/>
<path d="M2531,6815 l60,0 l0,60 l-60,0 z" fill="green"/>
<path d="M2561,6845 l0.5,-272.5" stroke="black" stroke-width="5"/>
<path d="M6215,199 l60,0 l0,60 l-60,0 z" fill="green"/>
<path d="M6245,229 l0.5,215.5" stroke="black" stroke-width="5"/>
<path d="M8741,1979 l60,0 l0,60 l-60,0 z" fill="green"/>
<path d="M8771,2009 l0.5,297.5" stroke="black" stroke-width="5"/>
<path d="M5705,5428 l60,0 l0,60 l-60,0 z" fill="green"/>
<path d="M5735,5458 l0.5,-128" stroke="black" stroke-width="5"/>
<path d="M8013,3580 l60,0 l0,60 l-60,0 z" fill="green"/>
<path d="M8043,3610 l0.5,-226" stroke="black" stroke-width="5"/>
<path d="M3837,3627 l60,0 l0,60 l-60,0 z" fill="green"/>
<path d="M3867,3657 l0.5,-171.5" stroke="black" stroke-width="5"/>
<path d="M5571,6791 l60,0 l0,60 l-60,0 z" fill="green"/>
<path d="M5601,6821 l0.5,-79" stroke="black" stroke-width="5"/>
<path d="M2439,1603 l60,0 l0,60 l-60,0 z" fill="green"/>
<path d="M2469,1633 l0.5,223" stroke="black" stroke-width="5"/>
<path d="M2365,3792 l60,0 l0,60 l-60,0 z" fill="green"/>
<path d="M2395,3822 l0.5,-87" stroke="black" stroke-width="5"/>
<path d="M5509,1933 l60,0 l0,60 l-60,0 z" fill="green"/>
<path d="M5539,1963 l0.5,255.5" stroke="black" stroke-width="5"/>
<path d="M5363,1698 l60,0 l0,60 l-60,0 z" fill="green"/>
<path d="M5393,1728 l0.5,102" stroke="black" stroke-width="5"/>
<path d="M4349,6685 l60,0 l0,60 l-60,0 z" fill="green"/>
<path d="M4379,6715 l0.5,-393" stroke="black" stroke-width="5"/>
<path d="M4236,8231 l60,0 l0,60 l-60,0 z" fill="green"/>
<path d="M4266,8261 l0.5,-254.5" stroke="black" stroke-width="5"/>
<path d="M4676,4677 l60,0 l0,60 l-60,0 z" fill="green"/>
<path d="M4706,4707 l0.5,-173.5" stroke="black" stroke-width="5"/>
<path d="M527,9502 l60,0 l0,60 l-60,0 z" fill="green"/>
<path d="M557,9532 l0.5,-202.5" stroke="black" stroke-width="5"/>
<path d="M8062,9260 l60,0 l0,60 l-60,0 z" fill="green"/>
<path d="M8092,9290 l0.5,-153.5" stroke="black" stroke-width="5"/>
<path d="M5944,8528 l60,0 l0,60 l-60,0 z" fill="green"/>
<path d="M5974,8558 l0.5,-459" stroke="black" stroke-width="5"/>
<path d="M6471,7182 l60,0 l0,60 l-60,0 z" fill="green"/>
<path d="M6501,7212 l0.5,-221.5" stroke="black" stroke-width="5"/>
<path d="M2161,2279 l60,0 l0,60 l-60,0 z" fill="green"/>
<path d="M2191,2309 l0.5,259.5" stroke="black" stroke-width="5"/>
<path d="M8006,7659 l60,0 l0,60 l-60,0 z" fill="green"/>
<path d="M8036,7689 l0.5,-43" stroke="black" stroke-width="5"/>
<path d="M4723,3238 l60,0 l0,60 l-60,0 z" fill="green"/>
<path d="M4753,3268 l0.5,327.5" stroke="black" stroke-width="5"/>
<path d="M6559,6924 l60,0 l0,60 l-60,0 z" fill="green"/>
<path d="M6589,6954 l0.5,-131" stroke="black" stroke-width="5"/>
<path d="M6232,801 l60,0 l0,60 l-60,0 z" fill="green"/>
<path d="M6262,831 l0.5,245.5" stroke="black" stroke-width="5"/>
<path d="M3772,3269 l60,0 l0,60 l-60,0 z" fill="green"/>
<path d="M3802,3299 l0.5,400" stroke="black" stroke-width="5"/>
<path d="M2186,7314 l60,0 l0,60 l-60,0 z" fill="green"/>
<path d="M2216,7344 l0.5,-67" stroke="black" stroke-width="5"/>
<path d="M9287,4927 l60,0 l0,60 l-60,0 z" fill="green"/>
<path d="M9317,4957 l0.5,-80" stroke="black" stroke-width="5"/>
<path d="M8855,5173 l60,0 l0,60 l-60,0 z" fill="green"/>
<path d="M8885,5203 l0.5,-87.5" stroke="black" stroke-width="5"/>
<path d="M5869,5060 l60,0 l0,60 l-60,0 z" fill="green"/>
<path d="M5899,5090 l0.5,-206.5" stroke="black" stroke-width="5"/>
<path d="M2301,3529 l60,0 l0,60 l-60,0 z" fill="green"/>
<path d="M2331,3559 l0.5,332" stroke="black" stroke-width="5"/>
<path d="M7924,1554 l60,0 l0,60 l-60,0 z" fill="green"/>
<path d="M7954,1584 l0.5,283.5" stroke="black" stroke-width="5"/>
<path d="M481,1961 l60,0 l0,60 l-60,0 z" fill="green"/>
<path d="M511,1991 l0.5,106" stroke="black" stroke-width="5"/>
<path d="M821,8661 l60,0 l0,60 l-60,0 z" fill="green"/>
<path d="M851,8691 l0.5,-144.5" stroke="black" stroke-width="5"/>
<path d="M2434,1695 l60,0 l0,60 l-60,0 z" fill="green"/>
<path d="M2464,1725 l0.5,286.5" stroke="black" stroke-width="5"/>
<path d="M6428,1741 l60,0 l0,60 l-60,0 z" fill="green"/>
<path d="M6458,1771 l0.5,93" stroke="black" stroke-width="5"/>
<path d="M1756,3531 l60,0 l0,60 l-60,0 z" fill="green"/>
<path d="M1786,3561 l0.5,183.5" stroke="black" stroke-width="5"/>
<path d="M9949,5597 l60,0 l0,60 l-60,0 z" fill="green"/>
<path d="M9979,5627 l-356,-167" stroke="black" stroke-width="5"/>
<path d="M3143,3692 l60,0 l0,60 l-60,0 z" fill="green"/>
<path d="M3173,3722 l0.5,124" stroke="black" stroke-width="5"/>
<path d="M5901,608 l60,0 l0,60 l-60,0 z" fill="green"/>
<path d="M5931,638 l0.5,139.5" stroke="black" stroke-width="5"/>
<path d="M29,8353 l60,0 l0,60 l-60,0 z" fill="green"/>
<path d="M59,8383 l52.5,-81" stroke="black" stroke-width="5"/>
<path d="M4286,3709 l60,0 l0,60 l-60,0 z" fill="green"/>
<path d="M4316,3739 l0.5,85" stroke="black" stroke-width="5"/>
<path d="M2432,8646 l60,0 l0,60 l-60,0 z" fill="green"/>
<path d="M2462,8676 l0.5,-172" stroke="black" stroke-width="5"/>
<path d="M7527,1116 l60,0 l0,60 l-60,0 z" fill="green"/>
<path d="M7557,1146 l0.5,371" stroke="black" stroke-width="5"/>
<path d="M9201,4756 l60,0 l0,60 l-60,0 z" fill="green"/>
<path d="M9231,4786 l0.5,137" stroke="black" stroke-width="5"/>
<path d="M8534,5417 l60,0 l0,60 l-60,0 z" fill="green"/>
<path d="M8564,5447 l0.5,66.5" stroke="black" stroke-width="5"/>
<path d="M9947,774 l60,0 l0,60 l-60,0 z" fill="green"/>
<path d="M9977,804 l-145.5,157.5" stroke="black" stroke-width="5"/>
<path d="M2844,8469 l60,0 l0,60 l-60,0 z" fill="green"/>
<path d="M2874,8499 l0.5,-165.5" stroke="black" stroke-width="5"/>
<path d="M995,9388 l60,0 l0,60 l-60,0 z" fill="green"/>
<path d="M1025,9418 l0.5,-134" stroke="black" stroke-width="5"/>
<path d="M5646,8498 l60,0 l0,60 l-60,0 z" fill="green"/>
<path d="M5676,8528 l0.5,-162.5" stroke="black" stroke-width="5"/>
<path d="M9922,986 l60,0 l0,60 l-60,0 z" fill="green"/>
<path d="M9952,1016 l-48,72.5" stroke="black" stroke-width="5"/>
<path d="M3008,3160 l60,0 l0,60 l-60,0 z" fill="green"/>
<path d="M3038,3190 l0.5,257.5" stroke="black" stroke-width="5"/>
<path d="M6922,390 l60,0 l0,60 l-60,0 z" fill="green"/>
<path d="M6952,420 l0.5,183.5" stroke="black" stroke-width="5"/>
<path d="M3943,5560 l60,0 l0,60 l-60,0 z" fill="green"/>
<path d="M3973,5590 l0.5,268.5" stroke="black" stroke-width="5"/>
<path d="M7906,6314 l60,0 l0,60 l-60,0 z" fill="green"/>
<path d="M7936,6344 l0.5,77" stroke="black" stroke-width="5"/>
<path d="M3279,3367 l60,0 l0,60 l-60,0 z" fill="green"/>
<path d="M3309,3397 l0.5,248" stroke="black" stroke-width="5"/>
<path d="M9163,7171 l60,0 l0,60 l-60,0 z" fill="green"/>
<path d="M9193,7201 l0.5,-144" stroke="black" stroke-width="5"/>
<path d="M7794,5260 l60,0 l0,60 l-60,0 z" fill="green"/>
<path d="M7824,5290 l0.5,226.5" stroke="black" stroke-width="5"/>
<path d="M3056,6042 l60,0 l0,60 l-60,0 z" fill="green"/>
<path d="M3086,6072 l0.5,71.5" stroke="black" stroke-width="5"/>
<path d="M2962,3052 l60,0 l0,60 l-60,0 z" fill="green"/>
<path d="M2992,3082 l0.5,320" stroke="black" stroke-width="5"/>
<path d="M7382,264 l60,0 l0,60 l-60,0 z" fill="green"/>
<path d="M7412,294 l0.5,331" stroke="black" stroke-width="5"/>
<path d="M9819,16 l60,0 l0,60 l-60,0 z" fill="green"/>
<path d="M9849,46 l0.5,23.5" stroke="black" stroke-width="5"/>
<path d="M6507,4875 l60,0 l0,60 l-60,0 z" fill="green"/>
<path d="M6537,4905 l0.5,146" stroke="black" stroke-width="5"/>
<path d="M6599,3414 l60,0 l0,60 l-60,0 z" fill="green"/>
<path d="M6629,3444 l0.5,130.5" stroke="black" stroke-width="5"/>
<path d="M780,3054 l60,0 l0,60 l-60,0 z" fill="green"/>
<path d="M810,3084 l0.5,336" stroke="black" stroke-width="5"/>
<path d="M2705,1929 l60,0 l0,60 l-60,0 z" fill="green"/>
<path d="M2735,1959 l0.5,166.5" stroke="black" stroke-width="5"/>
<path d="M8997,8810 l60,0 l0,60 l-60,0 z" fill="green"/>
<path d="M9027,8840 l0.5,-119.5" stroke="black" stroke-width="5"/>
<path d="M2598,4424 l60,0 l0,60 l-60,0 z" fill="green"/>
<path d="M2628,4454 l0.5,194" stroke="black" stroke-width="5"/>
<path d="M8364,9128 l60,0 l0,60 l-60,0 z" fill="green"/>
<path d="M8394,9158 l0.5,-281.5" stroke="black" stroke-width="5"/>
<path d="M2408,1592 l60,0 l0,60 l-60,0 z" fill="green"/>
<path d="M2438,1622 l0.5,245.5" stroke="black" stroke-width="5"/>
<path d="M6036,3235 l60,0 l0,60 l-60,0 z" fill="green"/>
<path d="M6066,3265 l0.5,294" stroke="black" stroke-width="5"/>
<path d="M2649,8731 l60,0 l0,60 l-60,0 z" fill="green"/>
<path d="M2679,8761 l0.5,-252.5" stroke="black" stroke-width="5"/>
<path d="M9642,8170 l60,0 l0,60 l-60,0 z" fill="green"/>
<path d="M9672,8200 l-209.5,58" stroke="black" stroke-width="5"/>
<path d="M7467,9613 l60,0 l0,60 l-60,0 z" fill="green"/>
<path d="M7497,9643 l0.5,-319" stroke="black" stroke-width="5"/>
<path d="M2956,6828 l60,0 l0,60 l-60,0 z" fill="green"/>
<path d="M2986,6858 l0.5,65" stroke="black" stroke-width="5"/>
<path d="M2052,6415 l60,0 l0,60 l-60,0 z" fill="green"/>
<path d="M2082,6445 l0.5,169.5" stroke="black" stroke-width="5"/>
<path d="M9874,2085 l60,0 l0,60 l-60,0 z" fill="green"/>
<path d="M9904,2115 l-86.5,135" stroke="black" stroke-width="5"/>
<path d="M9082,3349 l60,0 l0,60 l-60,0 z" fill="green"/>
<path d="M9112,3379 l0.5,160.5" stroke="black" stroke-width="5"/>
<path d="M9147,8580 l60,0 l0,60 l-60,0 z" fill="green"/>
<path d="M9177,8610 l0.5,105" stroke="black" stroke-width="5"/>
<path d="M2375,-14 l60,0 l0,60 l-60,0 z" fill="green"/>
<path d="M2405,16 l0.5,432" stroke="black" stroke-width="5"/>
<path d="M9000,2199 l60,0 l0,60 l-60,0 z" fill="green"/>
<path d="M9030,2229 l0.5,440.5" stroke="black" stroke-width="5"/>
<path d="M576,2646 l60,0 l0,60 l-60,0 z" fill="green"/>
<path d="M606,2676 l23,326" stroke="black" stroke-width="5"/>
<path d="M9720,2061 l60,0 l0,60 l-60,0 z" fill="green"/>
<path d="M9750,2091 l-31.5,157" stroke="black" stroke-width="5"/>
<path d="M1215,2242 l60,0 l0,60 l-60,0 z" fill="green"/>
<path d="M1245,2272 l0.5,111.5" stroke="black" stroke-width="5"/>
<path d="M6943,2371 l60,0 l0,60 l-60,0 z" fill="green"/>
<path d="M6973,2401 l0.5,216" stroke="black" stroke-width="5"/>
<path d="M8940,2681 l60,0 l0,60 l-60,0 z" fill="green"/>
<path d="M8970,2711 l0.5,261" stroke="black" stroke-width="5"/>
<path d="M4803,3751 l60,0 l0,60 l-60,0 z" fill="green"/>
<path d="M4833,3781 l0.5,18" stroke="black" stroke-width="5"/>
<path d="M7760,5591 l60,0 l0,60 l-60,0 z" fill="green"/>
<path d="M7790,5621 l0.5,208" stroke="black" stroke-width="5"/>
<path d="M5617,8350 l60,0 l0,60 l-60,0 z" fill="green"/>
<path d="M5647,8380 l0.5,285.5" stroke="black" stroke-width="5"/>
<path d="M109,612 l60,0 l0,60 l-60,0 z" fill="green"/>
<path d="M139,642 l146.5,216" stroke="black" stroke-width="5"/>
<path d="M11,3446 l60,0 l0,60 l-60,0 z" fill="green"/>
<path d="M41,3476 l159,179.5" stroke="black" stroke-width="5"/>
<path d="M2647,16 l60,0 l0,60 l-60,0 z" fill="green"/>
<path d="M2677,46 l0.5,169" stroke="black" stroke-width="5"/>
<text font-size="130.18891098082386" text-anchor="middle" x="6317.5" y="1337.5661188432885">
0
</text>
<text font-size="130.18891098082386" text-anchor="middle" x="576" y="5142.066118843289">
1
</text>
<text font-size="130.18891098082386" text-anchor="middle" x="7851.5" y="1775.5661188432885">
2
</text>
<text font-size="130.18891098082386" text-anchor="middle" x="6332.5" y="1668.0661188432885">
3
</text>
<text font-size="130.18891098082386" text-anchor="middle" x="4405.5" y="722.5661188432883">
4
</text>
<text font-size="130.18891098082386" text-anchor="middle" x="5525.5" y="5957.566118843289">
5
</text>
<text font-size="130.18891098082386" text-anchor="middle" x="8800.5" y="5580.566118843289">
6
</text>
<text font-size="130.18891098082386" text-anchor="middle" x="8860.5" y="3897.566118843288">
7
</text>
<text font-size="130.18891098082386" text-anchor="middle" x="3515.5" y="8344.566118843288">
8
</text>
<text font-size="130.18891098082386" text-anchor="middle" x="686.5" y="8126.066118843289">
9
</text>
<text font-size="130.18891098082386" text-anchor="middle" x="5896.5" y="1019.5661188432883">
10
</text>
<text font-size="130.18891098082386" text-anchor="middle" x="3855.5" y="6637.566118843289">
11
</text>
<text font-size="130.18891098082386" text-anchor="middle" x="4118.5" y="6955.566118843289">
12
</text>
<text font-size="130.18891098082386" text-anchor="middle" x="9715.5" y="5775.066118843289">
13
</text>
<text font-size="130.18891098082386" text-anchor="middle" x="576" y="9089.066118843288">
14
</text>
<text font-size="130.18891098082386" text-anchor="middle" x="7155.5" y="5620.066118843289">
15
</text>
<text font-size="130.18891098082386" text-anchor="middle" x="6365.5" y="3791.566118843288">
16
</text>
<text font-size="130.18891098082386" text-anchor="middle" x="1571.5" y="5474.066118843289">
17
</text>
<text font-size="130.18891098082386" text-anchor="middle" x="7596.5" y="4986.066118843289">
18
</text>
<text font-size="130.18891098082386" text-anchor="middle" x="3409.5" y="5881.066118843289">
19
</text>
<text font-size="130.18891098082386" text-anchor="middle" x="6853.5" y="3502.566118843288">
20
</text>
<text font-size="130.18891098082386" text-anchor="middle" x="2789.5" y="8379.066118843288">
21
</text>
<text font-size="130.18891098082386" text-anchor="middle" x="6604.5" y="1596.5661188432885">
22
</text>
<text font-size="130.18891098082386" text-anchor="middle" x="8857.5" y="6757.066118843289">
23
</text>
<text font-size="130.18891098082386" text-anchor="middle" x="7223.5" y="4892.066118843289">
24
</text>
<text font-size="130.18891098082386" text-anchor="middle" x="5586.5" y="5082.066118843289">
25
</text>
<text font-size="130.18891098082386" text-anchor="middle" x="4331.5" y="8960.566118843288">
26
</text>
<text font-size="130.18891098082386" text-anchor="middle" x="1044.5" y="3201.566118843288">
27
</text>
<text font-size="130.18891098082386" text-anchor="middle" x="2561.5" y="6618.066118843289">
28
</text>
<text font-size="130.18891098082386" text-anchor="middle" x="6245.5" y="490.06611884328834">
29
</text>
<text font-size="130.18891098082386" text-anchor="middle" x="8771.5" y="2352.066118843288">
30
</text>
<text font-size="130.18891098082386" text-anchor="middle" x="5735.5" y="5375.566118843289">
31
</text>
<text font-size="130.18891098082386" text-anchor="middle" x="8043.5" y="3429.566118843288">
32
</text>
<text font-size="130.18891098082386" text-anchor="middle" x="3867.5" y="3531.066118843288">
33
</text>
<text font-size="130.18891098082386" text-anchor="middle" x="5601.5" y="6787.566118843289">
34
</text>
<text font-size="130.18891098082386" text-anchor="middle" x="2469.5" y="1901.5661188432885">
35
</text>
<text font-size="130.18891098082386" text-anchor="middle" x="2395.5" y="3780.566118843288">
36
</text>
<text font-size="130.18891098082386" text-anchor="middle" x="5539.5" y="2264.066118843288">
37
</text>
<text font-size="130.18891098082386" text-anchor="middle" x="5393.5" y="1875.5661188432885">
38
</text>
<text font-size="130.18891098082386" text-anchor="middle" x="4379.5" y="6367.566118843289">
39
</text>
<text font-size="130.18891098082386" text-anchor="middle" x="4266.5" y="8052.066118843289">
40
</text>
<text font-size="130.18891098082386" text-anchor="middle" x="4706.5" y="4579.066118843289">
41
</text>
<text font-size="130.18891098082386" text-anchor="middle" x="557.5" y="9375.066118843288">
42
</text>
<text font-size="130.18891098082386" text-anchor="middle" x="8092.5" y="9182.066118843288">
43
</text>
<text font-size="130.18891098082386" text-anchor="middle" x="5974.5" y="8144.566118843289">
44
</text>
<text font-size="130.18891098082386" text-anchor="middle" x="6501.5" y="7036.066118843289">
45
</text>
<text font-size="130.18891098082386" text-anchor="middle" x="2191.5" y="2614.066118843288">
46
</text>
<text font-size="130.18891098082386" text-anchor="middle" x="8036.5" y="7691.566118843289">
47
</text>
<text font-size="130.18891098082386" text-anchor="middle" x="4753.5" y="3641.066118843288">
48
</text>
<text font-size="130.18891098082386" text-anchor="middle" x="6589.5" y="6868.566118843289">
49
</text>
<text font-size="130.18891098082386" text-anchor="middle" x="6262.5" y="1122.0661188432885">
50
</text>
<text font-size="130.18891098082386" text-anchor="middle" x="3802.5" y="3744.566118843288">
51
</text>
<text font-size="130.18891098082386" text-anchor="middle" x="2216.5" y="7322.566118843289">
52
</text>
<text font-size="130.18891098082386" text-anchor="middle" x="9317.5" y="4922.566118843289">
53
</text>
<text font-size="130.18891098082386" text-anchor="middle" x="8885.5" y="5161.066118843289">
54
</text>
<text font-size="130.18891098082386" text-anchor="middle" x="5899.5" y="4929.066118843289">
55
</text>
<text font-size="130.18891098082386" text-anchor="middle" x="2331.5" y="3936.566118843288">
56
</text>
<text font-size="130.18891098082386" text-anchor="middle" x="7954.5" y="1913.0661188432885">
57
</text>
<text font-size="130.18891098082386" text-anchor="middle" x="511.5" y="2142.566118843288">
58
</text>
<text font-size="130.18891098082386" text-anchor="middle" x="851.5" y="8592.066118843288">
59
</text>
<text font-size="130.18891098082386" text-anchor="middle" x="2464.5" y="2057.066118843288">
60
</text>
<text font-size="130.18891098082386" text-anchor="middle" x="6458.5" y="1909.5661188432885">
61
</text>
<text font-size="130.18891098082386" text-anchor="middle" x="1786.5" y="3790.066118843288">
62
</text>
<text font-size="130.18891098082386" text-anchor="middle" x="9623" y="5505.566118843289">
63
</text>
<text font-size="130.18891098082386" text-anchor="middle" x="3173.5" y="3891.566118843288">
64
</text>
<text font-size="130.18891098082386" text-anchor="middle" x="5931.5" y="823.0661188432883">
65
</text>
<text font-size="130.18891098082386" text-anchor="middle" x="111.5" y="8347.566118843288">
66
</text>
<text font-size="130.18891098082386" text-anchor="middle" x="4316.5" y="3869.566118843288">
67
</text>
<text font-size="130.18891098082386" text-anchor="middle" x="2462.5" y="8549.566118843288">
68
</text>
<text font-size="130.18891098082386" text-anchor="middle" x="7557.5" y="1562.5661188432885">
69
</text>
<text font-size="130.18891098082386" text-anchor="middle" x="9231.5" y="4968.566118843289">
70
</text>
<text font-size="130.18891098082386" text-anchor="middle" x="8564.5" y="5559.066118843289">
71
</text>
<text font-size="130.18891098082386" text-anchor="middle" x="9831.5" y="1007.0661188432883">
72
</text>
<text font-size="130.18891098082386" text-anchor="middle" x="2874.5" y="8379.066118843288">
73
</text>
<text font-size="130.18891098082386" text-anchor="middle" x="1025.5" y="9329.566118843288">
74
</text>
<text font-size="130.18891098082386" text-anchor="middle" x="5676.5" y="8411.066118843288">
75
</text>
<text font-size="130.18891098082386" text-anchor="middle" x="9904" y="1134.0661188432885">
76
</text>
<text font-size="130.18891098082386" text-anchor="middle" x="3038.5" y="3493.066118843288">
77
</text>
<text font-size="130.18891098082386" text-anchor="middle" x="6952.5" y="649.0661188432883">
78
</text>
<text font-size="130.18891098082386" text-anchor="middle" x="3973.5" y="5904.066118843289">
79
</text>
<text font-size="130.18891098082386" text-anchor="middle" x="7936.5" y="6466.566118843289">
80
</text>
<text font-size="130.18891098082386" text-anchor="middle" x="3309.5" y="3690.566118843288">
81
</text>
<text font-size="130.18891098082386" text-anchor="middle" x="9193.5" y="7102.566118843289">
82
</text>
<text font-size="130.18891098082386" text-anchor="middle" x="7824.5" y="5562.066118843289">
83
</text>
<text font-size="130.18891098082386" text-anchor="middle" x="3086.5" y="6189.066118843289">
84
</text>
<text font-size="130.18891098082386" text-anchor="middle" x="2992.5" y="3447.566118843288">
85
</text>
<text font-size="130.18891098082386" text-anchor="middle" x="7412.5" y="670.5661188432883">
86
</text>
<text font-size="130.18891098082386" text-anchor="middle" x="9849.5" y="115.06611884328835">
87
</text>
<text font-size="130.18891098082386" text-anchor="middle" x="6537.5" y="5096.566118843289">
88
</text>
<text font-size="130.18891098082386" text-anchor="middle" x="6629.5" y="3620.066118843288">
89
</text>
<text font-size="130.18891098082386" text-anchor="middle" x="810.5" y="3465.566118843288">
90
</text>
<text font-size="130.18891098082386" text-anchor="middle" x="2735.5" y="2171.066118843288">
91
</text>
<text font-size="130.18891098082386" text-anchor="middle" x="9027.5" y="8766.066118843288">
92
</text>
<text font-size="130.18891098082386" text-anchor="middle" x="2628.5" y="4693.566118843289">
93
</text>
<text font-size="130.18891098082386" text-anchor="middle" x="8394.5" y="8922.066118843288">
94
</text>
<text font-size="130.18891098082386" text-anchor="middle" x="2438.5" y="1913.0661188432885">
95
</text>
<text font-size="130.18891098082386" text-anchor="middle" x="6066.5" y="3604.566118843288">
96
</text>
<text font-size="130.18891098082386" text-anchor="middle" x="2679.5" y="8554.066118843288">
97
</text>
<text font-size="130.18891098082386" text-anchor="middle" x="9462.5" y="8303.566118843288">
98
</text>
<text font-size="130.18891098082386" text-anchor="middle" x="7497.5" y="9369.566118843288">
99
</text>
<text font-size="130.18891098082386" text-anchor="middle" x="2986.5" y="6968.566118843289">
100
</text>
<text font-size="130.18891098082386" text-anchor="middle" x="2082.5" y="6660.066118843289">
101
</text>
<text font-size="130.18891098082386" text-anchor="middle" x="9817.5" y="2295.566118843288">
102
</text>
<text font-size="130.18891098082386" text-anchor="middle" x="9112.5" y="3585.066118843288">
103
</text>
<text font-size="130.18891098082386" text-anchor="middle" x="9177.5" y="8760.566118843288">
104
</text>
<text font-size="130.18891098082386" text-anchor="middle" x="2405.5" y="493.56611884328834">
105
</text>
<text font-size="130.18891098082386" text-anchor="middle" x="9030.5" y="2715.066118843288">
106
</text>
<text font-size="130.18891098082386" text-anchor="middle" x="629" y="3047.566118843288">
107
</text>
<text font-size="130.18891098082386" text-anchor="middle" x="9718.5" y="2293.566118843288">
108
</text>
<text font-size="130.18891098082386" text-anchor="middle" x="1245.5" y="2429.066118843288">
109
</text>
<text font-size="130.18891098082386" text-anchor="middle" x="6973.5" y="2662.566118843288">
110
</text>
<text font-size="130.18891098082386" text-anchor="middle" x="8970.5" y="3017.566118843288">
111
</text>
<text font-size="130.18891098082386" text-anchor="middle" x="4833.5" y="3844.566118843288">
112
</text>
<text font-size="130.18891098082386" text-anchor="middle" x="7790.5" y="5874.566118843289">
113
</text>
<text font-size="130.18891098082386" text-anchor="middle" x="5647.5" y="8711.066118843288">
114
</text>
<text font-size="130.18891098082386" text-anchor="middle" x="285.5" y="903.5661188432883">
115
</text>
<text font-size="130.18891098082386" text-anchor="middle" x="200" y="3701.066118843288">
116
</text>
<text font-size="130.18891098082386" text-anchor="middle" x="2677.5" y="260.56611884328834">
117
</text>
</svg>